<svg xmlns="http://www.w3.org/2000/svg" width="271" height="110.36"><defs><clipPath id="b"><path d="M0 0h1190.551v841.89H0V0z"/></clipPath><clipPath id="c"><path d="M0 0h1190.551v841.89H0V0z"/></clipPath><clipPath id="d"><path d="M0 0h1190.551v841.89H0V0z"/></clipPath><clipPath id="e"><path d="M0 0h1190.551v841.89H0V0z"/></clipPath><linearGradient x1="0" y1="0" x2="1" y2="0" id="a" gradientUnits="userSpaceOnUse" gradientTransform="matrix(40.90256 0 0 -40.90256 535.314 123.265)" spreadMethod="pad"><stop offset="0" stop-color="#636466"/><stop offset=".612" stop-color="#e6e7e8"/><stop offset="1" stop-color="#636466"/></linearGradient></defs><path d="M252.435 22.4v54.707l-47.707-27.866L252.435 22.4z" fill="#ed1d24"/><path d="M352.667 481.725L360 477.45l26.273 14.832v-30.167l7.296-4.262v46.923l-40.902-23.051z" fill="url(#a)" transform="matrix(1.25 0 0 -1.25 -228.31 634.128)"/><g clip-path="url(#b)" transform="matrix(1.25 0 0 -1.25 -228.31 634.128)" fill="#4d4d4d"><path d="M198.766 462.955l5.495 11.354 5.21-11.354h-10.705zm12.05-2.965c1.577-3.265 2.808-6.578 4.157-10.18 1.69.098 3.33.248 5.024.248 1.697 0 3.335-.15 5.034-.247l-16.322 33.846a17.524 17.524 0 00-4.448 0l-16.727-33.75c.939.054 1.865.15 2.805.15.935 0 1.816-.096 2.744-.15 1.116 3.365 2.58 6.38 4.095 10.083h13.639zM239.537 480.392h5.731c8.251 0 13.463-3.598 13.463-12.755 0-11.397-6.139-14.758-14.217-14.758h-4.977v27.513zm-8.772 2.83v-33.165h16.376c11.995 0 21.298 6.523 21.298 17.53 0 7.991-5.15 15.244-17.674 15.635h-20zM307.695 455.456l-1.284-4.188c-3.51-1.509-7.665-2.096-11.584-2.096-12.525 0-22.003 6.434-22.003 16.416 0 12.713 10.53 18.507 23.286 18.507 3.863 0 8.538-.824 11.938-2.386-.529-1.655-.878-3.312-1.345-5.01h-.82c-2.168 2.622-5.91 4.475-9.718 4.475-9.709 0-13.623-7.736-13.623-14.902 0-8.327 4.911-14.173 13.92-14.173 3.634 0 7.845 1.56 10.47 3.658l.763-.3zM323.726 480.392c1.168.152 2.042.198 2.98.198 3.859 0 6.255-1.898 6.255-5.405 0-1.9-.697-3.798-2.506-5.064-1.992-1.415-4.214-1.222-6.73-1.222v11.493zm-8.774-30.335h13.51c6.906 0 14.16 2.822 14.16 9.54 0 6.044-6.693 7.92-11.025 8.255 4.973.587 10.09 3.434 10.09 8.016 0 5.695-5.737 7.354-11.644 7.354h-15.091v-33.165zm8.774 16.018c6.258.391 9.829-1.463 9.829-6.816 0-4.043-3.691-6.38-6.904-6.38h-2.925v13.196z"/></g><path d="M193.078 6.572h-1.796v1.805h1.796V6.572zM134.696 6.572h-1.801v1.805h1.8V6.572zM75.95 6.572h-1.8v1.805h1.8V6.572zM79.187 6.572H77.39v1.805h1.797V6.572z" fill="#4d4d4d"/><g clip-path="url(#c)" transform="matrix(1.25 0 0 -1.25 -228.31 634.128)" fill="#4d4d4d"><path d="M327.587 502.567h-1.532c-.434 0-.917.24-.87.74.07 1.243 1.61 1.098 2.1.652l-.016.506s-.279.363-.909.393c-1.404.088-1.938-.692-1.984-1.394-.009-.284.046-.61.341-.897h-.974l-.014-.753h3.858v.753zM314.873 502.567h-1.53c-.436 0-.92.24-.874.74.075 1.243 1.615 1.098 2.098.652l-.013.506s-.275.363-.905.393c-1.413.088-1.936-.692-1.983-1.394-.007-.284.047-.61.336-.897h-.975l-.01-.753h3.857v.753z"/></g><path d="M118.59 21.928h1.858v-1.801h-1.858v1.801zM100.546 21.928h1.8v-1.801h-1.8v1.801zM68.37 21.928h1.803v-1.801h-1.802v1.801zM103.79 21.928h1.796v-1.801h-1.796v1.801zM33.628 21.928h1.802v-1.801h-1.802v1.801zM36.872 21.928h1.795v-1.801h-1.795v1.801zM196.935 21.928h1.795v-1.801h-1.795v1.801zM157.217 21.928h1.798v-1.801h-1.798v1.801zM162.157 17.776h1.875v-9.87h-1.875v9.87z" fill="#4d4d4d"/><g clip-path="url(#d)" transform="matrix(1.25 0 0 -1.25 -228.31 634.128)" fill="#4d4d4d"><path d="M295.467 496.224c0 1.51-.901 3.002-2.745 3.002h-6.103c-1.728 0-2.633-1.312-2.738-2.72v4.492h-1.461v-6.334h-3.41v4.58h-1.49v-4.58h-3.392v4.58h-2.932c-1.506 0-3.01-.92-3.01-2.754v-1.826h-5.65c-2.673-.026-4.934 2.588-4.393 5.283-1.455-2.578.374-6.848 3.926-6.871h7.626v2.968c0 1.039.68 1.596 1.517 1.596h1.409v-4.573h22.818l.028 3.157zm-1.586-1.56h-8.424v1.56c0 .838.555 1.52 1.604 1.52h5.22c1.045 0 1.603-.682 1.603-1.52l-.003-1.56zM221.612 495.565c0 1.47-.913 2.5-2.498 2.5h-2.899c.017.703.436 1.186 1.35 1.186h2.081l-.794 1.47h-1.72c-1.809 0-2.692-1.426-2.692-2.902v-1.303l4.674-.007a.937.937 0 00.932-.944.934.934 0 00-.932-.936h-10.193c-2.618-.03-4.84 2.535-4.311 5.177-1.424-2.525.367-6.72 3.854-6.742l9.149.003h1.501a2.506 2.506 0 012.498 2.498"/></g><path d="M85.975 17.798h1.823V7.906h-1.823v9.892z" fill="#4d4d4d"/><g clip-path="url(#e)" transform="matrix(1.25 0 0 -1.25 -228.31 634.128)" fill="#4d4d4d"><path d="M248.236 500.978v-6.311h-3.796v4.587h-1.458v-4.587h-3.957l.003.204c-.057 2.899-1.3 4.384-4.876 4.384 0 0-.013.008-.013 0h-2.094v-1.534h2.868c1.522-.135 2.487-.897 2.487-3.054h-9.294v6.31h-1.465v-7.901h23.055v7.902h-1.46zM224.78 499.255h-1.487v-4.592c0-2.065-1.346-3.146-3.004-3.146h1.462c2.601 0 3.036 1.564 3.036 2.075l-.007 5.663M341.616 499.226h-1.481v-4.563h-2.972l-.01 4.563h-1.482v-4.563h-3.946l-.011 6.317h-1.486v-6.317h-6.617c-2.67-.026-4.931 2.59-4.394 5.284-1.458-2.579.376-6.848 3.928-6.87l18.486.004-.015 6.145zM303.444 494.663H300.5v1.381c0 1.038.684 1.596 1.52 1.596h1.424v-2.977zm6.512-1.579v6.142h-1.486v-4.563h-3.522l-.007 4.563h-2.92c-1.505 0-2.978-.902-2.978-2.737v-3.405l4.446-.003v-.156c0-2.186-1.348-3.15-3.004-3.15h1.458c2.605 0 2.998 1.78 2.998 2.432 0 .466-.002.886-.002.886l5.017-.009zM387.79 423.23a.778.778 0 10-1.555 0 .778.778 0 001.556 0M195.625 422.53c-.481-.074-1.872-.168-3.618-.168-1.984 0-3.95.39-3.95 3.452v10.091c0 .205.168.37.37.37h.946a.37.37 0 00.372-.37v-10.091c0-1.411.316-1.932 2.283-1.932h3.579c.132 0 .204-.09.204-.22v-.872c0-.111-.072-.242-.186-.26M202.988 422.362c-2.912 0-5.027 1.706-5.027 5.825v2.394c0 4.117 2.115 5.825 5.027 5.825 2.91 0 5.008-1.708 5.008-5.825v-2.394c0-4.119-2.098-5.825-5.008-5.825m3.302 8.22c0 3.115-1.262 4.304-3.302 4.304-2.022 0-3.32-1.189-3.32-4.305v-2.394c0-3.118 1.28-4.305 3.32-4.305 2.022 0 3.302 1.187 3.302 4.305v2.394zM221.193 422.492h-1.15c-.297 0-.501.113-.595.298l-5.731 10.89c-.018.036-.036.054-.056.054-.02 0-.02-.018-.02-.054v-10.832c0-.188-.147-.356-.332-.356h-.965c-.187 0-.334.038-.334.223v13.04c0 .3.24.52.537.52h1.022c.519 0 .613-.092.76-.37l5.695-10.836.038-.05c.018 0 .018.033.018.05v10.855c0 .185.149.351.334.351h.984c.203 0 .332-.166.332-.35V423.03a.537.537 0 00-.537-.538M234.29 422.641c-.91-.149-1.949-.279-3.692-.279-2.318 0-4.805 1.52-4.805 5.771v2.485c0 4.508 2.597 5.788 4.971 5.788 1.725 0 2.82-.149 3.525-.261.167-.017.314-.091.314-.276v-.928c0-.131-.074-.185-.24-.185h-.074c-1.094.092-1.948.13-3.525.13-1.725 0-3.284-.929-3.284-4.268v-2.485c0-3.063 1.392-4.268 3.118-4.268 1.13 0 1.891.074 2.338.112v5.306c0 .203.13.37.333.37h1.001a.369.369 0 00.353-.37v-6.234a.405.405 0 00-.334-.408M252.222 422.53c-.483-.074-1.875-.168-3.62-.168-1.984 0-3.948.39-3.948 3.452v10.091c0 .205.166.37.37.37h.946a.37.37 0 00.37-.37v-10.091c0-1.411.315-1.932 2.284-1.932h3.578c.132 0 .205-.09.205-.22v-.872c0-.111-.073-.242-.185-.26M257.616 422.492h-1.02c-.187 0-.334.168-.334.372v13.06c0 .185.13.351.335.351h1.019a.338.338 0 00.336-.35v-13.06c0-.186-.133-.373-.336-.373M272.665 435.847l-3.414-12.075c-.336-1.167-1.187-1.41-1.892-1.41-.687 0-1.56.243-1.893 1.41l-3.433 12.075c-.018.04-.018.077-.018.115 0 .183.15.313.334.313h1.075c.15 0 .298-.13.336-.278l3.227-11.816c.075-.26.169-.39.372-.39.184 0 .278.13.35.39l3.248 11.816c.038.148.167.278.314.278h1.098a.3.3 0 00.314-.313c0-.038 0-.075-.018-.115M283.384 422.456c-.706-.073-2.523-.093-3.618-.093-2.599 0-3.953.984-3.953 3.45v7.143c0 2.467 1.354 3.45 3.953 3.45 1.095 0 2.838-.037 3.618-.11.111-.021.182-.151.182-.262v-.927c0-.13-.07-.221-.202-.221h-3.579c-1.968 0-2.282-.52-2.282-1.93v-2.577h5.696a.371.371 0 00.367-.373v-.702a.37.37 0 00-.367-.372h-5.696v-3.118c0-1.41.314-1.931 2.282-1.931h3.58c.13 0 .201-.091.201-.221v-.946c0-.11-.07-.241-.182-.26M302.614 422.492h-1.093c-.168 0-.28.13-.316.278l-1.206 4.266h-4.804l-1.186-4.266c-.04-.148-.19-.278-.334-.278h-1.096c-.185 0-.315.13-.315.298 0 .035 0 .093.019.131l3.43 12.073c.316 1.134 1.188 1.412 1.892 1.412.688 0 1.558-.26 1.875-1.392l3.43-12.093c.019-.038.019-.096.019-.13 0-.169-.111-.299-.315-.299m-4.655 12.114c-.056.204-.17.335-.354.335-.204 0-.315-.13-.37-.335l-1.688-6.103h4.099l-1.687 6.103zM317.529 422.492h-.91a.373.373 0 00-.37.372v11.001c0 .037 0 .056-.018.056s-.018 0-.038-.038l-2.652-5.49c-.187-.373-.371-.539-.834-.539h-.856c-.462 0-.647.166-.834.538l-2.651 5.491c-.02.038-.02.038-.038.038-.02 0-.02-.019-.02-.056v-11a.37.37 0 00-.367-.373h-.911a.373.373 0 00-.371.372v12.875c0 .295.243.536.538.536h1.207c.332 0 .48-.073.593-.313l3.059-6.366c.076-.164.129-.203.225-.203.09 0 .149.04.222.203l3.062 6.366c.11.24.258.313.592.313h1.204c.298 0 .54-.24.54-.536v-12.875a.374.374 0 00-.372-.372M326.214 422.362c-1.225 0-2.32.058-3.025.168-.425.055-.612.222-.612.686v12.356c0 .425.206.65.593.685a27.46 27.46 0 002.951.15c2.95 0 5.435-.78 5.435-3.58v-.298c0-1.374-.723-2.432-1.984-2.913 1.28-.445 2.06-1.577 2.06-3.005v-.315c0-3.118-2.524-3.934-5.418-3.934m3.655 10.465c0 1.78-1.487 2.15-3.748 2.15-.632 0-1.317-.036-1.837-.054v-4.603h2.857c2.151 0 2.728 1.041 2.728 2.21v.297zm.074-6.216c0 1.224-.613 2.355-2.802 2.355h-2.857v-5.1c.614-.019 1.28-.075 1.93-.075 2.3 0 3.73.5 3.73 2.505v.315zM337.143 422.492h-1.021c-.186 0-.333.168-.333.372v13.06c0 .185.13.351.333.351h1.021a.338.338 0 00.335-.35v-13.06c0-.186-.131-.373-.335-.373M350.47 434.83h-3.618v-11.966c0-.185-.128-.372-.334-.372h-1.021c-.186 0-.334.168-.334.372v11.965h-3.616c-.206 0-.371.095-.371.297v.817c0 .185.165.332.37.332h8.924c.204 0 .35-.13.35-.332v-.817c0-.185-.146-.297-.35-.297M356.12 422.492h-1.02c-.185 0-.334.168-.334.372v13.06c0 .185.13.351.334.351h1.02c.185 0 .333-.147.333-.35v-13.06c0-.186-.129-.373-.334-.373M365.767 422.362c-2.912 0-5.028 1.706-5.028 5.825v2.394c0 4.117 2.116 5.825 5.028 5.825 2.912 0 5.01-1.708 5.01-5.825v-2.394c0-4.119-2.098-5.825-5.01-5.825m3.303 8.22c0 3.115-1.261 4.304-3.303 4.304-2.022 0-3.322-1.189-3.322-4.305v-2.394c0-3.118 1.281-4.305 3.322-4.305 2.022 0 3.303 1.187 3.303 4.305v2.394zM384.06 422.492h-1.153c-.297 0-.502.113-.593.298l-5.732 10.89c-.019.036-.039.054-.056.054-.018 0-.018-.018-.018-.054v-10.832c0-.188-.149-.356-.335-.356h-.964c-.185 0-.335.038-.335.223v13.04c0 .3.243.52.537.52h1.021c.522 0 .615-.092.762-.37l5.695-10.836.037-.05c.02 0 .02.033.02.05v10.855c0 .185.147.351.333.351h.983c.203 0 .333-.166.333-.35V423.03a.538.538 0 00-.536-.538M388.783 433.74a1.52 1.52 0 00-1.523 1.517c0 .84.684 1.523 1.523 1.523a1.52 1.52 0 100-3.04m0 2.836a1.315 1.315 0 01-1.316-1.319c0-.729.587-1.315 1.316-1.315a1.318 1.318 0 110 2.634m.607-2.286h-.029c-.029 0-.062.025-.075.04l-.528.806c-.034 0-.05.005-.085.005h-.286v-.756c0-.043-.033-.095-.085-.095h-.025c-.052 0-.085.052-.085.095v1.781c0 .042.033.087.08.092.09.006.291.013.401.013.463 0 .73-.139.73-.562v-.012c0-.313-.147-.47-.425-.532l.476-.735a.126.126 0 00.017-.065c0-.036-.017-.075-.08-.075m-.185 1.42c0 .277-.163.37-.533.37-.087 0-.203 0-.286-.007v-.74c.083 0 .223-.007.286-.007.386 0 .533.088.533.371v.012z"/></g></svg>