<svg version="1.1" id="Layer_1" xmlns="http://www.w3.org/2000/svg" x="0" y="0" viewBox="0 0 1000 1000" xml:space="preserve"><path fill="#b7d433" d="M731 415h169.2v169.2H731z"/><path class="st1" d="M768.9 515.1c-25.3 33-37.5 68.1-37.9 69.1h34.6c.1-16.7-.2-42.2 3.3-69.1M745.4 511.5c8.4-6.4 17.7-13.1 27.5-19.3 6.5-29.7 19-58.4 42.7-76.1 23.7 17.7 36.2 46.4 42.7 76.1 9.8 6.2 19.1 12.9 27.5 19.3-12.1-36.9-33.6-77.4-70.2-96.5-36.6 19.1-58 59.6-70.2 96.5M865.6 584.2h34.6c-.3-1-12.5-36.1-37.9-69.1 3.5 26.9 3.3 52.4 3.3 69.1M900.2 584.2V523c-4.3-3.6-9.2-7.5-14.4-11.5 11 33.3 14.4 63.8 14.4 72.7"/><path class="st1" d="M815.6 472.4c18.8 10.9 34.3 26.6 46.7 42.7-1-7.6-2.3-15.3-4-22.9-13.8-8.8-28.6-16.6-42.7-21-14.1 4.5-28.9 12.2-42.7 21-1.7 7.6-3 15.3-4 22.9 12.4-16.1 27.9-31.7 46.7-42.7M731 523v61.2c0-9 3.4-39.4 14.4-72.7-5.2 4-10.1 7.9-14.4 11.5"/><path class="st2" d="M858.3 492.2c1.7 7.6 3 15.3 4 22.9 25.4 33 37.5 68.1 37.9 69.1 0-9-3.4-39.4-14.4-72.7-8.4-6.4-17.7-13.1-27.5-19.3M772.9 492.2c-9.8 6.2-19.1 12.9-27.5 19.3-11 33.3-14.4 63.7-14.4 72.7.4-1 12.5-36.1 37.9-69.1 1-7.6 2.3-15.3 4-22.9"/><path class="st3" d="M127.8 568.7c-.6 10.4-5.4 16.2-13.5 16.2-9.3 0-14.5-7.2-14.5-23.5s5.2-23.5 14.5-23.5 13.1 6.6 13.1 14h-4.1c0-6.2-3.1-10.6-9-10.6-6.5 0-10.4 5.4-10.4 20.1 0 14.7 3.9 20.1 10.4 20.1 5.7 0 9-4.9 9.4-12.8h4.1zM135.6 567.2c0-10.8 3.3-14.5 7.6-14.5s7.6 3.7 7.6 14.5-3.3 14.5-7.6 14.5-7.6-3.7-7.6-14.5m-4 0c0 11.8 4.2 17.7 11.7 17.7 7.4 0 11.7-5.9 11.7-17.7 0-11.7-4.2-17.7-11.7-17.7-7.6 0-11.7 5.9-11.7 17.7M160.7 550.3h3.5v4.7h.1c1.8-3.7 4.8-5.5 8.6-5.5 4.1 0 6.6 2.5 7.1 5.9h.1c1.5-3.8 4.3-5.9 8.6-5.9 4.7 0 7.8 2.7 7.8 8.7v25.9h-3.8v-25.3c0-4-1.8-6.1-5.3-6.1-3.8 0-6.8 3.4-6.8 8.7v22.7h-3.8v-25.3c0-4-1.8-6.1-5.3-6.1-3.8 0-6.9 3.4-6.9 8.7v22.7h-3.9v-33.8zM204.4 550.3h3.4v4.7h.1c1.8-3.7 4.9-5.5 8.6-5.5 4.1 0 6.6 2.5 7.1 5.9h.1c1.5-3.8 4.3-5.9 8.6-5.9 4.7 0 7.9 2.7 7.9 8.7v25.9h-3.8v-25.3c0-4-1.9-6.1-5.3-6.1-3.8 0-6.9 3.4-6.9 8.7v22.7h-3.8v-25.3c0-4-1.9-6.1-5.3-6.1-3.8 0-6.9 3.4-6.9 8.7v22.7h-3.8v-33.8zM250.6 564.2c.1-8.4 2.5-11.5 7.2-11.5s7.1 3.1 7.2 11.5h-14.4zm14.3 8.7c-.6 5.9-3.2 8.8-7.1 8.8-3.8 0-7.2-3-7.2-12.7v-1.6H269V566c0-11.3-3.4-16.5-10.9-16.5-7.4 0-11.7 5.9-11.7 17.7 0 12.7 4.2 17.7 11.3 17.7 6.4 0 10.3-4.8 10.9-12h-3.7zM275 550.3h3.8v5.3h.1c1.5-3.8 4.6-6.1 8.5-6.1.5 0 .9.1 1.4.2v3.9c-.6-.1-1.3-.2-1.9-.2-4.2 0-8.1 3.1-8.1 9.7v21.1H275v-33.9zM313 572.9c-.5 7.2-4.5 12-10.7 12-7.1 0-11.3-5-11.3-17.7 0-11.7 4.2-17.7 11.6-17.7 6.4 0 10.1 3.9 10.4 10.8h-3.8c-.4-5.3-2.5-7.7-6.6-7.7s-7.6 2.5-7.6 14.5c0 12.7 3.6 14.5 7.2 14.5 3.9 0 6.4-2.9 7-8.8h3.8zM318.9 550.3h3.8v33.8h-3.8v-33.8zm0-11.7h3.8v6.5h-3.8v-6.5zM345.9 572.1c0 6.1-3.2 9.6-7.8 9.6-3.3 0-5.4-2.7-5.4-6.6 0-4 2-6 5.8-7l3.2-.9c1.5-.4 3.7-1.1 4.1-2.2h.1v7.1zm-12.4-11.8c0-4.9 2-7.7 6.5-7.7 3.4 0 5.9 1.6 5.9 5.9 0 4-.5 4.6-3.3 5.3l-7.2 2.1c-4.8 1.3-6.9 4.9-6.9 9.3 0 5.9 2.7 9.6 8.6 9.6 3.8 0 7.2-1.3 8.7-5.7h.1v1.1c0 3.5 1.9 4.2 4.9 4.2.5 0 1.1-.2 1.8-.4v-2.8h-1.1c-1.4 0-2-.9-2-2.8v-20c0-5.4-2.5-9-9.5-9-7.2 0-10.4 3.9-10.4 10.8h3.9zM357.8 538.6h3.8v45.5h-3.8zM388.3 542.1h7.2c6.4 0 9.5 2.2 9.5 8.3 0 5.3-3.2 8.3-10.2 8.3h-6.5v-16.6zm0 20.1h7.6c7.1 0 10.5 3.2 10.5 9.3 0 6.1-3.4 9.3-10.5 9.3h-7.6v-18.6zm-4.1 22h12.5c8.6 0 13.8-4.8 13.8-12.8 0-5.9-2.9-10.2-8.5-11.3v-.1c4.6-1.1 7-5.4 7-9.9 0-6.8-3.4-11.4-12.2-11.4h-12.5v45.5zM431.7 572.2c0 6-3.2 9.5-7.8 9.5-3.3 0-5.3-2.7-5.3-6.6 0-4 2-6 5.8-7l3.2-.8c1.5-.4 3.7-1.1 4.1-2.2h.1v7.1zm-12.4-11.8c0-4.9 2-7.6 6.5-7.6 3.4 0 5.9 1.5 5.9 5.9 0 3.9-.6 4.6-3.3 5.3l-7.2 2.1c-4.8 1.3-6.8 4.9-6.8 9.3 0 5.9 2.7 9.6 8.6 9.6 3.8 0 7.2-1.3 8.7-5.8h.2v1.2c0 3.5 1.9 4.2 4.9 4.2.5 0 1.1-.1 1.8-.4v-2.8h-1.1c-1.3 0-2-.9-2-2.8v-20c0-5.3-2.6-9-9.6-9-7.1 0-10.4 3.9-10.4 10.8h3.8zM443.4 550.4h3.4v4.7h.1c1.9-3.7 5.3-5.5 8.7-5.5 5.2 0 8.7 2.7 8.7 9.1v25.6h-3.8v-24.5c0-4.7-1.9-6.9-5.8-6.9-4.4 0-7.4 3.4-7.4 8.7v22.8h-3.8v-34zM471.2 538.7h3.8v28.5h.2l13.1-16.8h4.7l-10.2 12.5 12.1 21.3h-4.8l-10-17.8-5.1 6v11.8h-3.8zM517.4 567.2c0-10.7 3.3-14.4 7.6-14.4 4.2 0 7.6 3.7 7.6 14.4 0 10.9-3.3 14.5-7.6 14.5-4.3.1-7.6-3.6-7.6-14.5m-4.1 0c0 11.8 4.2 17.7 11.7 17.7 7.4 0 11.6-5.9 11.6-17.7 0-11.7-4.2-17.6-11.6-17.6-7.5 0-11.7 5.9-11.7 17.6M543.7 553.6H539v-3.2h4.7v-4c0-4.7 1-8.2 7.4-8.2 1.1 0 1.7.1 2.4.2v3.2c-.5-.1-1.1-.2-1.8-.2-2.8 0-4.1 1.1-4.1 4.9v4h5.9v3.2h-5.9v30.6h-3.8v-30.5zM579.1 542.1h6.6c8.9 0 12.7 4.5 12.7 19.4 0 14.8-3.8 19.3-12.7 19.3h-6.6v-38.7zm-4 42.1H586c13.3 0 16.5-7.9 16.5-22.8 0-14.8-3.3-22.7-16.5-22.7h-10.9v45.5zM609.4 550.4h3.8v23.8c0 5.5 1.8 7.6 5.8 7.6 4.4 0 7.4-3.4 7.4-8.7v-22.7h3.8v33.9h-3.4v-4.8h-.1c-1.9 3.8-5.2 5.5-8.7 5.5-5.1 0-8.7-2.6-8.7-9v-25.6zM641.1 567.2c0-12.5 3.5-14.4 7.4-14.4 3.8 0 7.4 2 7.4 14.4 0 12.6-3.6 14.5-7.4 14.5-3.9.1-7.4-1.9-7.4-14.5m-3.8 17h3.5v-5.6h.1c1 3.9 4.3 6.4 8.3 6.4 7.5 0 10.9-6 10.9-17.7 0-11.6-3.4-17.6-10.9-17.6-4.2 0-7.1 2.3-7.9 5.9h-.1v-16.7h-3.8v45.3zM681.5 572.2c0 6-3.2 9.5-7.8 9.5-3.3 0-5.4-2.7-5.4-6.6 0-4 2-6 5.8-7l3.2-.8c1.5-.4 3.7-1.1 4.1-2.2h.1v7.1zm-12.4-11.8c0-4.9 2-7.6 6.5-7.6 3.5 0 5.9 1.5 5.9 5.9 0 3.9-.6 4.6-3.3 5.3l-7.2 2.1c-4.7 1.3-6.8 4.9-6.8 9.3 0 5.9 2.7 9.6 8.6 9.6 3.7 0 7.2-1.3 8.7-5.8h.1v1.2c0 3.5 1.9 4.2 4.9 4.2.5 0 1.1-.1 1.8-.4v-2.8h-1.1c-1.3 0-2-.9-2-2.8v-20c0-5.3-2.5-9-9.5-9-7.1 0-10.5 3.9-10.5 10.8h3.9zM693.4 550.4h3.8v33.9h-3.8v-33.9zm0-11.7h3.8v6.5h-3.8v-6.5zM358.9 461.7s.9 35.6.9 37.7c0 2.1.4 6.7-2.1 9.4 2.2-1.1 5.1-6.1 5.1-12.7 0-3.3-.9-38.1-.9-38.1l-3 3.7zM146.4 474.9s2.2 28.7 1.1 32.5c-1.9 6.8-5.4 9.5-13.9 11.4 1.3.8 5.8 2.2 9.4-.4 4.5-3.2 7.6-11.1 7.6-18.7 0-3.3-1.2-29.1-1.2-29.1l-3 4.3zM346.3 461.7s.8 33.9 1.1 37.6c.2 2.6-.9 3.4-4.3 3.4h-10.4c-1.3 0-6 0-7.5-1.8s-1.8-2.7-1.8-12.2c0-11.9.4-15.3-1-17.9l-2.8 4.2c.8 1.5 1.5 2.4 1.2 11.9-.3 9.5 1.2 11-.3 13.9-1.1 2.1-6.9 1.9-8.2 1.9h-12.5c-1.3-3.7-4.9-7.2-12.3-12-9.6-6.3-15.8-9.9-15.8-15.2 0-3.3.5-4.7.5-4.7s-2.9 3.8-2.9 8.1c0 4.9 4.3 9 11.6 13.4 5.2 3.2 11.5 6.6 14.9 10.4H173.9c-1.3 0-7.3.1-8.4-2.3-1.8-3.9-.5-17.6-.5-27.3.1-9.7.3-12.4-1-15l-2.7 4.6c.8 1.6 1.3 1.7 1 11.3-.3 9.5-.7 23.7-.4 27 .4 4.7 1.6 6.9 12.2 6.9h124.1c.2 3.6-.4 7.9-4 15.1 3.9-4.7 5.8-9.8 6.1-15.1h12c2.3 0 8.4.3 10.4-5.2 1.7 4.7 4.2 5.2 9.8 5.2h10.7c2.4 0 3.9-.9 5.1-3.2 1.2-2.2 1.8-5.1 1.8-8.5 0-3.3-.9-38.1-.9-38.1l-2.9 3.6zM136.3 503.6c0-4.6-1.8-5.7-4.8-9.2-2.5-2.9-4.5-4.8-4.5-5.9 0-.9 2.7-10.7 8.5-12.4l.9-5.2c-4.3.1-11.1 11.3-11.9 20.4-.1 1.8 2.1 3.5 3.7 5.3 2.8 3 6 4.8 6 5.7 0 .7-1.4.4-2.4.4H112c-6.6 0-10-2.6-10-13.5 0-11.9 2.7-16.1 2.7-16.1l-.3-2.3s-4.7 6.5-4.7 20c0 13.4 1.5 17.1 12 17.1h21.5s3.1.3 3.1-4.3M632.8 466.4c1.5-1.1 2.7-4.2 2.7-4.2s-1.3-3-3.1-4.2l-2.2 4.3c0 .1 2.3 1.7 2.6 4.1"/><path class="st3" d="M318.7 466.4c1.5-1.1 2.6-4.2 2.6-4.2s-1.3-3-3-4.2l-2.2 4.3c-.1.1 2.3 1.7 2.6 4.1"/><path class="st3" d="M323.8 466.4c1.5-1.1 2.7-4.2 2.7-4.2s-1.3-3-3.1-4.2l-2.2 4.3c0 .1 2.4 1.7 2.6 4.1M665.3 522c1.5-1.1 2.6-4.2 2.6-4.2s-1.3-3-3-4.2l-2.2 4.3c0 .1 2.4 1.7 2.6 4.1M456.8 522c1.5-1.1 2.6-4.2 2.6-4.2s-1.3-3-3-4.2l-2.2 4.3c0 .1 2.3 1.7 2.6 4.1M401 522c1.5-1.1 2.7-4.2 2.7-4.2s-1.3-3-3.1-4.2l-2.2 4.3c0 .1 2.3 1.7 2.6 4.1M281.9 522c1.4-1.1 2.7-4.2 2.7-4.2s-1.3-3-3.1-4.2l-2.2 4.3c-.1.1 2.3 1.7 2.6 4.1M406.2 522c1.5-1.1 2.7-4.2 2.7-4.2s-1.3-3-3-4.2l-2.2 4.3c-.1.1 2.2 1.7 2.5 4.1M114.5 522c1.5-1.1 2.7-4.2 2.7-4.2s-1.3-3-3.1-4.2l-2.2 4.3c0 .1 2.3 1.7 2.6 4.1"/><path class="st3" d="M119.7 522c1.5-1.1 2.6-4.2 2.6-4.2s-1.3-3-3-4.2l-2.2 4.3c0 .1 2.3 1.7 2.6 4.1M578.9 487.8c9.6-1.2 9.5-9.9 9.5-9.9s-6.1 1.1-8 .1c-.4-.4 3.7-3.6 6.3-3.7.4-1.8.3-3.2.3-3.2s-3.2 1-5.7 3.2-4 4.4-3.6 5.7c1.6 2 8.5 1.1 8.5 1.1s-.2 2.6-8.4 4.2c-8.2 1.6-11.2 0-11.2 0s2.6 3.6 12.3 2.5M509.6 471c-5.8 0-7.3 7.4-7.3 7.4s1.8-3.4 6.1-3.4c8.1 0 15.3 27.9 9.9 27.9h-14.1c-6.5 0-7.8-.9-6.6-8.7-4.1 9.1-1.4 13.9 5 13.9h16.5c8 0 1.2-37.1-9.5-37.1"/><path class="st3" d="M692.1 471l-2.5 4.3c6 13.3 6.4 27.6 3.2 27.6h-48.5c-1.3 0-6 .1-7.6-1.8-1.5-1.8-1.8-2.8-1.8-12.2 0-11.9.4-15.3-1-17.9l-2.8 4.2c.8 1.6 1.5 2.4 1.3 11.9-.3 9.5 1.2 11-.3 13.9-1.1 2.1-6.8 1.9-8.2 1.9h-5.3c-1.2 0-3.3 0-4.6-.9-2.1-1.4-1.2-3.1-1.2-8.3 0-6.8-.9-20-.5-35.5l-3.4 3.3s.6 17.4.6 21.3c0 3.9 1.7 14.4-.8 17.3-2.5 2.9-6.3 2.9-11.2 2.9h-39.1c-6.6 0-10-2.6-10-13.5 0-11.9 2.7-16.1 2.7-16.1l-.2-2.2s-4.7 6.5-4.7 19.9c0 13.4 1.5 17.2 12 17.2H598c3.9 0 10.4-.6 12.9-5.2 1.3 3.2 3.5 5.2 7.9 5.2h5.3c2.3 0 8.4.3 10.4-5.2 1.7 4.7 4.2 5.2 9.8 5.2h42.9c3.1 0 7.1.1 8.1-1.5 1.2-2.2 4.9-17.2-3.2-35.8M479.8 475.3c6 13.2 6.4 27.5 3.3 27.5h-46.7c-3.8 0-7.8.7-7.5-9.9.3-13-1.1-21-1.7-22-3.1-.4-17 9.7-17.2 20.5 0 1.8 2.2 3.7 3.9 5.5 1.8 1.9 4.7 3.8 4.7 5.3 0 .6-1 .5-1.5.5h-19c-6.6 0-10.1-2.6-10.1-13.5 0-11.9 2.7-16.1 2.7-16.1l-.2-2.2s-4.7 6.5-4.7 20c0 13.4 1.5 17.1 12 17.1h19.9s2.7.4 2.7-4.2c0-4.6-1.2-6.1-3.7-9.1-2.4-2.9-4.2-4.9-4.2-6 0-1.5 6.9-10.6 13.4-12.7 1 4.3.9 9.2 1.1 14 .5 10.6-2.4 17.9 10.2 17.9h40.5c3.2 0 7.1.1 8.1-1.5 1.3-2 5.1-17-3.1-35.6-.2.2-2.9 4.4-2.9 4.5"/></svg>