<svg version="1.1" id="Layer_1" xmlns="http://www.w3.org/2000/svg" x="0" y="0" viewBox="0 0 1000 1000" xml:space="preserve"><style>.st0{fill:#3d1152}</style><path class="st0" d="M189.1 435.9h-85.7c-1.7 0-3.2 1.4-3.2 3.1v25.5c0 1.8 1.4 3.2 3.2 3.2h85.7c1.7 0 3.2-1.4 3.2-3.2V439c0-1.7-1.4-3.1-3.2-3.1M236.9 436h-25.5c-1.7 0-3.2 1.4-3.2 3.2V560c0 1.7 1.4 3.2 3.2 3.2h25.5c1.7 0 3.1-1.4 3.1-3.2V439.2c0-1.8-1.4-3.2-3.1-3.2M189.1 483.6h-85.7c-1.7 0-3.2 1.4-3.2 3.1v25.5c0 1.7 1.4 3.1 3.2 3.1h85.7c1.7 0 3.2-1.4 3.2-3.1v-25.5c0-1.7-1.4-3.1-3.2-3.1M189.1 531.4h-85.7c-1.7 0-3.2 1.4-3.2 3.2V560c0 1.8 1.4 3.2 3.2 3.2h85.7c1.7 0 3.2-1.4 3.2-3.2v-25.5c0-1.7-1.4-3.1-3.2-3.1M681.8 436h9.4v9.4h-9.4zM667.3 436h9.4v9.4h-9.4zM728.2 436h8.5v48.4h-8.5zM707.4 466.4c0 5.4-2.3 7.6-4.5 8.5-1.4.6-3.6.9-7.1.9h-27.2c-5.5 0-9.3-.7-11.8-2.2-2.3-1.3-4.9-4.2-4.9-10.8v-15h-8.5V463c0 14 8.6 21.2 25.3 21.2h33.5c7.4 0 13.6-6.4 13.6-13.7V448h-8.5v18.4zM754.3 481.6c0 7.1-3.6 11.1-10.4 11.7h-.5v7h.6c6.3-.2 10.9-2.3 13.7-4.9 3.4-3 5.1-7.8 5.1-14.8V448h-8.5v33.6zM564.6 495c0-1.6.6-2.4 1.8-2.4.8 0 1.4.6 1.8 1.6l3.6-1.7c-1-2.5-2.8-3.7-5.3-3.7-3.6 0-6.1 2.8-6.1 6.3 0 .6.2 1.3.4 2.1h-3.2v4h14.3v-4.1h-6.3c-.7-.1-1-.9-1-2.1M314.5 492.3h9.4v9.4h-9.4zM299.9 492.3h9.4v9.4h-9.4zM607.9 436h8.4v48.4h-8.4zM587.1 466.6c0 7.8-3.5 9.1-6.7 9.2h-1l-9.8-34.9h-8.9l10 34.9h-12.2v8.6h23.3c7.4 0 13.9-6.4 13.9-13.7V436h-8.5v30.6zM848.5 495c0-1.6.6-2.4 1.8-2.4.8 0 1.4.6 1.8 1.6l3.6-1.7c-1-2.5-2.9-3.7-5.3-3.7-3.6 0-6.1 2.8-6.1 6.3 0 .6.2 1.3.4 2.1h-3.2v4h14.3v-4.1h-6.3c-.7-.1-1-.9-1-2.1M891.8 436h8.4v48.4h-8.4zM870.9 466.6c0 7.8-3.5 9.1-6.7 9.2h-1l-9.8-34.9h-8.9l10 34.9h-12.2v8.6h23.3c7.4 0 13.9-6.4 13.9-13.7V436H871v30.6zM538.7 466.6c0 7.8-3.6 9.2-6.7 9.2h-9.7c1.4-2.6 2.2-5.4 2.2-8.5V448H516v18.5c0 7.8-3.5 9.2-6.7 9.2H500c1.4-2.6 2.2-5.4 2.2-8.5V448h-8.5v18.5c0 7.8-3.5 9.2-6.7 9.2h-35.2c.7-1.6 1.2-3.2 1.2-5.1V436h-8.5v30.6c0 7.8-3.6 9.2-6.7 9.2h-1.2l-9.8-34.9h-8.9l10 34.9h-14.6v8.6h118.9c9.1 0 15.1-8.6 15.1-17V448h-8.5v18.6zM392.5 469.1c0 3.6-2.9 6.9-7.9 6.9-5.1 0-8.7-4-8.7-10.4v-3c0-6.4 3.2-10.8 8.7-11.8 2.9-.5 7.9-.1 7.9-.1v18.4zm-24.6-12.5c-.3 1.7-.5 3.7-.5 5.8v2.3c0 2.1.2 4.1.5 5.8.4 2 1 3.8 1.8 5.3h-15.3v-16.2-1.4c0-8.2-5.6-15.7-16.3-15.7h-15.8v33.2H304c-5.3 0-7.7-3.8-7.7-7.5v-25.7h-8.5v26.1c0 8.1 5.6 15.7 16.3 15.8h26.8v-33.2h7.2c5.4 0 7.7 3.8 7.7 7.5v25.7h37.7c4.2-.1 17.5-1.5 17.5-13.8v-28c-2.5-.2-5.4-.3-8.6-.3-9.4-.1-22.3 1.1-24.5 14.3M821.4 469.1c0 3.6-2.9 6.9-7.9 6.9-5.1 0-8.7-4-8.7-10.4v-3c0-6.4 3.2-10.8 8.7-11.8 2.9-.5 7.9-.1 7.9-.1v18.4zm-24.6-12.5c-.3 1.7-.5 3.7-.5 5.8v2.3c0 2.1.2 4.1.5 5.8.4 2 1 3.8 1.7 5.3h-8.7c-3.2-.1-6.7-1.7-6.7-9.4V436h-8.5v34.7c0 7.3 6 13.7 13.3 13.7h24.3c4 0 17.7-1.3 17.7-13.8v-28c-2.5-.2-5.4-.3-8.6-.3-9.3-.1-22.2 1.1-24.5 14.3M321.6 554.6h-25.4V544h24.5v-8.3h-24.5v-10.9h25.4v-8.6h-33.9v47.1h33.9zM338.8 529.1l14.4 20.5h1.7l14.7-20.5v34.2h8.5v-47.1h-9.7l-14.2 20.3-14.1-20.3h-9.8v47.1h8.5zM386.8 516.2h8.5v47.1h-8.5zM412.4 524.5h13c5.3 0 7.7 3.8 7.7 7.5 0 3.8-2.3 7.5-7.7 7.5h-13v-15zm21.4 38.8H444v-.6l-13.7-16.1c8.6-1.8 11.5-8.3 11.5-14.8 0-8.1-5.6-15.5-16.3-15.6-7.2 0-14.4-.1-21.5-.1v47.2h8.5v-15.8h8.2l13.1 15.8zM463.5 546.2l8.4-20.1 8.4 20.1h-16.8zm13-30h-9.3l-20.3 47.1h9.3l3.9-8.9h23.6l3.8 8.9h9.3l-20.3-47.1zM506.3 563.3h8.5v-39h14.3v-8.1h-37.2v8.1h14.4zM571.7 554.6h-25.4V544h24.5v-8.3h-24.5v-10.9h25.4v-8.6h-33.9v47.1h33.9zM598.8 534.5c-5.4-.7-10.1-1.8-10.1-5.9 0-3.5 3-6.3 9.4-6.3 4.9 0 9.2 2.6 10.7 5.2l6.8-3.6c-3.4-7.3-10.7-9.4-17.7-9.4-8.3.1-17.5 4-17.5 13.7 0 10.6 8.5 13.1 17.8 14.3 6 .7 10.5 2.5 10.5 6.9 0 5.1-5 7.1-10.4 7.1-5.5 0-10.7-2.3-12.7-7.5l-7.1 3.8c3.4 8.6 10.5 11.6 19.7 11.6 10.1 0 19-4.5 19-15-.2-11.1-9-13.7-18.4-14.9M635.9 516.2h8.5v47.1h-8.5zM670.8 556.6c-5.5 0-10.7-2.3-12.7-7.5L651 553c3.4 8.6 10.5 11.6 19.7 11.6 10.1 0 19-4.5 19-15 0-11.2-8.8-13.8-18.3-15-5.4-.7-10.1-1.8-10.1-5.9 0-3.5 3-6.3 9.3-6.3 4.9 0 9.2 2.6 10.7 5.2l6.8-3.6c-3.4-7.3-10.7-9.4-17.8-9.4-8.4.1-17.5 4-17.5 13.8 0 10.6 8.5 13.1 17.8 14.3 6 .7 10.5 2.5 10.5 6.9.1 5-4.9 7-10.3 7M727.9 555.1h-23.3v-38.9h-8.5v47.1h31.8zM749.7 546.2l8.4-20.1 8.4 20.1h-16.8zm13-30h-9.3l-20.3 47.1h9.2l3.9-8.9h23.7l3.8 8.9h9.3l-20.3-47.1zM797.8 529.1l14.5 20.5h1.6l14.8-20.5v34.2h8.5v-47.1h-9.8l-14.1 20.3-14.2-20.3h-9.8v47.1h8.5zM844 516.2h8.5v47.1H844zM894 551.3c-3 3.1-7.4 4.8-11.4 4.8-11.2 0-15.5-8.2-15.6-16 0-7.9 4.6-16.3 15.6-16.3 3.9 0 8 1.4 10.9 4.4l5.7-5.7c-4.7-4.8-10.5-7.2-16.6-7.2-16.4 0-24.1 12.5-24 24.8.1 12.3 7.1 24.3 24 24.3 6.5 0 12.6-2.2 17.2-7l-5.8-6.1z"/></svg>