<svg xmlns="http://www.w3.org/2000/svg" width="766.093" height="199.213" viewBox="0 0 574.57 149.41"><path d="M574.57 149.41H0V-.004h574.57V149.41" fill="#fff"/><path d="M98.281 140.531H8.875V8.871h89.406v131.66M565.695 140.531H107.16V8.88h458.535V140.53" fill="#062769"/><path d="M135.805 49.73h29.441v7.86H145.81v12.293h17.793v7.86h-17.793v14.003h19.578v7.863h-29.582V49.73M170.32 62.809h8.934v5.144h.14c3.004-4.504 7.364-6.004 10.934-6.004 5.145 0 8.79 1.93 10.863 6.504 2.215-4.43 7-6.504 11.504-6.504 9.075 0 11.649 6.219 11.649 14.434v23.226h-9.574V77.672c0-3.43 0-8.29-5.504-8.29-6.36 0-7.145 7.575-7.145 12.36V99.61h-9.578V77.672c0-3.43 0-8.29-5.5-8.29-6.36 0-7.148 7.575-7.148 12.36V99.61h-9.575v-36.8M229.918 62.809h9.578v36.8h-9.578zm0-15.864h9.578v9.145h-9.578v-9.145M244.781 62.809h8.504v8.359h.145c.43-3.43 4.36-9.219 10.074-9.219.93 0 1.93 0 2.93.285v9.649c-.856-.5-2.57-.785-4.286-.785-7.789 0-7.789 9.718-7.789 15.004v13.507h-9.578v-36.8M281.266 93.46c2.93 0 5.214-1.284 6.714-3.284 1.575-2.07 2-4.715 2-7.574h-4.14c-4.29 0-10.649.714-10.649 6.359 0 3.144 2.645 4.5 6.075 4.5zm-11.22-28.722c3.716-1.715 8.72-2.789 12.79-2.789 11.219 0 15.863 4.645 15.863 15.508v4.715c0 3.715.07 6.504.145 9.219.07 2.785.215 5.359.426 8.218h-8.43c-.36-1.93-.36-4.359-.43-5.504h-.14c-2.215 4.075-7.004 6.364-11.364 6.364-6.504 0-12.863-3.934-12.863-10.938 0-5.5 2.644-8.715 6.289-10.504 3.645-1.785 8.36-2.14 12.363-2.14h5.285c0-5.934-2.64-7.934-8.285-7.934-4.074 0-8.148 1.57-11.363 4l-.285-8.215M306.273 69.809H299.2v-7h7.074v-7.36l9.579-3.074v10.434h8.503v7h-8.503V86.96c0 3.144.859 6.074 4.5 6.074 1.714 0 3.359-.36 4.359-1l.285 7.574c-2 .57-4.215.86-7.074.86-7.5 0-11.649-4.649-11.649-11.938V69.81M350.438 77.598c-.29-4.645-2.43-8.645-7.79-8.645-5.359 0-8.078 3.715-8.503 8.645zm6.43 19.937c-3.505 1.93-7.505 2.934-12.65 2.934-12.148 0-19.222-7.008-19.222-19.082 0-10.649 5.649-19.438 17.078-19.438 13.653 0 17.508 9.364 17.508 22.223h-25.437c.425 5.933 4.574 9.289 10.503 9.289 4.645 0 8.649-1.715 12.22-3.715v7.79M385.383 70.523c-2.934-1-5.074-1.57-8.574-1.57-2.575 0-5.649.93-5.649 4.074 0 5.86 16.652 2.141 16.652 15.434 0 8.574-7.648 12.008-15.437 12.008-3.645 0-7.36-.645-10.86-1.574l.57-7.86c3.005 1.5 6.145 2.426 9.435 2.426 2.425 0 6.289-.926 6.289-4.5 0-7.219-16.653-2.285-16.653-15.578 0-7.93 6.934-11.434 14.438-11.434 4.5 0 7.43.715 10.43 1.36l-.641 7.214M407.281 49.73h12.293l19.008 37.301h.145v-37.3h9.574v49.878h-12.223l-19.074-37.3h-.145v37.3h-9.578V49.73M466.129 91.746h4.715c4.644 0 10.293-1.14 10.293-6.93 0-6.504-5.29-7.504-10.293-7.504h-4.715zm0-21.863h4.07c4.219 0 9.434-.93 9.434-6.074 0-5.79-5.07-6.22-9.649-6.22h-3.855zM456.125 49.73h17.438c6.425 0 16.078 1.86 16.078 12.793 0 5.93-4.004 10.075-9.938 11.145v.144c6.79.645 11.438 5.215 11.438 11.364 0 12.574-11.293 14.433-17.579 14.433h-17.437V49.73M506.61 91.746h5.577c8.36 0 16.434-6.215 16.434-17.078 0-10.86-8.074-17.078-16.433-17.078h-5.579zM496.604 49.73h13.653c15.293 0 28.797 5.145 28.797 24.938 0 19.797-13.504 24.941-28.797 24.941h-13.653V49.73M45.703 88.992c1.188-32.703 18.664-61.39 45.246-80.12H73.36C51.82 27.468 38.031 53.397 36.973 82.503c-.766 21.094 5.265 41.004 16.3 58.023h5.028c-8.66-15.504-13.27-33.066-12.598-51.535" fill="#fff"/><path d="M45.703 88.992c1.188-32.703 18.664-61.39 45.246-80.12H73.36C51.82 27.468 38.031 53.397 36.973 82.503c-.766 21.094 5.265 41.004 16.3 58.023h5.028c-8.66-15.504-13.27-33.066-12.598-51.535zm0 0" fill="none" stroke="#fff" stroke-width=".1"/><path d="M67.246 8.871H53.453c-15.11 14.184-25.652 34.79-28.055 58.48-2.93 28.876 6.915 55.66 24.391 73.184h4.664c-15.121-17.277-23.39-42.152-20.683-68.828C36.445 45.324 49.28 22.809 67.246 8.871" fill="#fcaf17"/><path d="M67.246 8.871H53.453c-15.11 14.184-25.652 34.79-28.055 58.48-2.93 28.876 6.915 55.66 24.391 73.184h4.664c-15.121-17.277-23.39-42.152-20.683-68.828C36.445 45.324 49.28 22.809 67.246 8.871zm0 0" fill="none" stroke-width=".05" stroke="#fcaf17"/><path d="M82.09 65.637a55.035 55.035 0 00-9.324-30.715c2.3 7.383 3.285 15.258 3.558 23.433.75 22.547-9.625 41.547-24.222 56.497 18.097-8.075 29.988-27.829 29.988-49.215" fill="#fff"/><path d="M71.254 78.953c-.383-8.043-3.125-15.406-7.508-21.433 1.848 5.148 2.797 10.695 3.262 16.476 1.281 15.945-5.281 29.762-14.906 40.856 12.289-6.344 19.875-20.747 19.152-35.899" fill="#fcaf17"/><path d="M71.254 78.953c-.383-8.043-3.125-15.406-7.508-21.433 1.848 5.148 2.797 10.695 3.262 16.476 1.281 15.945-5.281 29.762-14.906 40.856 12.289-6.344 19.875-20.747 19.152-35.899zm0 0" fill="none" stroke-width=".05" stroke="#fcaf17"/></svg>