<svg xmlns="http://www.w3.org/2000/svg" viewBox="0 0 450 263.19"><defs><clipPath id="a" transform="translate(-31 -124.4)"><path fill="none" d="M0 0h512v512H0z"/></clipPath></defs><g clip-path="url(#a)"><path d="M450 0L323.31 69.34H374a174.56 174.56 0 0014.25 172.74C373.17 151.6 410.19 64.06 450 0" fill="#ee3023"/><path fill="#00458a" d="M0 237.47h14.69v3.5H4.25v6.98h9.34v3.31H4.25v11.61H0v-25.4zM17.93 242.93h4.13v19.94h-4.13zm-.53-5.94a2.62 2.62 0 112.6 2.61 2.57 2.57 0 01-2.63-2.57M26.32 242.93h4.08v2.09a6.44 6.44 0 015-2.41 6.82 6.82 0 011.67.25v3.74a8.33 8.33 0 00-2.08-.28 6.45 6.45 0 00-4.57 1.66v14.92h-4.1zM38.52 262.09v-3.25a15.77 15.77 0 005.48 1.18c2.62 0 3.89-.85 3.89-2.69 0-1.67-1.27-2.12-3.73-3-2.93-.85-5.63-2.4-5.63-6 0-3.95 2.91-5.75 7.15-5.75a14.41 14.41 0 015 .87v3.3a12.94 12.94 0 00-4.86-1c-2.28 0-3.39.82-3.39 2.29s1 2 3.6 2.84c2.77.92 5.88 2.21 5.88 6.16s-2.91 6.16-7.26 6.16a15.66 15.66 0 01-6.13-1.11M55.49 257.49v-11.52h-2.72v-3h2.77l.74-5.29h3.34v5.29h4.57v3h-4.57v10.91c0 2.08.74 3 2.58 3a6.78 6.78 0 002.52-.49v3.21a10.63 10.63 0 01-3.46.58c-3.81 0-5.77-1.55-5.77-5.71M90.15 253.5l-2.44-7.34c-.58-1.71-1.27-3.79-1.55-5h-.09c-.32 1.23-1 3.31-1.59 5l-2.56 7.34zm-6.32-16h4.89l9.15 25.4h-4.65l-2-5.91H80.77l-2 5.91H74.4zM112.9 252.92c0-3.95-1.22-6.93-5.07-6.93a5.66 5.66 0 00-3.55 1.2v12.3a10.57 10.57 0 003.16.45c3.83 0 5.46-3 5.46-7m-12.74 8.94v-26.73h4.12v9.34a6.64 6.64 0 014.82-1.89c5.81 0 8.16 4.53 8.16 10.12 0 5.74-3.46 10.47-9.91 10.47a20.43 20.43 0 01-7.19-1.34M120.08 256.15v-13.22h4.08v12.57c0 2.77.87 4.4 3.85 4.4a7.62 7.62 0 004-1.38v-15.59h4.13v19.94h-4.08v-1.59a8.92 8.92 0 01-5.51 1.92c-4.87 0-6.5-3-6.5-7.05M157.11 259.37c6.64 0 8.28-4.28 8.28-9.17s-1.56-9.3-8-9.3h-3.46v18.47zm-7.49-21.9h8.21c8.74 0 12 6.13 12 12.73 0 6.23-3.18 12.67-12.17 12.67h-8.09zM173.55 235.15h4v9.39a9 9 0 015.55-1.94c4.86 0 6.54 3 6.54 7.06v13.2h-4.12v-12.54c0-2.77-.83-4.4-3.8-4.4a7.26 7.26 0 00-4 1.38v15.57h-4.13zM203.08 258.75v-4.64h-1.55c-3.38 0-5.23.94-5.23 3.18 0 1.82 1.23 2.85 3.26 2.85a5.05 5.05 0 003.52-1.35m.53 2.21a6.82 6.82 0 01-5.23 2.24c-3.74 0-6.23-2.12-6.23-5.62 0-4.12 3.46-6.13 9-6.13.65 0 1.43 0 2 .09v-1.59c0-2.85-1.15-4-4.08-4a12.25 12.25 0 00-5 1.13v-3.34a15.7 15.7 0 015.76-1.1c4.68 0 7.47 2 7.47 6.65v9c0 1.25.56 1.66 1.46 1.66a4.85 4.85 0 00.73-.07v2.85a5.32 5.32 0 01-2.32.44 3.44 3.44 0 01-3.47-2.23M224.35 252.92c0-3.95-1.23-6.93-5.07-6.93a5.61 5.61 0 00-3.55 1.2v12.3a10.37 10.37 0 003.13.45c3.85 0 5.49-3 5.49-7m-12.75 8.94v-26.73h4.12v9.34a6.64 6.64 0 014.82-1.88c5.81 0 8.17 4.53 8.17 10.12 0 5.74-3.47 10.47-9.92 10.47a20.43 20.43 0 01-7.19-1.34M231.71 242.93h4.13v19.94h-4.13zm-.53-5.94a2.62 2.62 0 015.23 0 2.62 2.62 0 01-5.23 0M258.87 259.49c3 0 4.61-1.43 4.61-4.08s-1.47-4.24-4.54-4.24h-4.2v8.32zm-.13-11.36c2.94 0 4.28-1.36 4.28-3.77 0-2.07-1.31-3.5-4.24-3.5h-4v7.27zm-8.24-10.66h8.74c5.26 0 8 2.58 8 6.45a5.59 5.59 0 01-4.13 5.58v.1a5.8 5.8 0 014.95 5.95c0 4.44-3.27 7.34-8.62 7.34h-9zM281.41 258.75v-4.64h-1.56c-3.39 0-5.23.94-5.23 3.18 0 1.82 1.24 2.85 3.27 2.85a5.05 5.05 0 003.52-1.35m.52 2.21a6.81 6.81 0 01-5.22 2.24c-3.75 0-6.24-2.12-6.24-5.62 0-4.12 3.46-6.13 9-6.13.66 0 1.43 0 2 .09v-1.59c0-2.85-1.15-4-4.09-4a12.28 12.28 0 00-5 1.13v-3.34a15.63 15.63 0 015.74-1.1c4.71 0 7.48 2 7.48 6.65v9c0 1.25.57 1.66 1.47 1.66a5.24 5.24 0 00.74-.07v2.85a5.52 5.52 0 01-2.33.44 3.45 3.45 0 01-3.48-2.23M290 242.93h4.06v1.61a9 9 0 015.51-1.93c4.86 0 6.53 3 6.53 7.06v13.2H302v-12.55c0-2.77-.81-4.4-3.8-4.4a7.31 7.31 0 00-4 1.38v15.57H290zM319.9 260.27l-5.67-7.46v10.06h-4.11v-27.71h4.11v16.5l7.07-8.73h4.53l-7.47 9 5.23 6.68a2.41 2.41 0 002.07 1.24 2.68 2.68 0 00.49-.05v3.09a3.78 3.78 0 01-1.22.17c-2 0-3.38-.56-5-2.77M0 69.34h87.37v25.81H31.34v33.12h49.85v23.75H31.34v59.63H0V69.34zM127.09 69.34h35l52.17 142.31h-34.11L171 183.32h-55.58l-9.61 28.33H73.56zm35.68 88.86l-11.89-36.55c-2.75-8.44-5.49-16.68-7.09-23.29h-.46c-1.83 6.39-4.58 15.07-7.32 23.29l-12.35 36.55zM224.51 69.34h54.19c30.89 0 47.58 14.63 47.58 36.32 0 17.58-10.74 28.32-22.41 31.52v.42c15.33 3.43 26.76 14.17 26.76 32.67 0 26.05-19.67 41.35-50.56 41.35h-55.56zm50.08 58c14.18 0 20.13-6.4 20.13-17.36 0-9.82-6.17-16.22-19.89-16.22h-19v33.58zm.68 59.85c14 0 21.51-6.4 21.51-19 0-12.79-7.08-19.41-21.27-19.41h-19.66v38.38zM16.68 10.27h-2.93a.44.44 0 00-.5.49v25.19a4.65 4.65 0 01-7.94 3.3 4.43 4.43 0 01-1.39-3.3v-9.28c0-.34-.16-.5-.47-.5h-3a.44.44 0 00-.5.5v9.28a8.6 8.6 0 008.59 8.58 8.57 8.57 0 008.59-8.58V10.76a.44.44 0 00-.5-.49M34 34.14h-4.48a4.49 4.49 0 01-4.47-4.46v-2.76a4.23 4.23 0 011.31-3.15 4.45 4.45 0 016.31 0A4.27 4.27 0 0134 26.92zm-4.46-15.6A8.11 8.11 0 0023.61 21a8 8 0 00-2.46 5.92v2.76a8.36 8.36 0 008.39 8.36H34a4 4 0 01-3.93 3.74h-4.44c-.33 0-.49.17-.49.51v2.92c0 .34.16.51.49.51h4.42a8 8 0 007.85-7.86V26.92a8.38 8.38 0 00-8.38-8.38M60.22 10.27h-2.93a.43.43 0 00-.48.49v20.45a3.06 3.06 0 01-.7 2.25 3.17 3.17 0 01-2.25.68H42.29c-.31 0-.46.16-.46.5v2.96c0 .32.17.47.49.47h11.54a6.33 6.33 0 006.88-6.86V10.76c0-.32-.18-.49-.52-.49"/><path d="M48 13.22a.43.43 0 00-.49.48v18.12a.43.43 0 00.49.48h3c.34 0 .5-.16.5-.48V13.7c0-.32-.17-.48-.5-.48zM45.84 10.99H53c.28 0 .4-.13.4-.39V9.42c0-.25-.12-.38-.4-.38h-4.09V6.85a1.17 1.17 0 01.37-.89 1.22 1.22 0 01.88-.35 1.13 1.13 0 011.14.75l.23.53a.42.42 0 00.19.22.39.39 0 00.18 0 .32.32 0 00.16 0l1.06-.47c.18-.08.27-.19.27-.32a.29.29 0 000-.18l-.23-.53a3 3 0 00-3-2 3.14 3.14 0 00-2.28 1 3.08 3.08 0 00-.93 2.27v2.19h-1.11a.33.33 0 00-.38.38v1.15c0 .26.12.4.38.4M68.11 10.27h-2.93a.45.45 0 00-.51.5V37.6c0 .32.17.47.51.47h2.93a.42.42 0 00.48-.47V10.8c0-.33-.16-.5-.48-.5M97.9 46.4h-2.69c-.34 0-.51.16-.51.49v2.85a.44.44 0 00.51.5h2.69c.33 0 .49-.16.49-.5v-2.85a.43.43 0 00-.49-.49M92 46.4h-2.68a.43.43 0 00-.48.49v2.85c0 .34.16.5.48.5H92a.44.44 0 00.5-.5v-2.85c0-.33-.16-.49-.5-.49M148.15 41.5h-2.71a.43.43 0 00-.49.48v2.86c0 .34.16.5.49.5h2.71a.44.44 0 00.49-.5v-2.86a.43.43 0 00-.49-.48M174.2 31.17a3.08 3.08 0 01-.69 2.27 3.11 3.11 0 01-2.25.7h-10.79v-6.31a17.77 17.77 0 014.8-3.71 11 11 0 014.7-1.66 3.69 3.69 0 013.54 2 6.69 6.69 0 01.69 3.17zM170 18.53c-2.61 0-5.79 1.44-9.5 4.31V10.77a.45.45 0 00-.5-.5h-3c-.32 0-.48.17-.48.5v23.37h-5.91a2.72 2.72 0 01-1.72-.38.93.93 0 01-.12-.5V19.77a.44.44 0 00-.5-.49h-3c-.33 0-.47.16-.47.49v13a1.53 1.53 0 01-.31 1.08 1.47 1.47 0 01-1 .29h-30.2v-8.87a6.73 6.73 0 00-6.74-6.74 6.47 6.47 0 00-4.75 2 6.56 6.56 0 00-2 4.77v13.54H89a4.6 4.6 0 01-3.31-1.37 4.47 4.47 0 01-1.36-3.3A4.79 4.79 0 0185 31.6a4.69 4.69 0 011.93-1.79l1.31-.68c.21-.09.31-.22.31-.37a.45.45 0 00-.09-.26l-1.34-2.64a.49.49 0 00-.28-.25.76.76 0 00-.16 0 .31.31 0 00-.22.07l-1.31.67a8.56 8.56 0 00-3.48 3.22 8.69 8.69 0 00-1.31 4.59 8.33 8.33 0 002.52 6.08 8.22 8.22 0 006 2.5h13a1.85 1.85 0 001.38-.58 1.88 1.88 0 00.58-1.38V25.27a2.78 2.78 0 01.82-2 2.72 2.72 0 012-.83 2.83 2.83 0 012.83 2.83V36.1a1.88 1.88 0 00.57 1.38 1.92 1.92 0 001.39.56h32.13a5.14 5.14 0 003.61-1.26 6.36 6.36 0 004.2 1.26h19.93a6.31 6.31 0 006.86-6.87V27.6a9.48 9.48 0 00-2.25-6.59 7.51 7.51 0 00-5.9-2.52" fill="#00458a"/><path d="M167.2 15.2h2.7c.34 0 .5-.16.5-.47v-2.85c0-.34-.16-.52-.5-.52h-2.7c-.32 0-.48.18-.48.52v2.85a.42.42 0 00.48.47M194.89 34.14h-4.45a4.51 4.51 0 01-4.47-4.46v-2.76a4.46 4.46 0 018.92 0zm31-14.86h-3a.43.43 0 00-.49.49v13a1.48 1.48 0 01-.31 1.08 1.54 1.54 0 01-1.07.29h-22.2v-7.22a8.39 8.39 0 00-16.77 0v2.76a8.38 8.38 0 008.39 8.36h4.45a4 4 0 01-1.22 2.65 3.79 3.79 0 01-2.7 1.09h-4.44c-.32 0-.48.18-.48.51v2.92q0 .51.48.51H191a8 8 0 007.85-7.68h22.27A5.23 5.23 0 00225 36.6a5.3 5.3 0 001.44-3.86v-13a.43.43 0 00-.48-.49M223.33 41.5h-2.7a.44.44 0 00-.5.48v2.86a.44.44 0 00.5.5h2.7a.44.44 0 00.49-.5v-2.86a.43.43 0 00-.49-.48M235.87 5.96h-4.1V3.78a1.16 1.16 0 01.36-.86 1.15 1.15 0 01.87-.32 1.11 1.11 0 011.11.75l.25.54a.33.33 0 00.3.25.69.69 0 00.2 0L236 3.6a.37.37 0 00.19-.24.22.22 0 000-.13.22.22 0 000-.15l-.21-.55A3 3 0 00233 .6a3.14 3.14 0 00-2.27.94 3.06 3.06 0 00-.93 2.24v2.18h-1.1a.35.35 0 00-.4.4v1.16a.35.35 0 00.4.4h7.16a.35.35 0 00.38-.4V6.36c0-.27-.13-.4-.38-.4M233.75 10.27h-2.92a.44.44 0 00-.5.49V37.6c0 .32.16.47.5.47h2.92a.42.42 0 00.48-.47V10.76a.43.43 0 00-.48-.49M256.85 24.47H264c.25 0 .37-.13.37-.39v-1.19c0-.25-.12-.39-.37-.39h-4.12v-2.17a1.23 1.23 0 011.23-1.26 1.1 1.1 0 011.14.76l.23.56a.4.4 0 00.34.23.49.49 0 00.21 0l1.07-.44a.58.58 0 00.2-.23.49.49 0 000-.14.38.38 0 000-.16l-.22-.53a3 3 0 00-3-2 3.24 3.24 0 00-3.2 3.23v2.17h-1.1a.35.35 0 00-.4.39v1.19a.35.35 0 00.4.4M308.41 15.2h2.71a.43.43 0 00.49-.47v-2.85a.44.44 0 00-.49-.5h-2.71a.44.44 0 00-.49.5v2.85a.43.43 0 00.49.47" fill="#00458a"/><path d="M325.66 19.28h-2.94a.43.43 0 00-.49.49v13a1.49 1.49 0 01-.29 1.08 1.59 1.59 0 01-1.08.29h-7.37a2.32 2.32 0 01-1.62-.39.73.73 0 01-.16-.52V19.75c0-.34-.16-.5-.49-.5h-2.93a.44.44 0 00-.49.5v13a1.13 1.13 0 01-1.29 1.41h-32.38a2.3 2.3 0 01-1.63-.39.7.7 0 01-.14-.52V10.76a.42.42 0 00-.48-.48h-3c-.33 0-.5.16-.5.48v22a1.52 1.52 0 01-.28 1.1 1.47 1.47 0 01-1 .31h-12.42a4.69 4.69 0 01-4.66-4.68 4.75 4.75 0 01.73-2.53 4.49 4.49 0 011.93-1.76l1.29-.7a.41.41 0 00.3-.36.63.63 0 00-.08-.28l-1.32-2.62a.44.44 0 00-.3-.25h-.16a.39.39 0 00-.2 0l-1.35.66a8.76 8.76 0 00-3.46 3.24 8.56 8.56 0 00-1.3 4.57 8.54 8.54 0 008.58 8.58h12.38a5.28 5.28 0 003.67-1.28 6.29 6.29 0 004.21 1.28h31.49a5.28 5.28 0 003.67-1.28 6.31 6.31 0 004.2 1.28h6.56a4.9 4.9 0 005.29-5.26v-13a.43.43 0 00-.49-.49M323.1 41.5h-2.7c-.34 0-.5.16-.5.48v2.86a.44.44 0 00.5.5h2.7a.44.44 0 00.49-.5v-2.86a.43.43 0 00-.49-.48" fill="#00458a"/></g></svg>