<svg xmlns="http://www.w3.org/2000/svg" width="213.267" height="170.36" viewBox="0 0 159.95 127.77"><g clip-path="url(#clip1)"><path d="M3.293 127.77H159.48V81.492H3.293zm0 0" fill="#005596"/></g><path d="M9.172 121.984h34.707V87.277H9.172zm0 0" fill="#900028"/><path d="M40.277 103.113s-13.726 9.719-13.984 17.543c-2.824-11.73 5.234-24.039 5.234-24.039l-10.593 6.602s3.64-.84 4.035-.942c-1.832 5.684-1.395 12.168-1.395 12.168l-11.332-11.332 14.02-14.015M51.496 95.027h1.75s-.422 1.938-.476 2.211c-.055.297-.747 1.95 1.648 1.95h6.55l1.567-7.32h1.77l-1.883 8.902h-9.113c-.84 0-2.985-.504-2.274-3.61M67.238 100.77l.348-1.582h-2.129l.277-1.356s.207-1.355 1.473-1.355h1.219s-.664 3.14-.73 3.43c-.301 1.394-.696 2.433-2.051 2.433h-2.938l-.36 1.695h2.915s3.234.41 4-3.18c.636-3.023 1.234-5.812 1.234-5.812h-2.902s-2.969-.309-3.578 2.547c-.61 2.847-.66 3.18-.66 3.18M71.805 93.809l-.985 4.605h1.782l.98-4.605zm0 0" fill="#fff"/><path d="M76.676 91.867s-.848 3.98-.926 4.324c-.29 1.215-.531 2.996-2.457 2.996H70.66l-.34 1.583h2.97c.866 0 3.315-.348 3.91-3.09.59-2.743 1.237-5.813 1.237-5.813M71.238 93.344l.145-.746h.43c-.356-.164-.399-1.332.785-1.332h1.175l-.152.66h-.933c-.372.004-.633.672.187.672h.96l-.155.746M81.11 91.867l-1.907 8.903h-1.762l1.88-8.903zm0 0M89.93 105.09l-.356 1.418h-5.289s-2.492-.524-2-3.188c.445-2.406 1.317-4.132 4.031-4.132h4.493s.304-1.114.382-1.454c.075-.336.344-1.144-1.09-1.144h-3.949l.305-1.39h4.77c.71 0 2.156.28 1.8 1.902l-.48 2.085h2.152l.88-4.101h1.776l-.878 4.102h1.5s1.96.167 2.386-1.91c.426-2.079 1.117-5.192 1.117-5.192h1.774l-1.512 7.102h5.492l.258-1.653s0-1.105-1.344-1.105h-2.675l.293-1.254h2.382s3.211-.094 2.907 2.527l-.239 1.484h.922s1.688.149 2.207-2.335c.371-1.754.989-4.766.989-4.766h1.793s-1.008 4.61-1.094 5.043c-.086.433-.246 3.64-4.18 3.64h-9.816l.183-.847s-.398.844-1.632.848H86.457s-1.559-.141-2.055 1.039c-.492 1.18-.468 2.27-.468 2.27s0 1.01 1.84 1.01" fill="#fff"/><path d="M85.469 103.848h1.46l.333-1.516h-1.465zm0 0M93.66 103.848h1.461l.332-1.516h-1.465zm0 0M95.504 103.848h1.46l.329-1.516h-1.461zm0 0M104.969 94.172h1.465l.328-1.512H105.3zm0 0M113.762 100.77h1.781l1.828-8.684h-1.773zm0 0M120.23 94.574h1.754s-.433 2.102-.554 2.64c-.121.54-.746 1.997 1.562 1.974 2.363-.02 13.094 0 13.094 0s1.555.273 2.05-2.094c.505-2.399 1.06-5.008 1.06-5.008h1.773l-.992 4.727s-.649 2.363 1.144 2.363 2.094-.973 2.285-1.86c.192-.886.395-1.87.395-1.87h1.785l-.504 2.374s-.297 1.375 1.406 1.375c1.7 0 1.797-1.57 1.926-2.136.125-.567.344-1.633.344-1.633h1.773s-.508 2.48-.656 3.11c-.613 2.542-5.145 3.386-6.078.995-1.031 1.781-5.106 1.875-5.2-.14-.421.843-.84 1.379-3.456 1.379h-13.192c-1.023 0-2.969-.43-2.484-2.668.484-2.247.765-3.528.765-3.528" fill="#fff"/><path d="M129.945 95.898h3.84l.258-1.195h-1.61c-.331 0-.976-.16-.788-.758.187-.597.851-.5 1.07-.5h.976l.223-.968h-2.031c-.77 0-1.266.382-1.45 1.175-.12.54.434 1.02.434 1.02h-.652M146.133 93.43a1.007 1.007 0 11-2.014.001 1.007 1.007 0 012.014-.001M147.227 102.555a1.007 1.007 0 11-2.014.001 1.007 1.007 0 012.014-.001M58.086 112.672s-3.223-.008-3.578 0c.074-.324.484-2.27.527-2.465.223.004 4.305 0 4.305 0l.297-1.324h-6.371l-1.914 9h2.039s.754-3.563.832-3.89h3.507M61.863 111.188H59.82l-1.441 6.695h2.055zm0 0M62.156 109.766l.32-1.477h-2.03l-.305 1.477zm0 0M67.441 112.926l.743-1.66s-.735-.243-.996-.243c-.524 0-1.227.282-1.688.73.047-.175.14-.566.14-.566h-2.05l-1.434 6.696H64.2l.551-2.586c.273-1.145.477-1.867.93-2.262.289-.254.601-.383.93-.383.222 0 .367.063.578.16M73.797 111.5c-.32-.14-1.074-.477-2.434-.477-3.191 0-3.215 1.946-3.207 2.165.04 1.14 1.211 1.562 1.84 1.785l.383.148c.785.266 1.156.457 1.168.848.016.426-.52.879-1.535.879-1.13 0-1.676-.383-2.16-.72l-.067-.042-.52 1.305.051.027c.41.203 1.274.629 2.84.629 2.34 0 3.348-1.149 3.309-2.285-.04-1.094-1.235-1.578-1.473-1.664l-.883-.325c-.488-.175-1.039-.378-1.05-.796-.016-.45.582-.778 1.421-.778.692 0 1.473.258 1.817.594l.062.062.52-1.316M77.71 111.2c.067-.25.395-1.977.395-1.977l-2.105.406s-.297 1.371-.344 1.558c-.183-.003-1.011 0-1.011 0l-.395 1.262h1.148c-.078.305-.3 1.457-.3 1.457-.477 2.09-.543 2.27-.528 2.778.024.605.336.933.973 1.136.27.086.605.13.992.13.563 0 1.52-.27 1.52-.27l.433-1.375s-.59.343-1.265.37c-.391.016-.594-.132-.602-.402 0 0 .676-3.3.809-3.804.164.004 1.632 0 1.632 0l.27-1.258s-1.336-.016-1.621-.012M91.285 108.848a7.594 7.594 0 00-1.406-.125c-4.453 0-6.344 3.242-6.266 5.543.055 1.488.809 2.64 2.121 3.242.817.37 1.7.539 2.868.539 1.472 0 2.437-.305 2.546-.34-.003.004.723-.242.723-.242l.883-4.063h-2.047s-.59 2.86-.633 3.02c-.37.11-.746.207-1.46.207-.72 0-1.712-.14-2.368-.8-.363-.364-.594-.942-.613-1.536-.028-.742.262-1.863.969-2.695.535-.641 1.359-1.153 2.203-1.364a4.426 4.426 0 011.105-.129c.55 0 1.043.067 1.508.2.555.164.754.336 1.035.582l.063.05.199.235.597-1.664s-1.128-.512-2.027-.66M99.832 111.188s-.941 4.507-1.008 4.78c-.347.247-.957.68-1.89.68-.266 0-1.016-.09-1.043-.886-.004-.098.109-.485.214-1.004.282-1.356.754-3.57.754-3.57h-2.03s-.47 2.253-.79 3.738c-.125.582-.207 1.031-.195 1.226.07 1.352 1.289 1.832 2.437 1.832.742 0 1.625-.351 2.262-.71-.027.109-.129.613-.129.613l2.031-.004 1.422-6.695M106.43 107.77h-2.051l-2.149 10.113h2.043c.301-1.63 2.157-10.113 2.157-10.113M112.082 108.008s-.848-.11-1.367-.11c-.793 0-1.418.168-1.86.497-.609.457-.902 1.113-1.113 2.101-.004.012-.11.473-.16.692-.187-.004-1.086 0-1.086 0l-.3 1.261h1.124a1576.5 1576.5 0 00-1.16 5.434h2.04s1.038-4.918 1.16-5.434h1.406l.425-1.261s-1.277-.004-1.57 0c.043-.188.254-1.446.586-1.739.148-.129.398-.215.703-.215.27 0 .817.184.817.184M121.102 112.21c-.665.388-1.63.419-2.739.419 0 0-.133 0-.254-.004.075-.293.485-2.355.532-2.535.156 0 .695-.008.695-.008.887-.016 1.406-.016 1.816.102.649.203.72.671.723.808.008.18-.031.793-.773 1.219m-2.75 1.68c1.058-.012 1.652.004 2.14.12.707.18.875.606.887.93.02.637-.371 1.164-1.047 1.41-.707.254-1.637.262-2.687.25h-.41c.07-.3.519-2.37.6-2.699l.517-.011m5.53-3.059c-.027-.715-.429-1.293-1.14-1.629-.676-.32-1.539-.348-2.437-.348h-3.457l-1.91 9.043s4.351.024 5.039-.015c.53-.031 1.882-.324 2.703-1.117.554-.512.828-1.137.8-1.864a1.844 1.844 0 00-.316-.988 2.268 2.268 0 00-.937-.734c-.086-.028-.153-.028-.23-.051.1-.027.245-.07.245-.07 1.047-.391 1.676-1.246 1.64-2.227M128.074 116.664c-1.273 0-1.644-.867-1.664-1.379 0-.02-.035-1.547 1.457-2.394.793-.442 1.684-.493 2.281-.493 0 0 .336.012.407.012-.078.34-.735 3.426-.758 3.528-.035.027-.848.726-1.723.726m2.352-5.477c-1.164 0-3.324-.015-4.805 1.438-.605.602-1.195 1.688-1.16 2.742.055 1.516 1.3 2.57 3.043 2.57.973 0 1.644-.386 2.023-.707-.011.06-.132.653-.132.653h2.042l1.426-6.695M138.766 111.035c-1.067 0-1.946.582-2.48.98.038-.128.179-.828.179-.828h-2.035l-1.426 6.7 2.035-.004s.98-4.582 1.004-4.668c.406-.344 1.11-.832 1.969-.832 1.117 0 1.136.625 1.144.828.008.27-.097.55-.168.844l-.816 3.828h2.039l.559-2.676c.156-.613.367-1.742.34-2.426-.055-1.617-1.81-1.746-2.344-1.746M150.152 111.188h-2.527l-2.797 2.34 1.219-5.758h-2.035l-2.153 10.113h2.036l.718-3.383 2.016 3.383h2.105s-2.05-3.438-2.207-3.66c.2-.153 3.625-3.035 3.625-3.035" fill="#fff"/></svg>