<svg id="Layer_1" data-name="Layer 1" xmlns="http://www.w3.org/2000/svg" width="364.173" height="90.365" viewBox="0 0 273.128 67.774"><defs><style>.cls-1,.cls-3{fill:#e30613}.cls-3{fill-rule:evenodd}</style></defs><path class="cls-1" d="M59.291 16.178a2.765 2.765 0 00-.22-.02h-.334a.454.454 0 01-.076.008 2.787 2.787 0 00-2.321 2.143c-4.153 16.045-12.428 28.2-22.5 32.446 9.2-1.231 17.3-7.288 22.754-16.178a48.545 48.545 0 01-9 17.91 34.649 34.649 0 01-14.222 3.09c-10.612 0-20.387-4.955-28.183-13.278a1.57 1.57 0 00-1.031-.499 1.376 1.376 0 00-.232 0h-.035a1.9 1.9 0 00-.241.044l-.023.007a1.64 1.64 0 00-.248.093s-.006 0-.008.006a1.649 1.649 0 00-.244.145 1.751 1.751 0 00-.3.285C9.511 53.715 20.373 61.6 32.9 63.194a27.1 27.1 0 01-19.866-.685 29.738 29.738 0 005.743 4.718l.018.012c.142.087.288.175.431.259a.368.368 0 00.068.039c.136.082.268.159.405.235l.1.056.39.213.11.061c.131.065.256.135.386.2.042.023.082.042.125.064.125.063.251.126.374.183.046.022.091.04.135.063.124.059.249.115.376.174.044.018.086.035.128.054.13.059.259.114.39.164a1.086 1.086 0 00.1.045c.586.242 1.187.457 1.787.643l.175.056c.1.032.21.061.316.09.075.022.148.045.228.063.1.029.2.052.3.078.08.022.164.045.248.063s.186.045.283.067.175.042.267.061.18.035.269.057.19.037.282.051.178.034.268.049l.289.045c.095.014.173.029.258.04.1.014.2.026.3.041s.168.022.255.029c.1.014.208.024.309.033.084.007.167.018.245.024.112.01.223.015.333.024a9.449 9.449 0 00.604.032c.062.005.128.007.188.011.188 0 .375.008.565.008 11.23 0 21.088-9.51 26.676-23.823a74.744 74.744 0 004.831-25.041c0-.144 0-.285.007-.426q.02-.878.02-1.757v-.457a2.9 2.9 0 00-2.325-2.932" transform="translate(-2.829 -2.836)"/><path d="M2.83 42.376a1.751 1.751 0 01.3-.285 1.533 1.533 0 012.058.21c7.8 8.323 17.572 13.278 28.184 13.278 8.537 0 16.535-3.208 23.4-8.8a48.238 48.238 0 01-9.311 15.382 37.069 37.069 0 01-9.848 1.33c-14.5 0-27.271-8.385-34.776-21.12" transform="translate(-2.829 -2.836)" fill="#ffd618"/><path class="cls-1" d="M61.617 19.567v-.498a3.155 3.155 0 00-.672-1.91.049.049 0 01-.017-.018 2.657 2.657 0 00-.328-.341c-.033-.03-.071-.05-.106-.077a2.973 2.973 0 00-.285-.213c-.078-.046-.16-.076-.241-.115s-.13-.069-.2-.094a2.524 2.524 0 00-.478-.125 2.621 2.621 0 00-.442-.019 1.57 1.57 0 00-.166.014c-.054.005-.111.005-.163.013v.016a2.8 2.8 0 00-2.18 2.114c-4.153 16.045-13.75 27.6-22.5 32.446 9.2-1.231 17.293-7.285 22.745-16.172-2.5 9.148-7.171 16.946-13.209 22.319a30.222 30.222 0 01-10.419 1.863C21.43 58.77 11.112 52.178 4.2 41.8a1.5 1.5 0 00-1.072.29 1.684 1.684 0 00-.3.286C9.511 53.71 20.362 61.594 32.889 63.192a27.04 27.04 0 01-19.85-.683c.389.406.785.792 1.184 1.17h-.009c.091.086.185.166.277.252.188.17.373.344.561.51.1.085.2.166.294.25.213.186.428.369.647.545.026.022.051.039.077.061a27.569 27.569 0 002.518 1.803c.079.05.155.1.233.151.216.132.431.257.648.382.119.071.24.143.36.21.2.113.4.216.605.322.14.072.28.146.422.217.193.095.385.185.58.274.155.071.307.141.461.209.188.081.375.157.565.235.165.065.329.131.5.194s.364.13.549.2.351.118.526.173.356.112.535.162.373.1.561.148c.173.047.343.09.515.129.2.045.4.084.6.124.164.032.328.067.5.095.212.036.428.065.643.1.154.02.307.044.461.061.244.028.488.046.734.066.127.009.256.024.383.033.376.021.75.033 1.127.033 6.419 0 12.385-3.111 17.364-8.441a.263.263 0 01.033-.034c.354-.38.7-.773 1.041-1.177.063-.072.127-.141.188-.214.332-.394.658-.8.978-1.216.069-.09.139-.174.207-.264.314-.41.619-.832.922-1.261.071-.1.146-.2.219-.307.3-.424.582-.86.866-1.3.075-.118.152-.232.228-.35.275-.438.545-.888.812-1.342l.231-.392c.259-.452.513-.915.762-1.384.077-.14.155-.283.228-.425.244-.468.482-.946.717-1.428.072-.151.148-.3.22-.455.231-.487.455-.983.676-1.483.043-.1.089-.2.134-.3l-.009.008a72.772 72.772 0 005.607-25.314.189.189 0 01.013-.044c.015-.3.021-.61.031-.917.007-.21.015-.42.021-.633.022-.785.038-1.576.038-2.371" transform="translate(-2.829 -2.836)"/><path class="cls-1" d="M13.018 10.876S48.164 13 33.281 50.182c0 0 54.882-52.342-20.263-39.306" transform="translate(-2.829 -2.836)"/><path class="cls-3" d="M77.654 46.039h8.736c1.665 0 3.636.63 3.636 3.142a3.058 3.058 0 01-3.283 3.219h-9.089zM70.8 66.463h6.854v-9.258h8.524c2.115 0 3.641.873 3.641 4.422 0 2.649.035 3.663.676 4.836h7.484c-1.2-1.268-1.3-4.237-1.3-5.48 0-2.481-.458-6.287-3.463-6.749v-.062c2.861-1.025 4.1-3.012 4.1-6.078 0-2.59-1.176-6.861-8.168-6.861H70.8z" transform="translate(-2.829 -2.836)"/><path class="cls-3" d="M116.231 56.685h-7.914l3.954-10.016zm3.885 9.778h7.393l-11.1-25.23h-8.271l-11.1 25.23h7.387l2.051-5.2h11.6z" transform="translate(-2.829 -2.836)"/><path class="cls-1" d="M132.477 49.25V38.396h-6.856v25.231h6.856v-7.499l3.999-3.421 8.587 10.92h9.253l-12.471-15.09 11.595-10.141h-9.229L132.477 49.25z"/><path class="cls-3" d="M167.358 55.65h9.393c2.405 0 3.644 1.058 3.644 3.044a2.692 2.692 0 01-2.933 2.963h-10.1zm-6.867 10.813h18c7.632 0 9.182-4.262 9.182-7.635 0-2.721-1.55-5.621-4.478-6.119v-.064a5.117 5.117 0 003.354-5.051c0-4.677-3.428-6.362-7.108-6.362h-18.95zm6.867-20.643h8.576c2.844 0 3.542 1.133 3.542 2.719 0 1.877-.988 2.734-2.575 2.734h-9.543z" transform="translate(-2.829 -2.836)"/><path class="cls-3" d="M204.972 56.685h-7.917l3.962-10.016zm3.888 9.778h7.387l-11.1-25.23h-8.266l-11.1 25.23h7.373l2.058-5.2h11.6z" transform="translate(-2.829 -2.836)"/><path class="cls-1" d="M235.646 55.992h-.071l-13.261-17.596h-7.954v25.232h6.652V46.031h.065l13.756 17.597h7.447V38.396h-6.634v17.596zM251.276 49.25V38.396h-6.854v25.231h6.854v-7.499l3.998-3.421 8.592 10.92h9.262l-12.477-15.09 11.586-10.141h-9.215L251.276 49.25z"/><path class="cls-1" d="M70.8 16.762h2.913v7.981c.121.832.367 1 1.272 1h4.234c.881 0 1.125-.171 1.248-1v-.832H77.53V21h6.02v2.915h-.171v.464c0 2.791-1.59 4.334-4.455 4.334h-3.67c-2.863 0-4.454-1.543-4.454-4.334zm2.839 13.782h2.912v2.937h-2.912zm4.136 0h2.913v2.937h-2.913z" transform="translate(-2.829 -2.836)"/><path class="cls-1" d="M83.379 21h3.6v-8.177h2.911V21h.147v2.915h-6.658zm3.6-12.9h2.911v2.91h-2.913z" transform="translate(-2.829 -2.836)"/><path class="cls-1" d="M93.415 21V8.1h2.911v4.724h4.919a4.3 4.3 0 014.6 4.43v6.656H89.89V21zm9.494 0v-3.479c0-1.2-.537-1.787-1.566-1.787h-5.017V21zM108.049 28.71v-2.963h4.014c.562 0 .93-.123 1.075-.392a1.122 1.122 0 00.172-.612v-.832h-.66a4.305 4.305 0 01-4.6-4.455v-2.2a4.312 4.312 0 014.6-4.43h3.6V21h.147v2.914h-.147v.465c0 2.791-1.591 4.334-4.454 4.334zm5.261-12.975h-.759c-1.052 0-1.59.588-1.59 1.787v1.664c0 1.2.538 1.811 1.59 1.811h.759z" transform="translate(-2.829 -2.836)"/><path class="cls-1" d="M113.418 18.16h3.599V5.262h2.91v15.812h-6.509V18.16zM122.133 5.262h2.911v15.813h-2.911z"/><path class="cls-1" d="M145.028 12.823V21h.172v2.915h-3.084V16.4c-2.106.711-3.7 3.5-4.453 7.516h-2.987c.612-6.8 4.625-10.722 10.352-11.088M137.956 8.1h2.961v2.91h-2.961zm4.16 0h2.912v2.91h-2.912z" transform="translate(-2.829 -2.836)"/><path class="cls-1" d="M145.028 23.911V21h3.621v-3.747a4.3 4.3 0 014.6-4.43h3.6V21h.123v2.914h-.685a4.437 4.437 0 01-4.137 2.3h-3.5v-2.3zm6.534-.637h.734c1.077 0 1.591-.588 1.591-1.787v-5.752h-.734c-1.076 0-1.591.588-1.591 1.787z" transform="translate(-2.829 -2.836)"/><path class="cls-1" d="M156.848 21h6.143v-8.177h2.909V21h.147v2.915h-9.2zm2.008 4.75h2.912v2.963h-2.912zm4.135 0h2.909v2.963h-2.913z" transform="translate(-2.829 -2.836)"/><path class="cls-1" d="M175.375 21v-3.478c0-1.2-.514-1.787-1.542-1.787H169.5v-2.912h4.233a4.312 4.312 0 014.6 4.429V21h.147v2.915H165.9V21zm-3.867-12.9h2.937v2.91h-2.937z" transform="translate(-2.829 -2.836)"/><path class="cls-1" d="M175.508 18.16h3.597V5.262h2.912v15.812h-6.509V18.16zM184.218 5.262h2.913v15.813h-2.913z"/><path class="cls-1" d="M196.764 16.762h2.912v7.98c.123.833.367 1 1.274 1h3.94a1.368 1.368 0 001.125-.391 1.36 1.36 0 00.123-.613v-7.98h2.937V21h3.279v-6.195h2.912V21h3.279v-8.177h2.937V23.91h-12.407v.465c0 2.791-1.591 4.334-4.455 4.334h-3.4c-2.863 0-4.455-1.543-4.455-4.334zM226.549 2.836v1.127h-.979c-.464 0-.71.269-.71.807 0 .441.269.66.783.66h1.4v1.127h-3.773V5.43h.636a1.508 1.508 0 01-.147-.635 1.891 1.891 0 011.958-1.959zm.049 21.075h-2.912V8.1h2.914zM228.36 25.844h.367c1.445 0 2.154-.685 2.154-2.007V12.823h2.913v10.451c0 .392 0 .734-.025 1a5.413 5.413 0 01-.856 2.692 4 4 0 01-2.791 1.665c-.342.023-.807.074-1.369.074h-.393zM260.029 21h.195v2.91H245a4.293 4.293 0 01-4.455-4.6v-5.338h2.914v5.434c0 1.076.61 1.59 1.81 1.59h11.845V8.1h2.913zm-8.4-9.178v1.125h-.979c-.464 0-.708.295-.708.809 0 .464.244.684.757.684h1.4v1.127h-3.793v-1.131h.662a1.99 1.99 0 01-.172-.66 1.91 1.91 0 011.983-1.958z" transform="translate(-2.829 -2.836)"/><path class="cls-1" d="M260.029 21h3.6v-8.177h2.913V21h.147v2.915h-6.657zm3.6-12.9h2.912v2.91h-2.912z" transform="translate(-2.829 -2.836)"/><path class="cls-1" d="M266.539 21h3.6v-8.177h2.911v11.088h-6.509zm3.6 4.75h2.911v2.963h-2.911z" transform="translate(-2.829 -2.836)"/></svg>