<svg xmlns="http://www.w3.org/2000/svg" xmlns:xlink="http://www.w3.org/1999/xlink" version="1.1" x="0px" y="0px" viewBox="0 0 100 125" enable-background="new 0 0 100 100" xml:space="preserve"><g><path stroke="#fff" fill="#fff" d="M18.302,90.135c-0.054,0-0.109-0.004-0.165-0.014c-0.544-0.09-0.913-0.605-0.822-1.15c0.01-0.061,0.252-1.509,0.86-4.011   c0.131-0.536,0.674-0.869,1.208-0.735c0.536,0.13,0.866,0.671,0.735,1.208c-0.589,2.421-0.828,3.852-0.831,3.866   C19.206,89.788,18.782,90.135,18.302,90.135z M20.177,82.321c-0.092,0-0.185-0.013-0.276-0.039   c-0.531-0.152-0.838-0.706-0.686-1.237c0.368-1.287,0.767-2.588,1.183-3.868c0.171-0.526,0.73-0.813,1.261-0.642   c0.524,0.171,0.813,0.735,0.642,1.26c-0.409,1.258-0.801,2.537-1.163,3.801C21.012,82.035,20.611,82.321,20.177,82.321z    M22.654,74.697c-0.113,0-0.229-0.02-0.342-0.061c-0.52-0.189-0.787-0.763-0.598-1.282c0.458-1.26,0.944-2.53,1.444-3.773   c0.207-0.513,0.793-0.76,1.301-0.555c0.513,0.206,0.761,0.789,0.555,1.301c-0.492,1.223-0.97,2.472-1.421,3.711   C23.446,74.444,23.063,74.697,22.654,74.697z M25.646,67.265c-0.135,0-0.272-0.028-0.404-0.086   c-0.505-0.224-0.732-0.814-0.509-1.319c0.548-1.237,1.119-2.47,1.699-3.665c0.241-0.497,0.84-0.703,1.336-0.463   c0.497,0.241,0.704,0.839,0.463,1.336c-0.569,1.174-1.131,2.386-1.67,3.602C26.396,67.042,26.029,67.265,25.646,67.265z    M29.141,60.059c-0.157,0-0.317-0.037-0.467-0.116c-0.488-0.258-0.675-0.864-0.416-1.352c0.632-1.193,1.29-2.382,1.956-3.536   c0.275-0.478,0.889-0.643,1.366-0.365c0.479,0.276,0.643,0.888,0.366,1.366c-0.655,1.132-1.301,2.3-1.921,3.47   C29.846,59.866,29.499,60.059,29.141,60.059z M33.147,53.129c-0.182,0-0.366-0.049-0.532-0.154   c-0.467-0.294-0.607-0.912-0.313-1.379c0.721-1.145,1.469-2.281,2.222-3.377c0.313-0.455,0.937-0.57,1.391-0.258   c0.455,0.313,0.57,0.936,0.258,1.391c-0.738,1.074-1.471,2.188-2.177,3.31C33.805,52.964,33.479,53.129,33.147,53.129z    M37.678,46.533c-0.208,0-0.419-0.065-0.599-0.2c-0.441-0.331-0.532-0.958-0.201-1.399c0.807-1.077,1.644-2.148,2.49-3.185   c0.348-0.427,0.978-0.492,1.406-0.143c0.429,0.349,0.492,0.979,0.143,1.407c-0.828,1.015-1.648,2.064-2.438,3.119   C38.283,46.395,37.982,46.533,37.678,46.533z M42.74,40.339c-0.237,0-0.476-0.084-0.666-0.254c-0.412-0.368-0.447-1-0.08-1.412   c0.895-1.001,1.823-1.996,2.762-2.956c0.386-0.395,1.018-0.402,1.414-0.017c0.395,0.386,0.402,1.019,0.016,1.414   c-0.917,0.939-1.825,1.911-2.699,2.89C43.289,40.227,43.015,40.339,42.74,40.339z M48.332,34.623c-0.268,0-0.535-0.107-0.731-0.318   c-0.377-0.404-0.354-1.037,0.05-1.414c0.992-0.923,2.01-1.827,3.026-2.686c0.423-0.357,1.055-0.302,1.409,0.118   c0.356,0.422,0.304,1.053-0.118,1.409c-0.992,0.838-1.986,1.721-2.954,2.623C48.821,34.534,48.576,34.623,48.332,34.623z    M54.438,29.463c-0.301,0-0.599-0.135-0.795-0.393c-0.336-0.438-0.252-1.066,0.187-1.402c1.067-0.816,2.169-1.617,3.274-2.378   c0.457-0.313,1.079-0.197,1.391,0.256c0.313,0.455,0.199,1.078-0.256,1.391c-1.078,0.742-2.152,1.522-3.194,2.319   C54.862,29.396,54.649,29.463,54.438,29.463z M61.02,24.931c-0.335,0-0.663-0.168-0.852-0.475c-0.29-0.47-0.145-1.086,0.325-1.376   c1.146-0.707,2.322-1.393,3.497-2.038c0.483-0.266,1.092-0.09,1.358,0.395c0.266,0.484,0.089,1.092-0.396,1.358   c-1.146,0.629-2.292,1.297-3.409,1.987C61.38,24.883,61.198,24.931,61.02,24.931z M68.021,21.083c-0.371,0-0.728-0.207-0.9-0.563   c-0.241-0.497-0.034-1.095,0.463-1.336c1.209-0.587,2.448-1.151,3.683-1.675c0.503-0.214,1.095,0.021,1.311,0.529   c0.217,0.508-0.021,1.096-0.529,1.312c-1.203,0.511-2.411,1.061-3.591,1.633C68.316,21.051,68.168,21.083,68.021,21.083z    M75.371,17.958c-0.407,0-0.79-0.25-0.938-0.655c-0.19-0.518,0.075-1.093,0.593-1.284c1.253-0.461,2.541-0.9,3.829-1.305   c0.529-0.167,1.088,0.128,1.254,0.654c0.166,0.527-0.127,1.088-0.654,1.254c-1.258,0.396-2.515,0.824-3.737,1.274   C75.603,17.938,75.486,17.958,75.371,17.958z"/></g></svg>