<svg xmlns="http://www.w3.org/2000/svg" xmlns:xlink="http://www.w3.org/1999/xlink" viewBox="0 0 2000 2000"><defs><radialGradient id="a" cx="1000.22" cy="999.53" r="94.37" gradientTransform="translate(-15761.96 -15725.96) scale(16.76 16.73)" gradientUnits="userSpaceOnUse"><stop offset="0"/><stop offset="0.99"/></radialGradient></defs><title>footerbackground</title><g style="isolation:isolate"><rect width="2000" height="2000" style="fill:url(#a)"/><path d="M2000,30.93V24.88l-18.43,10.61L1944.35,14V0h-4.52V13.2l-38.68,22.29L1863.93,14V0h-4.52V13.2l-38.68,22.29L1783.51,14V0H1779V13.2l-38.68,22.29L1703.09,14V0h-4.52V13.2L1659.9,35.49,1622.67,14V0h-4.52V13.2l-38.69,22.29L1542.25,14V0h-4.52V13.2L1499,35.49,1461.82,14V0h-4.53V13.2l-38.67,22.29L1381.4,14V0h-4.53V13.2L1338.2,35.49,1301,14V0h-4.53V13.2l-38.67,22.29L1220.56,14V0H1216V13.2l-38.67,22.29L1140.14,14V0h-4.53V13.2l-38.69,22.29L1059.72,14V0h-4.53V13.2l-38.68,22.29L979.29,14V0h-4.53V13.2L936.08,35.49,898.87,14V0h-4.53V13.2L855.66,35.49,818.45,14V0h-4.53V13.2L775.24,35.49,738,14V0H733.5V13.2L694.82,35.49,657.6,14V0h-4.52V13.2L614.4,35.49,577.18,14V0h-4.52V13.2L534,35.49,496.76,14V0h-4.52V13.2L453.56,35.49,416.34,14V0h-4.52V13.2L373.14,35.49,335.91,14V0h-4.52V13.2L292.72,35.49,255.49,14V0H251V13.2L212.29,35.49,175.07,14V0h-4.52V13.2L131.87,35.49,94.65,14V0H90.13V13.2L51.45,35.49,14.23,14V0H9.71V13.2L0,18.8v6.05l11.7-6.74L48.92,39.56V83.3L11.33,105,0,98.44v5.62l9.7,5.6v42.49L0,157.74v6.06l11.7-6.74,37.22,21.45v43.74L11.33,243.91,0,237.38V243l9.7,5.59v42.5L0,296.69v6.05L11.7,296l37.22,21.45v43.74L11.33,382.85,0,376.33V382l9.7,5.59V430L0,435.64v6.05l11.7-6.75L48.92,456.4v43.74L11.33,521.8,0,515.27v5.63l9.7,5.6V569L0,574.58v6l11.7-6.74,37.22,21.46v43.73L11.33,660.75,0,654.22v5.63l9.7,5.59v42.49L0,713.52v6.06l11.7-6.75,37.22,21.45V778L11.33,799.69,0,793.16v5.63l9.7,5.6v42.49L0,852.47v6l11.7-6.74,37.22,21.45V917L11.33,938.64,0,932.1v5.64l9.7,5.59v42.49L0,991.41v6.06l11.7-6.75,37.22,21.45v43.75l-37.59,21.67L0,1071.05v5.63l9.7,5.59v42.5L0,1130.35v6.06l11.7-6.74,37.22,21.45v43.74l-37.59,21.68L0,1210v5.64l9.7,5.59v42.48L0,1269.3v6.06l11.7-6.74,37.22,21.45v43.74l-37.59,21.66L0,1348.94v5.63l9.7,5.6v42.48L0,1408.25v6.06l11.7-6.74L48.92,1429v43.73l-37.59,21.67L0,1487.89v5.63l9.7,5.58v42.5L0,1547.2v6.06l11.7-6.76L48.92,1568v43.75l-37.59,21.67L0,1626.84v5.61l9.7,5.6v42.5L0,1686.13v6.06l11.7-6.74,37.22,21.45v43.75l-37.59,21.67L0,1765.77v5.63l9.7,5.6v42.48L0,1825.08v6.06l11.7-6.74,37.22,21.45v43.73l-37.59,21.67L0,1904.72v5.63l9.7,5.6v42.48L0,1964v6l11.7-6.73,37.22,21.45V2000h4.52v-14.37l38.68-22.28,37.22,21.45V2000h4.53v-14.37l38.67-22.28,37.22,21.45V2000h4.53v-14.37L253,1963.35l37.22,21.45V2000h4.53v-14.37l38.68-22.28,37.21,21.45V2000h4.53v-14.37l38.68-22.28L451,1984.8V2000h4.53v-14.37l38.68-22.28,37.22,21.45V2000H536v-14.37l38.68-22.28,37.22,21.45V2000h4.53v-14.37l38.67-22.28,37.22,21.45V2000h4.53v-14.37l38.68-22.28,37.21,21.45V2000h4.53v-14.37l38.68-22.28,37.21,21.45V2000h4.53v-14.37l38.68-22.28,37.22,21.45V2000h4.53v-14.37l38.67-22.28L1014,1984.8V2000h4.53v-14.37l38.67-22.28,37.22,21.45V2000h4.52v-14.37l38.68-22.28,37.22,21.45V2000h4.52v-14.37l38.69-22.28,37.21,21.45V2000h4.52v-14.37l38.69-22.28,37.23,21.45V2000h4.52v-14.37l38.67-22.28,37.23,21.45V2000h4.52v-14.37l38.67-22.28,37.23,21.45V2000H1501v-14.37l38.67-22.28,37.23,21.45V2000h4.52v-14.37l38.67-22.28,37.23,21.45V2000h4.52v-14.37l38.69-22.28,37.21,21.45V2000h4.52v-14.37l38.69-22.28,37.21,21.45V2000h4.52v-14.37l38.69-22.28,37.22,21.45V2000h4.53v-14.37l38.67-22.28,37.22,21.45V2000h4.53v-14.37l16.42-9.46v-6.07l-18.43,10.63-37.22-21.45v-43.75l37.6-21.67,18,10.4v-5.63l-16.42-9.45v-42.5l16.42-9.46v-6l-18.43,10.61-37.22-21.45v-43.75l37.6-21.66,18,10.41v-5.63l-16.42-9.47v-42.48l16.42-9.48v-6l-18.43,10.61-37.22-21.45v-43.73L1982,1616l18,10.4v-5.63l-16.42-9.47V1568.8l16.42-9.47v-6.06l-18.43,10.61-37.22-21.45V1498.7L1982,1477l18,10.4v-5.63l-16.42-9.45v-42.5l16.42-9.46v-6.07l-18.43,10.61-37.22-21.43v-43.75l37.6-21.66,18,10.4v-5.64l-16.42-9.45v-42.5l16.42-9.46v-6.06L1981.57,1286l-37.22-21.45V1220.8l37.6-21.66,18,10.4v-5.62l-16.42-9.47V1152l16.42-9.47v-6.06l-18.43,10.61-37.22-21.45v-43.73l37.6-21.67,18,10.4V1065l-16.42-9.47V1013l16.42-9.46v-6.06l-18.43,10.61-37.22-21.45V942.91l37.6-21.66,18,10.41V926l-16.42-9.46V874.07L2000,864.6v-6.05l-18.43,10.61-37.22-21.45V804l37.6-21.66,18,10.4v-5.63l-16.42-9.47V735.12l16.42-9.46V719.6l-18.43,10.62-37.22-21.45V665l37.6-21.66,18,10.41v-5.63l-16.42-9.47V596.18l16.42-9.47v-6.05l-18.43,10.62-37.22-21.46V526.08l37.6-21.66,18,10.4v-5.63l-16.42-9.47V457.23l16.42-9.46v-6l-18.43,10.61-37.22-21.45V387.13l37.6-21.66,18,10.4v-5.62l-16.42-9.48V318.29l16.42-9.47v-6.05l-18.43,10.62-37.22-21.45V248.19l37.6-21.67,18,10.41V231.3l-16.42-9.46V179.35l16.42-9.47v-6.06l-18.43,10.62L1944.35,153V109.24L1982,87.58,2000,98V92.35l-16.42-9.46V40.4Zm-98.47,56.65,38.3,22.08v42.49l-38.68,22.29L1863.93,153V109.24ZM370.6,222.25,333,243.91l-38.31-22.07V179.35l38.68-22.29,37.21,21.45v43.74Zm0,138.94L333,382.85l-38.31-22.08V318.29L333.39,296l37.21,21.45v43.74Zm0,139L333,521.8l-38.31-22.08V457.23l38.68-22.29L370.6,456.4v43.74Zm0,138.94L333,660.75l-38.31-22.08V596.18l38.68-22.29,37.21,21.46v43.73Zm0,138.95L333,799.69l-38.31-22.08V735.12l38.68-22.29,37.21,21.45V778Zm0,139L333,938.64l-38.31-22.08V874.07l38.68-22.29,37.21,21.45V917Zm1286.76,0-37.59,21.66-38.31-22.08V874.07l38.67-22.29,37.23,21.45Zm2.89,4.27,38.32,22.08v42.49l-38.67,22.28-37.23-21.45V942.91Zm-42.1,22.08v42.49l-38.69,22.28-37.21-21.45V942.91l37.58-21.66ZM1576.94,917l-37.59,21.66L1501,916.56V874.07l38.67-22.29,37.23,21.45Zm-39.21,26.35v42.49L1499,1008.1l-37.22-21.45V942.91l37.59-21.66ZM1496.52,917l-37.6,21.66-38.3-22.08V874.07l38.67-22.29,37.23,21.45Zm-39.23,26.35v42.49l-38.67,22.28-37.22-21.45V942.91L1419,921.25ZM1416.1,917l-37.6,21.66-38.3-22.08V874.07l38.67-22.29,37.23,21.45Zm-39.23,26.35v42.49l-38.67,22.28L1301,986.65V942.91l37.59-21.66ZM1335.68,917l-37.6,21.66-38.32-22.08V874.07l38.69-22.29,37.23,21.45Zm-39.23,26.35v42.49l-38.67,22.28-37.22-21.45V942.91l37.58-21.66ZM1255.24,917l-37.58,21.66-38.32-22.08V874.07L1218,851.78l37.21,21.45ZM1216,943.33v42.49l-38.67,22.28-37.22-21.45V942.91l37.58-21.66ZM1174.82,917l-37.58,21.66-38.32-22.08V874.07l38.68-22.29,37.22,21.45Zm-39.21,26.35v42.49l-38.69,22.28-37.2-21.45V942.91l37.58-21.66ZM1094.4,917l-37.58,21.66-38.31-22.08V874.07l38.67-22.29,37.22,21.45Zm-39.21,26.35v42.49l-38.68,22.28-37.22-21.45V942.91l37.59-21.66ZM1014,917l-37.59,21.66-38.3-22.08V874.07l38.67-22.29L1014,873.23Zm-39.22,26.35v42.49l-38.68,22.28-37.21-21.45V942.91l37.59-21.66ZM933.56,917,896,938.64l-38.3-22.08V874.07l38.68-22.29,37.22,21.45Zm-39.22,26.35v42.49l-38.68,22.28-37.21-21.45V942.91L856,921.25Zm-78.8-4.69-38.3-22.08V874.07l38.68-22.29,37.21,21.45V917Zm-1.62,4.69v42.49l-38.68,22.28L738,986.65V942.91l37.59-21.66ZM772.71,917l-37.59,21.66-38.3-22.08V874.07l38.68-22.29,37.21,21.45ZM733.5,943.33v42.49l-38.68,22.28L657.6,986.65V942.91l37.59-21.66Zm-78.8-4.69-38.3-22.08V874.07l38.68-22.29,37.21,21.45V917Zm-1.62,4.69v42.49L614.4,1008.1l-37.22-21.45V942.91l37.59-21.66ZM611.87,917l-37.59,21.66L536,916.56V874.07l38.68-22.29,37.22,21.45Zm-39.21,26.35v42.49L534,1008.1l-37.22-21.45V942.91l37.59-21.66Zm-78.8-4.69-38.31-22.08V874.07l38.68-22.29,37.22,21.45V917Zm-1.62,4.69v42.49l-38.68,22.28-37.22-21.45V942.91l37.59-21.66ZM451,917l-37.58,21.66-38.31-22.08V874.07l38.68-22.29L451,873.23Zm-39.2,26.35v42.49l-38.68,22.28-37.23-21.45V942.91l37.59-21.66Zm-80.43,0v42.49l-38.67,22.28-37.23-21.45V942.91l37.59-21.66ZM293.08,1060.2l38.31,22.07v42.5l-38.67,22.28-37.23-21.45v-43.73Zm1.63-4.7V1013l38.68-22.29,37.21,21.45v43.75L333,1077.59Zm78.79,4.69,38.32,22.08v42.49l-38.68,22.29-37.23-21.45v-43.73Zm1.63-4.69V1013l38.68-22.29L451,1012.17v43.75l-37.58,21.67Zm41.21,26.37,37.59-21.67,38.31,22.07v42.5l-38.68,22.28-37.22-21.45Zm39.21-26.37V1013l38.68-22.29,37.22,21.45v43.75l-37.59,21.67Zm78.8,4.69,38.31,22.08v42.49L534,1147.05l-37.22-21.45v-43.73Zm1.63-4.69V1013l38.68-22.29,37.22,21.45v43.75l-37.59,21.67Zm41.2,26.37,37.59-21.67,38.31,22.07v42.5l-38.68,22.28-37.22-21.45Zm39.22-26.37V1013l38.68-22.29,37.21,21.45v43.75l-37.59,21.67Zm78.79,4.69,38.31,22.08v42.49l-38.68,22.29L657.6,1125.6v-43.73Zm1.63-4.69V1013l38.68-22.29,37.21,21.45v43.75l-37.59,21.67Zm41.2,26.37,37.59-21.67,38.31,22.07v42.5l-38.68,22.28L738,1125.6Zm39.22-26.37V1013l38.68-22.29,37.21,21.45v43.75l-37.59,21.67Zm41.21,26.37L856,1060.19l38.3,22.08v42.49l-38.68,22.29-37.21-21.45v-43.73Zm39.22-26.37V1013l38.68-22.29,37.22,21.45v43.75L896,1077.59Zm41.2,26.37,37.59-21.67,38.3,22.07v42.49l-38.68,22.29-37.21-21.45Zm39.22-26.37V1013l38.67-22.29,37.22,21.45v43.75l-37.59,21.67Zm41.2,26.37,37.59-21.67,38.31,22.07v42.49l-38.68,22.29-37.22-21.45Zm39.22-26.37V1013l38.67-22.29,37.22,21.45v43.75l-37.58,21.67Zm41.21,26.37,37.58-21.67,38.31,22.07v42.49l-38.69,22.29-37.2-21.45Zm39.2-26.37V1013l38.68-22.29,37.22,21.45v43.75l-37.58,21.67Zm41.22,26.37,37.58-21.67,38.31,22.07v42.49l-38.67,22.29-37.22-21.45Zm39.2-26.37V1013L1218,990.72l37.21,21.45v43.75l-37.58,21.67Zm41.22,26.37,37.59-21.67,38.3,22.07v42.49l-38.67,22.29-37.22-21.45Zm39.2-26.37V1013l38.69-22.29,37.23,21.45v43.75l-37.6,21.67Zm41.22,26.37,37.59-21.67,38.3,22.07v42.49l-38.67,22.29L1301,1125.6Zm39.22-26.37V1013l38.67-22.29,37.23,21.45v43.75l-37.6,21.67Zm41.2,26.37L1419,1060.2l38.3,22.07v42.49l-38.67,22.29-37.22-21.45Zm39.22-26.37V1013l38.67-22.29,37.23,21.45v43.75l-37.6,21.67Zm41.2,26.37,37.59-21.67,38.32,22.07v42.49L1499,1147.05l-37.22-21.45ZM1501,1055.5V1013l38.67-22.29,37.23,21.45v43.75l-37.6,21.67Zm41.21,26.37,37.58-21.67,38.32,22.07v42.49l-38.69,22.29-37.21-21.45Zm39.21-26.37V1013l38.67-22.29,37.23,21.45v43.75l-37.59,21.67Zm41.21,26.37,37.58-21.67,38.32,22.07v42.49l-38.67,22.29-37.23-21.45Zm39.21-26.37V1013l38.69-22.29,37.21,21.45v43.75l-37.59,21.67Zm38.31-116.86-38.31-22.08V874.07l38.69-22.29,37.21,21.45V917Zm0-138.95-38.31-22.08V735.12l38.69-22.29,37.21,21.45V778Zm-1.62,4.7v42.49l-38.67,22.28-37.23-21.45V804l37.58-21.66ZM1657.36,778l-37.59,21.66-38.31-22.08V735.12l38.67-22.29,37.23,21.45Zm-39.21,26.36v42.49l-38.69,22.28-37.21-21.45V804l37.58-21.66ZM1576.94,778l-37.59,21.66L1501,777.61V735.12l38.67-22.29,37.23,21.45Zm-39.21,26.36v42.49L1499,869.16l-37.22-21.45V804l37.59-21.66ZM1496.52,778l-37.6,21.66-38.3-22.08V735.12l38.67-22.29,37.23,21.45Zm-39.23,26.36v42.49l-38.67,22.28-37.22-21.45V804L1419,782.31ZM1416.1,778l-37.6,21.66-38.3-22.08V735.12l38.67-22.29,37.23,21.45Zm-39.23,26.36v42.49l-38.67,22.28L1301,847.71V804l37.59-21.66ZM1335.68,778l-37.6,21.66-38.32-22.08V735.12l38.69-22.29,37.23,21.45Zm-39.23,26.36v42.49l-38.67,22.28-37.22-21.45V804l37.58-21.66ZM1255.24,778l-37.58,21.66-38.32-22.08V735.12L1218,712.83l37.21,21.45ZM1216,804.39v42.49l-38.67,22.28-37.22-21.45V804l37.58-21.66ZM1174.82,778l-37.58,21.66-38.32-22.08V735.12l38.68-22.29,37.22,21.45Zm-39.21,26.36v42.49l-38.69,22.28-37.2-21.45V804l37.58-21.66ZM1094.4,778l-37.58,21.66-38.31-22.08V735.12l38.67-22.29,37.22,21.45Zm-39.21,26.36v42.49l-38.68,22.28-37.22-21.45V804l37.59-21.66ZM1014,778l-37.59,21.66-38.3-22.08V735.12l38.67-22.29L1014,734.28Zm-39.22,26.36v42.49l-38.68,22.28-37.21-21.45V804l37.59-21.66ZM933.56,778,896,799.69l-38.3-22.08V735.12l38.68-22.29,37.22,21.45Zm-39.22,26.36v42.49l-38.68,22.28-37.21-21.45V804L856,782.31Zm-78.8-4.7-38.3-22.08V735.12l38.68-22.29,37.21,21.45V778Zm-1.62,4.7v42.49l-38.68,22.28L738,847.71V804l37.59-21.66ZM772.71,778l-37.59,21.66-38.3-22.08V735.12l38.68-22.29,37.21,21.45ZM733.5,804.39v42.49l-38.68,22.28L657.6,847.71V804l37.59-21.66Zm-78.8-4.7-38.3-22.08V735.12l38.68-22.29,37.21,21.45V778Zm-1.62,4.7v42.49L614.4,869.16l-37.22-21.45V804l37.59-21.66ZM611.87,778l-37.59,21.66L536,777.61V735.12l38.68-22.29,37.22,21.45Zm-39.21,26.36v42.49L534,869.16l-37.22-21.45V804l37.59-21.66Zm-78.8-4.7-38.31-22.08V735.12l38.68-22.29,37.22,21.45V778Zm-1.62,4.7v42.49l-38.68,22.28-37.22-21.45V804l37.59-21.66ZM451,778l-37.58,21.66-38.31-22.08V735.12l38.68-22.29L451,734.28Zm-39.2,26.36v42.49l-38.68,22.28-37.23-21.45V804l37.59-21.66Zm-80.43,0v42.49l-38.67,22.28-37.23-21.45V804l37.59-21.66ZM290.18,778,252.6,799.69l-38.31-22.08V735.12L253,712.83l37.22,21.45ZM253,851.78l37.22,21.45V917L252.6,938.64l-38.31-22.08V874.07Zm0,138.94,37.22,21.45v43.75l-37.58,21.67-38.31-22.09V1013Zm0,139,37.22,21.45v43.74l-37.58,21.66-38.31-22.07V1152Zm2.53,91.13,37.59-21.66,38.31,22.08v42.48L292.72,1286l-37.23-21.45Zm39.22-26.35V1152l38.68-22.3,37.21,21.45v43.74L333,1216.54Zm78.79,4.69,38.32,22.08v42.48L373.14,1286l-37.23-21.45V1220.8Zm1.63-4.69V1152l38.68-22.28L451,1151.12v43.74l-37.58,21.66Zm41.21,26.35,37.59-21.66,38.31,22.08v42.48L453.56,1286l-37.22-21.45Zm39.21-26.35V1152l38.68-22.3,37.22,21.45v43.74l-37.59,21.68Zm78.8,4.69,38.31,22.08v42.48L534,1286l-37.22-21.45V1220.8Zm1.63-4.69V1152l38.68-22.28,37.22,21.45v43.74l-37.59,21.66Zm41.2,26.35,37.59-21.66,38.31,22.08v42.48L614.4,1286l-37.22-21.45Zm39.22-26.35V1152l38.67-22.3,37.22,21.45v43.74l-37.59,21.68Zm78.79,4.69,38.31,22.08v42.48L694.82,1286l-37.22-21.45V1220.8Zm1.63-4.69V1152l38.68-22.28,37.21,21.45v43.74l-37.59,21.66ZM738,1220.8l37.59-21.66,38.31,22.08v42.48L775.24,1286,738,1264.55Zm39.22-26.35V1152l38.68-22.3,37.21,21.45v43.74l-37.59,21.68Zm41.21,26.35L856,1199.14l38.3,22.08v42.48L855.66,1286l-37.21-21.45V1220.8Zm39.22-26.35V1152l38.68-22.28,37.22,21.45v43.74L896,1216.52Zm41.2,26.35,37.59-21.66,38.3,22.08v42.48L936.08,1286l-37.21-21.45Zm39.22-26.35V1152l38.67-22.3,37.22,21.45v43.74l-37.59,21.66Zm41.2,26.35,37.59-21.66,38.31,22.08v42.48l-38.68,22.3-37.22-21.45Zm39.22-26.35V1152l38.67-22.3,37.22,21.45v43.74l-37.58,21.66Zm41.21,26.35,37.58-21.66,38.31,22.08v42.48l-38.69,22.3-37.2-21.45Zm39.2-26.35V1152l38.68-22.3,37.22,21.45v43.74l-37.58,21.66Zm41.22,26.35,37.58-21.66,38.31,22.08v42.48l-38.67,22.3-37.22-21.45Zm39.2-26.35V1152l38.69-22.3,37.21,21.45v43.74l-37.58,21.66Zm41.22,26.35,37.59-21.66,38.3,22.08v42.48l-38.67,22.3-37.22-21.45Zm39.2-26.35V1152l38.69-22.3,37.23,21.45v43.74l-37.6,21.66ZM1301,1220.8l37.59-21.66,38.3,22.08v42.48L1338.2,1286,1301,1264.55Zm39.22-26.35V1152l38.67-22.3,37.23,21.45v43.74l-37.6,21.66Zm41.2,26.35,37.59-21.66,38.3,22.08v42.48l-38.67,22.3-37.22-21.45Zm39.22-26.35V1152l38.67-22.3,37.23,21.45v43.74l-37.6,21.66Zm41.2,26.35,37.59-21.66,38.32,22.08v42.48L1499,1286l-37.22-21.45Zm39.22-26.35V1152l38.67-22.3,37.23,21.45v43.74l-37.6,21.66Zm41.21,26.35,37.58-21.66,38.32,22.08v42.48l-38.69,22.3-37.21-21.45Zm39.21-26.35V1152l38.67-22.3,37.23,21.45v43.74l-37.59,21.66Zm41.21,26.35,37.58-21.66,38.32,22.08v42.48L1659.9,1286l-37.23-21.45Zm39.21-26.35V1152l38.69-22.3,37.21,21.45v43.74l-37.59,21.66Zm41.21,26.35,37.58-21.66,38.32,22.08v42.48l-38.68,22.3-37.22-21.45Zm37.22-73.75-37.22-21.45v-43.73l37.58-21.67,38.32,22.07v42.49Zm0-138.95-37.22-21.45V942.91l37.58-21.66L1779,943.33v42.49Zm0-138.94-37.22-21.45V804l37.58-21.66L1779,804.39v42.49Zm0-138.94-37.22-21.45V665l37.58-21.66L1779,665.44v42.49Zm-2.53-91.14-37.59,21.66-38.31-22.07V596.18l38.69-22.29,37.21,21.46Zm-39.21,26.36v42.49l-38.67,22.29-37.23-21.45V665l37.58-21.66Zm-41.21-26.36-37.59,21.66-38.31-22.07V596.18l38.67-22.29,37.23,21.46Zm-39.21,26.36v42.49l-38.69,22.29-37.21-21.45V665l37.58-21.66Zm-41.21-26.36-37.59,21.66L1501,638.67V596.18l38.67-22.29,37.23,21.46Zm-39.21,26.36v42.49L1499,730.22l-37.22-21.45V665l37.59-21.66Zm-41.21-26.36-37.6,21.66-38.3-22.07V596.18l38.67-22.29,37.23,21.46Zm-39.23,26.36v42.49l-38.67,22.29-37.22-21.45V665L1419,643.36Zm-41.19-26.36-37.6,21.66-38.3-22.07V596.18l38.67-22.29,37.23,21.46Zm-39.23,26.36v42.49l-38.67,22.29L1301,708.77V665l37.59-21.66Zm-41.19-26.36-37.6,21.66-38.32-22.07V596.18l38.69-22.29,37.23,21.46Zm-39.23,26.36v42.49l-38.67,22.29-37.22-21.45V665l37.58-21.66Zm-41.21-26.36-37.58,21.66-38.32-22.07V596.18L1218,573.89l37.21,21.46ZM1216,665.44v42.49l-38.67,22.29-37.22-21.45V665l37.58-21.66Zm-41.21-26.36-37.58,21.66-38.32-22.07V596.18l38.68-22.29,37.22,21.46Zm-39.21,26.36v42.49l-38.69,22.29-37.2-21.45V665l37.58-21.66Zm-41.21-26.36-37.58,21.66-38.31-22.07V596.18l38.67-22.29,37.22,21.46Zm-39.21,26.36v42.49l-38.68,22.29-37.22-21.45V665l37.59-21.66ZM1014,639.08l-37.59,21.66-38.3-22.07V596.18l38.67-22.29L1014,595.35Zm-39.22,26.36v42.49l-38.68,22.29-37.21-21.45V665l37.59-21.66Zm-41.2-26.36L896,660.74l-38.3-22.07V596.18l38.68-22.29,37.22,21.46Zm-39.22,26.36v42.49l-38.68,22.29-37.21-21.45V665L856,643.36Zm-78.8-4.69-38.3-22.08V596.18l38.68-22.29,37.21,21.46v43.73Zm-1.62,4.69v42.49l-38.68,22.29L738,708.77V665l37.59-21.66Zm-41.21-26.36-37.59,21.66-38.3-22.07V596.18l38.68-22.29,37.21,21.46ZM733.5,665.44v42.49l-38.68,22.29L657.6,708.77V665l37.59-21.66Zm-78.8-4.69-38.3-22.08V596.18l38.68-22.29,37.21,21.46v43.73Zm-1.62,4.69v42.49L614.4,730.22l-37.22-21.45V665l37.59-21.66Zm-41.21-26.36-37.59,21.66L536,638.67V596.18l38.68-22.29,37.22,21.46Zm-39.21,26.36v42.49L534,730.22l-37.22-21.45V665l37.59-21.66Zm-78.8-4.69-38.31-22.08V596.18l38.68-22.29,37.22,21.46v43.73Zm-1.62,4.69v42.49l-38.68,22.29-37.22-21.45V665l37.59-21.66ZM451,639.08l-37.58,21.66-38.31-22.07V596.18l38.68-22.29L451,595.35Zm-39.2,26.36v42.49l-38.68,22.29-37.23-21.45V665l37.59-21.66Zm-80.43,0v42.49l-38.67,22.29-37.23-21.45V665l37.59-21.66Zm-41.21-26.36L252.6,660.74l-38.31-22.07V596.18L253,573.89l37.22,21.46ZM251,665.44v42.49l-38.68,22.29-37.22-21.45V665l37.59-21.66ZM212.66,782.31,251,804.39v42.49l-38.68,22.28-37.22-21.45V804Zm0,138.94L251,943.33v42.49L212.3,1008.1l-37.23-21.45V942.91Zm0,138.94L251,1082.27v42.49l-38.67,22.29-37.23-21.45v-43.73Zm0,139L251,1221.22v42.48L212.3,1286l-37.23-21.45V1220.8Zm0,138.95L251,1360.17v42.48l-38.67,22.28-37.23-21.43v-43.75Zm1.63-4.69v-42.5L253,1268.62l37.22,21.45v43.74l-37.58,21.66Zm41.2,26.35,37.59-21.66,38.31,22.08v42.48l-38.67,22.28-37.23-21.43Zm39.22-26.35v-42.5l38.68-22.28,37.21,21.45v43.74L333,1355.47Zm78.79,4.69,38.32,22.08v42.48l-38.68,22.28-37.23-21.43v-43.75Zm1.63-4.69v-42.5l38.68-22.28L451,1290.07v43.74l-37.58,21.66Zm41.21,26.35,37.59-21.66,38.31,22.08v42.48l-38.68,22.28-37.22-21.43Zm39.21-26.35v-42.5l38.68-22.28,37.22,21.45v43.74l-37.59,21.66Zm78.8,4.69,38.31,22.08v42.48L534,1424.93l-37.22-21.43v-43.75Zm1.63-4.69v-42.5l38.68-22.28,37.22,21.45v43.74l-37.59,21.66Zm41.2,26.35,37.59-21.66,38.31,22.08v42.48l-38.68,22.28-37.22-21.43Zm39.22-26.35v-42.5l38.67-22.28,37.22,21.45v43.74l-37.59,21.66Zm78.79,4.69,38.31,22.08v42.48l-38.68,22.28L657.6,1403.5v-43.75Zm1.63-4.69v-42.5l38.68-22.28,37.21,21.45v43.74l-37.59,21.66Zm41.2,26.35,37.59-21.66,38.31,22.08v42.48l-38.68,22.28L738,1403.5Zm39.22-26.35v-42.5l38.68-22.28,37.21,21.45v43.74l-37.59,21.66Zm41.21,26.35L856,1338.09l38.3,22.08v42.48l-38.68,22.28-37.21-21.43v-43.75Zm39.22-26.35v-42.5l38.68-22.28,37.22,21.45v43.74L896,1355.47Zm41.2,26.35,37.59-21.66,38.3,22.08v42.48l-38.68,22.28-37.21-21.43Zm39.22-26.35v-42.5l38.67-22.28,37.22,21.45v43.74l-37.59,21.66Zm41.2,26.35,37.59-21.66,38.31,22.08v42.48l-38.68,22.28-37.22-21.43Zm39.22-26.35v-42.5l38.67-22.28,37.22,21.45v43.74l-37.58,21.66Zm41.21,26.35,37.58-21.66,38.31,22.08v42.48l-38.69,22.28-37.2-21.43Zm39.2-26.35v-42.5l38.68-22.28,37.22,21.45v43.74l-37.58,21.66Zm41.22,26.35,37.58-21.66,38.31,22.08v42.48l-38.67,22.28-37.22-21.43Zm39.2-26.35v-42.5l38.69-22.28,37.21,21.45v43.74l-37.58,21.66Zm41.22,26.35,37.59-21.66,38.3,22.08v42.48l-38.67,22.28-37.22-21.43Zm39.2-26.35v-42.5l38.69-22.28,37.23,21.45v43.74l-37.6,21.66Zm41.22,26.35,37.59-21.66,38.3,22.08v42.48l-38.67,22.28L1301,1403.5Zm39.22-26.35v-42.5l38.67-22.28,37.23,21.45v43.74l-37.6,21.66Zm41.2,26.35,37.59-21.66,38.3,22.08v42.48l-38.67,22.28-37.22-21.43Zm39.22-26.35v-42.5l38.67-22.28,37.23,21.45v43.74l-37.6,21.66Zm41.2,26.35,37.59-21.66,38.32,22.08v42.48L1499,1424.93l-37.22-21.43ZM1501,1333.4v-42.5l38.67-22.28,37.23,21.45v43.74l-37.6,21.66Zm41.21,26.35,37.58-21.66,38.32,22.08v42.48l-38.69,22.28-37.21-21.43Zm39.21-26.35v-42.5l38.67-22.28,37.23,21.45v43.74l-37.59,21.66Zm41.21,26.35,37.58-21.66,38.32,22.08v42.48l-38.67,22.28-37.23-21.43Zm39.21-26.35v-42.5l38.69-22.28,37.21,21.45v43.74l-37.59,21.66Zm41.21,26.35,37.58-21.66,38.32,22.08v42.48l-38.68,22.28-37.22-21.43Zm39.21-26.35v-42.5l38.69-22.28,37.21,21.45v43.74l-37.59,21.66Zm38.31-116.88-38.31-22.07V1152l38.69-22.3,37.21,21.45v43.74Zm0-138.93-38.31-22.09V1013L1781,990.72l37.21,21.45v43.75Zm0-138.95-38.31-22.08V874.07L1781,851.78l37.21,21.45V917Zm0-138.95-38.31-22.08V735.12L1781,712.83l37.21,21.45V778Zm0-139-38.31-22.07V596.18L1781,573.89l37.21,21.46v43.73Zm0-138.94-38.31-22.08V457.23L1781,434.94l37.21,21.46v43.74Zm-1.62,4.7V569l-38.68,22.29-37.22-21.46V526.08l37.58-21.66Zm-41.21-26.36-37.59,21.66-38.31-22.08V457.23l38.69-22.29,37.21,21.46Zm-39.21,26.36V569l-38.67,22.29-37.23-21.46V526.08l37.58-21.66Zm-41.21-26.36-37.59,21.66-38.31-22.08V457.23l38.67-22.29,37.23,21.46Zm-39.21,26.36V569l-38.69,22.29-37.21-21.46V526.08l37.58-21.66Zm-41.21-26.36-37.59,21.66L1501,499.72V457.23l38.67-22.29,37.23,21.46Zm-39.21,26.36V569L1499,591.28l-37.22-21.46V526.08l37.59-21.66Zm-41.21-26.36-37.6,21.66-38.3-22.08V457.23l38.67-22.29,37.23,21.46Zm-39.23,26.36V569l-38.67,22.29-37.22-21.46V526.08L1419,504.42Zm-41.19-26.36-37.6,21.66-38.3-22.08V457.23l38.67-22.29,37.23,21.46Zm-39.23,26.36V569l-38.67,22.29L1301,569.82V526.08l37.59-21.66Zm-41.19-26.36-37.6,21.66-38.32-22.08V457.23l38.69-22.29,37.23,21.46Zm-39.23,26.36V569l-38.67,22.29-37.22-21.46V526.08l37.58-21.66Zm-41.21-26.36-37.58,21.66-38.32-22.08V457.23L1218,434.94l37.21,21.46ZM1216,526.5V569l-38.67,22.29-37.22-21.46V526.08l37.58-21.66Zm-41.21-26.36-37.58,21.66-38.32-22.08V457.23l38.68-22.29,37.22,21.46Zm-39.21,26.36V569l-38.69,22.29-37.2-21.46V526.08l37.58-21.66Zm-41.21-26.36-37.58,21.66-38.31-22.08V457.23l38.67-22.29,37.22,21.46Zm-39.21,26.36V569l-38.68,22.29-37.22-21.46V526.08l37.59-21.66ZM1014,500.14,976.39,521.8l-38.3-22.08V457.23l38.67-22.29L1014,456.4ZM974.76,526.5V569l-38.68,22.29-37.21-21.46V526.08l37.59-21.66Zm-41.2-26.36L896,521.8l-38.3-22.08V457.23l38.68-22.29,37.22,21.46ZM894.34,526.5V569l-38.68,22.29-37.21-21.46V526.08L856,504.42Zm-78.8-4.7-38.3-22.08V457.23l38.68-22.29,37.21,21.46v43.74Zm-1.62,4.7V569l-38.68,22.29L738,569.82V526.08l37.59-21.66Zm-41.21-26.36L735.12,521.8l-38.3-22.08V457.23l38.68-22.29,37.21,21.46ZM733.5,526.5V569l-38.68,22.29L657.6,569.82V526.08l37.59-21.66Zm-78.8-4.7-38.3-22.08V457.23l38.68-22.29,37.21,21.46v43.74Zm-1.62,4.7V569L614.4,591.28l-37.22-21.46V526.08l37.59-21.66Zm-41.21-26.36L574.28,521.8,536,499.72V457.23l38.68-22.29,37.22,21.46ZM572.66,526.5V569L534,591.28l-37.22-21.46V526.08l37.59-21.66Zm-78.8-4.7-38.31-22.08V457.23l38.68-22.29,37.22,21.46v43.74Zm-1.62,4.7V569l-38.68,22.29-37.22-21.46V526.08l37.59-21.66ZM451,500.14,413.44,521.8l-38.31-22.08V457.23l38.68-22.29L451,456.4Zm-39.2,26.36V569l-38.68,22.29-37.23-21.46V526.08l37.59-21.66Zm-80.43,0V569l-38.67,22.29-37.23-21.46V526.08l37.59-21.66Zm-41.21-26.36L252.6,521.8l-38.31-22.08V457.23L253,434.94l37.22,21.46ZM251,526.5V569l-38.68,22.29-37.22-21.46V526.08l37.59-21.66Zm-78.79-4.7-38.31-22.08V457.23l38.67-22.29,37.22,21.46v43.74Zm.36,52.09,37.22,21.46v43.73l-37.58,21.67-38.31-22.08V596.18Zm0,138.94,37.22,21.45V778l-37.58,21.66-38.31-22.08V735.12Zm0,138.95,37.22,21.45V917l-37.58,21.66-38.31-22.08V874.07Zm0,138.94,37.22,21.45v43.75l-37.58,21.67-38.31-22.09V1013Zm0,139,37.22,21.45v43.74l-37.58,21.68-38.31-22.09V1152Zm0,138.95,37.22,21.45v43.74l-37.58,21.66-38.31-22.07v-42.5Zm0,139L209.76,1429v43.73l-37.58,21.67-38.31-22.07v-42.5ZM212.66,1477,251,1499.1v42.5l-38.67,22.28-37.23-21.45V1498.7Zm1.63-4.68v-42.5L253,1407.57,290.18,1429v43.73l-37.58,21.67Zm41.2,26.35L293.08,1477l38.31,22.07v42.5l-38.67,22.28-37.23-21.45Zm39.22-26.35v-42.5l38.68-22.28L370.6,1429v43.73L333,1494.42ZM373.5,1477l38.32,22.07v42.5l-38.68,22.28-37.23-21.45V1498.7Zm1.63-4.68v-42.5l38.68-22.28L451,1429v43.73l-37.58,21.67Zm41.21,26.35L453.93,1477l38.31,22.07v42.5l-38.68,22.28-37.22-21.45Zm39.21-26.35v-42.5l38.68-22.28L531.45,1429v43.73l-37.59,21.67Zm78.8,4.68,38.31,22.07v42.5L534,1563.88l-37.22-21.45V1498.7Zm1.63-4.68v-42.5l38.68-22.28L611.87,1429v43.73l-37.59,21.67Zm41.2,26.35L614.77,1477l38.31,22.07v42.5l-38.68,22.28-37.22-21.45Zm39.22-26.35v-42.5l38.67-22.28L692.29,1429v43.73l-37.59,21.67Zm78.79,4.68,38.31,22.07v42.5l-38.68,22.28-37.22-21.45V1498.7Zm1.63-4.68v-42.5l38.68-22.28L772.71,1429v43.73l-37.59,21.67ZM738,1498.7,775.61,1477l38.31,22.07v42.5l-38.68,22.28L738,1542.43Zm39.22-26.35v-42.5l38.68-22.28L853.13,1429v43.73l-37.59,21.67Zm41.21,26.35L856,1477l38.3,22.07v42.5l-38.68,22.28-37.21-21.45V1498.7Zm39.22-26.35v-42.5l38.68-22.28L933.56,1429v43.73L896,1494.42Zm41.2,26.35L936.46,1477l38.3,22.07v42.5l-38.68,22.28-37.21-21.45Zm39.22-26.35v-42.5l38.67-22.28L1014,1429v43.73l-37.59,21.67Zm41.2,26.35,37.59-21.67,38.31,22.07v42.5l-38.68,22.28-37.22-21.45Zm39.22-26.35v-42.5l38.67-22.28L1094.4,1429v43.73l-37.58,21.67Zm41.21,26.35L1097.3,1477l38.31,22.07v42.5l-38.69,22.28-37.2-21.45Zm39.2-26.35v-42.5l38.68-22.28,37.22,21.45v43.73l-37.58,21.67Zm41.22,26.35,37.58-21.67L1216,1499.1v42.5l-38.67,22.28-37.22-21.45Zm39.2-26.35v-42.5l38.69-22.28,37.21,21.45v43.73l-37.58,21.67Zm41.22,26.35,37.59-21.67,38.3,22.07v42.5l-38.67,22.28-37.22-21.45Zm39.2-26.35v-42.5l38.69-22.28,37.23,21.45v43.73l-37.6,21.67ZM1301,1498.7l37.59-21.67,38.3,22.07v42.5l-38.67,22.28L1301,1542.43Zm39.22-26.35v-42.5l38.67-22.28L1416.1,1429v43.73l-37.6,21.67Zm41.2,26.35L1419,1477l38.3,22.07v42.5l-38.67,22.28-37.22-21.45Zm39.22-26.35v-42.5l38.67-22.28,37.23,21.45v43.73l-37.6,21.67Zm41.2,26.35,37.59-21.67,38.32,22.07v42.5L1499,1563.88l-37.22-21.45Zm39.22-26.35v-42.5l38.67-22.28,37.23,21.45v43.73l-37.6,21.67Zm41.21,26.35,37.58-21.67,38.32,22.07v42.5l-38.69,22.28-37.21-21.45Zm39.21-26.35v-42.5l38.67-22.28,37.23,21.45v43.73l-37.59,21.67Zm41.21,26.35,37.58-21.67,38.32,22.07v42.5l-38.67,22.28-37.23-21.45Zm39.21-26.35v-42.5l38.69-22.28,37.21,21.45v43.73l-37.59,21.67Zm41.21,26.35,37.58-21.67L1779,1499.1v42.5l-38.68,22.28-37.22-21.45Zm39.21-26.35v-42.5l38.69-22.28L1818.2,1429v43.73l-37.59,21.67Zm41.21,26.35,37.6-21.67,38.3,22.07v42.5l-38.68,22.28-37.22-21.45Zm37.22-73.77-37.22-21.43v-43.75l37.6-21.66,38.3,22.08v42.48Zm0-138.93-37.22-21.45V1220.8l37.6-21.66,38.3,22.08v42.48Zm0-139-37.22-21.45v-43.73l37.6-21.67,38.3,22.07v42.49Zm0-138.95-37.22-21.45V942.91l37.6-21.66,38.3,22.08v42.49Zm0-138.94-37.22-21.45V804l37.6-21.66,38.3,22.08v42.49Zm0-138.94-37.22-21.45V665l37.6-21.66,38.3,22.08v42.49Zm0-138.94-37.22-21.46V526.08l37.6-21.66,38.3,22.08V569Zm0-138.95-37.22-21.45V387.13l37.6-21.66,38.3,22.08V430Zm-2.53-91.14-37.59,21.66-38.31-22.08V318.29L1781,296l37.21,21.45ZM1779,387.55V430l-38.68,22.29-37.22-21.45V387.13l37.58-21.66Zm-41.21-26.36-37.59,21.66-38.31-22.08V318.29L1700.57,296l37.21,21.45Zm-39.21,26.36V430l-38.67,22.29-37.23-21.45V387.13l37.58-21.66Zm-41.21-26.36-37.59,21.66-38.31-22.08V318.29L1620.13,296l37.23,21.45Zm-39.21,26.36V430l-38.69,22.29-37.21-21.45V387.13l37.58-21.66Zm-41.21-26.36-37.59,21.66L1501,360.77V318.29L1539.71,296l37.23,21.45Zm-39.21,26.36V430L1499,452.33l-37.22-21.45V387.13l37.59-21.66Zm-41.21-26.36-37.6,21.66-38.3-22.08V318.29L1459.29,296l37.23,21.45Zm-39.23,26.36V430l-38.67,22.29-37.22-21.45V387.13L1419,365.47Zm-41.19-26.36-37.6,21.66-38.3-22.08V318.29L1378.87,296l37.23,21.45Zm-39.23,26.36V430l-38.67,22.29L1301,430.88V387.13l37.59-21.66Zm-41.19-26.36-37.6,21.66-38.32-22.08V318.29L1298.45,296l37.23,21.45Zm-39.23,26.36V430l-38.67,22.29-37.22-21.45V387.13l37.58-21.66Zm-41.21-26.36-37.58,21.66-38.32-22.08V318.29L1218,296l37.21,21.45ZM1216,387.55V430l-38.67,22.29-37.22-21.45V387.13l37.58-21.66Zm-41.21-26.36-37.58,21.66-38.32-22.08V318.29L1137.6,296l37.22,21.45Zm-39.21,26.36V430l-38.69,22.29-37.2-21.45V387.13l37.58-21.66Zm-41.21-26.36-37.58,21.66-38.31-22.08V318.29L1057.18,296l37.22,21.45Zm-39.21,26.36V430l-38.68,22.29-37.22-21.45V387.13l37.59-21.66ZM1014,361.19l-37.59,21.66-38.3-22.08V318.29L976.76,296,1014,317.45Zm-39.22,26.36V430l-38.68,22.29-37.21-21.45V387.13l37.59-21.66Zm-41.2-26.36L896,382.85l-38.3-22.08V318.29L896.34,296l37.22,21.45Zm-39.22,26.36V430l-38.68,22.29-37.21-21.45V387.13L856,365.47Zm-78.8-4.7-38.3-22.08V318.29L815.92,296l37.21,21.45v43.74Zm-1.62,4.7V430l-38.68,22.29L738,430.88V387.13l37.59-21.66Zm-41.21-26.36-37.59,21.66-38.3-22.08V318.29L735.5,296l37.21,21.45ZM733.5,387.55V430l-38.68,22.29L657.6,430.88V387.13l37.59-21.66Zm-78.8-4.7-38.3-22.08V318.29L655.08,296l37.21,21.45v43.74Zm-1.62,4.7V430L614.4,452.33l-37.22-21.45V387.13l37.59-21.66Zm-41.21-26.36-37.59,21.66L536,360.77V318.29L574.65,296l37.22,21.45Zm-39.21,26.36V430L534,452.33l-37.22-21.45V387.13l37.59-21.66Zm-78.8-4.7-38.31-22.08V318.29L494.23,296l37.22,21.45v43.74Zm-1.62,4.7V430l-38.68,22.29-37.22-21.45V387.13l37.59-21.66ZM451,361.19l-37.58,21.66-38.31-22.08V318.29L413.81,296,451,317.45Zm-39.2,26.36V430l-38.68,22.29-37.23-21.45V387.13l37.59-21.66Zm-80.43,0V430l-38.67,22.29-37.23-21.45V387.13l37.59-21.66Zm-41.21-26.36L252.6,382.85l-38.31-22.08V318.29L253,296l37.22,21.45ZM251,387.55V430l-38.68,22.29-37.22-21.45V387.13l37.59-21.66Zm-78.79-4.7-38.31-22.08V318.29L172.54,296l37.22,21.45v43.74Zm-1.63,4.7V430l-38.68,22.29L94.65,430.88V387.13l37.59-21.66ZM132.24,504.42l38.31,22.08V569l-38.68,22.29L94.65,569.82V526.08Zm0,138.94,38.31,22.08v42.49l-38.68,22.29L94.65,708.77V665Zm0,138.95,38.31,22.08v42.49l-38.68,22.28L94.65,847.71V804Zm0,138.94,38.31,22.08v42.49l-38.68,22.28L94.65,986.65V942.91Zm0,139,38.31,22.07v42.5l-38.68,22.28L94.65,1125.6v-43.73Zm0,138.94,38.31,22.08v42.48L131.87,1286l-37.22-21.45V1220.8Zm0,138.95,38.31,22.08v42.48l-38.68,22.28L94.65,1403.5v-43.75Zm0,138.94,38.31,22.07v42.5l-38.68,22.28-37.22-21.45V1498.7Zm0,139,38.31,22.07v42.5l-38.68,22.28-37.22-21.45v-43.73Zm1.63-4.7V1568.8l38.67-22.3L209.76,1568v43.75l-37.58,21.67Zm78.79,4.7L251,1638.05v42.5l-38.67,22.28-37.23-21.45v-43.73Zm1.63-4.7V1568.8L253,1546.5,290.18,1568v43.75l-37.58,21.67Zm41.2,26.37L293.08,1616l38.31,22.07v42.5l-38.67,22.28-37.23-21.45Zm39.22-26.37V1568.8l38.68-22.3L370.6,1568v43.75L333,1633.37Zm78.79,4.7,38.32,22.07v42.5l-38.68,22.28-37.23-21.45v-43.73Zm1.63-4.7V1568.8l38.68-22.3L451,1568v43.75l-37.58,21.67Zm41.21,26.37L453.93,1616l38.31,22.07v42.5l-38.68,22.28-37.22-21.45Zm39.21-26.37V1568.8l38.68-22.3L531.45,1568v43.75l-37.59,21.67Zm78.8,4.7,38.31,22.07v42.5L534,1702.83l-37.22-21.45v-43.73Zm1.63-4.7V1568.8l38.68-22.3L611.87,1568v43.75l-37.59,21.67Zm41.2,26.37L614.77,1616l38.31,22.07v42.5l-38.68,22.28-37.22-21.45Zm39.22-26.37V1568.8l38.67-22.3L692.29,1568v43.75l-37.59,21.67Zm78.79,4.7,38.31,22.07v42.5l-38.68,22.28-37.22-21.45v-43.73Zm1.63-4.7V1568.8l38.68-22.3L772.71,1568v43.75l-37.59,21.67Zm41.2,26.37L775.61,1616l38.31,22.07v42.5l-38.68,22.28L738,1681.38Zm39.22-26.37V1568.8l38.68-22.3L853.13,1568v43.75l-37.59,21.67Zm41.21,26.37L856,1616l38.3,22.07v42.5l-38.68,22.28-37.21-21.45v-43.73Zm39.22-26.37V1568.8l38.68-22.3L933.56,1568v43.75L896,1633.37Zm41.2,26.37L936.46,1616l38.3,22.07v42.5l-38.68,22.28-37.21-21.45Zm39.22-26.37V1568.8l38.67-22.3L1014,1568v43.75l-37.59,21.67Zm41.2,26.37,37.59-21.67,38.31,22.07v42.5l-38.68,22.28-37.22-21.45Zm39.22-26.37V1568.8l38.67-22.3L1094.4,1568v43.75l-37.58,21.67Zm41.21,26.37L1097.3,1616l38.31,22.07v42.5l-38.69,22.28-37.2-21.45Zm39.2-26.37V1568.8l38.68-22.3,37.22,21.45v43.75l-37.58,21.67Zm41.22,26.37,37.58-21.67,38.31,22.07v42.5l-38.67,22.28-37.22-21.45Zm39.2-26.37V1568.8l38.69-22.3,37.21,21.45v43.75l-37.58,21.67Zm41.22,26.37,37.59-21.67,38.3,22.07v42.5l-38.67,22.28-37.22-21.45Zm39.2-26.37V1568.8l38.69-22.3,37.23,21.45v43.75l-37.6,21.67Zm41.22,26.37,37.59-21.67,38.3,22.07v42.5l-38.67,22.28L1301,1681.38Zm39.22-26.37V1568.8l38.67-22.3L1416.1,1568v43.75l-37.6,21.67Zm41.2,26.37L1419,1616l38.3,22.07v42.5l-38.67,22.28-37.22-21.45Zm39.22-26.37V1568.8l38.67-22.3,37.23,21.45v43.75l-37.6,21.67Zm41.2,26.37,37.59-21.67,38.32,22.07v42.5L1499,1702.83l-37.22-21.45Zm39.22-26.37V1568.8l38.67-22.3,37.23,21.45v43.75l-37.6,21.67Zm41.21,26.37,37.58-21.67,38.32,22.07v42.5l-38.69,22.28-37.21-21.45Zm39.21-26.37V1568.8l38.67-22.3,37.23,21.45v43.75l-37.59,21.67Zm41.21,26.37,37.58-21.67,38.32,22.07v42.5l-38.67,22.28-37.23-21.45Zm39.21-26.37V1568.8l38.69-22.3,37.21,21.45v43.75l-37.59,21.67Zm41.21,26.37,37.58-21.67,38.32,22.07v42.5l-38.68,22.28-37.22-21.45Zm39.21-26.37V1568.8l38.69-22.3L1818.2,1568v43.75l-37.59,21.67Zm41.21,26.37,37.6-21.67,38.3,22.07v42.5l-38.68,22.28-37.22-21.45Zm39.21-26.37V1568.8l38.69-22.3,37.22,21.45v43.75l-37.6,21.67ZM1861,1494.42l-38.31-22.07v-42.5l38.69-22.28,37.22,21.45v43.73Zm0-139-38.31-22.07v-42.5l38.69-22.28,37.22,21.45v43.74Zm0-139-38.31-22.07V1152l38.69-22.3,37.22,21.45v43.74Zm0-138.93-38.31-22.09V1013l38.69-22.29,37.22,21.45v43.75Zm0-138.95-38.31-22.08V874.07l38.69-22.29,37.22,21.45V917Zm0-138.95-38.31-22.08V735.12l38.69-22.29,37.22,21.45V778Zm0-139-38.31-22.07V596.18l38.69-22.29,37.22,21.46v43.73Zm0-138.94-38.31-22.08V457.23l38.69-22.29,37.22,21.46v43.74Zm0-138.95-38.31-22.08V318.29L1861.41,296l37.22,21.45v43.74Zm0-138.94-38.31-22.07V179.35l38.69-22.29,37.22,21.45v43.74Zm-1.62,4.69v42.5l-38.68,22.29-37.22-21.45V248.19l37.6-21.67Zm-41.21-26.35-37.59,21.66-38.31-22.07V179.35L1781,157.06l37.21,21.45ZM1779,248.6v42.5l-38.68,22.29-37.22-21.45V248.19l37.58-21.67Zm-41.21-26.35-37.59,21.66-38.31-22.07V179.35l38.69-22.29,37.21,21.45Zm-39.21,26.35v42.5l-38.67,22.29-37.23-21.45V248.19l37.58-21.67Zm-41.21-26.35-37.59,21.66-38.31-22.07V179.35l38.67-22.29,37.23,21.45Zm-39.21,26.35v42.5l-38.69,22.29-37.21-21.45V248.19l37.58-21.67Zm-41.21-26.35-37.59,21.66L1501,221.84V179.35l38.67-22.29,37.23,21.45Zm-39.21,26.35v42.5L1499,313.39l-37.22-21.45V248.19l37.59-21.67Zm-41.21-26.35-37.6,21.66-38.3-22.07V179.35l38.67-22.29,37.23,21.45Zm-39.23,26.35v42.5l-38.67,22.29-37.22-21.45V248.19L1419,226.52Zm-41.19-26.35-37.6,21.66-38.3-22.07V179.35l38.67-22.29,37.23,21.45Zm-39.23,26.35v42.5l-38.67,22.29L1301,291.94V248.19l37.59-21.67Zm-41.19-26.35-37.6,21.66-38.32-22.07V179.35l38.69-22.29,37.23,21.45Zm-39.23,26.35v42.5l-38.67,22.29-37.22-21.45V248.19l37.58-21.67Zm-41.21-26.35-37.58,21.66-38.32-22.07V179.35L1218,157.06l37.21,21.45ZM1216,248.6v42.5l-38.67,22.29-37.22-21.45V248.19l37.58-21.67Zm-41.21-26.35-37.58,21.66-38.32-22.07V179.35l38.68-22.29,37.22,21.45Zm-39.21,26.35v42.5l-38.69,22.29-37.2-21.45V248.19l37.58-21.67Zm-41.21-26.35-37.58,21.66-38.31-22.07V179.35l38.67-22.29,37.22,21.45Zm-39.21,26.35v42.5l-38.68,22.29-37.22-21.45V248.19l37.59-21.67ZM1014,222.25l-37.59,21.66-38.3-22.07V179.35l38.67-22.29L1014,178.51ZM974.76,248.6v42.5l-38.68,22.29-37.21-21.45V248.19l37.59-21.67Zm-41.2-26.35L896,243.91l-38.3-22.07V179.35l38.68-22.29,37.22,21.45ZM894.34,248.6v42.5l-38.68,22.29-37.21-21.45V248.19L856,226.52Zm-78.8-4.69-38.3-22.07V179.35l38.68-22.29,37.21,21.45v43.74Zm-1.62,4.69v42.5l-38.68,22.29L738,291.94V248.19l37.59-21.67Zm-41.21-26.35-37.59,21.66-38.3-22.07V179.35l38.68-22.29,37.21,21.45ZM733.5,248.6v42.5l-38.68,22.29L657.6,291.94V248.19l37.59-21.67Zm-78.8-4.69-38.3-22.07V179.35l38.68-22.29,37.21,21.45v43.74Zm-1.62,4.69v42.5L614.4,313.39l-37.22-21.45V248.19l37.59-21.67Zm-41.21-26.35-37.59,21.66L536,221.84V179.35l38.68-22.29,37.22,21.45ZM572.66,248.6v42.5L534,313.39l-37.22-21.45V248.19l37.59-21.67Zm-78.8-4.69-38.31-22.07V179.35l38.68-22.29,37.22,21.45v43.74Zm-1.62,4.69v42.5l-38.68,22.29-37.22-21.45V248.19l37.59-21.67ZM451,222.25l-37.58,21.66-38.31-22.07V179.35l38.68-22.29L451,178.51Zm-39.2,26.35v42.5l-38.68,22.29-37.23-21.45V248.19l37.59-21.67Zm-80.43,0v42.5l-38.67,22.29-37.23-21.45V248.19l37.59-21.67Zm-41.21-26.35L252.6,243.91l-38.31-22.07V179.35L253,157.06l37.22,21.45ZM251,248.6v42.5l-38.68,22.29-37.22-21.45V248.19l37.59-21.67Zm-78.79-4.69-38.31-22.07V179.35l38.67-22.29,37.22,21.45v43.74Zm-1.63,4.69v42.5l-38.68,22.29L94.65,291.94V248.19l37.59-21.67Zm-41.21-26.35L91.76,243.91,53.44,221.84V179.35l38.68-22.29,37.22,21.45ZM92.12,296l37.22,21.45v43.74L91.76,382.85,53.44,360.77V318.29Zm0,138.94,37.22,21.46v43.74L91.76,521.8,53.44,499.72V457.23Zm0,139,37.22,21.46v43.73L91.76,660.74,53.44,638.67V596.18Zm0,138.94,37.22,21.45V778L91.76,799.69,53.44,777.61V735.12Zm0,138.95,37.22,21.45V917L91.76,938.64,53.44,916.56V874.07Zm0,138.94,37.22,21.45v43.75l-37.59,21.67L53.44,1055.5V1013Zm0,139,37.22,21.45v43.74l-37.59,21.66-38.31-22.07V1152Zm0,138.95,37.22,21.45v43.74l-37.59,21.66L53.44,1333.4v-42.5Zm0,139L129.34,1429v43.73l-37.59,21.67-38.31-22.07v-42.5Zm0,138.93L129.34,1568v43.75l-37.59,21.67-38.31-22.09V1568.8Zm0,139,37.22,21.45v43.75l-37.59,21.67-38.31-22.09v-42.48Zm2.53,91.13,37.59-21.66L170.55,1777v42.48l-38.68,22.3-37.22-21.45Zm39.22-26.35v-42.48l38.67-22.3,37.22,21.45v43.75l-37.58,21.67Zm78.79,4.69L251,1777v42.48l-38.67,22.3-37.23-21.45v-43.75Zm1.63-4.69v-42.48l38.67-22.3,37.22,21.45v43.75l-37.58,21.67Zm41.2,26.35,37.59-21.66L331.39,1777v42.48l-38.67,22.3-37.23-21.45Zm39.22-26.35v-42.48l38.68-22.3,37.21,21.45v43.75L333,1772.32Zm78.79,4.69L411.82,1777v42.48l-38.68,22.3-37.23-21.45v-43.75Zm1.63-4.69v-42.48l38.68-22.3L451,1706.9v43.75l-37.58,21.67Zm41.21,26.35,37.59-21.66L492.24,1777v42.48l-38.68,22.3-37.22-21.45Zm39.21-26.35v-42.48l38.68-22.3,37.22,21.45v43.75l-37.59,21.67Zm78.8,4.69L572.66,1777v42.48L534,1841.78l-37.22-21.45v-43.75Zm1.63-4.69v-42.48l38.68-22.3,37.22,21.45v43.75l-37.59,21.67Zm41.2,26.35,37.59-21.66L653.08,1777v42.48l-38.68,22.3-37.22-21.45Zm39.22-26.35v-42.48l38.67-22.3,37.22,21.45v43.75l-37.59,21.67Zm78.79,4.69L733.5,1777v42.48l-38.68,22.3-37.22-21.45v-43.75Zm1.63-4.69v-42.48l38.68-22.3,37.21,21.45v43.75l-37.59,21.67Zm41.2,26.35,37.59-21.66L813.92,1777v42.48l-38.68,22.3L738,1820.33Zm39.22-26.35v-42.48l38.68-22.3,37.21,21.45v43.75l-37.59,21.67Zm41.21,26.35L856,1754.92l38.3,22.08v42.48l-38.68,22.3-37.21-21.45v-43.75Zm39.22-26.35v-42.48l38.68-22.3,37.22,21.45v43.75L896,1772.32Zm41.2,26.35,37.59-21.66,38.3,22.08v42.48l-38.68,22.3-37.21-21.45Zm39.22-26.35v-42.48l38.67-22.3L1014,1706.9v43.75l-37.59,21.67Zm41.2,26.35,37.59-21.66,38.31,22.08v42.48l-38.68,22.3-37.22-21.45Zm39.22-26.35v-42.48l38.67-22.3,37.22,21.45v43.75l-37.58,21.67Zm41.21,26.35,37.58-21.66,38.31,22.08v42.48l-38.69,22.3-37.2-21.45Zm39.2-26.35v-42.48l38.68-22.3,37.22,21.45v43.75l-37.58,21.67Zm41.22,26.35,37.58-21.66L1216,1777v42.48l-38.67,22.3-37.22-21.45Zm39.2-26.35v-42.48l38.69-22.3,37.21,21.45v43.75l-37.58,21.67Zm41.22,26.35,37.59-21.66,38.3,22.08v42.48l-38.67,22.3-37.22-21.45Zm39.2-26.35v-42.48l38.69-22.3,37.23,21.45v43.75l-37.6,21.67Zm41.22,26.35,37.59-21.66,38.3,22.08v42.48l-38.67,22.3L1301,1820.33Zm39.22-26.35v-42.48l38.67-22.3,37.23,21.45v43.75l-37.6,21.67Zm41.2,26.35,37.59-21.66,38.3,22.08v42.48l-38.67,22.3-37.22-21.45Zm39.22-26.35v-42.48l38.67-22.3,37.23,21.45v43.75l-37.6,21.67Zm41.2,26.35,37.59-21.66,38.32,22.08v42.48l-38.69,22.3-37.22-21.45Zm39.22-26.35v-42.48l38.67-22.3,37.23,21.45v43.75l-37.6,21.67Zm41.21,26.35,37.58-21.66,38.32,22.08v42.48l-38.69,22.3-37.21-21.45Zm39.21-26.35v-42.48l38.67-22.3,37.23,21.45v43.75l-37.59,21.67Zm41.21,26.35,37.58-21.66,38.32,22.08v42.48l-38.67,22.3-37.23-21.45Zm39.21-26.35v-42.48l38.69-22.3,37.21,21.45v43.75l-37.59,21.67Zm41.21,26.35,37.58-21.66L1779,1777v42.48l-38.68,22.3-37.22-21.45Zm39.21-26.35v-42.48l38.69-22.3,37.21,21.45v43.75l-37.59,21.67Zm41.21,26.35,37.6-21.66,38.3,22.08v42.48l-38.68,22.3-37.22-21.45Zm39.21-26.35v-42.48l38.69-22.3,37.22,21.45v43.75l-37.6,21.67Zm41.21,26.35,37.6-21.66,38.3,22.08v42.48l-38.68,22.3-37.22-21.45Zm37.22-73.75-37.22-21.45v-43.73l37.6-21.67,38.3,22.07v42.5Zm0-138.95-37.22-21.45V1498.7l37.6-21.67,38.3,22.07v42.5Zm0-139-37.22-21.43v-43.75l37.6-21.66,38.3,22.08v42.48Zm0-138.93-37.22-21.45V1220.8l37.6-21.66,38.3,22.08v42.48Zm0-139-37.22-21.45v-43.73l37.6-21.67,38.3,22.07v42.49Zm0-138.95-37.22-21.45V942.91l37.6-21.66,38.3,22.08v42.49Zm0-138.94-37.22-21.45V804l37.6-21.66,38.3,22.08v42.49Zm0-138.94-37.22-21.45V665l37.6-21.66,38.3,22.08v42.49Zm0-138.94-37.22-21.46V526.08l37.6-21.66,38.3,22.08V569Zm0-138.95-37.22-21.45V387.13l37.6-21.66,38.3,22.08V430Zm0-138.94-37.22-21.45V248.19l37.6-21.67,38.3,22.08v42.5Zm-78.43-273,38.69-22.29,37.22,21.45V83.3L1861,105l-38.31-22.08Zm-1.61,47.18,38.3,22.08v42.49l-38.68,22.29L1783.51,153V109.24ZM1742.3,40.4,1781,18.11l37.21,21.45V83.3L1780.61,105,1742.3,82.89Zm-1.63,47.18L1779,109.66v42.49l-38.68,22.29L1703.09,153V109.24ZM1661.88,40.4l38.69-22.29,37.21,21.45V83.3L1700.19,105l-38.31-22.08Zm-1.63,47.18,38.32,22.08v42.49l-38.67,22.29L1622.67,153V109.24ZM1581.46,40.4l38.67-22.29,37.23,21.45V83.3L1619.77,105l-38.31-22.08Zm-1.63,47.18,38.32,22.08v42.49l-38.69,22.29L1542.25,153V109.24ZM1501,40.4l38.67-22.29,37.23,21.45V83.3L1539.35,105,1501,82.89Zm-1.63,47.18,38.32,22.08v42.49L1499,174.44,1461.82,153V109.24ZM1420.62,40.4l38.67-22.29,37.23,21.45V83.3L1458.92,105l-38.3-22.08ZM1419,87.58l38.3,22.08v42.49l-38.67,22.29L1381.4,153V109.24ZM1340.2,40.4l38.67-22.29,37.23,21.45V83.3L1378.5,105l-38.3-22.08Zm-1.63,47.18,38.3,22.08v42.49l-38.67,22.29L1301,153V109.24ZM1259.76,40.4l38.69-22.29,37.23,21.45V83.3L1298.08,105l-38.32-22.08Zm-1.62,47.18,38.31,22.08v42.49l-38.67,22.29L1220.56,153V109.24Zm-78.8-47.18L1218,18.11l37.21,21.45V83.3L1217.66,105l-38.32-22.08Zm-1.62,47.18L1216,109.66v42.49l-38.67,22.29L1140.14,153V109.24Zm-78.8-47.18,38.68-22.29,37.22,21.45V83.3L1137.24,105l-38.32-22.08Zm-1.62,47.18,38.31,22.08v42.49l-38.69,22.29L1059.72,153V109.24ZM1018.51,40.4l38.67-22.29,37.22,21.45V83.3L1056.82,105l-38.31-22.08Zm-1.63,47.18,38.31,22.08v42.49l-38.68,22.29L979.29,153V109.24ZM938.09,40.4l38.67-22.29L1014,39.56V83.3L976.39,105l-38.3-22.08Zm-1.63,47.18,38.3,22.08v42.49l-38.68,22.29L898.87,153V109.24ZM896.34,18.11l37.22,21.45V83.3L896,105l-38.3-22.08V40.4ZM856,87.58l38.3,22.08v42.49l-38.68,22.29L818.45,153V109.24ZM777.24,40.4l38.68-22.29,37.21,21.45V83.3L815.54,105l-38.3-22.08Zm-1.63,47.18,38.31,22.08v42.49l-38.68,22.29L738,153V109.24ZM696.82,40.4,735.5,18.11l37.21,21.45V83.3L735.12,105l-38.3-22.08V40.4Zm-1.63,47.18,38.31,22.08v42.49l-38.68,22.29L657.6,153V109.24ZM616.4,40.4l38.68-22.29,37.21,21.45V83.3L654.7,105,616.4,82.89Zm-1.63,47.18,38.31,22.08v42.49L614.4,174.44,577.18,153V109.24ZM574.65,18.11l37.22,21.45V83.3L574.28,105,536,82.89V40.4Zm-40.3,69.47,38.31,22.08v42.49L534,174.44,496.76,153V109.24ZM455.55,40.4l38.68-22.29,37.22,21.45V83.3L493.86,105,455.55,82.89Zm-1.62,47.18,38.31,22.08v42.49l-38.68,22.29L416.34,153V109.24ZM413.81,18.11,451,39.56V83.3L413.44,105,375.13,82.89V40.4ZM373.5,87.58l38.32,22.08v42.49l-38.68,22.29L335.91,153V109.24ZM294.71,40.4l38.68-22.29L370.6,39.56V83.3L333,105,294.71,82.89Zm-1.63,47.18,38.31,22.08v42.49l-38.67,22.29L255.49,153V109.24ZM253,18.11l37.22,21.45V83.3L252.6,105,214.29,82.89V40.4Zm-40.3,69.47L251,109.66v42.49l-38.68,22.29L175.07,153V109.24ZM133.87,40.4l38.67-22.29,37.22,21.45V83.3L172.18,105,133.87,82.89Zm-1.63,47.18,38.31,22.08v42.49l-38.68,22.29L94.65,153V109.24ZM92.12,18.11l37.22,21.45V83.3L91.76,105,53.44,82.89V40.4ZM14.23,153V109.24L51.82,87.58l38.31,22.08v42.49L51.45,174.44Zm0,139V248.19l37.59-21.67L90.13,248.6v42.5L51.45,313.39Zm0,138.94V387.13l37.59-21.66,38.31,22.08V430L51.45,452.33Zm0,138.94V526.08l37.59-21.66L90.13,526.5V569L51.45,591.28Zm0,138.95V665l37.59-21.66,38.31,22.08v42.49L51.45,730.22Zm0,138.94V804l37.59-21.66,38.31,22.08v42.49L51.45,869.16Zm0,138.94V942.91l37.59-21.66,38.31,22.08v42.49L51.45,1008.1Zm0,138.95v-43.73l37.59-21.68,38.31,22.08v42.49l-38.68,22.29Zm0,139V1220.8l37.59-21.66,38.31,22.08v42.48L51.45,1286Zm0,139v-43.75l37.59-21.66,38.31,22.08v42.48l-38.68,22.28Zm0,138.93V1498.7L51.82,1477l38.31,22.07v42.5l-38.68,22.28Zm0,139v-43.73L51.82,1616l38.31,22.07v42.5l-38.68,22.28Zm0,138.95v-43.75l37.59-21.66L90.13,1777v42.48l-38.68,22.3Zm75.9,138.1-38.68,22.3-37.22-21.45v-43.75l37.59-21.67L90.13,1916Zm1.62-47.18-38.31-22.07v-42.5l38.68-22.28,37.22,21.45v43.73Zm40.12,69.48-37.22-21.45v-43.75l37.59-21.67L170.55,1916v42.48Zm40.31-69.48-38.31-22.07v-42.5l38.67-22.28,37.22,21.45v43.73ZM251,1958.43l-38.67,22.3-37.23-21.45v-43.75l37.59-21.67L251,1916Zm1.63-47.18-38.31-22.07v-42.5L253,1824.4l37.22,21.45v43.73Zm40.12,69.48-37.23-21.45v-43.75l37.59-21.67L331.39,1916v42.48Zm40.3-69.48-38.31-22.07v-42.5l38.68-22.28,37.21,21.45v43.73Zm78.8,47.18-38.68,22.3-37.23-21.45v-43.75l37.59-21.67L411.82,1916Zm1.62-47.18-38.31-22.07v-42.5l38.68-22.28L451,1845.85v43.73Zm40.12,69.48-37.22-21.45v-43.75l37.59-21.67L492.24,1916v42.48Zm40.3-69.48-38.31-22.07v-42.5l38.68-22.28,37.22,21.45v43.73Zm78.8,47.18L534,1980.73l-37.22-21.45v-43.75l37.59-21.67L572.66,1916Zm1.62-47.18L536,1889.18v-42.5l38.68-22.28,37.22,21.45v43.73Zm40.12,69.48-37.22-21.45v-43.75l37.59-21.67L653.08,1916v42.48Zm40.3-69.48-38.3-22.07v-42.5l38.67-22.28,37.22,21.45v43.73Zm78.8,47.18-38.68,22.3-37.22-21.45v-43.75l37.59-21.67L733.5,1916Zm1.62-47.18-38.3-22.07v-42.5l38.68-22.28,37.21,21.45v43.73Zm40.12,69.48L738,1959.28v-43.75l37.59-21.67L813.92,1916v42.48Zm40.3-69.48-38.3-22.07v-42.5l38.68-22.28,37.21,21.45v43.73Zm78.8,47.18-38.68,22.3-37.21-21.45v-43.75L856,1893.86l38.3,22.09Zm1.63-47.18-38.3-22.07v-42.5l38.68-22.28,37.22,21.45v43.73Zm78.79,47.18-38.68,22.3-37.21-21.45v-43.75l37.59-21.67,38.3,22.09Zm1.63-47.18-38.3-22.07v-42.5l38.67-22.28,37.22,21.45v43.73Zm78.8,47.18-38.68,22.3-37.22-21.45v-43.75l37.59-21.67,38.31,22.09Zm1.63-47.18-38.31-22.07v-42.5l38.67-22.28,37.22,21.45v43.73Zm78.79,47.18-38.69,22.3-37.2-21.45v-43.75l37.58-21.67,38.31,22.09Zm1.63-47.18-38.32-22.07v-42.5l38.68-22.28,37.22,21.45v43.73Zm78.79,47.18-38.67,22.3-37.22-21.45v-43.75l37.58-21.67L1216,1916Zm1.63-47.18-38.32-22.07v-42.5L1218,1824.4l37.21,21.45v43.73Zm78.79,47.18-38.67,22.3-37.22-21.45v-43.75l37.59-21.67,38.3,22.09Zm1.63-47.18-38.32-22.07v-42.5l38.69-22.28,37.23,21.45v43.73Zm78.79,47.18-38.67,22.3L1301,1959.28v-43.75l37.59-21.67,38.3,22.09Zm1.63-47.18-38.3-22.07v-42.5l38.67-22.28,37.23,21.45v43.73Zm78.79,47.18-38.67,22.3-37.22-21.45v-43.75l37.59-21.67,38.3,22.09Zm1.63-47.18-38.3-22.07v-42.5l38.67-22.28,37.23,21.45v43.73Zm78.81,47.18-38.69,22.3-37.22-21.45v-43.75l37.59-21.67,38.32,22.09Zm1.61-47.18-38.3-22.07v-42.5l38.67-22.28,37.23,21.45v43.73Zm78.81,47.18-38.69,22.3-37.21-21.45v-43.75l37.58-21.67,38.32,22.09Zm1.62-47.18-38.31-22.07v-42.5l38.67-22.28,37.23,21.45v43.73Zm78.8,47.18-38.67,22.3-37.23-21.45v-43.75l37.58-21.67,38.32,22.09Zm1.62-47.18-38.31-22.07v-42.5l38.69-22.28,37.21,21.45v43.73Zm78.8,47.18-38.68,22.3-37.22-21.45v-43.75l37.58-21.67L1779,1916Zm1.62-47.18-38.31-22.07v-42.5L1781,1824.4l37.21,21.45v43.73Zm78.8,47.18-38.68,22.3-37.22-21.45v-43.75l37.6-21.67,38.3,22.09Zm1.62-47.18-38.31-22.07v-42.5l38.69-22.28,37.22,21.45v43.73Zm78.8,47.18-38.68,22.3-37.22-21.45v-43.75l37.6-21.67,38.3,22.09Zm39.22-112.58v43.73l-37.6,21.67-38.29-22.07v-42.5l38.67-22.28Zm0-138.95v43.75l-37.6,21.67-38.29-22.09v-42.48l38.67-22.3Zm0-139v43.75l-37.6,21.67-38.29-22.09V1568.8l38.67-22.3Zm0-138.93v43.73l-37.6,21.67-38.29-22.07v-42.5l38.67-22.28Zm0-139v43.74l-37.6,21.66-38.29-22.07v-42.5l38.67-22.28Zm0-139v43.74l-37.6,21.66-38.29-22.07V1152l38.67-22.3Zm0-138.95v43.75l-37.6,21.67-38.29-22.09V1013l38.67-22.29Zm0-138.94V917l-37.6,21.66-38.29-22.08V874.07l38.67-22.29Zm0-139V778l-37.6,21.66-38.29-22.08V735.12l38.67-22.29Zm0-138.93v43.73l-37.6,21.66-38.29-22.07V596.18l38.67-22.29Zm0-139v43.74l-37.6,21.66-38.29-22.08V457.23l38.67-22.29Zm0-138.95v43.74l-37.6,21.66-38.29-22.08V318.29L1941.83,296Zm0-138.94v43.74l-37.6,21.66-38.29-22.07V179.35l38.67-22.29Zm0-95.21L1941.45,105l-38.29-22.08V40.4l38.67-22.29,37.22,21.45Z" style="fill:#231f20;opacity:0.66;mix-blend-mode:screen"/><path d="M2000,29.66V23.6l-15.4,8.88L1947.38,11V0h-4.53V10.19l-38.68,22.29L1867,11V0h-4.53V10.19l-38.68,22.29L1786.52,11V0H1782V10.19l-38.67,22.29L1706.1,11V0h-4.52V10.19l-38.67,22.29L1625.68,11V0h-4.52V10.19l-38.67,22.29L1545.26,11V0h-4.52V10.19l-38.67,22.29L1464.84,11V0h-4.52V10.19l-38.69,22.29L1384.42,11V0h-4.52V10.19l-38.69,22.29L1304,11V0h-4.51V10.19l-38.69,22.29L1223.57,11V0H1219V10.19l-38.67,22.29L1143.15,11V0h-4.53V10.19L1100,32.48,1062.73,11V0h-4.53V10.19l-38.67,22.29L982.31,11V0h-4.53V10.19L939.1,32.48,901.89,11V0h-4.54V10.19L858.68,32.48,821.46,11V0h-4.53V10.19L778.26,32.48,741,11V0h-4.53V10.19L697.83,32.48,660.62,11V0h-4.53V10.19L617.41,32.48,580.2,11V0h-4.53V10.19L537,32.48,499.78,11V0h-4.53V10.19L456.57,32.48,419.35,11V0h-4.52V10.19L376.15,32.48,338.93,11V0h-4.52V10.19L295.73,32.48,258.51,11V0H254V10.19L215.31,32.48,178.09,11V0h-4.52V10.19L134.89,32.48,97.66,11V0H93.14V10.19L54.47,32.48,17.24,11V0H12.72V10.19L0,17.52v6.06L14.72,15.1,51.94,36.55V80.29L14.35,102,0,93.69v5.63l12.72,7.33v42.49L0,156.47v6.05l14.72-8.47L51.94,175.5v43.74L14.35,240.9,0,232.63v5.63l12.72,7.33v42.49L0,295.42v6.05L14.72,293l37.22,21.46v43.74L14.35,379.84,0,371.57v5.63l12.72,7.34V427L0,434.36v6.05l14.72-8.48,37.22,21.46v43.74L14.35,518.79,0,510.52v5.63l12.72,7.33V566L0,573.31v6.05l14.72-8.49,37.22,21.46v43.75L14.35,657.74,0,649.46v5.64l12.72,7.33v42.48L0,712.25v6l14.72-8.48,37.22,21.45V775L14.35,796.68,0,788.41V794l12.72,7.34v42.48L0,851.2v6l14.72-8.48,37.22,21.45V914L14.35,935.63,0,927.35V933l12.72,7.34v42.49L0,990.14v6.06l14.72-8.49,37.22,21.45v43.75l-37.59,21.67L0,1066.31v5.61l12.72,7.34v42.49L0,1129.08v6.06l14.71-8.48,37.23,21.45v43.73l-37.59,21.68L0,1205.24v5.63l12.72,7.34v42.48L0,1268v6.06l14.71-8.48,37.23,21.45v43.74l-37.59,21.66L0,1344.19v5.63l12.72,7.34v42.48L0,1407V1413l14.71-8.5L51.94,1426v43.75l-37.59,21.67L0,1483.14v5.63l12.72,7.32v42.5L0,1545.92V1552l14.71-8.5,37.23,21.45v43.75l-37.59,21.66L0,1622.09v5.63L12.72,1635v42.5L0,1684.86v6.06l14.71-8.48,37.23,21.45v43.75L14.35,1769.3,0,1761v5.62L12.72,1774v42.48L0,1823.81v6.06l14.71-8.48,37.23,21.45v43.73l-37.59,21.67L0,1900v5.63l12.72,7.34v42.48L0,1962.76v6.06l14.71-8.49,37.23,21.46V2000h4.52v-17.38l38.68-22.29,37.22,21.46V2000h4.52v-17.38l38.68-22.29,37.22,21.46V2000h4.52v-17.38L256,1960.33l37.22,21.46V2000h4.53v-17.38l38.67-22.29,37.22,21.46V2000h4.53v-17.38l38.67-22.29L454,1981.79V2000h4.53v-17.38l38.68-22.29,37.21,21.46V2000H539v-17.38l38.68-22.29,37.21,21.46V2000h4.53v-17.38l38.68-22.29,37.22,21.46V2000h4.53v-17.38l38.67-22.29,37.22,21.46V2000h4.53v-17.38l38.68-22.29,37.21,21.46V2000h4.53v-17.38l38.68-22.29,37.21,21.46V2000h4.53v-17.38l38.68-22.29,37.21,21.46V2000h4.53v-17.38l38.68-22.29,37.21,21.46V2000h4.53v-17.38l38.68-22.29,37.23,21.46V2000h4.52v-17.38l38.67-22.29,37.23,21.46V2000h4.52v-17.38l38.67-22.29,37.23,21.46V2000h4.52v-17.38l38.67-22.29,37.23,21.46V2000h4.52v-17.38l38.67-22.29,37.23,21.46V2000h4.52v-17.38l38.69-22.29,37.21,21.46V2000h4.52v-17.38l38.69-22.29,37.21,21.46V2000h4.54v-17.38l38.67-22.29,37.22,21.46V2000h4.53v-17.38l38.67-22.29,37.22,21.46V2000h4.53v-17.38l38.67-22.29,37.22,21.46V2000h4.53v-17.38l38.67-22.29,37.22,21.46V2000h4.53v-17.38l13.41-7.73v-6.06l-15.4,8.89-37.22-21.45v-43.75l37.58-21.67,15,8.66v-5.61l-13.41-7.73v-42.5L2000,1836v-6l-15.4,8.87-37.22-21.45v-43.75l37.58-21.66,15,8.67V1755l-13.41-7.73v-42.48L2000,1697V1691l-15.4,8.87-37.22-21.45v-43.73L1985,1613l15,8.66V1616l-13.41-7.73v-42.48l13.41-7.73V1552l-15.4,8.87-37.22-21.45v-43.73L1985,1474l15,8.66v-5.63l-13.41-7.71v-42.5l13.41-7.73v-6.06l-15.4,8.87-37.22-21.43v-43.75l37.58-21.66,15,8.65v-5.63l-13.41-7.71v-42.5l13.41-7.73v-6.06l-15.4,8.89-37.22-21.45v-43.75l37.58-21.66,15,8.67v-5.63l-13.41-7.73V1149l13.41-7.73v-6.06l-15.4,8.87-37.22-21.45v-43.75l37.58-21.65,15,8.66v-5.63l-13.41-7.73V1010l13.41-7.72v-6.06l-15.4,8.87-37.22-21.45V939.9L1985,918.24l15,8.66v-5.63l-13.41-7.72V871.06l13.41-7.73v-6.06l-15.4,8.88-37.22-21.45V801L1985,779.3l15,8.65v-5.62l-13.41-7.73V732.11l13.41-7.73v-6l-15.4,8.87-37.22-21.45V662L1985,640.35l15,8.67v-5.64l-13.41-7.72v-42.5l13.41-7.72v-6.05l-15.4,8.88-37.22-21.46V523.07L1985,501.41l15,8.66v-5.63l-13.41-7.73V454.22l13.41-7.73v-6.05l-15.4,8.88-37.22-21.46V384.12L1985,362.46l15,8.67v-5.64l-13.41-7.73V315.27l13.41-7.72V301.5l-15.4,8.88-37.22-21.46V245.17L1985,223.51l15,8.67v-5.63l-13.41-7.73V176.34L2000,168.6v-6l-15.4,8.88L1947.38,150V106.23L1985,84.57l15,8.67V87.6l-13.41-7.72V37.39Zm-95.46,54.91,38.31,22.08v42.49l-38.68,22.29L1867,150V106.23ZM856.15,219.24,818.56,240.9l-38.3-22.08V176.34l38.68-22.29,37.21,21.45v43.74Zm0,138.94-37.59,21.66-38.3-22.08V315.27L818.94,293l37.21,21.46v43.74Zm0,139-37.59,21.66-38.3-22.08V454.22l38.68-22.29,37.21,21.46v43.74Zm0,139-37.59,21.66-38.3-22.08v-42.5l38.68-22.29,37.21,21.46v43.75Zm0,138.94-37.59,21.66-38.3-22.08V732.11l38.68-22.29,37.21,21.45V775Zm0,139-37.59,21.66-38.3-22.08V871.06l38.68-22.29,37.21,21.45V914Zm804.22,0-37.58,21.66-38.32-22.08V871.06l38.69-22.29,37.21,21.45Zm2.91,4.27,38.3,22.08v42.49l-38.67,22.28-37.23-21.45V939.9Zm-42.12,22.08v42.49l-38.67,22.28-37.23-21.45V939.9l37.58-21.66ZM1580,914l-37.58,21.66-38.32-22.08V871.06l38.69-22.29L1580,870.22Zm-39.21,26.35v42.49l-38.67,22.28-37.23-21.45V939.9l37.58-21.66ZM1499.53,914,1462,935.63l-38.32-22.08V871.06l38.67-22.29,37.23,21.45Zm-39.21,26.35v42.49l-38.69,22.28-37.21-21.45V939.9L1422,918.24ZM1419.11,914l-37.58,21.66-38.32-22.08V871.06l38.67-22.29,37.23,21.45Zm-39.21,26.35v42.49l-38.69,22.28L1304,983.64V939.9l37.59-21.66ZM1338.69,914l-37.6,21.66-38.3-22.08V871.06l38.67-22.29,37.23,21.45Zm-39.21,26.35v42.49l-38.69,22.28-37.22-21.45V939.9l37.59-21.66ZM1258.27,914l-37.6,21.66-38.3-22.08V871.06L1221,848.77l37.23,21.45ZM1219,940.32v42.49l-38.67,22.28-37.22-21.45V939.9l37.59-21.66ZM1177.85,914l-37.6,21.66-38.31-22.08V871.06l38.68-22.29,37.23,21.45Zm-39.23,26.35v42.49L1100,1005.09l-37.22-21.45V939.9l37.59-21.66ZM1097.41,914l-37.58,21.66-38.31-22.08V871.06l38.68-22.29,37.21,21.45Zm-39.21,26.35v42.49l-38.67,22.28-37.22-21.45V939.9l37.58-21.66ZM1017,914l-37.58,21.66L941.1,913.55V871.06l38.68-22.29L1017,870.22Zm-39.21,26.35v42.49l-38.68,22.28-37.21-21.45V939.9l37.58-21.66ZM936.57,914,899,935.63l-38.3-22.08V871.06l38.68-22.29,37.21,21.45Zm-39.22,26.35v42.49l-38.67,22.28-37.22-21.45V939.9l37.59-21.66Zm-80.42,0v42.49l-38.67,22.28L741,983.64V939.9l37.59-21.66ZM775.73,914l-37.59,21.66-38.3-22.08V871.06l38.67-22.29,37.22,21.45Zm-39.22,26.35v42.49l-38.68,22.28-37.21-21.45V939.9l37.59-21.66Zm-78.79-4.69-38.31-22.08V871.06l38.68-22.29,37.22,21.45V914Zm-1.63,4.69v42.49l-38.68,22.28L580.2,983.64V939.9l37.59-21.66ZM614.88,914l-37.59,21.66L539,913.55V871.06l38.68-22.29,37.21,21.45Zm-39.21,26.35v42.49L537,1005.09l-37.21-21.45V939.9l37.59-21.66Zm-78.8-4.69-38.3-22.08V871.06l38.68-22.29,37.21,21.45V914Zm-1.62,4.69v42.49l-38.68,22.28-37.22-21.45V939.9l37.59-21.66ZM454,914l-37.59,21.66-38.3-22.08V871.06l38.68-22.29L454,870.22Zm-39.21,26.35v42.49l-38.68,22.28-37.22-21.45V939.9l37.59-21.66ZM336,935.63l-38.3-22.08V871.06l38.67-22.29,37.22,21.45V914Zm-1.62,4.69v42.49l-38.68,22.28-37.22-21.45V939.9l37.59-21.66ZM296.1,1057.19l38.31,22.07v42.49L295.73,1144l-37.22-21.45v-43.75Zm1.63-4.7V1010l38.67-22.29,37.22,21.45v43.75L336,1074.58Zm78.79,4.69,38.31,22.08v42.49L376.15,1144l-37.22-21.45v-43.75Zm1.63-4.69V1010l38.68-22.29L454,1009.16v43.75l-37.59,21.67Zm41.2,26.35,37.59-21.65,38.31,22.07v42.49L456.57,1144l-37.22-21.45Zm39.22-26.35V1010l38.68-22.29,37.21,21.45v43.75l-37.59,21.67Zm41.2,26.35,37.59-21.66,38.31,22.08v42.49L537,1144l-37.21-21.45v-43.75ZM539,1052.49V1010l38.68-22.29,37.21,21.45v43.75l-37.59,21.67Zm41.21,26.35,37.59-21.65,38.3,22.07v42.49L617.41,1144l-37.21-21.45Zm39.21-26.35V1010l38.68-22.29,37.22,21.45v43.75l-37.59,21.67Zm78.8,4.69,38.3,22.08v42.49L697.83,1144l-37.21-21.45v-43.75Zm1.63-4.69V1010l38.67-22.29,37.22,21.45v43.75l-37.59,21.67Zm41.2,26.35,37.59-21.65,38.3,22.07v42.49L778.26,1144,741,1122.59Zm39.22-26.35V1010l38.68-22.29,37.21,21.45v43.75l-37.59,21.67Zm78.79,4.69,38.3,22.08v42.49L858.68,1144l-37.22-21.45v-43.75Zm1.63-4.69V1010l38.68-22.29,37.21,21.45v43.75L899,1074.58Zm41.21,26.35,37.59-21.65,38.3,22.07v42.49L939.1,1144l-37.21-21.45Zm39.21-26.35V1010l38.68-22.29,37.21,21.45v43.75l-37.58,21.67Zm41.21,26.35,37.58-21.65,38.31,22.07v42.49L1019.53,1144l-37.22-21.45Zm39.21-26.35V1010l38.68-22.29,37.21,21.45v43.75l-37.58,21.67Zm41.21,26.35,37.59-21.65,38.3,22.07v42.49L1100,1144l-37.22-21.45Zm39.21-26.35V1010l38.68-22.29,37.23,21.45v43.75l-37.6,21.67Zm41.21,26.35,37.59-21.65,38.3,22.07v42.49L1180.37,1144l-37.22-21.45Zm39.22-26.35V1010L1221,987.71l37.23,21.45v43.75l-37.6,21.67Zm41.2,26.35,37.59-21.65,38.32,22.07v42.49L1260.79,1144l-37.22-21.45Zm39.22-26.35V1010l38.67-22.29,37.23,21.45v43.75l-37.6,21.67Zm41.2,26.35,37.59-21.65,38.32,22.07v42.49L1341.21,1144,1304,1122.59Zm39.22-26.35V1010l38.67-22.29,37.23,21.45v43.75l-37.6,21.67Zm41.21,26.35,37.58-21.65,38.32,22.07v42.49L1421.63,1144l-37.21-21.45Zm39.21-26.35V1010l38.67-22.29,37.23,21.45v43.75L1462,1074.58Zm41.21,26.35,37.58-21.65,38.32,22.07v42.49L1502.07,1144l-37.23-21.45Zm39.21-26.35V1010l38.69-22.29,37.21,21.45v43.75l-37.58,21.67Zm41.21,26.35,37.6-21.65,38.3,22.07v42.49L1582.49,1144l-37.23-21.45Zm39.21-26.35V1010l38.69-22.29,37.21,21.45v43.75l-37.58,21.67Zm41.21,26.35,37.6-21.65,38.3,22.07v42.49L1662.91,1144l-37.23-21.45Zm39.23-26.35V1010l38.67-22.29,37.22,21.45v43.75l-37.59,21.67Zm38.3-116.86-38.3-22.08V871.06l38.67-22.29,37.22,21.45V914Zm0-139-38.3-22.08V732.11l38.67-22.29,37.22,21.45V775Zm-1.63,4.7v42.48l-38.67,22.29-37.23-21.45V801l37.6-21.66ZM1660.37,775l-37.58,21.66-38.32-22.08V732.11l38.69-22.29,37.21,21.45Zm-39.21,26.36v42.48l-38.67,22.29-37.23-21.45V801l37.58-21.66ZM1580,775l-37.58,21.66-38.32-22.08V732.11l38.69-22.29L1580,731.27Zm-39.21,26.36v42.48l-38.67,22.29-37.23-21.45V801l37.58-21.66ZM1499.53,775,1462,796.68l-38.32-22.08V732.11l38.67-22.29,37.23,21.45Zm-39.21,26.36v42.48l-38.69,22.29-37.21-21.45V801L1422,779.3ZM1419.11,775l-37.58,21.66-38.32-22.08V732.11l38.67-22.29,37.23,21.45Zm-39.21,26.36v42.48l-38.69,22.29L1304,844.7V801l37.59-21.66ZM1338.69,775l-37.6,21.66-38.3-22.08V732.11l38.67-22.29,37.23,21.45Zm-39.21,26.36v42.48l-38.69,22.29-37.22-21.45V801l37.59-21.66ZM1258.27,775l-37.6,21.66-38.3-22.08V732.11L1221,709.82l37.23,21.45ZM1219,801.38v42.48l-38.67,22.29-37.22-21.45V801l37.59-21.66ZM1177.85,775l-37.6,21.66-38.31-22.08V732.11l38.68-22.29,37.23,21.45Zm-39.23,26.36v42.48L1100,866.15l-37.22-21.45V801l37.59-21.66ZM1097.41,775l-37.58,21.66-38.31-22.08V732.11l38.68-22.29,37.21,21.45Zm-39.21,26.36v42.48l-38.67,22.29L982.31,844.7V801l37.58-21.66ZM1017,775l-37.58,21.66L941.1,774.6V732.11l38.68-22.29L1017,731.27Zm-39.21,26.36v42.48L939.1,866.15,901.89,844.7V801l37.58-21.66ZM936.57,775,899,796.68l-38.3-22.08V732.11l38.68-22.29,37.21,21.45Zm-39.22,26.36v42.48l-38.67,22.29L821.46,844.7V801l37.59-21.66Zm-80.42,0v42.48l-38.67,22.29L741,844.7V801l37.59-21.66ZM775.73,775l-37.59,21.66-38.3-22.08V732.11l38.67-22.29,37.22,21.45Zm-39.22,26.36v42.48l-38.68,22.29L660.62,844.7V801l37.59-21.66Zm-78.79-4.7L619.41,774.6V732.11l38.68-22.29,37.22,21.45V775Zm-1.63,4.7v42.48l-38.68,22.29L580.2,844.7V801l37.59-21.66ZM614.88,775l-37.59,21.66L539,774.6V732.11l38.68-22.29,37.21,21.45Zm-39.21,26.36v42.48L537,866.15,499.78,844.7V801l37.59-21.66Zm-78.8-4.7-38.3-22.08V732.11l38.68-22.29,37.21,21.45V775Zm-1.62,4.7v42.48l-38.68,22.29L419.35,844.7V801l37.59-21.66ZM454,775l-37.59,21.66-38.3-22.08V732.11l38.68-22.29L454,731.27Zm-39.21,26.36v42.48l-38.68,22.29L338.93,844.7V801l37.59-21.66Zm-78.8-4.7-38.3-22.08V732.11l38.67-22.29,37.22,21.45V775Zm-1.62,4.7v42.48l-38.68,22.29L258.51,844.7V801L296.1,779.3ZM293.2,775l-37.59,21.66-38.3-22.08V732.11L256,709.82l37.22,21.45ZM256,848.77l37.22,21.45V914l-37.59,21.66-38.3-22.08V871.06Zm0,138.94,37.22,21.45v43.75l-37.59,21.67-38.3-22.09V1010Zm0,139,37.22,21.45v43.73l-37.59,21.67-38.3-22.07v-42.5Zm2.53,91.13,37.59-21.66,38.31,22.08v42.48L295.73,1283l-37.22-21.45Zm39.22-26.35V1149l38.67-22.3,37.22,21.45v43.73L336,1213.52Zm78.79,4.69,38.31,22.08v42.48L376.15,1283l-37.22-21.45v-43.75Zm1.63-4.69v-42.5l38.67-22.28L454,1148.11v43.73l-37.59,21.67Zm41.2,26.35,37.59-21.66,38.31,22.08v42.48L456.57,1283l-37.22-21.45Zm39.22-26.35V1149l38.68-22.3,37.21,21.45v43.73l-37.59,21.68Zm41.2,26.35,37.59-21.66,38.31,22.08v42.48L537,1283l-37.21-21.45v-43.75ZM539,1191.44v-42.5l38.68-22.28,37.21,21.45v43.73l-37.59,21.67Zm41.21,26.35,37.59-21.66,38.3,22.08v42.48L617.41,1283l-37.21-21.45Zm39.21-26.35V1149l38.68-22.3,37.22,21.45v43.73l-37.59,21.68Zm78.8,4.69,38.3,22.08v42.48L697.83,1283l-37.21-21.45v-43.75Zm1.63-4.69v-42.5l38.67-22.28,37.22,21.45v43.73l-37.59,21.67Zm41.2,26.35,37.59-21.66,38.3,22.08v42.48L778.26,1283,741,1261.54Zm39.22-26.35V1149l38.68-22.3,37.21,21.45v43.73l-37.59,21.68Zm78.79,4.69,38.3,22.08v42.48L858.68,1283l-37.22-21.45v-43.75Zm1.63-4.69v-42.5l38.68-22.28,37.21,21.45v43.73L899,1213.51Zm41.21,26.35,37.59-21.66,38.3,22.08v42.48L939.1,1283l-37.21-21.45Zm39.21-26.35V1149l38.68-22.3,37.21,21.45v43.73l-37.58,21.67Zm41.21,26.35,37.58-21.66,38.31,22.08v42.48l-38.67,22.3-37.22-21.45Zm39.21-26.35V1149l38.68-22.3,37.21,21.45v43.73l-37.58,21.67Zm41.21,26.35,37.59-21.66,38.3,22.08v42.48L1100,1283l-37.22-21.45Zm39.21-26.35V1149l38.68-22.3,37.23,21.45v43.73l-37.6,21.67Zm41.21,26.35,37.59-21.66,38.3,22.08v42.48l-38.67,22.3-37.22-21.45Zm39.22-26.35V1149l38.67-22.3,37.23,21.45v43.73l-37.6,21.67Zm41.2,26.35,37.59-21.66,38.32,22.08v42.48l-38.69,22.3-37.22-21.45Zm39.22-26.35V1149l38.67-22.3,37.23,21.45v43.73l-37.6,21.67Zm41.2,26.35,37.59-21.66,38.32,22.08v42.48l-38.69,22.3L1304,1261.54Zm39.22-26.35V1149l38.67-22.3,37.23,21.45v43.73l-37.6,21.67Zm41.21,26.35,37.58-21.66,38.32,22.08v42.48l-38.69,22.3-37.21-21.45Zm39.21-26.35V1149l38.67-22.3,37.23,21.45v43.73L1462,1213.51Zm41.21,26.35,37.58-21.66,38.32,22.08v42.48l-38.67,22.3-37.23-21.45Zm39.21-26.35V1149l38.69-22.3,37.21,21.45v43.73l-37.58,21.67Zm41.21,26.35,37.6-21.66,38.3,22.08v42.48l-38.67,22.3-37.23-21.45Zm39.21-26.35V1149l38.69-22.3,37.21,21.45v43.73l-37.58,21.67Zm41.21,26.35,37.6-21.66,38.3,22.08v42.48l-38.67,22.3-37.23-21.45Zm39.23-26.35V1149l38.67-22.3,37.22,21.45v43.73l-37.59,21.67Zm41.19,26.35,37.6-21.66,38.3,22.08v42.48l-38.67,22.3-37.23-21.45Zm37.23-73.75-37.23-21.45v-43.75l37.6-21.65,38.3,22.07v42.49Zm0-138.95-37.23-21.45V939.9l37.6-21.66,38.3,22.08v42.49Zm0-138.94L1706.1,844.7V801l37.6-21.66,38.3,22.08v42.48Zm0-138.95-37.23-21.45V662l37.6-21.66,38.3,22.08v42.48Zm-2.53-91.12-37.59,21.66-38.3-22.08v-42.5l38.67-22.29,37.22,21.46Zm-39.22,26.35v42.48l-38.67,22.29-37.23-21.45V662l37.6-21.66Zm-41.21-26.35-37.58,21.66-38.32-22.08v-42.5l38.69-22.29,37.21,21.46Zm-39.21,26.35v42.48l-38.67,22.29-37.23-21.45V662l37.58-21.66ZM1580,636.08l-37.58,21.66-38.32-22.08v-42.5l38.69-22.29L1580,592.33Zm-39.21,26.35v42.48l-38.67,22.29-37.23-21.45V662l37.58-21.66Zm-41.21-26.35L1462,657.74l-38.32-22.08v-42.5l38.67-22.29,37.23,21.46Zm-39.21,26.35v42.48l-38.69,22.29-37.21-21.45V662L1422,640.35Zm-41.21-26.35-37.58,21.66-38.32-22.08v-42.5l38.67-22.29,37.23,21.46Zm-39.21,26.35v42.48l-38.69,22.29L1304,705.75V662l37.59-21.66Zm-41.21-26.35-37.6,21.66-38.3-22.08v-42.5l38.67-22.29,37.23,21.46Zm-39.21,26.35v42.48l-38.69,22.29-37.22-21.45V662l37.59-21.66Zm-41.21-26.35-37.6,21.66-38.3-22.08v-42.5L1221,570.87l37.23,21.46ZM1219,662.43v42.48l-38.67,22.29-37.22-21.45V662l37.59-21.66Zm-41.19-26.35-37.6,21.66-38.31-22.08v-42.5l38.68-22.29,37.23,21.46Zm-39.23,26.35v42.48L1100,727.2l-37.22-21.45V662l37.59-21.66Zm-41.21-26.35-37.58,21.66-38.31-22.08v-42.5l38.68-22.29,37.21,21.46Zm-39.21,26.35v42.48l-38.67,22.29-37.22-21.45V662l37.58-21.66ZM1017,636.08l-37.58,21.66L941.1,635.66v-42.5l38.68-22.29L1017,592.33Zm-39.21,26.35v42.48L939.1,727.2l-37.21-21.45V662l37.58-21.66Zm-41.21-26.35L899,657.74l-38.3-22.08v-42.5l38.68-22.29,37.21,21.46Zm-39.22,26.35v42.48L858.68,727.2l-37.22-21.45V662l37.59-21.66Zm-80.42,0v42.48L778.26,727.2,741,705.75V662l37.59-21.66Zm-41.2-26.35-37.59,21.66-38.3-22.08v-42.5l38.67-22.29,37.22,21.46Zm-39.22,26.35v42.48L697.83,727.2l-37.21-21.45V662l37.59-21.66Zm-78.79-4.69-38.31-22.08v-42.5l38.68-22.29,37.22,21.46v43.75Zm-1.63,4.69v42.48L617.41,727.2,580.2,705.75V662l37.59-21.66Zm-41.21-26.35-37.59,21.66L539,635.66v-42.5l38.68-22.29,37.21,21.46Zm-39.21,26.35v42.48L537,727.2l-37.21-21.45V662l37.59-21.66Zm-78.8-4.69-38.3-22.08v-42.5l38.68-22.29,37.21,21.46v43.75Zm-1.62,4.69v42.48L456.57,727.2l-37.22-21.45V662l37.59-21.66ZM454,636.08l-37.59,21.66-38.3-22.08v-42.5l38.68-22.29L454,592.33Zm-39.21,26.35v42.48L376.15,727.2l-37.22-21.45V662l37.59-21.66ZM336,657.74l-38.3-22.08v-42.5l38.67-22.29,37.22,21.46v43.75Zm-1.62,4.69v42.48L295.73,727.2l-37.22-21.45V662l37.59-21.66ZM293.2,636.08l-37.59,21.66-38.3-22.08v-42.5L256,570.87l37.22,21.46ZM254,662.43v42.48L215.31,727.2l-37.22-21.45V662l37.59-21.66ZM215.68,779.3,254,801.38v42.48l-38.68,22.29L178.09,844.7V801Zm0,138.94L254,940.32v42.49l-38.68,22.28-37.22-21.45V939.9Zm0,138.94L254,1079.26v42.49L215.31,1144l-37.22-21.45v-43.75Zm0,139L254,1218.21v42.48L215.31,1283l-37.22-21.45v-43.75Zm0,138.95L254,1357.16v42.48l-38.68,22.28-37.22-21.43v-43.75Zm1.63-4.69v-42.5L256,1265.61l37.22,21.45v43.74l-37.59,21.66Zm41.2,26.35,37.59-21.66,38.31,22.08v42.48l-38.68,22.28-37.22-21.43Zm39.22-26.35v-42.5l38.67-22.28,37.22,21.45v43.74L336,1352.46Zm78.79,4.69,38.31,22.08v42.48l-38.68,22.28-37.22-21.43v-43.75Zm1.63-4.69v-42.5l38.67-22.28L454,1287.06v43.74l-37.59,21.66Zm41.2,26.35,37.59-21.66,38.31,22.08v42.48l-38.68,22.28-37.22-21.43Zm39.22-26.35v-42.5l38.68-22.28,37.21,21.45v43.74l-37.59,21.66Zm41.2,26.35,37.59-21.66,38.31,22.08v42.48L537,1421.92l-37.21-21.43v-43.75ZM539,1330.39v-42.5l38.68-22.28,37.21,21.45v43.74l-37.59,21.66Zm41.21,26.35,37.59-21.66,38.3,22.08v42.48l-38.68,22.28-37.21-21.43Zm39.21-26.35v-42.5l38.68-22.28,37.22,21.45v43.74l-37.59,21.66Zm78.8,4.69,38.3,22.08v42.48l-38.68,22.28-37.21-21.43v-43.75Zm1.63-4.69v-42.5l38.67-22.28,37.22,21.45v43.74l-37.59,21.66Zm41.2,26.35,37.59-21.66,38.3,22.08v42.48l-38.67,22.28L741,1400.49Zm39.22-26.35v-42.5l38.68-22.28,37.21,21.45v43.74l-37.59,21.66Zm78.79,4.69,38.3,22.08v42.48l-38.67,22.28-37.22-21.43v-43.75Zm1.63-4.69v-42.5l38.68-22.28,37.21,21.45v43.74L899,1352.46Zm41.21,26.35,37.59-21.66,38.3,22.08v42.48l-38.68,22.28-37.21-21.43Zm39.21-26.35v-42.5l38.68-22.28,37.21,21.45v43.74l-37.58,21.66Zm41.21,26.35,37.58-21.66,38.31,22.08v42.48l-38.67,22.28-37.22-21.43Zm39.21-26.35v-42.5l38.68-22.28,37.21,21.45v43.74l-37.58,21.66Zm41.21,26.35,37.59-21.66,38.3,22.08v42.48L1100,1421.92l-37.22-21.43Zm39.21-26.35v-42.5l38.68-22.28,37.23,21.45v43.74l-37.6,21.66Zm41.21,26.35,37.59-21.66,38.3,22.08v42.48l-38.67,22.28-37.22-21.43Zm39.22-26.35v-42.5l38.67-22.28,37.23,21.45v43.74l-37.6,21.66Zm41.2,26.35,37.59-21.66,38.32,22.08v42.48l-38.69,22.28-37.22-21.43Zm39.22-26.35v-42.5l38.67-22.28,37.23,21.45v43.74l-37.6,21.66Zm41.2,26.35,37.59-21.66,38.32,22.08v42.48l-38.69,22.28L1304,1400.49Zm39.22-26.35v-42.5l38.67-22.28,37.23,21.45v43.74l-37.6,21.66Zm41.21,26.35,37.58-21.66,38.32,22.08v42.48l-38.69,22.28-37.21-21.43Zm39.21-26.35v-42.5l38.67-22.28,37.23,21.45v43.74L1462,1352.46Zm41.21,26.35,37.58-21.66,38.32,22.08v42.48l-38.67,22.28-37.23-21.43Zm39.21-26.35v-42.5l38.69-22.28,37.21,21.45v43.74l-37.58,21.66Zm41.21,26.35,37.6-21.66,38.3,22.08v42.48l-38.67,22.28-37.23-21.43Zm39.21-26.35v-42.5l38.69-22.28,37.21,21.45v43.74l-37.58,21.66Zm41.21,26.35,37.6-21.66,38.3,22.08v42.48l-38.67,22.28-37.23-21.43Zm39.23-26.35v-42.5l38.67-22.28,37.22,21.45v43.74l-37.59,21.66Zm41.19,26.35,37.6-21.66,38.3,22.08v42.48l-38.67,22.28-37.23-21.43Zm39.23-26.35v-42.5l38.67-22.28,37.22,21.45v43.74l-37.59,21.66Zm38.3-116.88-38.3-22.07V1149l38.67-22.3,37.22,21.45v43.73Zm0-138.93-38.3-22.09V1010L1784,987.71l37.22,21.45v43.75Zm0-138.95-38.3-22.08V871.06L1784,848.77l37.22,21.45V914Zm0-139-38.3-22.08V732.11L1784,709.82l37.22,21.45V775Zm0-138.94-38.3-22.08v-42.5L1784,570.87l37.22,21.46v43.75Zm0-139-38.3-22.08V454.22L1784,431.93l37.22,21.46v43.74Zm-1.63,4.7V566l-38.67,22.29-37.23-21.46V523.07l37.6-21.66Zm-41.2-26.36-37.59,21.66-38.3-22.08V454.22l38.67-22.29,37.22,21.46Zm-39.22,26.36V566l-38.67,22.29-37.23-21.46V523.07l37.6-21.66Zm-41.21-26.36-37.58,21.66-38.32-22.08V454.22l38.69-22.29,37.21,21.46Zm-39.21,26.36V566l-38.67,22.29-37.23-21.46V523.07l37.58-21.66ZM1580,497.13l-37.58,21.66-38.32-22.08V454.22l38.69-22.29L1580,453.39Zm-39.21,26.36V566l-38.67,22.29-37.23-21.46V523.07l37.58-21.66Zm-41.21-26.36L1462,518.79l-38.32-22.08V454.22l38.67-22.29,37.23,21.46Zm-39.21,26.36V566l-38.69,22.29-37.21-21.46V523.07L1422,501.41Zm-41.21-26.36-37.58,21.66-38.32-22.08V454.22l38.67-22.29,37.23,21.46Zm-39.21,26.36V566l-38.69,22.29L1304,566.81V523.07l37.59-21.66Zm-41.21-26.36-37.6,21.66-38.3-22.08V454.22l38.67-22.29,37.23,21.46Zm-39.21,26.36V566l-38.69,22.29-37.22-21.46V523.07l37.59-21.66Zm-41.21-26.36-37.6,21.66-38.3-22.08V454.22L1221,431.93l37.23,21.46ZM1219,523.49V566l-38.67,22.29-37.22-21.46V523.07l37.59-21.66Zm-41.19-26.36-37.6,21.66-38.31-22.08V454.22l38.68-22.29,37.23,21.46Zm-39.23,26.36V566L1100,588.27l-37.22-21.46V523.07l37.59-21.66Zm-41.21-26.36-37.58,21.66-38.31-22.08V454.22l38.68-22.29,37.21,21.46Zm-39.21,26.36V566l-38.67,22.29-37.22-21.46V523.07l37.58-21.66ZM1017,497.13l-37.58,21.66L941.1,496.71V454.22l38.68-22.29L1017,453.39Zm-39.21,26.36V566L939.1,588.27l-37.21-21.46V523.07l37.58-21.66Zm-41.21-26.36L899,518.79l-38.3-22.08V454.22l38.68-22.29,37.21,21.46Zm-39.22,26.36V566l-38.67,22.29-37.22-21.46V523.07l37.59-21.67Zm-80.42,0V566l-38.67,22.29L741,566.81V523.07l37.59-21.66Zm-41.2-26.35-37.59,21.66-38.3-22.08V454.22l38.67-22.29,37.22,21.46Zm-39.22,26.36V566l-38.68,22.29-37.21-21.46V523.07l37.59-21.67Zm-78.79-4.7-38.31-22.08V454.22l38.68-22.29,37.22,21.46v43.74Zm-1.63,4.69V566l-38.68,22.29L580.2,566.81V523.07l37.59-21.66Zm-41.21-26.35-37.59,21.66L539,496.71V454.22l38.68-22.29,37.21,21.46Zm-39.21,26.36V566L537,588.27l-37.21-21.46V523.07l37.59-21.67Zm-78.8-4.7-38.3-22.08V454.22l38.68-22.29,37.21,21.46v43.74Zm-1.62,4.69V566l-38.68,22.29-37.22-21.46V523.07l37.59-21.66ZM454,497.13l-37.59,21.66-38.3-22.08V454.22l38.68-22.29L454,453.39Zm-39.21,26.36V566l-38.68,22.29-37.22-21.46V523.07l37.59-21.67Zm-78.8-4.7-38.3-22.08V454.22l38.67-22.29,37.22,21.46v43.74Zm-1.62,4.69V566l-38.68,22.29-37.22-21.46V523.07l37.59-21.66ZM293.2,497.13l-37.59,21.66-38.3-22.08V454.22L256,431.93l37.22,21.46ZM254,523.49V566l-38.68,22.29-37.22-21.46V523.07l37.59-21.67Zm-78.8-4.7-38.31-22.08V454.22l38.68-22.29,37.22,21.46v43.74Zm.37,52.08,37.22,21.46v43.75l-37.59,21.66-38.31-22.08v-42.5Zm0,139,37.22,21.45V775l-37.59,21.66L136.88,774.6V732.11Zm0,138.95,37.22,21.45V914l-37.59,21.66-38.31-22.08V871.06Zm0,138.94,37.22,21.45v43.75l-37.59,21.67-38.31-22.09V1010Zm0,139,37.22,21.45v43.73l-37.59,21.68-38.31-22.08V1149Zm0,138.95,37.22,21.45v43.74l-37.59,21.66-38.31-22.07v-42.5Zm0,138.93L212.78,1426v43.75l-37.59,21.67-38.31-22.07v-42.5ZM215.68,1474,254,1496.09v42.5l-38.68,22.28-37.22-21.45v-43.73Zm1.63-4.68v-42.5l38.68-22.3L293.2,1426v43.75l-37.59,21.67Zm41.2,26.35L296.1,1474l38.31,22.07v42.5l-38.68,22.28-37.22-21.45Zm39.22-26.35v-42.5l38.67-22.3L373.62,1426v43.75L336,1491.41Zm78.79,4.68,38.31,22.07v42.5l-38.68,22.28-37.22-21.45v-43.73Zm1.63-4.68v-42.5l38.67-22.3L454,1426v43.75l-37.59,21.67Zm41.2,26.35L456.94,1474l38.31,22.07v42.5l-38.68,22.28-37.22-21.45Zm39.22-26.35v-42.5l38.68-22.3L534.46,1426v43.75l-37.59,21.67Zm41.2,26.35L537.36,1474l38.31,22.07v42.5L537,1560.87l-37.21-21.45v-43.73ZM539,1469.34v-42.5l38.68-22.3L614.88,1426v43.75l-37.59,21.67Zm41.21,26.35L617.79,1474l38.3,22.07v42.5l-38.68,22.28-37.21-21.45Zm39.21-26.35v-42.5l38.68-22.3L695.31,1426v43.75l-37.59,21.67Zm78.8,4.68,38.3,22.07v42.5l-38.68,22.28-37.21-21.45v-43.73Zm1.63-4.68v-42.5l38.67-22.3L775.73,1426v43.75l-37.59,21.67Zm41.2,26.35L778.63,1474l38.3,22.07v42.5l-38.67,22.28L741,1539.42Zm39.22-26.35v-42.5l38.68-22.3L856.15,1426v43.75l-37.59,21.67Zm78.79,4.68,38.3,22.07v42.5l-38.67,22.28-37.22-21.45v-43.73Zm1.63-4.68v-42.5l38.68-22.3L936.57,1426v43.75L899,1491.41Zm41.21,26.35L939.48,1474l38.3,22.07v42.5l-38.68,22.28-37.21-21.45Zm39.21-26.35v-42.5l38.68-22.3L1017,1426v43.75l-37.58,21.67Zm41.21,26.35,37.58-21.67,38.31,22.07v42.5l-38.67,22.28-37.22-21.45Zm39.21-26.35v-42.5l38.68-22.3,37.21,21.45v43.75l-37.58,21.67Zm41.21,26.35,37.59-21.67,38.3,22.07v42.5L1100,1560.87l-37.22-21.45Zm39.21-26.35v-42.5l38.68-22.3,37.23,21.45v43.75l-37.6,21.67Zm41.21,26.35,37.59-21.67,38.3,22.07v42.5l-38.67,22.28-37.22-21.45Zm39.22-26.35v-42.5l38.67-22.3,37.23,21.45v43.75l-37.6,21.67Zm41.2,26.35,37.59-21.67,38.32,22.07v42.5l-38.69,22.28-37.22-21.45Zm39.22-26.35v-42.5l38.67-22.3,37.23,21.45v43.75l-37.6,21.67Zm41.2,26.35,37.59-21.67,38.32,22.07v42.5l-38.69,22.28L1304,1539.42Zm39.22-26.35v-42.5l38.67-22.3,37.23,21.45v43.75l-37.6,21.67Zm41.21,26.35L1422,1474l38.32,22.07v42.5l-38.69,22.28-37.21-21.45Zm39.21-26.35v-42.5l38.67-22.3,37.23,21.45v43.75L1462,1491.41Zm41.21,26.35,37.58-21.67,38.32,22.07v42.5l-38.67,22.28-37.23-21.45Zm39.21-26.35v-42.5l38.69-22.3L1580,1426v43.75l-37.58,21.67Zm41.21,26.35,37.6-21.67,38.3,22.07v42.5l-38.67,22.28-37.23-21.45Zm39.21-26.35v-42.5l38.69-22.3,37.21,21.45v43.75l-37.58,21.67Zm41.21,26.35,37.6-21.67,38.3,22.07v42.5l-38.67,22.28-37.23-21.45Zm39.23-26.35v-42.5l38.67-22.3L1740.8,1426v43.75l-37.59,21.67Zm41.19,26.35,37.6-21.67,38.3,22.07v42.5l-38.67,22.28-37.23-21.45Zm39.23-26.35v-42.5l38.67-22.3,37.22,21.45v43.75l-37.59,21.67Zm41.19,26.35,37.6-21.67,38.31,22.07v42.5l-38.68,22.28-37.23-21.45Zm37.23-73.77-37.23-21.43v-43.75l37.6-21.66,38.31,22.08v42.48Zm0-138.93-37.23-21.45v-43.75l37.6-21.66,38.31,22.08v42.48Zm0-139-37.23-21.45v-43.75l37.6-21.65,38.31,22.07v42.49Zm0-138.95-37.23-21.45V939.9l37.6-21.66,38.31,22.08v42.49Zm0-138.94-37.23-21.45V801l37.6-21.66,38.31,22.08v42.48Zm0-138.95-37.23-21.45V662l37.6-21.66,38.31,22.08v42.48Zm0-138.93-37.23-21.46V523.07l37.6-21.66,38.31,22.08V566Zm0-138.95-37.23-21.46V384.12l37.6-21.66,38.31,22.08V427Zm-2.53-91.14-37.59,21.66-38.3-22.08V315.27L1784,293l37.22,21.46ZM1782,384.54V427l-38.67,22.29-37.23-21.46V384.12l37.6-21.66Zm-41.2-26.36-37.59,21.66-38.3-22.08V315.27L1703.58,293l37.22,21.46Zm-39.22,26.36V427l-38.67,22.29-37.23-21.46V384.12l37.6-21.66Zm-41.21-26.36-37.58,21.66-38.32-22.08V315.27L1623.16,293l37.21,21.46Zm-39.21,26.36V427l-38.67,22.29-37.23-21.46V384.12l37.58-21.66ZM1580,358.18l-37.58,21.66-38.32-22.08V315.27L1542.74,293,1580,314.44Zm-39.21,26.36V427l-38.67,22.29-37.23-21.46V384.12l37.58-21.66Zm-41.21-26.36L1462,379.84l-38.32-22.08V315.27L1462.3,293l37.23,21.46Zm-39.21,26.36V427l-38.69,22.29-37.21-21.46V384.12L1422,362.46Zm-41.21-26.36-37.58,21.66-38.32-22.08V315.27L1381.88,293l37.23,21.46Zm-39.21,26.36V427l-38.69,22.29L1304,427.86V384.12l37.59-21.66Zm-41.21-26.36-37.6,21.66-38.3-22.08V315.27L1301.46,293l37.23,21.46Zm-39.21,26.36V427l-38.69,22.29-37.22-21.46V384.12l37.59-21.66Zm-41.21-26.36-37.6,21.66-38.3-22.08V315.27L1221,293l37.23,21.46ZM1219,384.54V427l-38.67,22.29-37.22-21.46V384.12l37.59-21.66Zm-41.19-26.36-37.6,21.66-38.31-22.08V315.27L1140.62,293l37.23,21.46Zm-39.23,26.36V427L1100,449.32l-37.22-21.46V384.12l37.59-21.66Zm-41.21-26.36-37.58,21.66-38.31-22.08V315.27L1060.2,293l37.21,21.46Zm-39.21,26.36V427l-38.67,22.29-37.22-21.46V384.12l37.58-21.66ZM1017,358.18l-37.58,21.66L941.1,357.76V315.27L979.78,293,1017,314.44Zm-39.21,26.36V427L939.1,449.32l-37.21-21.46V384.12l37.58-21.66Zm-41.21-26.36L899,379.84l-38.3-22.08V315.27L899.36,293l37.21,21.46Zm-39.22,26.36V427l-38.67,22.29-37.22-21.46V384.12l37.59-21.66Zm-80.42,0V427l-38.67,22.29L741,427.86V384.12l37.59-21.66Zm-41.2-26.36-37.59,21.66-38.3-22.08V315.27L738.51,293l37.22,21.46Zm-39.22,26.36V427l-38.68,22.29-37.21-21.46V384.12l37.59-21.66Zm-78.79-4.7-38.31-22.08V315.27L658.09,293l37.22,21.46v43.74Zm-1.63,4.7V427l-38.68,22.29L580.2,427.86V384.12l37.59-21.66Zm-41.21-26.36-37.59,21.66L539,357.76V315.27L577.67,293l37.21,21.46Zm-39.21,26.36V427L537,449.32l-37.21-21.46V384.12l37.59-21.66Zm-78.8-4.7-38.3-22.08V315.27L497.25,293l37.21,21.46v43.74Zm-1.62,4.7V427l-38.68,22.29-37.22-21.46V384.12l37.59-21.66ZM454,358.18l-37.59,21.66-38.3-22.08V315.27L416.83,293,454,314.44Zm-39.21,26.36V427l-38.68,22.29-37.22-21.46V384.12l37.59-21.66Zm-78.8-4.7-38.3-22.08V315.27L336.4,293l37.22,21.46v43.74Zm-1.62,4.7V427l-38.68,22.29-37.22-21.46V384.12l37.59-21.66ZM293.2,358.18l-37.59,21.66-38.3-22.08V315.27L256,293l37.22,21.46ZM254,384.54V427l-38.68,22.29-37.22-21.46V384.12l37.59-21.66Zm-78.8-4.7-38.31-22.08V315.27L175.56,293l37.22,21.46v43.74Zm-1.62,4.7V427l-38.68,22.29L97.66,427.86V384.12l37.59-21.66ZM135.25,501.41l38.32,22.07V566l-38.68,22.29L97.66,566.81V523.07Zm0,138.94,38.32,22.08v42.48L134.89,727.2,97.66,705.75V662Zm0,138.95,38.32,22.08v42.48l-38.68,22.29L97.66,844.7V801Zm0,138.94,38.32,22.08v42.49l-38.68,22.28L97.66,983.64V939.9Zm0,139,38.31,22.07v42.49L134.89,1144l-37.23-21.45v-43.75Zm0,138.94,38.31,22.08v42.48L134.89,1283l-37.23-21.45v-43.75Zm0,138.95,38.31,22.08v42.48l-38.68,22.28-37.23-21.43v-43.75Zm0,138.94,38.31,22.07v42.5l-38.68,22.28-37.23-21.45v-43.73Zm0,139L173.57,1635v42.5l-38.68,22.28-37.23-21.45v-43.73Zm1.62-4.7v-42.48l38.68-22.3,37.22,21.45v43.75l-37.59,21.66Zm78.8,4.7L254,1635v42.5l-38.68,22.28-37.22-21.45v-43.73Zm1.63-4.7v-42.48l38.68-22.3,37.22,21.45v43.75l-37.59,21.66Zm41.2,26.37L296.1,1613,334.41,1635v42.5l-38.68,22.28-37.22-21.45Zm39.22-26.37v-42.48l38.67-22.3,37.22,21.45v43.75L336,1630.35Zm78.79,4.7L414.83,1635v42.5l-38.68,22.28-37.22-21.45v-43.73Zm1.63-4.7v-42.48l38.67-22.3L454,1564.94v43.75l-37.59,21.66Zm41.2,26.37L456.94,1613,495.25,1635v42.5l-38.68,22.28-37.22-21.45Zm39.22-26.37v-42.48l38.68-22.3,37.21,21.45v43.75l-37.59,21.66Zm41.2,26.37L537.36,1613,575.67,1635v42.5L537,1699.82l-37.21-21.45v-43.73ZM539,1608.27v-42.48l38.68-22.3,37.21,21.45v43.75l-37.59,21.66Zm41.21,26.37L617.79,1613l38.3,22.07v42.5l-38.68,22.28-37.21-21.45Zm39.21-26.37v-42.48l38.68-22.3,37.22,21.45v43.75l-37.59,21.66Zm78.8,4.7,38.3,22.07v42.5l-38.68,22.28-37.21-21.45v-43.73Zm1.63-4.7v-42.48l38.67-22.3,37.22,21.45v43.75l-37.59,21.66Zm41.2,26.37L778.63,1613l38.3,22.07v42.5l-38.67,22.28L741,1678.37Zm39.22-26.37v-42.48l38.68-22.3,37.21,21.45v43.75l-37.59,21.66Zm78.79,4.7,38.3,22.07v42.5l-38.67,22.28-37.22-21.45v-43.73Zm1.63-4.7v-42.48l38.68-22.3,37.21,21.45v43.75L899,1630.35Zm41.21,26.37L939.48,1613l38.3,22.07v42.5l-38.68,22.28-37.21-21.45Zm39.21-26.37v-42.48l38.68-22.3,37.21,21.45v43.75l-37.58,21.66Zm41.21,26.37,37.58-21.67L1058.2,1635v42.5l-38.67,22.28-37.22-21.45Zm39.21-26.37v-42.48l38.68-22.3,37.21,21.45v43.75l-37.58,21.66Zm41.21,26.37,37.59-21.67,38.3,22.07v42.5L1100,1699.82l-37.22-21.45Zm39.21-26.37v-42.48l38.68-22.3,37.23,21.45v43.75l-37.6,21.66Zm41.21,26.37,37.59-21.67L1219,1635v42.5l-38.67,22.28-37.22-21.45Zm39.22-26.37v-42.48l38.67-22.3,37.23,21.45v43.75l-37.6,21.66Zm41.2,26.37,37.59-21.67,38.32,22.07v42.5l-38.69,22.28-37.22-21.45Zm39.22-26.37v-42.48l38.67-22.3,37.23,21.45v43.75l-37.6,21.66Zm41.2,26.37,37.59-21.67L1379.9,1635v42.5l-38.69,22.28L1304,1678.37Zm39.22-26.37v-42.48l38.67-22.3,37.23,21.45v43.75l-37.6,21.66Zm41.21,26.37L1422,1613l38.32,22.07v42.5l-38.69,22.28-37.21-21.45Zm39.21-26.37v-42.48l38.67-22.3,37.23,21.45v43.75L1462,1630.35Zm41.21,26.37,37.58-21.67,38.32,22.07v42.5l-38.67,22.28-37.23-21.45Zm39.21-26.37v-42.48l38.69-22.3,37.21,21.45v43.75l-37.58,21.66Zm41.21,26.37,37.6-21.67,38.3,22.07v42.5l-38.67,22.28-37.23-21.45Zm39.21-26.37v-42.48l38.69-22.3,37.21,21.45v43.75l-37.58,21.66Zm41.21,26.37,37.6-21.67,38.3,22.07v42.5l-38.67,22.28-37.23-21.45Zm39.23-26.37v-42.48l38.67-22.3,37.22,21.45v43.75l-37.59,21.66Zm41.19,26.37,37.6-21.67L1782,1635v42.5l-38.67,22.28-37.23-21.45Zm39.23-26.37v-42.48l38.67-22.3,37.22,21.45v43.75l-37.59,21.66Zm41.19,26.37,37.6-21.67,38.31,22.07v42.5l-38.68,22.28-37.23-21.45Zm39.23-26.37v-42.48l38.67-22.3,37.22,21.45v43.75l-37.59,21.66Zm38.3-116.86-38.3-22.07v-42.5l38.67-22.3,37.22,21.45v43.75Zm0-139-38.3-22.07v-42.5l38.67-22.28,37.22,21.45v43.74Zm0-139-38.3-22.07V1149l38.67-22.3,37.22,21.45v43.73Zm0-138.93-38.3-22.09V1010l38.67-22.29,37.22,21.45v43.75Zm0-138.95-38.3-22.08V871.06l38.67-22.29,37.22,21.45V914Zm0-139-38.3-22.08V732.11l38.67-22.29,37.22,21.45V775Zm0-138.94-38.3-22.08v-42.5l38.67-22.29,37.22,21.46v43.75Zm0-139-38.3-22.08V454.22l38.67-22.29,37.22,21.46v43.74Zm0-138.95-38.3-22.08V315.27L1864.42,293l37.22,21.46v43.74Zm0-138.94-38.3-22.08V176.34l38.67-22.29,37.22,21.45v43.74Zm-1.62,4.69v42.49l-38.68,22.3-37.23-21.46V245.17l37.6-21.66Zm-41.21-26.35-37.59,21.66-38.3-22.08V176.34L1784,154.05l37.22,21.45ZM1782,245.59v42.49l-38.67,22.3-37.23-21.46V245.17l37.6-21.66Zm-41.2-26.35-37.59,21.66-38.3-22.08V176.34l38.67-22.29,37.22,21.45Zm-39.22,26.35v42.49l-38.67,22.3-37.23-21.46V245.17l37.6-21.66Zm-41.21-26.35-37.58,21.66-38.32-22.08V176.34l38.69-22.29,37.21,21.45Zm-39.21,26.35v42.49l-38.67,22.3-37.23-21.46V245.17l37.58-21.66ZM1580,219.24l-37.58,21.66-38.32-22.08V176.34l38.69-22.29L1580,175.5Zm-39.21,26.35v42.49l-38.67,22.3-37.23-21.46V245.17l37.58-21.66Zm-41.21-26.35L1462,240.9l-38.32-22.08V176.34l38.67-22.29,37.23,21.45Zm-39.21,26.35v42.49l-38.69,22.3-37.21-21.46V245.17L1422,223.51Zm-41.21-26.35-37.58,21.66-38.32-22.08V176.34l38.67-22.29,37.23,21.45Zm-39.21,26.35v42.49l-38.69,22.3L1304,288.92V245.17l37.59-21.66Zm-41.21-26.35-37.6,21.66-38.3-22.08V176.34l38.67-22.29,37.23,21.45Zm-39.21,26.35v42.49l-38.69,22.3-37.22-21.46V245.17l37.59-21.66Zm-41.21-26.35-37.6,21.66-38.3-22.08V176.34L1221,154.05l37.23,21.45ZM1219,245.59v42.49l-38.67,22.3-37.22-21.46V245.17l37.59-21.66Zm-41.19-26.35-37.6,21.66-38.31-22.08V176.34l38.68-22.29,37.23,21.45Zm-39.23,26.35v42.49L1100,310.38l-37.22-21.46V245.17l37.59-21.66Zm-41.21-26.35-37.58,21.66-38.31-22.08V176.34l38.68-22.29,37.21,21.45Zm-39.21,26.35v42.49l-38.67,22.3-37.22-21.46V245.17l37.58-21.66ZM1017,219.24,979.41,240.9,941.1,218.82V176.34l38.68-22.29L1017,175.5Zm-39.21,26.35v42.49l-38.68,22.3-37.21-21.46V245.17l37.58-21.66Zm-41.21-26.35L899,240.9l-38.3-22.08V176.34l38.68-22.29,37.21,21.45Zm-39.22,26.35v42.49l-38.67,22.3-37.22-21.46V245.17l37.59-21.66Zm-80.42,0v42.49l-38.67,22.3L741,288.92V245.17l37.59-21.66Zm-41.2-26.35L738.14,240.9l-38.3-22.08V176.34l38.67-22.29,37.22,21.45Zm-39.22,26.35v42.49l-38.68,22.3-37.21-21.46V245.17l37.59-21.66Zm-78.79-4.69-38.31-22.08V176.34l38.68-22.29,37.22,21.45v43.74Zm-1.63,4.69v42.49l-38.68,22.3L580.2,288.92V245.17l37.59-21.66Zm-41.21-26.35L577.29,240.9,539,218.82V176.34l38.68-22.29,37.21,21.45Zm-39.21,26.35v42.49L537,310.38l-37.21-21.46V245.17l37.59-21.66Zm-78.8-4.69-38.3-22.08V176.34l38.68-22.29,37.21,21.45v43.74Zm-1.62,4.69v42.49l-38.68,22.3-37.22-21.46V245.17l37.59-21.66ZM454,219.24,416.45,240.9l-38.3-22.08V176.34l38.68-22.29L454,175.5Zm-39.21,26.35v42.49l-38.68,22.3-37.22-21.46V245.17l37.59-21.66ZM336,240.9l-38.3-22.08V176.34l38.67-22.29,37.22,21.45v43.74Zm-1.62,4.69v42.49l-38.68,22.3-37.22-21.46V245.17l37.59-21.66ZM293.2,219.24,255.61,240.9l-38.3-22.08V176.34L256,154.05,293.2,175.5ZM254,245.59v42.49l-38.68,22.3-37.22-21.46V245.17l37.59-21.66Zm-78.8-4.69-38.31-22.08V176.34l38.68-22.29,37.22,21.45v43.74Zm-1.62,4.69v42.49l-38.68,22.3L97.66,288.92V245.17l37.59-21.66Zm-41.21-26.35L94.77,240.9,56.46,218.82V176.34l38.68-22.29,37.22,21.45ZM95.14,293l37.22,21.46v43.74L94.77,379.84,56.46,357.76V315.27Zm0,139,37.22,21.46v43.74L94.77,518.79,56.46,496.71V454.22Zm0,138.94,37.22,21.46v43.75L94.77,657.74,56.46,635.66v-42.5Zm0,139,37.22,21.45V775L94.77,796.68,56.46,774.6V732.11Zm0,138.95,37.22,21.45V914L94.77,935.63,56.46,913.55V871.06Zm0,138.94,37.22,21.45v43.75l-37.59,21.67-38.31-22.09V1010Zm0,139,37.22,21.45v43.73l-37.59,21.67-38.31-22.07v-42.5Zm0,138.95,37.22,21.45v43.74l-37.59,21.66-38.31-22.07v-42.5Zm0,138.93L132.36,1426v43.75l-37.59,21.67-38.31-22.07v-42.5Zm0,139,37.22,21.45v43.75l-37.59,21.66-38.31-22.08v-42.48Zm0,139,37.22,21.45v43.75L94.77,1769.3l-38.31-22.08v-42.48Zm2.52,91.13,37.6-21.66L173.57,1774v42.48l-38.68,22.3-37.23-21.45Zm39.22-26.35v-42.48l38.68-22.3,37.22,21.45v43.75l-37.59,21.66Zm78.8,4.69L254,1774v42.48l-38.68,22.3-37.22-21.45v-43.75Zm1.63-4.69v-42.48l38.68-22.3,37.22,21.45v43.75l-37.59,21.66Zm41.2,26.35,37.59-21.66L334.41,1774v42.48l-38.68,22.3-37.22-21.45Zm39.22-26.35v-42.48l38.67-22.3,37.22,21.45v43.75L336,1769.3Zm78.79,4.69L414.83,1774v42.48l-38.68,22.3-37.22-21.45v-43.75Zm1.63-4.69v-42.48l38.67-22.3L454,1703.89v43.75l-37.59,21.66Zm41.2,26.35,37.59-21.66L495.25,1774v42.48l-38.68,22.3-37.22-21.45Zm39.22-26.35v-42.48l38.68-22.3,37.21,21.45v43.75l-37.59,21.66Zm41.2,26.35,37.59-21.66L575.67,1774v42.48L537,1838.77l-37.21-21.45v-43.75ZM539,1747.22v-42.48l38.68-22.3,37.21,21.45v43.75l-37.59,21.66Zm41.21,26.35,37.59-21.66,38.3,22.08v42.48l-38.68,22.3-37.21-21.45Zm39.21-26.35v-42.48l38.68-22.3,37.22,21.45v43.75l-37.59,21.66Zm78.8,4.69,38.3,22.08v42.48l-38.68,22.3-37.21-21.45v-43.75Zm1.63-4.69v-42.48l38.67-22.3,37.22,21.45v43.75l-37.59,21.66Zm41.2,26.35,37.59-21.66,38.3,22.08v42.48l-38.67,22.3L741,1817.32Zm39.22-26.35v-42.48l38.68-22.3,37.21,21.45v43.75l-37.59,21.66Zm78.79,4.69,38.3,22.08v42.48l-38.67,22.3-37.22-21.45v-43.75Zm1.63-4.69v-42.48l38.68-22.3,37.21,21.45v43.75L899,1769.3Zm41.21,26.35,37.59-21.66,38.3,22.08v42.48l-38.68,22.3-37.21-21.45Zm39.21-26.35v-42.48l38.68-22.3,37.21,21.45v43.75l-37.58,21.66Zm41.21,26.35,37.58-21.66L1058.2,1774v42.48l-38.67,22.3-37.22-21.45Zm39.21-26.35v-42.48l38.68-22.3,37.21,21.45v43.75l-37.58,21.66Zm41.21,26.35,37.59-21.66,38.3,22.08v42.48l-38.67,22.3-37.22-21.45Zm39.21-26.35v-42.48l38.68-22.3,37.23,21.45v43.75l-37.6,21.66Zm41.21,26.35,37.59-21.66L1219,1774v42.48l-38.67,22.3-37.22-21.45Zm39.22-26.35v-42.48l38.67-22.3,37.23,21.45v43.75l-37.6,21.66Zm41.2,26.35,37.59-21.66,38.32,22.08v42.48l-38.69,22.3-37.22-21.45Zm39.22-26.35v-42.48l38.67-22.3,37.23,21.45v43.75l-37.6,21.66Zm41.2,26.35,37.59-21.66L1379.9,1774v42.48l-38.69,22.3L1304,1817.32Zm39.22-26.35v-42.48l38.67-22.3,37.23,21.45v43.75l-37.6,21.66Zm41.21,26.35,37.58-21.66,38.32,22.08v42.48l-38.69,22.3-37.21-21.45Zm39.21-26.35v-42.48l38.67-22.3,37.23,21.45v43.75L1462,1769.3Zm41.21,26.35,37.58-21.66,38.32,22.08v42.48l-38.67,22.3-37.23-21.45Zm39.21-26.35v-42.48l38.69-22.3,37.21,21.45v43.75l-37.58,21.66Zm41.21,26.35,37.6-21.66,38.3,22.08v42.48l-38.67,22.3-37.23-21.45Zm39.21-26.35v-42.48l38.69-22.3,37.21,21.45v43.75l-37.58,21.66Zm41.21,26.35,37.6-21.66,38.3,22.08v42.48l-38.67,22.3-37.23-21.45Zm39.23-26.35v-42.48l38.67-22.3,37.22,21.45v43.75l-37.59,21.66Zm41.19,26.35,37.6-21.66L1782,1774v42.48l-38.67,22.3-37.23-21.45Zm39.23-26.35v-42.48l38.67-22.3,37.22,21.45v43.75l-37.59,21.66Zm41.19,26.35,37.6-21.66,38.31,22.08v42.48l-38.68,22.3-37.23-21.45Zm39.23-26.35v-42.48l38.67-22.3,37.22,21.45v43.75l-37.59,21.66Zm41.21,26.35,37.58-21.66,38.31,22.08v42.48l-38.68,22.3L1867,1817.32Zm37.21-73.75L1867,1678.37v-43.73l37.58-21.67,38.31,22.07v42.5Zm0-139L1867,1539.42v-43.73l37.58-21.67,38.31,22.07v42.5Zm0-138.95L1867,1400.49v-43.75l37.58-21.66,38.31,22.08v42.48Zm0-138.93L1867,1261.54v-43.75l37.58-21.66,38.31,22.08v42.48Zm0-139L1867,1122.59v-43.75l37.58-21.65,38.31,22.07v42.49Zm0-138.95L1867,983.64V939.9l37.58-21.66,38.31,22.08v42.49Zm0-138.94L1867,844.7V801l37.58-21.66,38.31,22.08v42.48Zm0-138.95L1867,705.75V662l37.58-21.66,38.31,22.08v42.48Zm0-138.93L1867,566.81V523.07l37.58-21.66,38.31,22.08V566Zm0-138.95L1867,427.86V384.12l37.58-21.66,38.31,22.08V427Zm0-138.94L1867,288.92V245.17l37.58-21.66,38.31,22.08v42.49Zm-78.42-273,38.67-22.29,37.22,21.45V80.29L1864.05,102l-38.3-22.07Zm-1.63,47.18,38.31,22.08v42.49l-38.68,22.29L1786.52,150V106.23Zm-78.79-47.18L1784,15.1l37.22,21.45V80.29L1783.63,102l-38.3-22.07Zm-1.63,47.18,38.3,22.08v42.49l-38.67,22.29L1706.1,150V106.23Zm-78.79-47.18,38.67-22.29,37.22,21.45V80.29L1703.21,102l-38.3-22.07Zm-1.63,47.18,38.3,22.08v42.49l-38.67,22.29L1625.68,150V106.23Zm-78.81-47.18,38.69-22.29,37.21,21.45V80.29L1622.79,102l-38.32-22.07Zm-1.63,47.18,38.32,22.08v42.49l-38.67,22.29L1545.26,150V106.23Zm-78.79-47.18,38.69-22.29L1580,36.55V80.29L1542.37,102l-38.32-22.07Zm-1.63,47.18,38.32,22.08v42.49l-38.67,22.29L1464.84,150V106.23Zm-78.79-47.18L1462.3,15.1l37.23,21.45V80.29L1462,102l-38.32-22.07ZM1422,84.57l38.32,22.08v42.49l-38.69,22.29L1384.42,150V106.23Zm-78.79-47.18,38.67-22.29,37.23,21.45V80.29L1381.53,102l-38.32-22.07Zm-1.63,47.18,38.32,22.08v42.49l-38.69,22.29L1304,150V106.23Zm-78.79-47.18,38.67-22.29,37.23,21.45V80.29L1301.09,102l-38.3-22.07Zm-1.63,47.18,38.32,22.08v42.49l-38.69,22.29L1223.57,150V106.23Zm-78.79-47.18L1221,15.1l37.23,21.45V80.29L1220.67,102l-38.3-22.07Zm-1.63,47.18,38.3,22.08v42.49l-38.67,22.29L1143.15,150V106.23Zm-78.8-47.18,38.68-22.29,37.23,21.45V80.29L1140.25,102l-38.31-22.07Zm-1.62,47.18,38.3,22.08v42.49L1100,171.43,1062.73,150V106.23Zm-78.8-47.18L1060.2,15.1l37.21,21.45V80.29L1059.83,102l-38.31-22.07Zm-1.63,47.18,38.31,22.08v42.49l-38.67,22.29L982.31,150V106.23ZM941.1,37.39,979.78,15.1,1017,36.55V80.29L979.41,102,941.1,79.88Zm-1.63,47.18,38.31,22.08v42.49L939.1,171.43,901.89,150V106.23ZM899.36,15.1l37.21,21.45V80.29L899,102l-38.3-22.07V37.39ZM859.05,84.57l38.3,22.08v42.49l-38.67,22.29L821.46,150V106.23ZM780.26,37.39,818.94,15.1l37.21,21.45V80.29L818.56,102l-38.3-22.07Zm-1.63,47.18,38.3,22.08v42.49l-38.67,22.29L741,150V106.23ZM738.51,15.1l37.22,21.45V80.29L738.14,102l-38.3-22.07V37.39Zm-40.3,69.47,38.3,22.08v42.49l-38.68,22.29L660.62,150V106.23Zm-78.8-47.18L658.09,15.1l37.22,21.45V80.29L657.72,102,619.41,79.88Zm-1.62,47.18,38.3,22.08v42.49l-38.68,22.29L580.2,150V106.23ZM577.67,15.1l37.21,21.45V80.29L577.29,102,539,79.88V37.39ZM537.36,84.57l38.31,22.08v42.49L537,171.43,499.78,150V106.23ZM458.57,37.39,497.25,15.1l37.21,21.45V80.29L496.87,102l-38.3-22.07Zm-1.63,47.18,38.31,22.08v42.49l-38.68,22.29L419.35,150V106.23ZM378.15,37.39,416.83,15.1,454,36.55V80.29L416.45,102l-38.3-22.07V37.39Zm-1.63,47.18,38.31,22.08v42.49l-38.68,22.29L338.93,150V106.23ZM297.73,37.39,336.4,15.1l37.22,21.45V80.29L336,102l-38.3-22.07ZM296.1,84.57l38.31,22.08v42.49l-38.68,22.29L258.51,150V106.23ZM256,15.1,293.2,36.55V80.29L255.61,102l-38.3-22.07V37.39Zm-40.3,69.47L254,106.65v42.49l-38.68,22.29L178.09,150V106.23Zm-78.8-47.18L175.56,15.1l37.22,21.45V80.29L175.19,102,136.88,79.88Zm-1.63,47.18,38.32,22.08v42.49l-38.68,22.29L97.66,150V106.23ZM95.14,15.1l37.22,21.45V80.29L94.77,102,56.46,79.88V37.39ZM17.24,150V106.23L54.83,84.57l38.31,22.08v42.49L54.47,171.43Zm0,138.94V245.17l37.59-21.66,38.31,22.08v42.49l-38.67,22.3Zm0,138.94V384.12l37.59-21.66,38.31,22.08V427L54.47,449.32Zm0,138.95V523.07L54.83,501.4l38.31,22.09V566L54.47,588.27Zm0,138.94V662l37.59-21.66,38.31,22.08v42.48L54.47,727.2Zm0,139V801L54.83,779.3l38.31,22.08v42.48L54.47,866.15Zm0,138.94V939.9l37.59-21.66,38.31,22.08v42.49l-38.67,22.28Zm0,138.95v-43.75l37.59-21.66,38.31,22.08v42.49L54.47,1144Zm0,139v-43.75l37.59-21.66,38.31,22.08v42.48L54.47,1283Zm0,139v-43.75l37.59-21.66,38.31,22.08v42.48l-38.67,22.28Zm0,138.93v-43.73L54.83,1474l38.31,22.07v42.5l-38.67,22.28Zm0,138.95v-43.73L54.83,1613,93.14,1635v42.5l-38.67,22.28Zm0,139v-43.75l37.59-21.66L93.14,1774v42.48l-38.67,22.3Zm75.9,138.1-38.67,22.3-37.23-21.45v-43.75l37.59-21.67,38.31,22.09Zm1.63-47.18-38.31-22.07v-42.5l38.68-22.28,37.22,21.45v43.73Zm78.8,47.18-38.68,22.3-37.23-21.45v-43.75l37.6-21.67,38.31,22.09v42.48Zm1.62-47.18-38.31-22.07v-42.5l38.68-22.28,37.22,21.45v43.73Zm78.8,47.18-38.68,22.3-37.22-21.45v-43.75l37.59-21.67L254,1912.94Zm1.62-47.18-38.3-22.07v-42.5L256,1821.39l37.22,21.45v43.73Zm40.12,69.48-37.22-21.45v-43.75l37.59-21.67,38.31,22.09v42.48Zm40.3-69.48-38.3-22.07v-42.5l38.67-22.28,37.22,21.45v43.73Zm78.8,47.18-38.68,22.3-37.22-21.45v-43.75l37.59-21.67,38.31,22.09Zm1.62-47.18-38.3-22.07v-42.5l38.67-22.28L454,1842.84v43.73Zm40.12,69.48-37.22-21.45v-43.75l37.59-21.67,38.31,22.09v42.48Zm40.3-69.48-38.3-22.07v-42.5l38.68-22.28,37.21,21.45v43.73Zm78.8,47.18L537,1977.72l-37.21-21.45v-43.75l37.59-21.67,38.31,22.09Zm1.62-47.18L539,1886.17v-42.5l38.68-22.28,37.21,21.45v43.73Zm40.12,69.48-37.21-21.45v-43.75l37.59-21.67,38.3,22.09v42.48Zm40.31-69.48-38.31-22.07v-42.5l38.68-22.28,37.22,21.45v43.73Zm78.79,47.18-38.68,22.3-37.21-21.45v-43.75l37.59-21.67,38.3,22.09Zm1.63-47.18-38.3-22.07v-42.5l38.67-22.28,37.22,21.45v43.73Zm40.12,69.48L741,1956.27v-43.75l37.59-21.67,38.3,22.09v42.48Zm40.3-69.48-38.3-22.07v-42.5l38.68-22.28,37.21,21.45v43.73Zm78.79,47.18-38.67,22.3-37.22-21.45v-43.75l37.59-21.67,38.3,22.09Zm1.63-47.18-38.3-22.07v-42.5l38.68-22.28,37.21,21.45v43.73Zm78.8,47.18-38.68,22.3-37.21-21.45v-43.75l37.59-21.67,38.3,22.09Zm1.63-47.18-38.31-22.07v-42.5l38.68-22.28,37.21,21.45v43.73Zm78.79,47.18-38.67,22.3-37.22-21.45v-43.75l37.58-21.67,38.31,22.09Zm1.63-47.18-38.31-22.07v-42.5l38.68-22.28,37.21,21.45v43.73Zm78.79,47.18-38.67,22.3-37.22-21.45v-43.75l37.59-21.67,38.3,22.09Zm1.63-47.18-38.31-22.07v-42.5l38.68-22.28,37.23,21.45v43.73Zm78.79,47.18-38.67,22.3-37.22-21.45v-43.75l37.59-21.67,38.3,22.09Zm1.63-47.18-38.3-22.07v-42.5l38.67-22.28,37.23,21.45v43.73Zm78.81,47.18-38.69,22.3-37.22-21.45v-43.75l37.59-21.67,38.32,22.09Zm1.61-47.18-38.3-22.07v-42.5l38.67-22.28,37.23,21.45v43.73Zm78.81,47.18-38.69,22.3L1304,1956.27v-43.75l37.59-21.67,38.32,22.09Zm1.61-47.18-38.3-22.07v-42.5l38.67-22.28,37.23,21.45v43.73Zm78.81,47.18-38.69,22.3-37.21-21.45v-43.75l37.58-21.67,38.32,22.09Zm1.63-47.18-38.32-22.07v-42.5l38.67-22.28,37.23,21.45v43.73Zm78.79,47.18-38.67,22.3-37.23-21.45v-43.75l37.58-21.67,38.32,22.09Zm1.63-47.18-38.32-22.07v-42.5l38.69-22.28,37.21,21.45v43.73Zm78.79,47.18-38.67,22.3-37.23-21.45v-43.75l37.6-21.67,38.3,22.09Zm1.63-47.18-38.32-22.07v-42.5l38.69-22.28,37.21,21.45v43.73Zm78.79,47.18-38.67,22.3-37.23-21.45v-43.75l37.6-21.67,38.3,22.09Zm1.63-47.18-38.3-22.07v-42.5l38.67-22.28,37.22,21.45v43.73Zm78.79,47.18-38.67,22.3-37.23-21.45v-43.75l37.6-21.67,38.3,22.09Zm1.63-47.18-38.3-22.07v-42.5l38.67-22.28,37.22,21.45v43.73Zm78.8,47.18-38.68,22.3-37.23-21.45v-43.75l37.6-21.67,38.31,22.09Zm1.62-47.18-38.3-22.07v-42.5l38.67-22.28,37.22,21.45v43.73Zm78.8,47.18-38.68,22.3L1867,1956.27v-43.75l37.58-21.67,38.31,22.09Zm39.21-112.58v43.73l-37.59,21.67-38.3-22.07v-42.5l38.67-22.28Zm0-138.95v43.75l-37.59,21.66-38.3-22.08v-42.48l38.67-22.3Zm0-139v43.75l-37.59,21.66-38.3-22.08v-42.48l38.67-22.3Zm0-139v43.75l-37.59,21.67-38.3-22.07v-42.5l38.67-22.3Zm0-138.93v43.74l-37.59,21.66-38.3-22.07v-42.5l38.67-22.28Zm0-139v43.73l-37.59,21.67-38.3-22.07V1149l38.67-22.3Zm0-138.95v43.75l-37.59,21.67-38.3-22.09V1010l38.67-22.29Zm0-138.94V914l-37.58,21.66-38.31-22.08V871.06l38.67-22.29Zm0-139V775l-37.58,21.66-38.31-22.08V732.11l38.67-22.29Zm0-138.94v43.75l-37.58,21.66-38.31-22.08v-42.5l38.67-22.29Zm0-138.94v43.74l-37.58,21.66-38.31-22.08V454.22l38.67-22.29Zm0-138.95v43.74l-37.58,21.66-38.31-22.08V315.27L1944.84,293Zm0-138.94v43.74l-37.58,21.66-38.31-22.08V176.34l38.67-22.29Zm0-95.21L1944.48,102l-38.31-22.07V37.39l38.67-22.29,37.22,21.45Z" style="fill:#231f20;mix-blend-mode:multiply"/></g></svg>