<svg xmlns="http://www.w3.org/2000/svg" xmlns:xlink="http://www.w3.org/1999/xlink" version="1.1" x="0px" y="0px" viewBox="0 0 100 125" style="enable-background:new 0 0 100 100;" xml:space="preserve"><g><path  stroke="#DAA520" fill="#DAA520" d="M86,53.5c-2.5,0-3.8-1.7-4.9-3.2C80,48.9,79,47.5,77,47.5s-3,1.4-4.1,2.8c-1.1,1.5-2.4,3.2-4.9,3.2s-3.8-1.7-4.9-3.2   C62,48.9,61,47.5,59,47.5s-3,1.4-4.1,2.8c-1.1,1.5-2.4,3.2-4.9,3.2s-3.8-1.7-4.9-3.2C44,48.9,43,47.5,41,47.5s-3,1.4-4.1,2.8   c-1.1,1.5-2.4,3.2-4.9,3.2s-3.8-1.7-4.9-3.2C26,48.9,25,47.5,23,47.5s-3,1.4-4.1,2.8c-1.1,1.5-2.4,3.2-4.9,3.2s-3.8-1.7-4.9-3.2   C8,48.9,7,47.5,5,47.5v-1c2.5,0,3.8,1.7,4.9,3.2c1.1,1.4,2.1,2.8,4.1,2.8s3-1.4,4.1-2.8c1.1-1.5,2.4-3.2,4.9-3.2s3.8,1.7,4.9,3.2   c1.1,1.4,2.1,2.8,4.1,2.8s3-1.4,4.1-2.8c1.1-1.5,2.4-3.2,4.9-3.2s3.8,1.7,4.9,3.2c1.1,1.4,2.1,2.8,4.1,2.8s3-1.4,4.1-2.8   c1.1-1.5,2.4-3.2,4.9-3.2s3.8,1.7,4.9,3.2c1.1,1.4,2.1,2.8,4.1,2.8s3-1.4,4.1-2.8c1.1-1.5,2.4-3.2,4.9-3.2s3.8,1.7,4.9,3.2   c1.1,1.4,2.1,2.8,4.1,2.8s3-1.4,4.1-2.8c1.1-1.5,2.4-3.2,4.9-3.2v1c-2,0-3,1.4-4.1,2.8C89.8,51.8,88.5,53.5,86,53.5z"/></g></svg>