<svg xmlns="http://www.w3.org/2000/svg" xmlns:xlink="http://www.w3.org/1999/xlink" version="1.1" x="0px" y="0px" viewBox="0 0 130 120" xml:space="preserve"><defs><style type="text/css">
   
    .fil1 {
      fill:		#DAA520;
      opacity: 0.2;
      
      }
   
  </style></defs>
  
  <g><circle class="fil1" cx="53.4" cy="32" r="0.6"/><circle class="fil1" cx="51.1" cy="32" r="0.6"/><circle class="fil1" cx="62.8" cy="36.7" r="0.6"/><circle class="fil1" cx="52.3" cy="33.2" r="0.6"/><circle class="fil1" cx="49.9" cy="33.2" r="0.6"/><circle class="fil1" cx="51.1" cy="36.7" r="0.6"/><circle class="fil1" cx="49.9" cy="37.9" r="0.6"/><circle class="fil1" cx="49.9" cy="35.5" r="0.6"/><circle class="fil1" cx="64" cy="35.5" r="0.6"/><circle class="fil1" cx="65.2" cy="36.7" r="0.6"/><circle class="fil1" cx="51.1" cy="34.4" r="0.6"/><circle class="fil1" cx="46.4" cy="32" r="0.6"/><circle class="fil1" cx="45.2" cy="33.2" r="0.6"/><circle class="fil1" cx="46.4" cy="36.7" r="0.6"/><circle class="fil1" cx="45.2" cy="37.9" r="0.6"/><circle class="fil1" cx="45.2" cy="35.5" r="0.6"/><circle class="fil1" cx="47.6" cy="33.2" r="0.6"/><circle class="fil1" cx="47.6" cy="37.9" r="0.6"/><circle class="fil1" cx="47.6" cy="35.5" r="0.6"/><circle class="fil1" cx="46.4" cy="34.4" r="0.6"/><circle class="fil1" cx="48.7" cy="32" r="0.6"/><path class="fil1" d="M65.2,38.5c-0.3,0-0.6,0.3-0.6,0.6s0.3,0.6,0.6,0.6c0.2,0,0.5-0.2,0.6-0.4c0-0.1,0-0.2,0-0.2   C65.8,38.7,65.5,38.5,65.2,38.5z"/><circle class="fil1" cx="62.8" cy="39.1" r="0.6"/><circle class="fil1" cx="64" cy="37.9" r="0.6"/><circle class="fil1" cx="60.5" cy="39.1" r="0.6"/><circle class="fil1" cx="61.7" cy="37.9" r="0.6"/><circle class="fil1" cx="48.7" cy="36.7" r="0.6"/><circle class="fil1" cx="48.7" cy="34.4" r="0.6"/><circle class="fil1" cx="44" cy="32" r="0.6"/><circle class="fil1" cx="42.9" cy="33.2" r="0.6"/><circle class="fil1" cx="44" cy="39.1" r="0.6"/><circle class="fil1" cx="44" cy="36.7" r="0.6"/><circle class="fil1" cx="42.9" cy="37.9" r="0.6"/><circle class="fil1" cx="42.9" cy="35.5" r="0.6"/><circle class="fil1" cx="44" cy="34.4" r="0.6"/><circle class="fil1" cx="40.5" cy="33.2" r="0.6"/><circle class="fil1" cx="40.5" cy="37.9" r="0.6"/><circle class="fil1" cx="39.3" cy="34.4" r="0.6"/><circle class="fil1" cx="41.7" cy="32" r="0.6"/><circle class="fil1" cx="41.7" cy="39.1" r="0.6"/><circle class="fil1" cx="41.7" cy="36.7" r="0.6"/><circle class="fil1" cx="41.7" cy="34.4" r="0.6"/><circle class="fil1" cx="38.2" cy="33.2" r="0.6"/><circle class="fil1" cx="38.2" cy="37.9" r="0.6"/><circle class="fil1" cx="34.6" cy="39.1" r="0.6"/><circle class="fil1" cx="34.6" cy="36.7" r="0.6"/><circle class="fil1" cx="35.8" cy="37.9" r="0.6"/><circle class="fil1" cx="35.8" cy="35.5" r="0.6"/><circle class="fil1" cx="34.6" cy="34.4" r="0.6"/><circle class="fil1" cx="37" cy="39.1" r="0.6"/><circle class="fil1" cx="37" cy="36.7" r="0.6"/><circle class="fil1" cx="33.5" cy="35.5" r="0.6"/><path class="fil1" d="M22.9,38.5c-0.3,0-0.6,0.3-0.6,0.6s0.3,0.6,0.6,0.6c0.2,0,0.5-0.2,0.6-0.4c0-0.1,0-0.2,0-0.2   C23.5,38.7,23.2,38.5,22.9,38.5z"/><circle class="fil1" cx="20.6" cy="39.1" r="0.6"/><circle class="fil1" cx="22.9" cy="36.7" r="0.6"/><circle class="fil1" cx="25.2" cy="36.7" r="0.6"/><circle class="fil1" cx="27.6" cy="36.7" r="0.6"/><circle class="fil1" cx="29.9" cy="36.7" r="0.6"/><circle class="fil1" cx="20.6" cy="36.7" r="0.6"/><circle class="fil1" cx="21.7" cy="37.9" r="0.6"/><circle class="fil1" cx="18.2" cy="39.1" r="0.6"/><circle class="fil1" cx="18.2" cy="36.7" r="0.6"/><circle class="fil1" cx="17" cy="37.9" r="0.6"/><circle class="fil1" cx="19.4" cy="37.9" r="0.6"/><circle class="fil1" cx="28.8" cy="35.5" r="0.6"/><circle class="fil1" cx="31.1" cy="35.5" r="0.6"/><circle class="fil1" cx="32.3" cy="36.7" r="0.6"/><circle class="fil1" cx="32.3" cy="34.4" r="0.6"/><circle class="fil1" cx="13.5" cy="39.1" r="0.6"/><circle class="fil1" cx="13.5" cy="36.7" r="0.6"/><circle class="fil1" cx="12.3" cy="37.9" r="0.6"/><circle class="fil1" cx="12.3" cy="35.5" r="0.6"/><circle class="fil1" cx="14.7" cy="37.9" r="0.6"/><circle class="fil1" cx="15.9" cy="39.1" r="0.6"/><circle class="fil1" cx="29.9" cy="39.1" r="0.6"/><circle class="fil1" cx="31.1" cy="37.9" r="0.6"/><circle class="fil1" cx="27.6" cy="39.1" r="0.6"/><circle class="fil1" cx="26.4" cy="37.9" r="0.6"/><circle class="fil1" cx="28.8" cy="37.9" r="0.6"/><circle class="fil1" cx="24.1" cy="37.9" r="0.6"/><circle class="fil1" cx="25.2" cy="39.1" r="0.6"/><circle class="fil1" cx="15.9" cy="36.7" r="0.6"/><circle class="fil1" cx="11.2" cy="39.1" r="0.6"/><circle class="fil1" cx="11.2" cy="36.7" r="0.6"/><circle class="fil1" cx="10" cy="37.9" r="0.6"/><circle class="fil1" cx="10" cy="35.5" r="0.6"/><circle class="fil1" cx="6.5" cy="39.1" r="0.6"/><circle class="fil1" cx="6.5" cy="36.7" r="0.6"/><circle class="fil1" cx="7.6" cy="37.9" r="0.6"/><circle class="fil1" cx="8.8" cy="39.1" r="0.6"/><circle class="fil1" cx="8.8" cy="36.7" r="0.6"/><circle class="fil1" cx="5.3" cy="37.9" r="0.6"/><circle class="fil1" cx="4.1" cy="39.1" r="0.6"/><circle class="fil1" cx="65.2" cy="69.6" r="0.6"/><circle class="fil1" cx="64" cy="70.8" r="0.6"/><circle class="fil1" cx="64" cy="68.4" r="0.6"/><path class="fil1" d="M65.8,76.5c-0.1-0.3-0.3-0.5-0.6-0.5c-0.3,0-0.5,0.2-0.6,0.5c0,0,0,0.1,0,0.1c0,0.3,0.3,0.6,0.6,0.6c0.2,0,0.5-0.2,0.6-0.4   c0-0.1,0-0.2,0-0.2C65.8,76.6,65.8,76.6,65.8,76.5z"/><path class="fil1" d="M62.8,77.2c0.3,0,0.6-0.3,0.6-0.6c0,0,0-0.1,0-0.1c-0.1-0.3-0.3-0.5-0.6-0.5c-0.3,0-0.5,0.2-0.6,0.5c0,0,0,0.1,0,0.1   C62.2,77,62.5,77.2,62.8,77.2z"/><circle class="fil1" cx="65.2" cy="74.3" r="0.6"/><circle class="fil1" cx="64" cy="75.5" r="0.6"/><circle class="fil1" cx="64" cy="73.1" r="0.6"/><circle class="fil1" cx="65.2" cy="79" r="0.6"/><circle class="fil1" cx="64" cy="80.2" r="0.6"/><circle class="fil1" cx="64" cy="77.8" r="0.6"/><path class="fil1" d="M65.2,85.4c-0.3,0-0.6,0.3-0.6,0.6s0.3,0.6,0.6,0.6c0.2,0,0.5-0.2,0.6-0.4c0-0.1,0-0.2,0-0.2   C65.8,85.7,65.5,85.4,65.2,85.4z"/><circle class="fil1" cx="65.2" cy="83.7" r="0.6"/><circle class="fil1" cx="64" cy="84.9" r="0.6"/><circle class="fil1" cx="64" cy="82.5" r="0.6"/><circle class="fil1" cx="62.8" cy="69.6" r="0.6"/><circle class="fil1" cx="60.5" cy="69.6" r="0.6"/><circle class="fil1" cx="61.7" cy="70.8" r="0.6"/><circle class="fil1" cx="61.7" cy="68.4" r="0.6"/><circle class="fil1" cx="62.8" cy="74.3" r="0.6"/><circle class="fil1" cx="61.7" cy="75.5" r="0.6"/><circle class="fil1" cx="62.8" cy="79" r="0.6"/><circle class="fil1" cx="61.7" cy="77.8" r="0.6"/><circle class="fil1" cx="35.8" cy="84.9" r="0.6"/><circle class="fil1" cx="33.5" cy="84.9" r="0.6"/><circle class="fil1" cx="40.5" cy="77.8" r="0.6"/><path class="fil1" d="M37.6,76.5C37.5,76.2,37.3,76,37,76c-0.3,0-0.5,0.2-0.6,0.5c0,0,0,0.1,0,0.1c0,0.3,0.3,0.6,0.6,0.6c0.2,0,0.5-0.2,0.6-0.4   c0-0.1,0-0.2,0-0.2C37.6,76.6,37.6,76.6,37.6,76.5z"/><path class="fil1" d="M35.2,76.5c-0.1-0.3-0.3-0.5-0.6-0.5s-0.5,0.2-0.6,0.5c0,0,0,0.1,0,0.1c0,0.3,0.3,0.6,0.6,0.6c0.2,0,0.5-0.2,0.6-0.4   c0-0.1,0-0.2,0-0.2C35.2,76.6,35.2,76.6,35.2,76.5z"/><circle class="fil1" cx="37" cy="79" r="0.6"/><circle class="fil1" cx="34.6" cy="79" r="0.6"/><circle class="fil1" cx="35.8" cy="77.8" r="0.6"/><circle class="fil1" cx="38.2" cy="77.8" r="0.6"/><circle class="fil1" cx="33.5" cy="77.8" r="0.6"/><path class="fil1" d="M41.7,72.5c0.3,0,0.6-0.3,0.6-0.6c0,0,0-0.1,0-0.1c0-0.3-0.3-0.5-0.6-0.5s-0.5,0.2-0.6,0.5c0,0,0,0.1,0,0.1   C41.1,72.3,41.4,72.5,41.7,72.5z"/><circle class="fil1" cx="40.5" cy="70.8" r="0.6"/><circle class="fil1" cx="41.7" cy="74.3" r="0.6"/><circle class="fil1" cx="40.5" cy="75.5" r="0.6"/><path class="fil1" d="M39.3,77.2c0.3,0,0.6-0.3,0.6-0.6c0,0,0-0.1,0-0.1c-0.1-0.3-0.3-0.5-0.6-0.5c-0.3,0-0.5,0.2-0.6,0.5c0,0,0,0.1,0,0.1   C38.7,77,39,77.2,39.3,77.2z"/><path class="fil1" d="M39.3,78.4c-0.3,0-0.5,0.2-0.6,0.5c0,0,0,0.1,0,0.1c0,0.3,0.3,0.6,0.6,0.6s0.6-0.3,0.6-0.6c0,0,0-0.1,0-0.1   C39.9,78.6,39.6,78.4,39.3,78.4z"/><circle class="fil1" cx="37" cy="81.3" r="0.6"/><circle class="fil1" cx="34.6" cy="81.3" r="0.6"/><circle class="fil1" cx="35.8" cy="80.2" r="0.6"/><circle class="fil1" cx="38.2" cy="80.2" r="0.6"/><circle class="fil1" cx="33.5" cy="80.2" r="0.6"/><circle class="fil1" cx="37" cy="83.7" r="0.6"/><circle class="fil1" cx="34.6" cy="83.7" r="0.6"/><circle class="fil1" cx="35.8" cy="82.5" r="0.6"/><circle class="fil1" cx="33.5" cy="82.5" r="0.6"/><circle class="fil1" cx="39.3" cy="74.3" r="0.6"/><circle class="fil1" cx="38.2" cy="75.5" r="0.6"/><circle class="fil1" cx="35.8" cy="75.5" r="0.6"/><circle class="fil1" cx="33.5" cy="75.5" r="0.6"/><circle class="fil1" cx="40.5" cy="73.1" r="0.6"/><circle class="fil1" cx="42.9" cy="73.1" r="0.6"/><path class="fil1" d="M37.6,71.8c-0.1-0.3-0.3-0.5-0.6-0.5c-0.3,0-0.5,0.2-0.6,0.5c0,0,0,0.1,0,0.1c0,0.3,0.3,0.6,0.6,0.6c0.2,0,0.5-0.2,0.6-0.4   c0-0.1,0-0.2,0-0.2C37.6,71.9,37.6,71.9,37.6,71.8z"/><circle class="fil1" cx="37" cy="69.6" r="0.6"/><circle class="fil1" cx="35.8" cy="70.8" r="0.6"/><circle class="fil1" cx="38.2" cy="70.8" r="0.6"/><circle class="fil1" cx="35.8" cy="68.4" r="0.6"/><circle class="fil1" cx="37" cy="74.3" r="0.6"/><circle class="fil1" cx="35.8" cy="73.1" r="0.6"/><circle class="fil1" cx="33.5" cy="73.1" r="0.6"/><circle class="fil1" cx="38.2" cy="73.1" r="0.6"/><path class="fil1" d="M34,71.9c0,0.3,0.3,0.6,0.6,0.6s0.6-0.3,0.6-0.6c0,0,0-0.1,0-0.1c-0.1-0.3-0.3-0.5-0.6-0.5s-0.5,0.2-0.6,0.5   C34,71.8,34,71.9,34,71.9z"/><circle class="fil1" cx="34.6" cy="69.6" r="0.6"/><circle class="fil1" cx="33.5" cy="70.8" r="0.6"/><circle class="fil1" cx="33.5" cy="68.4" r="0.6"/><circle class="fil1" cx="34.6" cy="74.3" r="0.6"/><circle class="fil1" cx="65.2" cy="81.3" r="0.6"/><circle class="fil1" cx="62.8" cy="81.3" r="0.6"/><path class="fil1" d="M39.9,71.8c-0.1-0.3-0.3-0.5-0.6-0.5s-0.5,0.2-0.6,0.5c0,0,0,0.1,0,0.1c0,0.3,0.3,0.6,0.6,0.6s0.6-0.3,0.6-0.6   C39.9,71.9,39.9,71.9,39.9,71.8z"/><circle class="fil1" cx="34.6" cy="86" r="0.6"/><circle class="fil1" cx="34.6" cy="95.4" r="0.6"/><circle class="fil1" cx="33.5" cy="87.2" r="0.6"/><circle class="fil1" cx="33.5" cy="94.2" r="0.6"/><circle class="fil1" cx="65.2" cy="71.9" r="0.6"/><circle class="fil1" cx="62.8" cy="71.9" r="0.6"/><circle class="fil1" cx="65.2" cy="41.4" r="0.6"/><circle class="fil1" cx="64" cy="42.6" r="0.6"/><circle class="fil1" cx="64" cy="40.2" r="0.6"/><path class="fil1" d="M64.6,48.4c0,0.3,0.3,0.6,0.6,0.6c0.2,0,0.5-0.2,0.6-0.4c0-0.1,0-0.2,0-0.2c0,0,0-0.1,0-0.1c-0.1-0.3-0.3-0.5-0.6-0.5   c-0.3,0-0.5,0.2-0.6,0.5C64.6,48.4,64.6,48.4,64.6,48.4z"/><circle class="fil1" cx="65.2" cy="46.1" r="0.6"/><circle class="fil1" cx="64" cy="47.3" r="0.6"/><circle class="fil1" cx="64" cy="44.9" r="0.6"/><circle class="fil1" cx="65.2" cy="50.8" r="0.6"/><path class="fil1" d="M65.2,58.4c0.2,0,0.5-0.2,0.6-0.4c0-0.1,0-0.2,0-0.2c0-0.3-0.3-0.6-0.6-0.6s-0.6,0.3-0.6,0.6S64.8,58.4,65.2,58.4z"/><circle class="fil1" cx="62.8" cy="57.8" r="0.6"/><circle class="fil1" cx="65.2" cy="55.5" r="0.6"/><circle class="fil1" cx="62.8" cy="55.5" r="0.6"/><circle class="fil1" cx="64" cy="56.7" r="0.6"/><circle class="fil1" cx="64" cy="54.3" r="0.6"/><circle class="fil1" cx="62.8" cy="41.4" r="0.6"/><circle class="fil1" cx="60.5" cy="41.4" r="0.6"/><circle class="fil1" cx="61.7" cy="42.6" r="0.6"/><circle class="fil1" cx="59.3" cy="40.2" r="0.6"/><circle class="fil1" cx="61.7" cy="40.2" r="0.6"/><path class="fil1" d="M60.5,47.9c-0.3,0-0.5,0.2-0.6,0.5c0,0,0,0.1,0,0.1c0,0.3,0.3,0.6,0.6,0.6s0.6-0.3,0.6-0.6c0,0,0-0.1,0-0.1   C61,48.1,60.8,47.9,60.5,47.9z"/><circle class="fil1" cx="62.8" cy="46.1" r="0.6"/><circle class="fil1" cx="60.5" cy="46.1" r="0.6"/><circle class="fil1" cx="59.3" cy="47.3" r="0.6"/><circle class="fil1" cx="61.7" cy="47.3" r="0.6"/><circle class="fil1" cx="59.3" cy="44.9" r="0.6"/><circle class="fil1" cx="61.7" cy="44.9" r="0.6"/><circle class="fil1" cx="62.8" cy="50.8" r="0.6"/><circle class="fil1" cx="59.3" cy="52" r="0.6"/><circle class="fil1" cx="61.7" cy="49.6" r="0.6"/><circle class="fil1" cx="60.5" cy="57.8" r="0.6"/><circle class="fil1" cx="60.5" cy="55.5" r="0.6"/><circle class="fil1" cx="59.3" cy="56.7" r="0.6"/><circle class="fil1" cx="61.7" cy="56.7" r="0.6"/><circle class="fil1" cx="59.3" cy="54.3" r="0.6"/><circle class="fil1" cx="61.7" cy="54.3" r="0.6"/><circle class="fil1" cx="59.3" cy="59" r="0.6"/><circle class="fil1" cx="61.7" cy="59" r="0.6"/><circle class="fil1" cx="64" cy="59" r="0.6"/><path class="fil1" d="M55.8,43.2c-0.3,0-0.5,0.2-0.6,0.5c0,0,0,0.1,0,0.1c0,0.3,0.3,0.6,0.6,0.6c0.2,0,0.5-0.2,0.6-0.4c0-0.1,0-0.2,0-0.2   c0,0,0-0.1,0-0.1C56.3,43.4,56.1,43.2,55.8,43.2z"/><circle class="fil1" cx="55.8" cy="41.4" r="0.6"/><circle class="fil1" cx="54.6" cy="42.6" r="0.6"/><circle class="fil1" cx="57" cy="42.6" r="0.6"/><path class="fil1" d="M55.2,48.4c0,0.3,0.3,0.6,0.6,0.6c0.2,0,0.5-0.2,0.6-0.4c0-0.1,0-0.2,0-0.2c0,0,0-0.1,0-0.1c-0.1-0.3-0.3-0.5-0.6-0.5   c-0.3,0-0.5,0.2-0.6,0.5C55.2,48.4,55.2,48.4,55.2,48.4z"/><circle class="fil1" cx="57" cy="47.3" r="0.6"/><circle class="fil1" cx="54.6" cy="47.3" r="0.6"/><circle class="fil1" cx="54.6" cy="44.9" r="0.6"/><circle class="fil1" cx="54.6" cy="52" r="0.6"/><circle class="fil1" cx="57" cy="52" r="0.6"/><circle class="fil1" cx="54.6" cy="49.6" r="0.6"/><circle class="fil1" cx="57" cy="49.6" r="0.6"/><path class="fil1" d="M55.8,57.3c-0.3,0-0.6,0.3-0.6,0.6s0.3,0.6,0.6,0.6c0.2,0,0.5-0.2,0.6-0.4c0-0.1,0-0.2,0-0.2   C56.4,57.5,56.1,57.3,55.8,57.3z"/><circle class="fil1" cx="53.4" cy="57.8" r="0.6"/><circle class="fil1" cx="55.8" cy="55.5" r="0.6"/><circle class="fil1" cx="53.4" cy="55.5" r="0.6"/><circle class="fil1" cx="54.6" cy="56.7" r="0.6"/><circle class="fil1" cx="57" cy="56.7" r="0.6"/><circle class="fil1" cx="54.6" cy="54.3" r="0.6"/><circle class="fil1" cx="57" cy="54.3" r="0.6"/><circle class="fil1" cx="55.8" cy="60.2" r="0.6"/><circle class="fil1" cx="53.4" cy="60.2" r="0.6"/><circle class="fil1" cx="51.1" cy="60.2" r="0.6"/><circle class="fil1" cx="54.6" cy="61.4" r="0.6"/><circle class="fil1" cx="57" cy="61.4" r="0.6"/><circle class="fil1" cx="59.3" cy="61.4" r="0.6"/><circle class="fil1" cx="54.6" cy="59" r="0.6"/><circle class="fil1" cx="57" cy="59" r="0.6"/><path class="fil1" d="M55.8,66.7c-0.3,0-0.6,0.3-0.6,0.6s0.3,0.6,0.6,0.6c0.2,0,0.5-0.2,0.6-0.4c0-0.1,0-0.2,0-0.2   C56.4,66.9,56.1,66.7,55.8,66.7z"/><circle class="fil1" cx="53.4" cy="67.2" r="0.6"/><circle class="fil1" cx="55.8" cy="64.9" r="0.6"/><circle class="fil1" cx="58.1" cy="64.9" r="0.6"/><circle class="fil1" cx="60.5" cy="64.9" r="0.6"/><circle class="fil1" cx="62.8" cy="64.9" r="0.6"/><circle class="fil1" cx="53.4" cy="64.9" r="0.6"/><circle class="fil1" cx="54.6" cy="66.1" r="0.6"/><circle class="fil1" cx="54.6" cy="63.7" r="0.6"/><circle class="fil1" cx="57" cy="63.7" r="0.6"/><circle class="fil1" cx="59.3" cy="63.7" r="0.6"/><path class="fil1" d="M53.4,43.2c-0.3,0-0.5,0.2-0.6,0.5c0,0,0,0.1,0,0.1c0,0.3,0.3,0.6,0.6,0.6s0.6-0.3,0.6-0.6c0,0,0-0.1,0-0.1   C53.9,43.4,53.7,43.2,53.4,43.2z"/><path class="fil1" d="M52.9,48.4c0,0.3,0.3,0.6,0.6,0.6s0.6-0.3,0.6-0.6c0,0,0-0.1,0-0.1c-0.1-0.3-0.3-0.5-0.6-0.5c-0.3,0-0.5,0.2-0.6,0.5   C52.9,48.4,52.9,48.4,52.9,48.4z"/><circle class="fil1" cx="51.1" cy="57.8" r="0.6"/><circle class="fil1" cx="51.1" cy="55.5" r="0.6"/><circle class="fil1" cx="52.3" cy="56.7" r="0.6"/><circle class="fil1" cx="52.3" cy="54.3" r="0.6"/><circle class="fil1" cx="52.3" cy="61.4" r="0.6"/><circle class="fil1" cx="49.9" cy="61.4" r="0.6"/><circle class="fil1" cx="52.3" cy="59" r="0.6"/><circle class="fil1" cx="49.9" cy="59" r="0.6"/><circle class="fil1" cx="51.1" cy="64.9" r="0.6"/><circle class="fil1" cx="52.3" cy="66.1" r="0.6"/><circle class="fil1" cx="52.3" cy="63.7" r="0.6"/><circle class="fil1" cx="49.9" cy="63.7" r="0.6"/><circle class="fil1" cx="42.9" cy="40.2" r="0.6"/><circle class="fil1" cx="33.5" cy="47.3" r="0.6"/><path class="fil1" d="M36.4,43.8c0,0.3,0.3,0.6,0.6,0.6c0.2,0,0.5-0.2,0.6-0.4c0-0.1,0-0.2,0-0.2c0,0,0-0.1,0-0.1c-0.1-0.3-0.3-0.5-0.6-0.5   c-0.3,0-0.5,0.2-0.6,0.5C36.4,43.7,36.4,43.7,36.4,43.8z"/><circle class="fil1" cx="35.8" cy="42.6" r="0.6"/><circle class="fil1" cx="35.8" cy="40.2" r="0.6"/><circle class="fil1" cx="37" cy="46.1" r="0.6"/><circle class="fil1" cx="35.8" cy="44.9" r="0.6"/><circle class="fil1" cx="33.5" cy="44.9" r="0.6"/><path class="fil1" d="M34,43.8c0,0.3,0.3,0.6,0.6,0.6s0.6-0.3,0.6-0.6c0,0,0-0.1,0-0.1c-0.1-0.3-0.3-0.5-0.6-0.5s-0.5,0.2-0.6,0.5   C34,43.7,34,43.7,34,43.8z"/><circle class="fil1" cx="34.6" cy="41.4" r="0.6"/><circle class="fil1" cx="33.5" cy="42.6" r="0.6"/><circle class="fil1" cx="60.5" cy="53.1" r="0.6"/><circle class="fil1" cx="58.1" cy="53.1" r="0.6"/><circle class="fil1" cx="58.1" cy="62.5" r="0.6"/><circle class="fil1" cx="58.1" cy="60.2" r="0.6"/><circle class="fil1" cx="60.5" cy="60.2" r="0.6"/><circle class="fil1" cx="58.1" cy="57.8" r="0.6"/><circle class="fil1" cx="58.1" cy="55.5" r="0.6"/><circle class="fil1" cx="58.1" cy="48.4" r="0.6"/><circle class="fil1" cx="58.1" cy="46.1" r="0.6"/><circle class="fil1" cx="58.1" cy="43.8" r="0.6"/><circle class="fil1" cx="55.8" cy="53.1" r="0.6"/><circle class="fil1" cx="53.4" cy="53.1" r="0.6"/><circle class="fil1" cx="55.8" cy="62.5" r="0.6"/><circle class="fil1" cx="61.7" cy="61.4" r="0.6"/><circle class="fil1" cx="61.7" cy="63.7" r="0.6"/><circle class="fil1" cx="64" cy="61.4" r="0.6"/><circle class="fil1" cx="64" cy="63.7" r="0.6"/><circle class="fil1" cx="62.8" cy="62.5" r="0.6"/><circle class="fil1" cx="62.8" cy="60.2" r="0.6"/><circle class="fil1" cx="65.2" cy="64.9" r="0.6"/><circle class="fil1" cx="65.2" cy="62.5" r="0.6"/><circle class="fil1" cx="65.2" cy="60.2" r="0.6"/><circle class="fil1" cx="60.5" cy="62.5" r="0.6"/><circle class="fil1" cx="53.4" cy="62.5" r="0.6"/><circle class="fil1" cx="51.1" cy="62.5" r="0.6"/><path class="fil1" d="M65.2,66.7c-0.3,0-0.6,0.3-0.6,0.6s0.3,0.6,0.6,0.6c0.2,0,0.5-0.2,0.6-0.4c0-0.1,0-0.2,0-0.2   C65.8,66.9,65.5,66.7,65.2,66.7z"/><circle class="fil1" cx="62.8" cy="67.2" r="0.6"/><circle class="fil1" cx="64" cy="66.1" r="0.6"/><circle class="fil1" cx="60.5" cy="67.2" r="0.6"/><circle class="fil1" cx="59.3" cy="66.1" r="0.6"/><circle class="fil1" cx="61.7" cy="66.1" r="0.6"/><circle class="fil1" cx="57" cy="66.1" r="0.6"/><circle class="fil1" cx="34.6" cy="67.2" r="0.6"/><circle class="fil1" cx="33.5" cy="66.1" r="0.6"/><circle class="fil1" cx="65.2" cy="43.8" r="0.6"/><circle class="fil1" cx="62.8" cy="43.8" r="0.6"/><circle class="fil1" cx="60.5" cy="43.8" r="0.6"/><circle class="fil1" cx="32.3" cy="69.6" r="0.6"/><circle class="fil1" cx="31.1" cy="70.8" r="0.6"/><circle class="fil1" cx="31.1" cy="68.4" r="0.6"/><path class="fil1" d="M32.9,76.5c-0.1-0.3-0.3-0.5-0.6-0.5c-0.3,0-0.5,0.2-0.6,0.5c0,0,0,0.1,0,0.1c0,0.3,0.3,0.6,0.6,0.6c0.2,0,0.5-0.2,0.6-0.4   c0-0.1,0-0.2,0-0.2C32.9,76.6,32.9,76.6,32.9,76.5z"/><path class="fil1" d="M29.3,76.6c0,0.3,0.3,0.6,0.6,0.6c0.3,0,0.6-0.3,0.6-0.6c0,0,0-0.1,0-0.1c-0.1-0.3-0.3-0.5-0.6-0.5c-0.3,0-0.5,0.2-0.6,0.5   C29.3,76.5,29.3,76.6,29.3,76.6z"/><circle class="fil1" cx="32.3" cy="74.3" r="0.6"/><circle class="fil1" cx="31.1" cy="75.5" r="0.6"/><circle class="fil1" cx="31.1" cy="73.1" r="0.6"/><circle class="fil1" cx="32.3" cy="79" r="0.6"/><circle class="fil1" cx="31.1" cy="80.2" r="0.6"/><circle class="fil1" cx="31.1" cy="77.8" r="0.6"/><path class="fil1" d="M32.3,85.4c-0.3,0-0.6,0.3-0.6,0.6s0.3,0.6,0.6,0.6c0.2,0,0.5-0.2,0.6-0.4c0-0.1,0-0.2,0-0.2   C32.9,85.7,32.6,85.4,32.3,85.4z"/><circle class="fil1" cx="29.9" cy="86" r="0.6"/><circle class="fil1" cx="32.3" cy="83.7" r="0.6"/><circle class="fil1" cx="29.9" cy="83.7" r="0.6"/><circle class="fil1" cx="31.1" cy="84.9" r="0.6"/><circle class="fil1" cx="31.1" cy="82.5" r="0.6"/><circle class="fil1" cx="29.9" cy="69.6" r="0.6"/><circle class="fil1" cx="27.6" cy="69.6" r="0.6"/><circle class="fil1" cx="26.4" cy="70.8" r="0.6"/><circle class="fil1" cx="28.8" cy="70.8" r="0.6"/><circle class="fil1" cx="26.4" cy="68.4" r="0.6"/><circle class="fil1" cx="28.8" cy="68.4" r="0.6"/><path class="fil1" d="M27.6,77.2c0.3,0,0.6-0.3,0.6-0.6c0,0,0-0.1,0-0.1c-0.1-0.3-0.3-0.5-0.6-0.5c-0.3,0-0.5,0.2-0.6,0.5c0,0,0,0.1,0,0.1   C27,77,27.3,77.2,27.6,77.2z"/><circle class="fil1" cx="29.9" cy="74.3" r="0.6"/><circle class="fil1" cx="27.6" cy="74.3" r="0.6"/><circle class="fil1" cx="26.4" cy="75.5" r="0.6"/><circle class="fil1" cx="28.8" cy="75.5" r="0.6"/><circle class="fil1" cx="26.4" cy="73.1" r="0.6"/><circle class="fil1" cx="28.8" cy="73.1" r="0.6"/><circle class="fil1" cx="29.9" cy="79" r="0.6"/><circle class="fil1" cx="27.6" cy="79" r="0.6"/><circle class="fil1" cx="28.8" cy="80.2" r="0.6"/><circle class="fil1" cx="26.4" cy="77.8" r="0.6"/><circle class="fil1" cx="28.8" cy="77.8" r="0.6"/><circle class="fil1" cx="27.6" cy="86" r="0.6"/><circle class="fil1" cx="27.6" cy="83.7" r="0.6"/><circle class="fil1" cx="28.8" cy="84.9" r="0.6"/><circle class="fil1" cx="28.8" cy="82.5" r="0.6"/><circle class="fil1" cx="28.8" cy="87.2" r="0.6"/><circle class="fil1" cx="31.1" cy="87.2" r="0.6"/><path class="fil1" d="M23.5,71.8c-0.1-0.3-0.3-0.5-0.6-0.5c-0.3,0-0.5,0.2-0.6,0.5c0,0,0,0.1,0,0.1c0,0.3,0.3,0.6,0.6,0.6c0.2,0,0.5-0.2,0.5-0.4   c0-0.1,0-0.2,0-0.2C23.5,71.9,23.5,71.9,23.5,71.8z"/><circle class="fil1" cx="22.9" cy="69.6" r="0.6"/><circle class="fil1" cx="24.1" cy="70.8" r="0.6"/><circle class="fil1" cx="24.1" cy="68.4" r="0.6"/><circle class="fil1" cx="24.1" cy="75.5" r="0.6"/><circle class="fil1" cx="24.1" cy="73.1" r="0.6"/><circle class="fil1" cx="29.9" cy="93.1" r="0.6"/><circle class="fil1" cx="32.3" cy="81.3" r="0.6"/><circle class="fil1" cx="29.9" cy="81.3" r="0.6"/><circle class="fil1" cx="27.6" cy="81.3" r="0.6"/><circle class="fil1" cx="25.2" cy="76.6" r="0.6"/><circle class="fil1" cx="25.2" cy="74.3" r="0.6"/><circle class="fil1" cx="25.2" cy="71.9" r="0.6"/><circle class="fil1" cx="25.2" cy="69.6" r="0.6"/><circle class="fil1" cx="28.8" cy="89.6" r="0.6"/><circle class="fil1" cx="28.8" cy="91.9" r="0.6"/><circle class="fil1" cx="31.1" cy="89.6" r="0.6"/><circle class="fil1" cx="31.1" cy="91.9" r="0.6"/><circle class="fil1" cx="29.9" cy="90.7" r="0.6"/><circle class="fil1" cx="29.9" cy="88.4" r="0.6"/><circle class="fil1" cx="32.3" cy="93.1" r="0.6"/><circle class="fil1" cx="32.3" cy="90.7" r="0.6"/><circle class="fil1" cx="32.3" cy="88.4" r="0.6"/><path class="fil1" d="M32.3,94.8c-0.3,0-0.6,0.3-0.6,0.6S32,96,32.3,96c0.2,0,0.5-0.2,0.6-0.4c0-0.1,0-0.2,0-0.2C32.9,95.1,32.6,94.8,32.3,94.8z   "/><circle class="fil1" cx="31.1" cy="94.2" r="0.6"/><circle class="fil1" cx="32.3" cy="71.9" r="0.6"/><circle class="fil1" cx="29.9" cy="71.9" r="0.6"/><circle class="fil1" cx="27.6" cy="71.9" r="0.6"/><circle class="fil1" cx="32.3" cy="41.4" r="0.6"/><circle class="fil1" cx="31.1" cy="42.6" r="0.6"/><circle class="fil1" cx="31.1" cy="40.2" r="0.6"/><path class="fil1" d="M32.9,48.3c-0.1-0.3-0.3-0.5-0.6-0.5c-0.3,0-0.5,0.2-0.6,0.5c0,0,0,0.1,0,0.1c0,0.3,0.3,0.6,0.6,0.6c0.2,0,0.5-0.2,0.6-0.4   c0-0.1,0-0.2,0-0.2C32.9,48.4,32.9,48.4,32.9,48.3z"/><path class="fil1" d="M29.3,48.4c0,0.3,0.3,0.6,0.6,0.6c0.3,0,0.6-0.3,0.6-0.6c0,0,0-0.1,0-0.1c-0.1-0.3-0.3-0.5-0.6-0.5c-0.3,0-0.5,0.2-0.6,0.5   C29.3,48.4,29.3,48.4,29.3,48.4z"/><circle class="fil1" cx="32.3" cy="46.1" r="0.6"/><circle class="fil1" cx="31.1" cy="47.3" r="0.6"/><circle class="fil1" cx="31.1" cy="44.9" r="0.6"/><circle class="fil1" cx="26.4" cy="42.6" r="0.6"/><circle class="fil1" cx="26.4" cy="40.2" r="0.6"/><path class="fil1" d="M27.6,47.9c-0.3,0-0.5,0.2-0.6,0.5c0,0,0,0.1,0,0.1c0,0.3,0.3,0.6,0.6,0.6s0.6-0.3,0.6-0.6c0,0,0-0.1,0-0.1   C28.1,48.1,27.9,47.9,27.6,47.9z"/><circle class="fil1" cx="29.9" cy="46.1" r="0.6"/><circle class="fil1" cx="27.6" cy="46.1" r="0.6"/><circle class="fil1" cx="26.4" cy="47.3" r="0.6"/><circle class="fil1" cx="28.8" cy="47.3" r="0.6"/><circle class="fil1" cx="26.4" cy="44.9" r="0.6"/><circle class="fil1" cx="28.8" cy="44.9" r="0.6"/><circle class="fil1" cx="27.6" cy="50.8" r="0.6"/><circle class="fil1" cx="26.4" cy="52" r="0.6"/><circle class="fil1" cx="26.4" cy="49.6" r="0.6"/><circle class="fil1" cx="28.8" cy="49.6" r="0.6"/><path class="fil1" d="M22.9,43.2c-0.3,0-0.5,0.2-0.6,0.5c0,0,0,0.1,0,0.1c0,0.3,0.3,0.6,0.6,0.6c0.2,0,0.5-0.2,0.5-0.4c0-0.1,0-0.2,0-0.2   c0,0,0-0.1,0-0.1C23.4,43.4,23.2,43.2,22.9,43.2z"/><circle class="fil1" cx="22.9" cy="41.4" r="0.6"/><circle class="fil1" cx="21.7" cy="42.6" r="0.6"/><circle class="fil1" cx="24.1" cy="42.6" r="0.6"/><circle class="fil1" cx="21.7" cy="40.2" r="0.6"/><circle class="fil1" cx="24.1" cy="40.2" r="0.6"/><path class="fil1" d="M22.3,48.4c0,0.3,0.3,0.6,0.6,0.6c0.2,0,0.5-0.2,0.5-0.4c0-0.1,0-0.2,0-0.2c0,0,0-0.1,0-0.1c-0.1-0.3-0.3-0.5-0.6-0.5   c-0.3,0-0.5,0.2-0.6,0.5C22.3,48.4,22.3,48.4,22.3,48.4z"/><circle class="fil1" cx="22.9" cy="46.1" r="0.6"/><circle class="fil1" cx="21.7" cy="47.3" r="0.6"/><circle class="fil1" cx="24.1" cy="47.3" r="0.6"/><circle class="fil1" cx="21.7" cy="44.9" r="0.6"/><circle class="fil1" cx="24.1" cy="44.9" r="0.6"/><circle class="fil1" cx="22.9" cy="50.8" r="0.6"/><circle class="fil1" cx="20.6" cy="50.8" r="0.6"/><circle class="fil1" cx="21.7" cy="52" r="0.6"/><circle class="fil1" cx="24.1" cy="52" r="0.6"/><circle class="fil1" cx="21.7" cy="49.6" r="0.6"/><circle class="fil1" cx="24.1" cy="49.6" r="0.6"/><circle class="fil1" cx="22.9" cy="55.5" r="0.6"/><circle class="fil1" cx="24.1" cy="56.7" r="0.6"/><circle class="fil1" cx="21.7" cy="54.3" r="0.6"/><circle class="fil1" cx="24.1" cy="54.3" r="0.6"/><circle class="fil1" cx="20.6" cy="60.2" r="0.6"/><circle class="fil1" cx="18.2" cy="60.2" r="0.6"/><circle class="fil1" cx="21.7" cy="61.4" r="0.6"/><circle class="fil1" cx="22.9" cy="64.9" r="0.6"/><circle class="fil1" cx="25.2" cy="64.9" r="0.6"/><circle class="fil1" cx="27.6" cy="64.9" r="0.6"/><circle class="fil1" cx="29.9" cy="64.9" r="0.6"/><circle class="fil1" cx="20.6" cy="64.9" r="0.6"/><circle class="fil1" cx="21.7" cy="66.1" r="0.6"/><circle class="fil1" cx="21.7" cy="63.7" r="0.6"/><circle class="fil1" cx="24.1" cy="63.7" r="0.6"/><circle class="fil1" cx="26.4" cy="63.7" r="0.6"/><path class="fil1" d="M20.6,43.2c-0.3,0-0.5,0.2-0.6,0.5c0,0,0,0.1,0,0.1c0,0.3,0.3,0.6,0.6,0.6s0.6-0.3,0.6-0.6c0,0,0-0.1,0-0.1   C21.1,43.4,20.8,43.2,20.6,43.2z"/><path class="fil1" d="M18.2,43.2c-0.3,0-0.5,0.2-0.6,0.5c0,0,0,0.1,0,0.1c0,0.3,0.3,0.6,0.6,0.6s0.6-0.3,0.6-0.6c0,0,0-0.1,0-0.1   C18.7,43.4,18.5,43.2,18.2,43.2z"/><circle class="fil1" cx="20.6" cy="41.4" r="0.6"/><circle class="fil1" cx="18.2" cy="41.4" r="0.6"/><circle class="fil1" cx="17" cy="42.6" r="0.6"/><circle class="fil1" cx="19.4" cy="42.6" r="0.6"/><circle class="fil1" cx="17" cy="40.2" r="0.6"/><circle class="fil1" cx="19.4" cy="40.2" r="0.6"/><path class="fil1" d="M20,48.4c0,0.3,0.3,0.6,0.6,0.6s0.6-0.3,0.6-0.6c0,0,0-0.1,0-0.1c-0.1-0.3-0.3-0.5-0.6-0.5c-0.3,0-0.5,0.2-0.6,0.5   C20,48.4,20,48.4,20,48.4z"/><path class="fil1" d="M18.2,47.9c-0.3,0-0.5,0.2-0.6,0.5c0,0,0,0.1,0,0.1c0,0.3,0.3,0.6,0.6,0.6s0.6-0.3,0.6-0.6c0,0,0-0.1,0-0.1   C18.7,48.1,18.5,47.9,18.2,47.9z"/><circle class="fil1" cx="20.6" cy="46.1" r="0.6"/><circle class="fil1" cx="18.2" cy="46.1" r="0.6"/><circle class="fil1" cx="17" cy="47.3" r="0.6"/><circle class="fil1" cx="19.4" cy="47.3" r="0.6"/><circle class="fil1" cx="17" cy="44.9" r="0.6"/><circle class="fil1" cx="19.4" cy="44.9" r="0.6"/><circle class="fil1" cx="18.2" cy="50.8" r="0.6"/><circle class="fil1" cx="17" cy="52" r="0.6"/><circle class="fil1" cx="19.4" cy="52" r="0.6"/><circle class="fil1" cx="17" cy="49.6" r="0.6"/><circle class="fil1" cx="19.4" cy="49.6" r="0.6"/><circle class="fil1" cx="18.2" cy="55.5" r="0.6"/><circle class="fil1" cx="17" cy="56.7" r="0.6"/><circle class="fil1" cx="14.7" cy="56.7" r="0.6"/><circle class="fil1" cx="12.3" cy="56.7" r="0.6"/><circle class="fil1" cx="10" cy="56.7" r="0.6"/><circle class="fil1" cx="17" cy="54.3" r="0.6"/><circle class="fil1" cx="19.4" cy="54.3" r="0.6"/><circle class="fil1" cx="19.4" cy="61.4" r="0.6"/><circle class="fil1" cx="17" cy="61.4" r="0.6"/><circle class="fil1" cx="19.4" cy="59" r="0.6"/><circle class="fil1" cx="17" cy="59" r="0.6"/><circle class="fil1" cx="19.4" cy="63.7" r="0.6"/><path class="fil1" d="M13.5,43.2c-0.3,0-0.5,0.2-0.6,0.5c0,0,0,0.1,0,0.1c0,0.3,0.3,0.6,0.6,0.6c0.2,0,0.4-0.2,0.5-0.4c0-0.1,0-0.2,0-0.2   c0,0,0-0.1,0-0.1C14,43.4,13.8,43.2,13.5,43.2z"/><circle class="fil1" cx="13.5" cy="41.4" r="0.6"/><circle class="fil1" cx="12.3" cy="42.6" r="0.6"/><circle class="fil1" cx="14.7" cy="42.6" r="0.6"/><circle class="fil1" cx="12.3" cy="40.2" r="0.6"/><circle class="fil1" cx="14.7" cy="40.2" r="0.6"/><path class="fil1" d="M13.5,49c0.2,0,0.4-0.2,0.5-0.4c0-0.1,0-0.2,0-0.2c0,0,0-0.1,0-0.1c0-0.3-0.3-0.5-0.6-0.5c-0.3,0-0.5,0.2-0.6,0.5   c0,0,0,0.1,0,0.1C12.9,48.8,13.2,49,13.5,49z"/><circle class="fil1" cx="13.5" cy="46.1" r="0.6"/><circle class="fil1" cx="12.3" cy="47.3" r="0.6"/><circle class="fil1" cx="14.7" cy="47.3" r="0.6"/><circle class="fil1" cx="12.3" cy="44.9" r="0.6"/><circle class="fil1" cx="14.7" cy="44.9" r="0.6"/><circle class="fil1" cx="13.5" cy="50.8" r="0.6"/><circle class="fil1" cx="13.5" cy="53.1" r="0.6"/><circle class="fil1" cx="13.5" cy="55.5" r="0.6"/><circle class="fil1" cx="14.7" cy="52" r="0.6"/><circle class="fil1" cx="14.7" cy="54.3" r="0.6"/><circle class="fil1" cx="12.3" cy="49.6" r="0.6"/><circle class="fil1" cx="14.7" cy="49.6" r="0.6"/><path class="fil1" d="M8.8,47.9c-0.3,0-0.5,0.2-0.6,0.5c0,0,0,0.1,0,0.1c0,0.3,0.3,0.6,0.6,0.6c0.2,0,0.5-0.2,0.6-0.4c0-0.1,0-0.2,0-0.2   c0,0,0-0.1,0-0.1C9.3,48.1,9.1,47.9,8.8,47.9z"/><circle class="fil1" cx="8.8" cy="50.8" r="0.6"/><circle class="fil1" cx="10" cy="49.6" r="0.6"/><path class="fil1" d="M10.6,43.8c0,0.3,0.3,0.6,0.6,0.6s0.6-0.3,0.6-0.6c0,0,0-0.1,0-0.1c-0.1-0.3-0.3-0.5-0.6-0.5s-0.5,0.2-0.6,0.5   C10.6,43.7,10.6,43.7,10.6,43.8z"/><circle class="fil1" cx="11.2" cy="41.4" r="0.6"/><circle class="fil1" cx="7.6" cy="40.2" r="0.6"/><circle class="fil1" cx="10" cy="40.2" r="0.6"/><path class="fil1" d="M10.6,48.4c0,0.3,0.3,0.6,0.6,0.6s0.6-0.3,0.6-0.6c0,0,0-0.1,0-0.1c-0.1-0.3-0.3-0.5-0.6-0.5s-0.5,0.2-0.6,0.5   C10.6,48.4,10.6,48.4,10.6,48.4z"/><path class="fil1" d="M10.6,50.8c0,0.3,0.3,0.6,0.6,0.6s0.6-0.3,0.6-0.6c0,0,0-0.1,0-0.1c-0.1-0.3-0.3-0.5-0.6-0.5s-0.5,0.2-0.6,0.5   C10.6,50.7,10.6,50.7,10.6,50.8z"/><circle class="fil1" cx="11.2" cy="46.1" r="0.6"/><circle class="fil1" cx="10" cy="47.3" r="0.6"/><circle class="fil1" cx="12.3" cy="52" r="0.6"/><circle class="fil1" cx="8.8" cy="53.1" r="0.6"/><circle class="fil1" cx="10" cy="52" r="0.6"/><path class="fil1" d="M10.6,53.1c0,0.3,0.3,0.6,0.6,0.6s0.6-0.3,0.6-0.6c0,0,0-0.1,0-0.1c-0.1-0.3-0.3-0.5-0.6-0.5s-0.5,0.2-0.6,0.5   C10.6,53,10.6,53.1,10.6,53.1z"/><circle class="fil1" cx="12.3" cy="54.3" r="0.6"/><circle class="fil1" cx="10" cy="54.3" r="0.6"/><path class="fil1" d="M11.2,56.1c0.3,0,0.6-0.3,0.6-0.6c0,0,0-0.1,0-0.1c-0.1-0.3-0.3-0.5-0.6-0.5s-0.5,0.2-0.6,0.5c0,0,0,0.1,0,0.1   C10.6,55.8,10.8,56.1,11.2,56.1z"/><circle class="fil1" cx="10" cy="44.9" r="0.6"/><circle class="fil1" cx="4.1" cy="41.4" r="0.6"/><circle class="fil1" cx="2.9" cy="40.2" r="0.6"/><circle class="fil1" cx="5.3" cy="40.2" r="0.6"/><circle class="fil1" cx="1.8" cy="41.4" r="0.6"/><circle class="fil1" cx="0.6" cy="42.6" r="0.6"/><circle class="fil1" cx="25.2" cy="53.1" r="0.6"/><circle class="fil1" cx="25.2" cy="50.8" r="0.6"/><circle class="fil1" cx="25.2" cy="48.4" r="0.6"/><circle class="fil1" cx="25.2" cy="46.1" r="0.6"/><circle class="fil1" cx="25.2" cy="43.8" r="0.6"/><circle class="fil1" cx="25.2" cy="41.4" r="0.6"/><path class="fil1" d="M15.3,43.8c0,0.3,0.3,0.6,0.6,0.6s0.6-0.3,0.6-0.6c0,0,0-0.1,0-0.1c-0.1-0.3-0.3-0.5-0.6-0.5c-0.3,0-0.5,0.2-0.6,0.5   C15.3,43.7,15.3,43.7,15.3,43.8z"/><circle class="fil1" cx="15.9" cy="41.4" r="0.6"/><circle class="fil1" cx="6.5" cy="41.4" r="0.6"/><path class="fil1" d="M15.8,47.9c-0.3,0-0.5,0.2-0.6,0.5c0,0,0,0.1,0,0.1c0,0.3,0.3,0.6,0.6,0.6s0.6-0.3,0.6-0.6c0,0,0-0.1,0-0.1   C16.4,48.1,16.1,47.9,15.8,47.9z"/><circle class="fil1" cx="15.9" cy="46.1" r="0.6"/><circle class="fil1" cx="15.9" cy="50.8" r="0.6"/><circle class="fil1" cx="15.9" cy="55.5" r="0.6"/><circle class="fil1" cx="15.9" cy="53.1" r="0.6"/><circle class="fil1" cx="22.9" cy="53.1" r="0.6"/><circle class="fil1" cx="20.6" cy="53.1" r="0.6"/><circle class="fil1" cx="18.2" cy="53.1" r="0.6"/><circle class="fil1" cx="15.9" cy="57.8" r="0.6"/><circle class="fil1" cx="28.8" cy="63.7" r="0.6"/><circle class="fil1" cx="31.1" cy="63.7" r="0.6"/><circle class="fil1" cx="20.6" cy="62.5" r="0.6"/><circle class="fil1" cx="18.2" cy="62.5" r="0.6"/><circle class="fil1" cx="13.5" cy="60.2" r="0.6"/><circle class="fil1" cx="13.5" cy="57.8" r="0.6"/><circle class="fil1" cx="12.3" cy="59" r="0.6"/><circle class="fil1" cx="14.7" cy="61.4" r="0.6"/><circle class="fil1" cx="14.7" cy="59" r="0.6"/><circle class="fil1" cx="15.9" cy="60.2" r="0.6"/><path class="fil1" d="M32.3,66.7c-0.3,0-0.6,0.3-0.6,0.6s0.3,0.6,0.6,0.6c0.2,0,0.5-0.2,0.6-0.4c0-0.1,0-0.2,0-0.2   C32.9,66.9,32.6,66.7,32.3,66.7z"/><circle class="fil1" cx="29.9" cy="67.2" r="0.6"/><circle class="fil1" cx="31.1" cy="66.1" r="0.6"/><circle class="fil1" cx="27.6" cy="67.2" r="0.6"/><circle class="fil1" cx="26.4" cy="66.1" r="0.6"/><circle class="fil1" cx="28.8" cy="66.1" r="0.6"/><circle class="fil1" cx="24.1" cy="66.1" r="0.6"/><circle class="fil1" cx="25.2" cy="67.2" r="0.6"/><circle class="fil1" cx="11.2" cy="57.8" r="0.6"/><circle class="fil1" cx="32.3" cy="43.8" r="0.6"/><circle class="fil1" cx="29.9" cy="43.8" r="0.6"/><circle class="fil1" cx="27.6" cy="43.8" r="0.6"/><circle class="fil1" cx="116.8" cy="39.1" r="0.6"/><circle class="fil1" cx="115.7" cy="37.9" r="0.6"/><circle class="fil1" cx="118" cy="37.9" r="0.6"/><circle class="fil1" cx="112.1" cy="39.1" r="0.6"/><circle class="fil1" cx="112.1" cy="36.7" r="0.6"/><circle class="fil1" cx="111" cy="37.9" r="0.6"/><circle class="fil1" cx="113.3" cy="37.9" r="0.6"/><circle class="fil1" cx="114.5" cy="39.1" r="0.6"/><circle class="fil1" cx="114.5" cy="36.7" r="0.6"/><circle class="fil1" cx="109.8" cy="39.1" r="0.6"/><circle class="fil1" cx="109.8" cy="36.7" r="0.6"/><circle class="fil1" cx="108.6" cy="37.9" r="0.6"/><circle class="fil1" cx="105.1" cy="39.1" r="0.6"/><circle class="fil1" cx="105.1" cy="36.7" r="0.6"/><circle class="fil1" cx="106.3" cy="37.9" r="0.6"/><circle class="fil1" cx="106.3" cy="35.5" r="0.6"/><circle class="fil1" cx="107.4" cy="39.1" r="0.6"/><circle class="fil1" cx="107.4" cy="36.7" r="0.6"/><circle class="fil1" cx="103.9" cy="37.9" r="0.6"/><circle class="fil1" cx="103.9" cy="35.5" r="0.6"/><circle class="fil1" cx="100.4" cy="39.1" r="0.6"/><circle class="fil1" cx="100.4" cy="36.7" r="0.6"/><circle class="fil1" cx="101.6" cy="37.9" r="0.6"/><circle class="fil1" cx="101.6" cy="35.5" r="0.6"/><circle class="fil1" cx="102.8" cy="39.1" r="0.6"/><circle class="fil1" cx="102.8" cy="36.7" r="0.6"/><circle class="fil1" cx="99.2" cy="37.9" r="0.6"/><circle class="fil1" cx="99.2" cy="35.5" r="0.6"/><circle class="fil1" cx="87.5" cy="33.2" r="0.6"/><circle class="fil1" cx="89.8" cy="33.2" r="0.6"/><path class="fil1" d="M88.7,38.5c-0.3,0-0.6,0.3-0.6,0.6s0.3,0.6,0.6,0.6c0.2,0,0.5-0.2,0.6-0.4c0-0.1,0-0.2,0-0.2C89.2,38.7,89,38.5,88.7,38.5z   "/><circle class="fil1" cx="86.3" cy="39.1" r="0.6"/><circle class="fil1" cx="88.7" cy="36.7" r="0.6"/><circle class="fil1" cx="91" cy="36.7" r="0.6"/><circle class="fil1" cx="93.4" cy="36.7" r="0.6"/><circle class="fil1" cx="95.7" cy="36.7" r="0.6"/><circle class="fil1" cx="86.3" cy="36.7" r="0.6"/><circle class="fil1" cx="87.5" cy="37.9" r="0.6"/><circle class="fil1" cx="87.5" cy="35.5" r="0.6"/><circle class="fil1" cx="89.8" cy="35.5" r="0.6"/><circle class="fil1" cx="92.2" cy="35.5" r="0.6"/><circle class="fil1" cx="85.1" cy="33.2" r="0.6"/><circle class="fil1" cx="84" cy="39.1" r="0.6"/><circle class="fil1" cx="84" cy="36.7" r="0.6"/><circle class="fil1" cx="82.8" cy="37.9" r="0.6"/><circle class="fil1" cx="85.1" cy="37.9" r="0.6"/><circle class="fil1" cx="85.1" cy="35.5" r="0.6"/><circle class="fil1" cx="82.8" cy="35.5" r="0.6"/><circle class="fil1" cx="91" cy="34.4" r="0.6"/><circle class="fil1" cx="88.7" cy="34.4" r="0.6"/><circle class="fil1" cx="94.5" cy="35.5" r="0.6"/><circle class="fil1" cx="96.9" cy="35.5" r="0.6"/><circle class="fil1" cx="98.1" cy="36.7" r="0.6"/><circle class="fil1" cx="93.4" cy="34.4" r="0.6"/><circle class="fil1" cx="86.3" cy="34.4" r="0.6"/><circle class="fil1" cx="84" cy="34.4" r="0.6"/><circle class="fil1" cx="79.3" cy="39.1" r="0.6"/><circle class="fil1" cx="79.3" cy="36.7" r="0.6"/><circle class="fil1" cx="78.1" cy="37.9" r="0.6"/><circle class="fil1" cx="78.1" cy="35.5" r="0.6"/><circle class="fil1" cx="80.4" cy="37.9" r="0.6"/><circle class="fil1" cx="80.4" cy="35.5" r="0.6"/><circle class="fil1" cx="81.6" cy="39.1" r="0.6"/><path class="fil1" d="M98.1,38.5c-0.3,0-0.6,0.3-0.6,0.6s0.3,0.6,0.6,0.6c0.2,0,0.5-0.2,0.6-0.4c0-0.1,0-0.2,0-0.2   C98.6,38.7,98.4,38.5,98.1,38.5z"/><circle class="fil1" cx="95.7" cy="39.1" r="0.6"/><circle class="fil1" cx="96.9" cy="37.9" r="0.6"/><circle class="fil1" cx="93.4" cy="39.1" r="0.6"/><circle class="fil1" cx="92.2" cy="37.9" r="0.6"/><circle class="fil1" cx="94.5" cy="37.9" r="0.6"/><circle class="fil1" cx="89.8" cy="37.9" r="0.6"/><circle class="fil1" cx="91" cy="39.1" r="0.6"/><circle class="fil1" cx="81.6" cy="36.7" r="0.6"/><circle class="fil1" cx="76.9" cy="39.1" r="0.6"/><circle class="fil1" cx="76.9" cy="36.7" r="0.6"/><circle class="fil1" cx="75.7" cy="37.9" r="0.6"/><circle class="fil1" cx="72.2" cy="39.1" r="0.6"/><circle class="fil1" cx="72.2" cy="36.7" r="0.6"/><circle class="fil1" cx="73.4" cy="37.9" r="0.6"/><circle class="fil1" cx="74.6" cy="39.1" r="0.6"/><circle class="fil1" cx="74.6" cy="36.7" r="0.6"/><circle class="fil1" cx="71" cy="37.9" r="0.6"/><circle class="fil1" cx="67.5" cy="39.1" r="0.6"/><circle class="fil1" cx="67.5" cy="36.7" r="0.6"/><circle class="fil1" cx="68.7" cy="37.9" r="0.6"/><circle class="fil1" cx="69.9" cy="39.1" r="0.6"/><circle class="fil1" cx="69.9" cy="36.7" r="0.6"/><circle class="fil1" cx="66.3" cy="37.9" r="0.6"/><circle class="fil1" cx="66.3" cy="35.5" r="0.6"/><circle class="fil1" cx="126.2" cy="86" r="0.6"/><circle class="fil1" cx="125.1" cy="87.2" r="0.6"/><circle class="fil1" cx="127.4" cy="87.2" r="0.6"/><circle class="fil1" cx="120.4" cy="73.1" r="0.6"/><circle class="fil1" cx="119.2" cy="79" r="0.6"/><circle class="fil1" cx="119.2" cy="83.7" r="0.6"/><circle class="fil1" cx="120.4" cy="82.5" r="0.6"/><circle class="fil1" cx="122.7" cy="89.6" r="0.6"/><circle class="fil1" cx="125.1" cy="89.6" r="0.6"/><circle class="fil1" cx="120.4" cy="91.9" r="0.6"/><circle class="fil1" cx="122.7" cy="91.9" r="0.6"/><path class="fil1" d="M118.6,71.9c0,0.3,0.3,0.6,0.6,0.6s0.6-0.3,0.6-0.6c0,0,0-0.1,0-0.1c-0.1-0.3-0.3-0.5-0.6-0.5s-0.5,0.2-0.6,0.5   C118.6,71.8,118.6,71.9,118.6,71.9z"/><path class="fil1" d="M116.8,72.5c0.3,0,0.6-0.3,0.6-0.6c0,0,0-0.1,0-0.1c-0.1-0.3-0.3-0.5-0.6-0.5s-0.5,0.2-0.6,0.5c0,0,0,0.1,0,0.1   C116.2,72.3,116.5,72.5,116.8,72.5z"/><circle class="fil1" cx="116.8" cy="69.6" r="0.6"/><circle class="fil1" cx="115.7" cy="70.8" r="0.6"/><circle class="fil1" cx="118" cy="70.8" r="0.6"/><path class="fil1" d="M117.4,76.5c-0.1-0.3-0.3-0.5-0.6-0.5s-0.5,0.2-0.6,0.5c0,0,0,0.1,0,0.1c0,0.3,0.3,0.6,0.6,0.6s0.6-0.3,0.6-0.6   C117.4,76.6,117.4,76.6,117.4,76.5z"/><circle class="fil1" cx="118" cy="73.1" r="0.6"/><circle class="fil1" cx="116.8" cy="79" r="0.6"/><circle class="fil1" cx="115.7" cy="80.2" r="0.6"/><circle class="fil1" cx="118" cy="80.2" r="0.6"/><circle class="fil1" cx="115.7" cy="77.8" r="0.6"/><circle class="fil1" cx="118" cy="77.8" r="0.6"/><circle class="fil1" cx="116.8" cy="86" r="0.6"/><circle class="fil1" cx="116.8" cy="83.7" r="0.6"/><circle class="fil1" cx="115.7" cy="84.9" r="0.6"/><circle class="fil1" cx="113.3" cy="84.9" r="0.6"/><circle class="fil1" cx="111" cy="84.9" r="0.6"/><circle class="fil1" cx="118" cy="84.9" r="0.6"/><circle class="fil1" cx="108.6" cy="84.9" r="0.6"/><circle class="fil1" cx="103.9" cy="84.9" r="0.6"/><circle class="fil1" cx="106.3" cy="84.9" r="0.6"/><circle class="fil1" cx="115.7" cy="82.5" r="0.6"/><circle class="fil1" cx="118" cy="82.5" r="0.6"/><circle class="fil1" cx="115.7" cy="87.2" r="0.6"/><circle class="fil1" cx="112.1" cy="69.6" r="0.6"/><circle class="fil1" cx="113.3" cy="70.8" r="0.6"/><path class="fil1" d="M112.2,77.2c0.2,0,0.5-0.2,0.6-0.4c0-0.1,0-0.2,0-0.2c0,0,0-0.1,0-0.1c-0.1-0.3-0.3-0.5-0.6-0.5c-0.3,0-0.5,0.2-0.6,0.5   c0,0,0,0.1,0,0.1C111.6,77,111.8,77.2,112.2,77.2z"/><circle class="fil1" cx="112.1" cy="74.3" r="0.6"/><circle class="fil1" cx="111" cy="75.5" r="0.6"/><circle class="fil1" cx="113.3" cy="75.5" r="0.6"/><circle class="fil1" cx="112.1" cy="79" r="0.6"/><circle class="fil1" cx="112.1" cy="81.3" r="0.6"/><circle class="fil1" cx="112.1" cy="83.7" r="0.6"/><circle class="fil1" cx="113.3" cy="80.2" r="0.6"/><circle class="fil1" cx="113.3" cy="82.5" r="0.6"/><circle class="fil1" cx="111" cy="77.8" r="0.6"/><circle class="fil1" cx="113.3" cy="77.8" r="0.6"/><circle class="fil1" cx="107.4" cy="79" r="0.6"/><circle class="fil1" cx="108.6" cy="77.8" r="0.6"/><path class="fil1" d="M108,71.8c-0.1-0.3-0.3-0.5-0.6-0.5c-0.3,0-0.5,0.2-0.6,0.5c0,0,0,0.1,0,0.1c0,0.3,0.3,0.6,0.6,0.6s0.6-0.3,0.6-0.6   C108,71.9,108,71.9,108,71.8z"/><circle class="fil1" cx="109.8" cy="69.6" r="0.6"/><circle class="fil1" cx="107.4" cy="69.6" r="0.6"/><circle class="fil1" cx="108.6" cy="70.8" r="0.6"/><circle class="fil1" cx="106.3" cy="68.4" r="0.6"/><circle class="fil1" cx="108.6" cy="68.4" r="0.6"/><path class="fil1" d="M109.8,77.2c0.3,0,0.6-0.3,0.6-0.6c0,0,0-0.1,0-0.1c-0.1-0.3-0.3-0.5-0.6-0.5c-0.3,0-0.5,0.2-0.6,0.5c0,0,0,0.1,0,0.1   C109.2,77,109.5,77.2,109.8,77.2z"/><path class="fil1" d="M109.8,79.6c0.3,0,0.6-0.3,0.6-0.6c0,0,0-0.1,0-0.1c-0.1-0.3-0.3-0.5-0.6-0.5c-0.3,0-0.5,0.2-0.6,0.5c0,0,0,0.1,0,0.1   C109.2,79.3,109.5,79.6,109.8,79.6z"/><path class="fil1" d="M105.1,79.6c0.3,0,0.6-0.3,0.6-0.6c0,0,0-0.1,0-0.1c-0.1-0.3-0.3-0.5-0.6-0.5c-0.3,0-0.5,0.2-0.6,0.5c0,0,0,0.1,0,0.1   C104.5,79.3,104.8,79.6,105.1,79.6z"/><circle class="fil1" cx="111" cy="80.2" r="0.6"/><circle class="fil1" cx="107.4" cy="81.3" r="0.6"/><circle class="fil1" cx="106.3" cy="80.2" r="0.6"/><circle class="fil1" cx="108.6" cy="80.2" r="0.6"/><circle class="fil1" cx="103.9" cy="80.2" r="0.6"/><path class="fil1" d="M109.8,81.9c0.3,0,0.6-0.3,0.6-0.6c0,0,0-0.1,0-0.1c-0.1-0.3-0.3-0.5-0.6-0.5c-0.3,0-0.5,0.2-0.6,0.5c0,0,0,0.1,0,0.1   C109.2,81.7,109.5,81.9,109.8,81.9z"/><path class="fil1" d="M105.7,81.2c-0.1-0.3-0.3-0.5-0.6-0.5c-0.3,0-0.5,0.2-0.6,0.5c0,0,0,0.1,0,0.1c0,0.3,0.3,0.6,0.6,0.6s0.6-0.3,0.6-0.6   C105.7,81.3,105.7,81.3,105.7,81.2z"/><circle class="fil1" cx="111" cy="82.5" r="0.6"/><circle class="fil1" cx="107.4" cy="83.7" r="0.6"/><circle class="fil1" cx="106.3" cy="82.5" r="0.6"/><circle class="fil1" cx="108.6" cy="82.5" r="0.6"/><circle class="fil1" cx="103.9" cy="82.5" r="0.6"/><path class="fil1" d="M110.4,83.5c-0.1-0.3-0.3-0.5-0.6-0.5c-0.3,0-0.5,0.2-0.6,0.5c0,0,0,0.1,0,0.1c0,0.3,0.3,0.6,0.6,0.6s0.6-0.3,0.6-0.6   C110.4,83.6,110.4,83.6,110.4,83.5z"/><path class="fil1" d="M105.1,84.3c0.3,0,0.6-0.3,0.6-0.6c0,0,0-0.1,0-0.1c-0.1-0.3-0.3-0.5-0.6-0.5c-0.3,0-0.5,0.2-0.6,0.5c0,0,0,0.1,0,0.1   C104.5,84,104.8,84.3,105.1,84.3z"/><circle class="fil1" cx="106.3" cy="73.1" r="0.6"/><path class="fil1" d="M102.8,72.5c0.2,0,0.5-0.2,0.5-0.4c0-0.1,0-0.2,0-0.2c0,0,0-0.1,0-0.1c-0.1-0.3-0.3-0.5-0.6-0.5c-0.3,0-0.5,0.2-0.6,0.5   c0,0,0,0.1,0,0.1C102.2,72.3,102.4,72.5,102.8,72.5z"/><circle class="fil1" cx="101.6" cy="70.8" r="0.6"/><circle class="fil1" cx="103.9" cy="70.8" r="0.6"/><circle class="fil1" cx="103.9" cy="68.4" r="0.6"/><circle class="fil1" cx="101.6" cy="73.1" r="0.6"/><circle class="fil1" cx="103.9" cy="73.1" r="0.6"/><path class="fil1" d="M101,71.8c-0.1-0.3-0.3-0.5-0.6-0.5c-0.3,0-0.5,0.2-0.6,0.5c0,0,0,0.1,0,0.1c0,0.3,0.3,0.6,0.6,0.6s0.6-0.3,0.6-0.6   C101,71.9,101,71.9,101,71.8z"/><circle class="fil1" cx="100.4" cy="69.6" r="0.6"/><circle class="fil1" cx="99.3" cy="70.8" r="0.6"/><circle class="fil1" cx="99.2" cy="68.4" r="0.6"/><circle class="fil1" cx="123.9" cy="90.7" r="0.6"/><circle class="fil1" cx="123.9" cy="88.4" r="0.6"/><circle class="fil1" cx="126.2" cy="88.4" r="0.6"/><path class="fil1" d="M113.9,71.9c0,0.3,0.3,0.6,0.6,0.6s0.6-0.3,0.6-0.6c0,0,0-0.1,0-0.1c-0.1-0.3-0.3-0.5-0.6-0.5s-0.5,0.2-0.6,0.5   C113.9,71.8,113.9,71.9,113.9,71.9z"/><circle class="fil1" cx="114.5" cy="69.6" r="0.6"/><path class="fil1" d="M105.7,71.8c-0.1-0.3-0.3-0.5-0.6-0.5c-0.3,0-0.5,0.2-0.6,0.5c0,0,0,0.1,0,0.1c0,0.3,0.3,0.6,0.6,0.6s0.6-0.3,0.6-0.6   C105.7,71.9,105.7,71.9,105.7,71.8z"/><circle class="fil1" cx="105.1" cy="69.6" r="0.6"/><path class="fil1" d="M114.5,77.2c0.3,0,0.6-0.3,0.6-0.6c0,0,0-0.1,0-0.1c-0.1-0.3-0.3-0.5-0.6-0.5s-0.5,0.2-0.6,0.5c0,0,0,0.1,0,0.1   C113.9,77,114.2,77.2,114.5,77.2z"/><circle class="fil1" cx="114.5" cy="79" r="0.6"/><circle class="fil1" cx="114.5" cy="83.7" r="0.6"/><circle class="fil1" cx="114.5" cy="81.3" r="0.6"/><circle class="fil1" cx="119.2" cy="81.3" r="0.6"/><circle class="fil1" cx="116.8" cy="81.3" r="0.6"/><circle class="fil1" cx="114.5" cy="86" r="0.6"/><circle class="fil1" cx="121.5" cy="90.7" r="0.6"/><circle class="fil1" cx="112.1" cy="86" r="0.6"/><circle class="fil1" cx="113.3" cy="87.2" r="0.6"/><circle class="fil1" cx="114.5" cy="88.4" r="0.6"/><circle class="fil1" cx="105.1" cy="86" r="0.6"/><circle class="fil1" cx="102.8" cy="86" r="0.6"/><circle class="fil1" cx="115.7" cy="42.6" r="0.6"/><circle class="fil1" cx="115.7" cy="40.2" r="0.6"/><circle class="fil1" cx="115.7" cy="44.9" r="0.6"/><circle class="fil1" cx="103.9" cy="56.7" r="0.6"/><circle class="fil1" cx="101.6" cy="56.7" r="0.6"/><circle class="fil1" cx="99.2" cy="56.7" r="0.6"/><circle class="fil1" cx="106.3" cy="56.7" r="0.6"/><circle class="fil1" cx="112.1" cy="41.4" r="0.6"/><circle class="fil1" cx="113.3" cy="42.6" r="0.6"/><circle class="fil1" cx="111" cy="40.2" r="0.6"/><circle class="fil1" cx="113.3" cy="40.2" r="0.6"/><path class="fil1" d="M112.2,47.9c-0.3,0-0.5,0.2-0.6,0.5c0,0,0,0.1,0,0.1c0,0.3,0.3,0.6,0.6,0.6c0.2,0,0.5-0.2,0.6-0.4c0-0.1,0-0.2,0-0.2   c0,0,0-0.1,0-0.1C112.7,48.1,112.4,47.9,112.2,47.9z"/><circle class="fil1" cx="111" cy="47.3" r="0.6"/><circle class="fil1" cx="112.1" cy="50.8" r="0.6"/><circle class="fil1" cx="112.1" cy="53.1" r="0.6"/><circle class="fil1" cx="111" cy="49.6" r="0.6"/><path class="fil1" d="M107.5,47.9c-0.3,0-0.5,0.2-0.6,0.5c0,0,0,0.1,0,0.1c0,0.3,0.3,0.6,0.6,0.6c0.2,0,0.5-0.2,0.5-0.4c0-0.1,0-0.2,0-0.2   c0,0,0-0.1,0-0.1C108,48.1,107.7,47.9,107.5,47.9z"/><circle class="fil1" cx="107.4" cy="50.8" r="0.6"/><circle class="fil1" cx="106.3" cy="49.6" r="0.6"/><path class="fil1" d="M102.8,47.9c-0.3,0-0.5,0.2-0.6,0.5c0,0,0,0.1,0,0.1c0,0.3,0.3,0.6,0.6,0.6c0.2,0,0.5-0.2,0.5-0.4c0-0.1,0-0.2,0-0.2   c0,0,0-0.1,0-0.1C103.3,48.1,103,47.9,102.8,47.9z"/><path class="fil1" d="M99.8,48.4c0,0.3,0.3,0.6,0.6,0.6c0.2,0,0.4-0.2,0.5-0.4c0-0.1,0-0.2,0-0.2c0,0,0-0.1,0-0.1c-0.1-0.3-0.3-0.5-0.6-0.5   c-0.3,0-0.5,0.2-0.6,0.5C99.8,48.4,99.8,48.4,99.8,48.4z"/><circle class="fil1" cx="102.8" cy="50.8" r="0.6"/><circle class="fil1" cx="100.4" cy="50.8" r="0.6"/><circle class="fil1" cx="101.6" cy="49.6" r="0.6"/><circle class="fil1" cx="99.2" cy="49.6" r="0.6"/><path class="fil1" d="M107.5,43.2c-0.3,0-0.5,0.2-0.6,0.5c0,0,0,0.1,0,0.1c0,0.3,0.3,0.6,0.6,0.6s0.6-0.3,0.6-0.6c0,0,0-0.1,0-0.1   C108,43.4,107.7,43.2,107.5,43.2z"/><circle class="fil1" cx="107.4" cy="41.4" r="0.6"/><circle class="fil1" cx="106.3" cy="42.6" r="0.6"/><circle class="fil1" cx="106.3" cy="40.2" r="0.6"/><circle class="fil1" cx="108.6" cy="40.2" r="0.6"/><circle class="fil1" cx="109.8" cy="46.1" r="0.6"/><circle class="fil1" cx="107.4" cy="46.1" r="0.6"/><circle class="fil1" cx="108.6" cy="47.3" r="0.6"/><circle class="fil1" cx="106.3" cy="47.3" r="0.6"/><path class="fil1" d="M104.5,48.4c0,0.3,0.3,0.6,0.6,0.6s0.6-0.3,0.6-0.6c0,0,0-0.1,0-0.1c-0.1-0.3-0.3-0.5-0.6-0.5c-0.3,0-0.5,0.2-0.6,0.5   C104.5,48.4,104.5,48.4,104.5,48.4z"/><circle class="fil1" cx="111" cy="52" r="0.6"/><circle class="fil1" cx="108.6" cy="52" r="0.6"/><circle class="fil1" cx="102.8" cy="53.1" r="0.6"/><circle class="fil1" cx="100.4" cy="53.1" r="0.6"/><circle class="fil1" cx="101.6" cy="52" r="0.6"/><circle class="fil1" cx="103.9" cy="52" r="0.6"/><circle class="fil1" cx="99.2" cy="52" r="0.6"/><path class="fil1" d="M109.8,52.6c-0.3,0-0.5,0.2-0.6,0.5c0,0,0,0.1,0,0.1c0,0.3,0.3,0.6,0.6,0.6s0.6-0.3,0.6-0.6c0,0,0-0.1,0-0.1   C110.3,52.8,110.1,52.6,109.8,52.6z"/><path class="fil1" d="M105.7,53c-0.1-0.3-0.3-0.5-0.6-0.5c-0.3,0-0.5,0.2-0.6,0.5c0,0,0,0.1,0,0.1c0,0.3,0.3,0.6,0.6,0.6s0.6-0.3,0.6-0.6   C105.7,53.1,105.7,53.1,105.7,53z"/><circle class="fil1" cx="111" cy="54.3" r="0.6"/><circle class="fil1" cx="106.3" cy="54.3" r="0.6"/><circle class="fil1" cx="102.8" cy="55.5" r="0.6"/><circle class="fil1" cx="100.4" cy="55.5" r="0.6"/><circle class="fil1" cx="101.6" cy="54.3" r="0.6"/><circle class="fil1" cx="103.9" cy="54.3" r="0.6"/><circle class="fil1" cx="99.2" cy="54.3" r="0.6"/><path class="fil1" d="M105.1,56.1c0.3,0,0.6-0.3,0.6-0.6c0,0,0-0.1,0-0.1c-0.1-0.3-0.3-0.5-0.6-0.5c-0.3,0-0.5,0.2-0.6,0.5c0,0,0,0.1,0,0.1   C104.5,55.8,104.8,56.1,105.1,56.1z"/><circle class="fil1" cx="105.1" cy="46.1" r="0.6"/><circle class="fil1" cx="103.9" cy="47.3" r="0.6"/><circle class="fil1" cx="101.6" cy="47.3" r="0.6"/><circle class="fil1" cx="99.2" cy="47.3" r="0.6"/><circle class="fil1" cx="106.3" cy="44.9" r="0.6"/><circle class="fil1" cx="108.6" cy="44.9" r="0.6"/><path class="fil1" d="M102.8,43.2c-0.3,0-0.5,0.2-0.6,0.5c0,0,0,0.1,0,0.1c0,0.3,0.3,0.6,0.6,0.6c0.2,0,0.5-0.2,0.5-0.4c0-0.1,0-0.2,0-0.2   c0,0,0-0.1,0-0.1C103.3,43.4,103,43.2,102.8,43.2z"/><circle class="fil1" cx="102.8" cy="41.4" r="0.6"/><circle class="fil1" cx="101.6" cy="42.6" r="0.6"/><circle class="fil1" cx="103.9" cy="42.6" r="0.6"/><circle class="fil1" cx="101.6" cy="40.2" r="0.6"/><circle class="fil1" cx="103.9" cy="40.2" r="0.6"/><circle class="fil1" cx="102.8" cy="46.1" r="0.6"/><circle class="fil1" cx="101.6" cy="44.9" r="0.6"/><circle class="fil1" cx="99.2" cy="44.9" r="0.6"/><circle class="fil1" cx="103.9" cy="44.9" r="0.6"/><path class="fil1" d="M99.8,43.8c0,0.3,0.3,0.6,0.6,0.6s0.6-0.3,0.6-0.6c0,0,0-0.1,0-0.1c-0.1-0.3-0.3-0.5-0.6-0.5c-0.3,0-0.5,0.2-0.6,0.5   C99.8,43.7,99.8,43.7,99.8,43.8z"/><circle class="fil1" cx="100.4" cy="41.4" r="0.6"/><circle class="fil1" cx="99.2" cy="42.6" r="0.6"/><circle class="fil1" cx="99.2" cy="40.2" r="0.6"/><circle class="fil1" cx="100.4" cy="46.1" r="0.6"/><path class="fil1" d="M113.9,43.8c0,0.3,0.3,0.6,0.6,0.6s0.6-0.3,0.6-0.6c0,0,0-0.1,0-0.1c-0.1-0.3-0.3-0.5-0.6-0.5s-0.5,0.2-0.6,0.5   C113.9,43.7,113.9,43.7,113.9,43.8z"/><circle class="fil1" cx="114.5" cy="41.4" r="0.6"/><path class="fil1" d="M104.5,43.8c0,0.3,0.3,0.6,0.6,0.6s0.6-0.3,0.6-0.6c0,0,0-0.1,0-0.1c-0.1-0.3-0.3-0.5-0.6-0.5c-0.3,0-0.5,0.2-0.6,0.5   C104.5,43.7,104.5,43.7,104.5,43.8z"/><circle class="fil1" cx="105.1" cy="41.4" r="0.6"/><circle class="fil1" cx="108.6" cy="61.4" r="0.6"/><circle class="fil1" cx="108.6" cy="63.7" r="0.6"/><circle class="fil1" cx="105.1" cy="57.8" r="0.6"/><circle class="fil1" cx="105.1" cy="67.2" r="0.6"/><circle class="fil1" cx="106.3" cy="66.1" r="0.6"/><circle class="fil1" cx="107.4" cy="60.2" r="0.6"/><circle class="fil1" cx="107.4" cy="67.2" r="0.6"/><circle class="fil1" cx="107.4" cy="62.5" r="0.6"/><circle class="fil1" cx="103.9" cy="59" r="0.6"/><circle class="fil1" cx="102.8" cy="57.8" r="0.6"/><circle class="fil1" cx="100.4" cy="60.2" r="0.6"/><circle class="fil1" cx="100.4" cy="57.8" r="0.6"/><circle class="fil1" cx="100.4" cy="67.2" r="0.6"/><circle class="fil1" cx="101.6" cy="61.4" r="0.6"/><circle class="fil1" cx="101.6" cy="59" r="0.6"/><circle class="fil1" cx="101.6" cy="63.7" r="0.6"/><circle class="fil1" cx="100.4" cy="62.5" r="0.6"/><circle class="fil1" cx="102.8" cy="62.5" r="0.6"/><circle class="fil1" cx="99.2" cy="61.4" r="0.6"/><circle class="fil1" cx="99.2" cy="59" r="0.6"/><circle class="fil1" cx="99.2" cy="66.1" r="0.6"/><circle class="fil1" cx="99.2" cy="63.7" r="0.6"/><circle class="fil1" cx="68.7" cy="84.9" r="0.6"/><circle class="fil1" cx="66.3" cy="84.9" r="0.6"/><circle class="fil1" cx="78.1" cy="75.5" r="0.6"/><circle class="fil1" cx="78.1" cy="77.8" r="0.6"/><circle class="fil1" cx="74.6" cy="79" r="0.6"/><circle class="fil1" cx="75.7" cy="77.8" r="0.6"/><path class="fil1" d="M70.4,76.5c-0.1-0.3-0.3-0.5-0.6-0.5c-0.3,0-0.5,0.2-0.6,0.5c0,0,0,0.1,0,0.1c0,0.3,0.3,0.6,0.6,0.6c0.2,0,0.4-0.2,0.5-0.4   c0-0.1,0-0.2,0-0.2C70.4,76.6,70.4,76.6,70.4,76.5z"/><path class="fil1" d="M68.1,76.5c-0.1-0.3-0.3-0.5-0.6-0.5c-0.3,0-0.5,0.2-0.6,0.5c0,0,0,0.1,0,0.1c0,0.3,0.3,0.6,0.6,0.6c0.2,0,0.5-0.2,0.6-0.4   c0-0.1,0-0.2,0-0.2C68.1,76.6,68.1,76.6,68.1,76.5z"/><circle class="fil1" cx="69.9" cy="79" r="0.6"/><circle class="fil1" cx="67.5" cy="79" r="0.6"/><circle class="fil1" cx="68.7" cy="77.8" r="0.6"/><circle class="fil1" cx="71" cy="77.8" r="0.6"/><circle class="fil1" cx="66.3" cy="77.8" r="0.6"/><circle class="fil1" cx="74.6" cy="69.6" r="0.6"/><circle class="fil1" cx="73.4" cy="70.8" r="0.6"/><circle class="fil1" cx="73.4" cy="68.4" r="0.6"/><circle class="fil1" cx="75.7" cy="68.4" r="0.6"/><path class="fil1" d="M76.9,77.2c0.3,0,0.6-0.3,0.6-0.6c0,0,0-0.1,0-0.1c-0.1-0.3-0.3-0.5-0.6-0.5c-0.3,0-0.5,0.2-0.6,0.5c0,0,0,0.1,0,0.1   C76.3,77,76.6,77.2,76.9,77.2z"/><path class="fil1" d="M76.9,78.4c-0.3,0-0.5,0.2-0.6,0.5c0,0,0,0.1,0,0.1c0,0.3,0.3,0.6,0.6,0.6s0.6-0.3,0.6-0.6c0,0,0-0.1,0-0.1   C77.4,78.6,77.2,78.4,76.9,78.4z"/><circle class="fil1" cx="76.9" cy="74.3" r="0.6"/><circle class="fil1" cx="73.4" cy="75.5" r="0.6"/><path class="fil1" d="M72.2,76c-0.3,0-0.5,0.2-0.6,0.5c0,0,0,0.1,0,0.1c0,0.3,0.3,0.6,0.6,0.6c0.3,0,0.6-0.3,0.6-0.6c0,0,0-0.1,0-0.1   C72.7,76.2,72.5,76,72.2,76z"/><circle class="fil1" cx="74.6" cy="81.3" r="0.6"/><circle class="fil1" cx="75.7" cy="80.2" r="0.6"/><circle class="fil1" cx="69.9" cy="81.3" r="0.6"/><circle class="fil1" cx="67.5" cy="81.3" r="0.6"/><circle class="fil1" cx="68.7" cy="80.2" r="0.6"/><circle class="fil1" cx="71" cy="80.2" r="0.6"/><circle class="fil1" cx="66.3" cy="80.2" r="0.6"/><circle class="fil1" cx="69.9" cy="83.7" r="0.6"/><circle class="fil1" cx="67.5" cy="83.7" r="0.6"/><circle class="fil1" cx="68.7" cy="82.5" r="0.6"/><circle class="fil1" cx="66.3" cy="82.5" r="0.6"/><circle class="fil1" cx="72.2" cy="74.3" r="0.6"/><circle class="fil1" cx="71" cy="75.5" r="0.6"/><circle class="fil1" cx="68.7" cy="75.5" r="0.6"/><circle class="fil1" cx="66.3" cy="75.5" r="0.6"/><circle class="fil1" cx="73.4" cy="73.1" r="0.6"/><path class="fil1" d="M69.9,72.5c0.2,0,0.4-0.2,0.5-0.4c0-0.1,0-0.2,0-0.2c0,0,0-0.1,0-0.1c-0.1-0.3-0.3-0.5-0.6-0.5c-0.3,0-0.5,0.2-0.6,0.5   c0,0,0,0.1,0,0.1C69.3,72.3,69.5,72.5,69.9,72.5z"/><circle class="fil1" cx="69.9" cy="69.6" r="0.6"/><circle class="fil1" cx="68.7" cy="70.8" r="0.6"/><circle class="fil1" cx="71" cy="70.8" r="0.6"/><circle class="fil1" cx="68.7" cy="68.4" r="0.6"/><circle class="fil1" cx="71" cy="68.4" r="0.6"/><circle class="fil1" cx="69.9" cy="74.3" r="0.6"/><circle class="fil1" cx="68.7" cy="73.1" r="0.6"/><circle class="fil1" cx="66.3" cy="73.1" r="0.6"/><circle class="fil1" cx="71" cy="73.1" r="0.6"/><path class="fil1" d="M67.5,72.5c0.3,0,0.6-0.3,0.6-0.6c0,0,0-0.1,0-0.1c-0.1-0.3-0.3-0.5-0.6-0.5c-0.3,0-0.5,0.2-0.6,0.5c0,0,0,0.1,0,0.1   C66.9,72.3,67.2,72.5,67.5,72.5z"/><circle class="fil1" cx="67.5" cy="69.6" r="0.6"/><circle class="fil1" cx="66.3" cy="70.8" r="0.6"/><circle class="fil1" cx="66.3" cy="68.4" r="0.6"/><circle class="fil1" cx="67.5" cy="74.3" r="0.6"/><path class="fil1" d="M72.8,71.8c-0.1-0.3-0.3-0.5-0.6-0.5c-0.3,0-0.5,0.2-0.6,0.5c0,0,0,0.1,0,0.1c0,0.3,0.3,0.6,0.6,0.6s0.6-0.3,0.6-0.6   C72.8,71.9,72.8,71.9,72.8,71.8z"/><circle class="fil1" cx="72.2" cy="69.6" r="0.6"/><circle class="fil1" cx="98.1" cy="41.4" r="0.6"/><circle class="fil1" cx="96.9" cy="42.6" r="0.6"/><circle class="fil1" cx="96.9" cy="40.2" r="0.6"/><path class="fil1" d="M98.6,48.3c-0.1-0.3-0.3-0.5-0.6-0.5c-0.3,0-0.5,0.2-0.6,0.5c0,0,0,0.1,0,0.1c0,0.3,0.3,0.6,0.6,0.6c0.2,0,0.4-0.2,0.5-0.4   c0-0.1,0-0.2,0-0.2C98.6,48.4,98.6,48.4,98.6,48.3z"/><path class="fil1" d="M96.3,48.3c-0.1-0.3-0.3-0.5-0.6-0.5c-0.3,0-0.5,0.2-0.6,0.5c0,0,0,0.1,0,0.1c0,0.3,0.3,0.6,0.6,0.6s0.6-0.3,0.6-0.6   C96.3,48.4,96.3,48.4,96.3,48.3z"/><circle class="fil1" cx="98.1" cy="46.1" r="0.6"/><circle class="fil1" cx="96.9" cy="47.3" r="0.6"/><circle class="fil1" cx="96.9" cy="44.9" r="0.6"/><circle class="fil1" cx="98.1" cy="50.8" r="0.6"/><circle class="fil1" cx="96.9" cy="52" r="0.6"/><circle class="fil1" cx="96.9" cy="49.6" r="0.6"/><path class="fil1" d="M98.1,57.3c-0.3,0-0.6,0.3-0.6,0.6s0.3,0.6,0.6,0.6c0.2,0,0.5-0.2,0.6-0.4c0-0.1,0-0.2,0-0.2   C98.6,57.5,98.4,57.3,98.1,57.3z"/><circle class="fil1" cx="95.7" cy="57.8" r="0.6"/><circle class="fil1" cx="98.1" cy="55.5" r="0.6"/><circle class="fil1" cx="95.7" cy="55.5" r="0.6"/><circle class="fil1" cx="96.9" cy="56.7" r="0.6"/><circle class="fil1" cx="96.9" cy="54.3" r="0.6"/><circle class="fil1" cx="95.7" cy="41.4" r="0.6"/><circle class="fil1" cx="93.4" cy="41.4" r="0.6"/><circle class="fil1" cx="92.2" cy="42.6" r="0.6"/><circle class="fil1" cx="94.5" cy="42.6" r="0.6"/><circle class="fil1" cx="92.2" cy="40.2" r="0.6"/><circle class="fil1" cx="94.5" cy="40.2" r="0.6"/><path class="fil1" d="M93.4,49c0.3,0,0.6-0.3,0.6-0.6c0,0,0-0.1,0-0.1c-0.1-0.3-0.3-0.5-0.6-0.5c-0.3,0-0.5,0.2-0.6,0.5c0,0,0,0.1,0,0.1   C92.8,48.8,93,49,93.4,49z"/><circle class="fil1" cx="95.7" cy="46.1" r="0.6"/><circle class="fil1" cx="93.4" cy="46.1" r="0.6"/><circle class="fil1" cx="92.2" cy="47.3" r="0.6"/><circle class="fil1" cx="94.5" cy="47.3" r="0.6"/><circle class="fil1" cx="92.2" cy="44.9" r="0.6"/><circle class="fil1" cx="94.5" cy="44.9" r="0.6"/><circle class="fil1" cx="95.7" cy="50.8" r="0.6"/><circle class="fil1" cx="93.4" cy="50.8" r="0.6"/><circle class="fil1" cx="92.2" cy="52" r="0.6"/><circle class="fil1" cx="94.5" cy="52" r="0.6"/><circle class="fil1" cx="92.2" cy="49.6" r="0.6"/><circle class="fil1" cx="94.5" cy="49.6" r="0.6"/><circle class="fil1" cx="93.4" cy="57.8" r="0.6"/><circle class="fil1" cx="93.4" cy="55.5" r="0.6"/><circle class="fil1" cx="92.2" cy="56.7" r="0.6"/><circle class="fil1" cx="94.5" cy="56.7" r="0.6"/><circle class="fil1" cx="92.2" cy="54.3" r="0.6"/><circle class="fil1" cx="94.5" cy="54.3" r="0.6"/><circle class="fil1" cx="92.2" cy="59" r="0.6"/><circle class="fil1" cx="94.5" cy="59" r="0.6"/><circle class="fil1" cx="96.9" cy="59" r="0.6"/><path class="fil1" d="M88.7,43.2c-0.3,0-0.5,0.2-0.6,0.5c0,0,0,0.1,0,0.1c0,0.3,0.3,0.6,0.6,0.6c0.2,0,0.5-0.2,0.6-0.4c0-0.1,0-0.2,0-0.2   c0,0,0-0.1,0-0.1C89.2,43.4,89,43.2,88.7,43.2z"/><circle class="fil1" cx="88.7" cy="41.4" r="0.6"/><circle class="fil1" cx="87.5" cy="42.6" r="0.6"/><circle class="fil1" cx="89.8" cy="42.6" r="0.6"/><circle class="fil1" cx="87.5" cy="40.2" r="0.6"/><circle class="fil1" cx="89.8" cy="40.2" r="0.6"/><path class="fil1" d="M89.3,48.3c-0.1-0.3-0.3-0.5-0.6-0.5c-0.3,0-0.5,0.2-0.6,0.5c0,0,0,0.1,0,0.1c0,0.3,0.3,0.6,0.6,0.6c0.2,0,0.5-0.2,0.6-0.4   c0-0.1,0-0.2,0-0.2C89.3,48.4,89.3,48.4,89.3,48.3z"/><circle class="fil1" cx="88.7" cy="46.1" r="0.6"/><circle class="fil1" cx="87.5" cy="47.3" r="0.6"/><circle class="fil1" cx="89.8" cy="47.3" r="0.6"/><circle class="fil1" cx="87.5" cy="44.9" r="0.6"/><circle class="fil1" cx="89.8" cy="44.9" r="0.6"/><circle class="fil1" cx="88.7" cy="50.8" r="0.6"/><circle class="fil1" cx="86.3" cy="50.8" r="0.6"/><circle class="fil1" cx="87.5" cy="52" r="0.6"/><circle class="fil1" cx="89.8" cy="52" r="0.6"/><circle class="fil1" cx="87.5" cy="49.6" r="0.6"/><circle class="fil1" cx="89.8" cy="49.6" r="0.6"/><path class="fil1" d="M88.7,57.3c-0.3,0-0.6,0.3-0.6,0.6s0.3,0.6,0.6,0.6c0.2,0,0.5-0.2,0.6-0.4c0-0.1,0-0.2,0-0.2C89.2,57.5,89,57.3,88.7,57.3z   "/><circle class="fil1" cx="86.3" cy="57.8" r="0.6"/><circle class="fil1" cx="88.7" cy="55.5" r="0.6"/><circle class="fil1" cx="86.3" cy="55.5" r="0.6"/><circle class="fil1" cx="87.5" cy="56.7" r="0.6"/><circle class="fil1" cx="89.8" cy="56.7" r="0.6"/><circle class="fil1" cx="87.5" cy="54.3" r="0.6"/><circle class="fil1" cx="89.8" cy="54.3" r="0.6"/><circle class="fil1" cx="88.7" cy="60.2" r="0.6"/><circle class="fil1" cx="87.5" cy="61.4" r="0.6"/><circle class="fil1" cx="89.8" cy="61.4" r="0.6"/><circle class="fil1" cx="87.5" cy="59" r="0.6"/><circle class="fil1" cx="89.8" cy="59" r="0.6"/><circle class="fil1" cx="89.8" cy="63.7" r="0.6"/><path class="fil1" d="M86.3,43.2c-0.3,0-0.5,0.2-0.6,0.5c0,0,0,0.1,0,0.1c0,0.3,0.3,0.6,0.6,0.6s0.6-0.3,0.6-0.6c0,0,0-0.1,0-0.1   C86.8,43.4,86.6,43.2,86.3,43.2z"/><path class="fil1" d="M83.4,43.8c0,0.3,0.3,0.6,0.6,0.6s0.6-0.3,0.6-0.6c0,0,0-0.1,0-0.1c-0.1-0.3-0.3-0.5-0.6-0.5s-0.5,0.2-0.6,0.5   C83.4,43.7,83.4,43.7,83.4,43.8z"/><circle class="fil1" cx="86.3" cy="41.4" r="0.6"/><circle class="fil1" cx="84" cy="41.4" r="0.6"/><circle class="fil1" cx="82.8" cy="42.6" r="0.6"/><circle class="fil1" cx="85.1" cy="42.6" r="0.6"/><circle class="fil1" cx="82.8" cy="40.2" r="0.6"/><circle class="fil1" cx="85.1" cy="40.2" r="0.6"/><path class="fil1" d="M85.7,48.3c0,0,0,0.1,0,0.1c0,0.3,0.3,0.6,0.6,0.6s0.6-0.3,0.6-0.6c0,0,0-0.1,0-0.1c-0.1-0.3-0.3-0.5-0.6-0.5   C86,47.9,85.8,48.1,85.7,48.3z"/><path class="fil1" d="M84,49c0.3,0,0.6-0.3,0.6-0.6c0,0,0-0.1,0-0.1c-0.1-0.3-0.3-0.5-0.6-0.5s-0.5,0.2-0.6,0.5c0,0,0,0.1,0,0.1   C83.4,48.8,83.6,49,84,49z"/><circle class="fil1" cx="86.3" cy="46.1" r="0.6"/><circle class="fil1" cx="84" cy="46.1" r="0.6"/><circle class="fil1" cx="82.8" cy="47.3" r="0.6"/><circle class="fil1" cx="85.1" cy="47.3" r="0.6"/><circle class="fil1" cx="82.8" cy="44.9" r="0.6"/><circle class="fil1" cx="85.1" cy="44.9" r="0.6"/><circle class="fil1" cx="84" cy="50.8" r="0.6"/><circle class="fil1" cx="82.8" cy="52" r="0.6"/><circle class="fil1" cx="85.1" cy="52" r="0.6"/><circle class="fil1" cx="82.8" cy="49.6" r="0.6"/><circle class="fil1" cx="85.1" cy="49.6" r="0.6"/><circle class="fil1" cx="84" cy="55.5" r="0.6"/><circle class="fil1" cx="82.8" cy="56.7" r="0.6"/><circle class="fil1" cx="85.1" cy="56.7" r="0.6"/><circle class="fil1" cx="75.7" cy="56.7" r="0.6"/><circle class="fil1" cx="68.7" cy="56.7" r="0.6"/><circle class="fil1" cx="66.3" cy="56.7" r="0.6"/><circle class="fil1" cx="73.4" cy="56.7" r="0.6"/><circle class="fil1" cx="82.8" cy="54.3" r="0.6"/><circle class="fil1" cx="85.1" cy="54.3" r="0.6"/><path class="fil1" d="M78.7,43.8c0,0.3,0.3,0.6,0.6,0.6c0.2,0,0.5-0.2,0.5-0.4c0-0.1,0-0.2,0-0.2c0,0,0-0.1,0-0.1c-0.1-0.3-0.3-0.5-0.6-0.5   c-0.3,0-0.5,0.2-0.6,0.5C78.7,43.7,78.7,43.7,78.7,43.8z"/><circle class="fil1" cx="79.3" cy="41.4" r="0.6"/><circle class="fil1" cx="78.1" cy="42.6" r="0.6"/><circle class="fil1" cx="80.4" cy="42.6" r="0.6"/><circle class="fil1" cx="78.1" cy="40.2" r="0.6"/><circle class="fil1" cx="80.4" cy="40.2" r="0.6"/><path class="fil1" d="M79.8,48.3c-0.1-0.3-0.3-0.5-0.6-0.5c-0.3,0-0.5,0.2-0.6,0.5c0,0,0,0.1,0,0.1c0,0.3,0.3,0.6,0.6,0.6c0.2,0,0.5-0.2,0.5-0.4   c0-0.1,0-0.2,0-0.2C79.8,48.4,79.8,48.4,79.8,48.3z"/><circle class="fil1" cx="79.3" cy="46.1" r="0.6"/><circle class="fil1" cx="78.1" cy="47.3" r="0.6"/><circle class="fil1" cx="80.4" cy="47.3" r="0.6"/><circle class="fil1" cx="78.1" cy="44.9" r="0.6"/><circle class="fil1" cx="80.4" cy="44.9" r="0.6"/><circle class="fil1" cx="79.3" cy="50.8" r="0.6"/><circle class="fil1" cx="79.3" cy="53.1" r="0.6"/><circle class="fil1" cx="79.3" cy="55.5" r="0.6"/><circle class="fil1" cx="80.4" cy="52" r="0.6"/><circle class="fil1" cx="80.4" cy="54.3" r="0.6"/><circle class="fil1" cx="78.1" cy="49.6" r="0.6"/><circle class="fil1" cx="80.4" cy="49.6" r="0.6"/><path class="fil1" d="M75.1,48.3c-0.1-0.3-0.3-0.5-0.6-0.5c-0.3,0-0.5,0.2-0.6,0.5c0,0,0,0.1,0,0.1c0,0.3,0.3,0.6,0.6,0.6c0.2,0,0.5-0.2,0.5-0.4   c0-0.1,0-0.2,0-0.2C75.1,48.4,75.1,48.4,75.1,48.3z"/><circle class="fil1" cx="74.6" cy="50.8" r="0.6"/><circle class="fil1" cx="73.4" cy="49.6" r="0.6"/><circle class="fil1" cx="75.7" cy="49.6" r="0.6"/><path class="fil1" d="M69.9,47.9c-0.3,0-0.5,0.2-0.6,0.5c0,0,0,0.1,0,0.1c0,0.3,0.3,0.6,0.6,0.6c0.2,0,0.4-0.2,0.5-0.4c0-0.1,0-0.2,0-0.2   c0,0,0-0.1,0-0.1C70.4,48.1,70.2,47.9,69.9,47.9z"/><path class="fil1" d="M67.5,47.9c-0.3,0-0.5,0.2-0.6,0.5c0,0,0,0.1,0,0.1c0,0.3,0.3,0.6,0.6,0.6c0.2,0,0.5-0.2,0.6-0.4c0-0.1,0-0.2,0-0.2   c0,0,0-0.1,0-0.1C68.1,48.1,67.8,47.9,67.5,47.9z"/><circle class="fil1" cx="69.9" cy="50.8" r="0.6"/><circle class="fil1" cx="67.5" cy="50.8" r="0.6"/><circle class="fil1" cx="68.7" cy="49.6" r="0.6"/><circle class="fil1" cx="71" cy="49.6" r="0.6"/><circle class="fil1" cx="66.3" cy="49.6" r="0.6"/><path class="fil1" d="M76.9,43.2c-0.3,0-0.5,0.2-0.6,0.5c0,0,0,0.1,0,0.1c0,0.3,0.3,0.6,0.6,0.6s0.6-0.3,0.6-0.6c0,0,0-0.1,0-0.1   C77.4,43.4,77.2,43.2,76.9,43.2z"/><path class="fil1" d="M74.6,43.2c-0.3,0-0.5,0.2-0.6,0.5c0,0,0,0.1,0,0.1c0,0.3,0.3,0.6,0.6,0.6s0.6-0.3,0.6-0.6c0,0,0-0.1,0-0.1   C75.1,43.4,74.9,43.2,74.6,43.2z"/><circle class="fil1" cx="76.9" cy="41.4" r="0.6"/><circle class="fil1" cx="74.6" cy="41.4" r="0.6"/><circle class="fil1" cx="73.4" cy="42.6" r="0.6"/><circle class="fil1" cx="75.7" cy="42.6" r="0.6"/><circle class="fil1" cx="73.4" cy="40.2" r="0.6"/><circle class="fil1" cx="75.7" cy="40.2" r="0.6"/><path class="fil1" d="M76.9,49c0.3,0,0.6-0.3,0.6-0.6c0,0,0-0.1,0-0.1c-0.1-0.3-0.3-0.5-0.6-0.5c-0.3,0-0.5,0.2-0.6,0.5c0,0,0,0.1,0,0.1   C76.3,48.8,76.6,49,76.9,49z"/><path class="fil1" d="M77.5,50.7c-0.1-0.3-0.3-0.5-0.6-0.5c-0.3,0-0.5,0.2-0.6,0.5c0,0,0,0.1,0,0.1c0,0.3,0.3,0.6,0.6,0.6s0.6-0.3,0.6-0.6   C77.5,50.8,77.5,50.7,77.5,50.7z"/><circle class="fil1" cx="76.9" cy="46.1" r="0.6"/><circle class="fil1" cx="74.6" cy="46.1" r="0.6"/><circle class="fil1" cx="75.7" cy="47.3" r="0.6"/><circle class="fil1" cx="73.4" cy="47.3" r="0.6"/><path class="fil1" d="M71.6,48.4c0,0.3,0.3,0.6,0.6,0.6c0.3,0,0.6-0.3,0.6-0.6c0,0,0-0.1,0-0.1c-0.1-0.3-0.3-0.5-0.6-0.5c-0.3,0-0.5,0.2-0.6,0.5   C71.6,48.4,71.6,48.4,71.6,48.4z"/><path class="fil1" d="M72.8,50.7c-0.1-0.3-0.3-0.5-0.6-0.5c-0.3,0-0.5,0.2-0.6,0.5c0,0,0,0.1,0,0.1c0,0.3,0.3,0.6,0.6,0.6c0.3,0,0.6-0.3,0.6-0.6   C72.8,50.8,72.8,50.7,72.8,50.7z"/><circle class="fil1" cx="78.1" cy="52" r="0.6"/><circle class="fil1" cx="74.6" cy="53.1" r="0.6"/><circle class="fil1" cx="73.4" cy="52" r="0.6"/><circle class="fil1" cx="75.7" cy="52" r="0.6"/><circle class="fil1" cx="71" cy="52" r="0.6"/><path class="fil1" d="M76.9,53.7c0.3,0,0.6-0.3,0.6-0.6c0,0,0-0.1,0-0.1c-0.1-0.3-0.3-0.5-0.6-0.5c-0.3,0-0.5,0.2-0.6,0.5c0,0,0,0.1,0,0.1   C76.3,53.5,76.6,53.7,76.9,53.7z"/><path class="fil1" d="M72.2,53.7c0.3,0,0.6-0.3,0.6-0.6c0,0,0-0.1,0-0.1c-0.1-0.3-0.3-0.5-0.6-0.5c-0.3,0-0.5,0.2-0.6,0.5c0,0,0,0.1,0,0.1   C71.6,53.5,71.9,53.7,72.2,53.7z"/><circle class="fil1" cx="78.1" cy="54.3" r="0.6"/><circle class="fil1" cx="74.6" cy="55.5" r="0.6"/><circle class="fil1" cx="73.4" cy="54.3" r="0.6"/><circle class="fil1" cx="75.7" cy="54.3" r="0.6"/><circle class="fil1" cx="69.9" cy="55.5" r="0.6"/><circle class="fil1" cx="67.5" cy="55.5" r="0.6"/><circle class="fil1" cx="68.7" cy="54.3" r="0.6"/><circle class="fil1" cx="66.3" cy="54.3" r="0.6"/><path class="fil1" d="M72.8,55.4c-0.1-0.3-0.3-0.5-0.6-0.5c-0.3,0-0.5,0.2-0.6,0.5c0,0,0,0.1,0,0.1c0,0.3,0.3,0.6,0.6,0.6c0.3,0,0.6-0.3,0.6-0.6   C72.8,55.5,72.8,55.4,72.8,55.4z"/><circle class="fil1" cx="72.2" cy="46.1" r="0.6"/><circle class="fil1" cx="71" cy="47.3" r="0.6"/><circle class="fil1" cx="68.7" cy="47.3" r="0.6"/><circle class="fil1" cx="66.3" cy="47.3" r="0.6"/><circle class="fil1" cx="73.4" cy="44.9" r="0.6"/><circle class="fil1" cx="75.7" cy="44.9" r="0.6"/><path class="fil1" d="M69.9,43.2c-0.3,0-0.5,0.2-0.6,0.5c0,0,0,0.1,0,0.1c0,0.3,0.3,0.6,0.6,0.6c0.2,0,0.4-0.2,0.5-0.4c0-0.1,0-0.2,0-0.2   c0,0,0-0.1,0-0.1C70.4,43.4,70.2,43.2,69.9,43.2z"/><circle class="fil1" cx="69.9" cy="41.4" r="0.6"/><circle class="fil1" cx="68.7" cy="42.6" r="0.6"/><circle class="fil1" cx="71" cy="42.6" r="0.6"/><circle class="fil1" cx="68.7" cy="40.2" r="0.6"/><circle class="fil1" cx="71" cy="40.2" r="0.6"/><circle class="fil1" cx="69.9" cy="46.1" r="0.6"/><circle class="fil1" cx="68.7" cy="44.9" r="0.6"/><circle class="fil1" cx="66.3" cy="44.9" r="0.6"/><circle class="fil1" cx="71" cy="44.9" r="0.6"/><path class="fil1" d="M66.9,43.8c0,0.3,0.3,0.6,0.6,0.6s0.6-0.3,0.6-0.6c0,0,0-0.1,0-0.1c-0.1-0.3-0.3-0.5-0.6-0.5c-0.3,0-0.5,0.2-0.6,0.5   C66.9,43.7,66.9,43.7,66.9,43.8z"/><circle class="fil1" cx="67.5" cy="41.4" r="0.6"/><circle class="fil1" cx="66.3" cy="42.6" r="0.6"/><circle class="fil1" cx="66.3" cy="40.2" r="0.6"/><circle class="fil1" cx="67.5" cy="46.1" r="0.6"/><circle class="fil1" cx="98.1" cy="53.1" r="0.6"/><circle class="fil1" cx="95.7" cy="53.1" r="0.6"/><circle class="fil1" cx="93.4" cy="53.1" r="0.6"/><circle class="fil1" cx="91" cy="53.1" r="0.6"/><circle class="fil1" cx="91" cy="60.2" r="0.6"/><circle class="fil1" cx="91" cy="57.8" r="0.6"/><circle class="fil1" cx="91" cy="55.5" r="0.6"/><circle class="fil1" cx="91" cy="50.8" r="0.6"/><circle class="fil1" cx="91" cy="48.4" r="0.6"/><circle class="fil1" cx="91" cy="46.1" r="0.6"/><circle class="fil1" cx="91" cy="43.8" r="0.6"/><circle class="fil1" cx="91" cy="41.4" r="0.6"/><path class="fil1" d="M81.6,43.2c-0.3,0-0.5,0.2-0.6,0.5c0,0,0,0.1,0,0.1c0,0.3,0.3,0.6,0.6,0.6s0.6-0.3,0.6-0.6c0,0,0-0.1,0-0.1   C82.1,43.4,81.9,43.2,81.6,43.2z"/><circle class="fil1" cx="81.6" cy="41.4" r="0.6"/><path class="fil1" d="M72.2,43.2c-0.3,0-0.5,0.2-0.6,0.5c0,0,0,0.1,0,0.1c0,0.3,0.3,0.6,0.6,0.6s0.6-0.3,0.6-0.6c0,0,0-0.1,0-0.1   C72.7,43.4,72.5,43.2,72.2,43.2z"/><circle class="fil1" cx="72.2" cy="41.4" r="0.6"/><path class="fil1" d="M82.2,48.3c-0.1-0.3-0.3-0.5-0.6-0.5s-0.5,0.2-0.6,0.5c0,0,0,0.1,0,0.1c0,0.3,0.3,0.6,0.6,0.6s0.6-0.3,0.6-0.6   C82.2,48.4,82.2,48.4,82.2,48.3z"/><circle class="fil1" cx="81.6" cy="46.1" r="0.6"/><circle class="fil1" cx="81.6" cy="50.8" r="0.6"/><circle class="fil1" cx="81.6" cy="55.5" r="0.6"/><circle class="fil1" cx="81.6" cy="53.1" r="0.6"/><circle class="fil1" cx="88.7" cy="53.1" r="0.6"/><circle class="fil1" cx="86.3" cy="53.1" r="0.6"/><circle class="fil1" cx="84" cy="53.1" r="0.6"/><circle class="fil1" cx="88.7" cy="62.5" r="0.6"/><circle class="fil1" cx="96.9" cy="61.4" r="0.6"/><circle class="fil1" cx="95.7" cy="60.2" r="0.6"/><circle class="fil1" cx="98.1" cy="64.9" r="0.6"/><circle class="fil1" cx="98.1" cy="62.5" r="0.6"/><circle class="fil1" cx="98.1" cy="60.2" r="0.6"/><circle class="fil1" cx="79.3" cy="60.2" r="0.6"/><circle class="fil1" cx="79.3" cy="57.8" r="0.6"/><circle class="fil1" cx="78.1" cy="61.4" r="0.6"/><circle class="fil1" cx="78.1" cy="59" r="0.6"/><circle class="fil1" cx="78.1" cy="66.1" r="0.6"/><circle class="fil1" cx="78.1" cy="63.7" r="0.6"/><circle class="fil1" cx="80.4" cy="59" r="0.6"/><path class="fil1" d="M98.1,66.7c-0.3,0-0.6,0.3-0.6,0.6s0.3,0.6,0.6,0.6c0.2,0,0.5-0.2,0.6-0.4c0-0.1,0-0.2,0-0.2   C98.6,66.9,98.4,66.7,98.1,66.7z"/><circle class="fil1" cx="96.9" cy="66.1" r="0.6"/><circle class="fil1" cx="76.9" cy="60.2" r="0.6"/><circle class="fil1" cx="76.9" cy="57.8" r="0.6"/><circle class="fil1" cx="75.7" cy="61.4" r="0.6"/><circle class="fil1" cx="75.7" cy="59" r="0.6"/><circle class="fil1" cx="76.9" cy="67.2" r="0.6"/><circle class="fil1" cx="76.9" cy="64.9" r="0.6"/><circle class="fil1" cx="75.7" cy="66.1" r="0.6"/><circle class="fil1" cx="74.6" cy="57.8" r="0.6"/><circle class="fil1" cx="72.2" cy="60.2" r="0.6"/><circle class="fil1" cx="72.2" cy="67.2" r="0.6"/><circle class="fil1" cx="72.2" cy="64.9" r="0.6"/><circle class="fil1" cx="73.4" cy="66.1" r="0.6"/><circle class="fil1" cx="73.4" cy="63.7" r="0.6"/><circle class="fil1" cx="72.2" cy="62.5" r="0.6"/><circle class="fil1" cx="74.6" cy="60.2" r="0.6"/><circle class="fil1" cx="74.6" cy="67.2" r="0.6"/><circle class="fil1" cx="74.6" cy="64.9" r="0.6"/><circle class="fil1" cx="71" cy="61.4" r="0.6"/><circle class="fil1" cx="71" cy="59" r="0.6"/><circle class="fil1" cx="71" cy="66.1" r="0.6"/><circle class="fil1" cx="71" cy="63.7" r="0.6"/><circle class="fil1" cx="69.9" cy="57.8" r="0.6"/><circle class="fil1" cx="67.5" cy="60.2" r="0.6"/><circle class="fil1" cx="67.5" cy="57.8" r="0.6"/><circle class="fil1" cx="67.5" cy="67.2" r="0.6"/><circle class="fil1" cx="67.5" cy="64.9" r="0.6"/><circle class="fil1" cx="68.7" cy="61.4" r="0.6"/><circle class="fil1" cx="68.7" cy="59" r="0.6"/><circle class="fil1" cx="68.7" cy="66.1" r="0.6"/><circle class="fil1" cx="68.7" cy="63.7" r="0.6"/><circle class="fil1" cx="67.5" cy="62.5" r="0.6"/><circle class="fil1" cx="69.9" cy="60.2" r="0.6"/><circle class="fil1" cx="69.9" cy="67.2" r="0.6"/><circle class="fil1" cx="69.9" cy="64.9" r="0.6"/><circle class="fil1" cx="69.9" cy="62.5" r="0.6"/><circle class="fil1" cx="66.3" cy="61.4" r="0.6"/><circle class="fil1" cx="66.3" cy="59" r="0.6"/><circle class="fil1" cx="66.3" cy="66.1" r="0.6"/><circle class="fil1" cx="66.3" cy="63.7" r="0.6"/><circle class="fil1" cx="98.1" cy="43.8" r="0.6"/><circle class="fil1" cx="95.7" cy="43.8" r="0.6"/><circle class="fil1" cx="93.4" cy="43.8" r="0.6"/></g></svg>