<svg xmlns="http://www.w3.org/2000/svg" xmlns:xlink="http://www.w3.org/1999/xlink" xml:space="preserve" version="1.1" style="shape-rendering:geometricPrecision;text-rendering:geometricPrecision;image-rendering:optimizeQuality;" viewBox="0 0 847 1058.75" x="0px" y="0px" fill-rule="evenodd" clip-rule="evenodd"><g><path stroke="#DAA520" fill="#DAA520" d="M423 591l-194 194c-109,109 -276,-58 -167,-168l194 -194 -194 -194c-109,-109 58,-276 167,-167l194 194 194 -194c110,-109 277,58 168,167l-194 194 194 194c109,110 -58,277 -168,168l-194 -194zm0 -38l-213 213c-84,84 -214,-45 -129,-130l213 -213 -213 -213c-85,-84 45,-214 129,-129l213 213 213 -213c85,-85 214,45 130,129l-213 213 213 213c84,85 -45,214 -130,130l-213 -213z"/></g></svg>