<svg id="Capa_1" enable-background="new 0 0 512 512" height="512" viewBox="0 0 512 512" width="512" xmlns="http://www.w3.org/2000/svg"><g><g><path d="m386.617 425.074v-411.845c0-7.306-5.923-13.229-13.229-13.229h-308.043c-7.306 0-13.229 5.923-13.229 13.229v485.541c0 7.306 5.923 13.229 13.229 13.229h234.346c5.929 0 11.615-2.355 15.808-6.548l64.571-64.571c4.192-4.191 6.547-9.877 6.547-15.806z" fill="#ecf4ff"/></g><g><path d="m373.388 0h-11.667v400.178c0 5.929-2.355 11.615-6.548 15.808l-64.571 64.571c-4.192 4.192-9.879 6.548-15.808 6.548h-222.678v11.666c0 7.306 5.923 13.229 13.229 13.229h234.346c5.929 0 11.615-2.355 15.808-6.548l64.571-64.571c4.192-4.192 6.548-9.879 6.548-15.808v-411.844c-.001-7.306-5.924-13.229-13.23-13.229z" fill="#ddeafb"/></g><g fill="#dd636e"><path d="m235.073 69.032c-.026-.07-.054-.138-.082-.207-1.42-3.455-4.75-5.686-8.484-5.686-.003 0-.006 0-.009 0-3.738.004-7.068 2.242-8.483 5.701-.023.058-.046.115-.068.173l-25.536 67.048c-1.5 3.938.477 8.348 4.416 9.849 3.941 1.502 8.349-.476 9.849-4.416l4.487-11.783h30.492l4.439 11.762c1.154 3.056 4.058 4.939 7.142 4.939.895 0 1.806-.159 2.693-.494 3.944-1.488 5.934-5.891 4.446-9.836zm-18.095 45.415 9.502-24.949 9.415 24.949z"/><path d="m180.684 62.843c-4.003-1.33-8.32.836-9.649 4.837l-16.541 49.792-17.361-50.013c-1.383-3.983-5.732-6.094-9.713-4.708-3.982 1.382-6.089 5.73-4.708 9.712l23.269 67.036c1.298 3.655 4.764 6.1 8.639 6.1.021 0 .041 0 .062-.001 3.899-.026 7.363-2.524 8.635-6.267l22.204-66.839c1.329-4-.837-8.32-4.837-9.649z"/><path d="m308.951 62.328h-37.557c-4.215 0-7.632 3.417-7.632 7.632 0 4.216 3.417 7.632 7.632 7.632h11.07v60.373c0 4.216 3.417 7.632 7.632 7.632s7.632-3.417 7.632-7.632v-60.372h11.222c4.215 0 7.632-3.417 7.632-7.632.002-4.216-3.416-7.633-7.631-7.633z"/></g><g><path d="m326.584 185.256h-211.082c-16.553 0-30.021-13.467-30.021-30.021v-101.907c0-16.554 13.467-30.021 30.021-30.021h211.082c16.553 0 30.021 13.467 30.021 30.021v101.907c0 16.554-13.468 30.021-30.021 30.021zm-211.082-146.684c-8.136 0-14.756 6.62-14.756 14.756v101.907c0 8.136 6.62 14.756 14.756 14.756h211.082c8.136 0 14.756-6.62 14.756-14.756v-101.907c0-8.136-6.62-14.756-14.756-14.756z" fill="#dd636e"/></g><g><g><path d="m219.366 240.262h-126.252c-4.215 0-7.632-3.417-7.632-7.632s3.417-7.632 7.632-7.632h126.253c4.215 0 7.632 3.417 7.632 7.632s-3.417 7.632-7.633 7.632z" fill="#cbe2ff"/></g><g><path d="m119.888 274.804h-26.774c-4.215 0-7.632-3.417-7.632-7.632s3.417-7.632 7.632-7.632h26.774c4.215 0 7.632 3.417 7.632 7.632s-3.417 7.632-7.632 7.632z" fill="#cbe2ff"/></g><g><path d="m216.35 309.344h-123.236c-4.215 0-7.632-3.417-7.632-7.632s3.417-7.632 7.632-7.632h123.236c4.215 0 7.632 3.417 7.632 7.632s-3.417 7.632-7.632 7.632z" fill="#cbe2ff"/></g><g><path d="m119.888 343.886h-26.774c-4.215 0-7.632-3.417-7.632-7.632s3.417-7.632 7.632-7.632h26.774c4.215 0 7.632 3.417 7.632 7.632s-3.417 7.632-7.632 7.632z" fill="#cbe2ff"/></g><g><path d="m216.35 378.426h-123.236c-4.215 0-7.632-3.417-7.632-7.632s3.417-7.632 7.632-7.632h123.236c4.215 0 7.632 3.417 7.632 7.632s-3.417 7.632-7.632 7.632z" fill="#cbe2ff"/></g><g><path d="m119.888 412.968h-26.774c-4.215 0-7.632-3.417-7.632-7.632 0-4.216 3.417-7.632 7.632-7.632h26.774c4.215 0 7.632 3.417 7.632 7.632s-3.417 7.632-7.632 7.632z" fill="#cbe2ff"/></g><g><path d="m219.366 447.508h-126.252c-4.215 0-7.632-3.417-7.632-7.632s3.417-7.632 7.632-7.632h126.253c4.215 0 7.632 3.417 7.632 7.632s-3.417 7.632-7.633 7.632z" fill="#cbe2ff"/></g></g><path d="m315.499 505.452 64.571-64.571c3.436-3.436 5.612-7.881 6.295-12.636h-73.325c-5.62 0-10.177 4.556-10.177 10.177v73.325c4.754-.683 9.2-2.859 12.636-6.295z" fill="#ddeafb"/><path d="m350.71 428.246-47.847 47.847v35.655c4.754-.683 9.199-2.859 12.636-6.295l64.571-64.571c3.436-3.436 5.612-7.881 6.295-12.636z" fill="#cbe2ff"/><g><circle cx="351.259" cy="276.107" fill="#057096" r="108.626"/></g><g><path d="m410.961 185.354c11.293 17.132 17.872 37.647 17.872 59.702 0 59.992-48.633 108.626-108.626 108.626-22.055 0-42.569-6.579-59.702-17.872 19.427 29.471 52.815 48.924 90.753 48.924 59.992 0 108.626-48.633 108.626-108.626 0-37.938-19.453-71.327-48.923-90.754z" fill="#055e7f"/></g><g><g><path d="m326.298 339.971c-.984 0-1.985-.192-2.95-.596-3.887-1.632-5.715-6.105-4.084-9.992l45.526-108.479c1.631-3.886 6.103-5.714 9.991-4.085 3.887 1.632 5.715 6.105 4.084 9.992l-45.526 108.479c-1.226 2.922-4.059 4.681-7.041 4.681z" fill="#ecf4ff"/></g><g><path d="m317.586 273.185c-15.301 0-27.748-13.91-27.748-31.008s12.448-31.009 27.748-31.009c15.301 0 27.748 13.91 27.748 31.009 0 17.098-12.448 31.008-27.748 31.008zm0-46.752c-6.884 0-12.484 7.063-12.484 15.744s5.6 15.743 12.484 15.743 12.484-7.062 12.484-15.743-5.601-15.744-12.484-15.744z" fill="#ecf4ff"/></g><g><path d="m379.071 347.354c-15.301 0-27.748-13.91-27.748-31.008s12.448-31.009 27.748-31.009c15.301 0 27.748 13.91 27.748 31.009.001 17.098-12.447 31.008-27.748 31.008zm0-46.751c-6.884 0-12.484 7.063-12.484 15.744s5.6 15.743 12.484 15.743 12.484-7.062 12.484-15.743-5.6-15.744-12.484-15.744z" fill="#ecf4ff"/></g></g></g></svg>