<svg xmlns="http://www.w3.org/2000/svg" xmlns:xlink="http://www.w3.org/1999/xlink" ><defs><path id="a" d="M31 202.659h449.999V309.34H31z"/></defs><clipPath id="b"><use xlink:href="#a" overflow="visible"/></clipPath><path d="M85.306 245.388c.205.784.309 1.77.309 2.951v13.854l-20.398.021c-3.168 0-5.517-.276-7.043-1.802-1.214 5.282-6.77 8.804-13.147 8.804-7.827 0-14.011-5.751-14.011-13.343v-4.697h5.478v4.189c0 5.243 3.094 8.765 8.649 8.765 4.225 0 8.257-2.66 8.257-6.301 0-2.076-1.761-3.444-3.637-3.444-.315 0-.626.039-.941.119v-4.774c0-.039.784-.039 2.387-.039 3.952 0 6.888 1.799 8.765 5.401.938 1.799 2.31 2.384 4.659 2.384l15.772.012v-8.723c0-1.413-.282-2.637-.849-3.667l4.748-1.853a6.53 6.53 0 011.002 2.143m-4.671 24.255h4.706v-4.362h-4.706v4.362zm16.197-26.28c-1.98 0-3.845.282-5.594.846l1.235 4.593c1.44-.463 2.752-.695 3.937-.695 1.853 0 3.221.567 4.109 1.698.888 1.131 1.33 2.88 1.33 5.249v2.432H89.347v4.706h17.714v-7.64c0-3.604-.882-6.369-2.642-8.299-1.765-1.928-4.291-2.89-7.587-2.89m30.808-7.141h-4.593v4.284h4.593v-4.284zm6.674 0h-4.555v4.284h4.555v-4.284zm42.215 33.383h4.555v-4.284h-4.555v4.284zm-6.713 0h4.593v-4.284h-4.593v4.284zm-38.397-7.411c-3.756 0-6.63-.855-8.625-2.565-1.992-1.71-2.99-4.175-2.99-7.39 0-2.729.799-4.887 2.393-6.485 1.594-1.594 3.768-2.39 6.523-2.39 2.907 0 5.068.745 6.482 2.236 1.416 1.493 2.123 3.744 2.123 6.755v5.134h38.51v-8.723c0-1.413-.282-2.637-.849-3.667l4.748-1.853a6.49 6.49 0 011.004 2.144c.205.784.309 1.77.309 2.951v13.854h-49.628zm.695-8.875c0-1.571-.11-2.741-.327-3.513-.217-.772-.573-1.306-1.06-1.6-.49-.297-1.185-.445-2.087-.445-1.182 0-2.081.386-2.699 1.158-.618.772-.926 1.88-.926 3.32 0 3.501 1.826 5.249 5.481 5.249h1.618v-4.169zm60.348-9.956c-1.98 0-3.848.282-5.594.846l1.232 4.593c1.44-.463 2.752-.695 3.937-.695 1.853 0 3.221.567 4.112 1.698.885 1.131 1.33 2.88 1.33 5.249v2.432h-12.503v4.706h17.714v-7.64c0-3.604-.882-6.369-2.645-8.299-1.761-1.928-4.29-2.89-7.583-2.89m99.131-7.141h-4.555v4.284h4.555v-4.284zm-6.678 0h-4.593v4.284h4.593v-4.284zm54.691 0h-4.555v4.284h4.555v-4.284zm3.088 25.972H207.426V234.64h5.211v22.848h23.878v-13.51h5.211v3.937c.977-1.491 2.185-2.625 3.625-3.397 1.443-.772 3.076-1.155 4.902-1.155 3.115 0 5.481.873 7.102 2.622 1.621 1.752 2.432 4.311 2.432 7.681v3.821h23.566v-13.51h5.211v13.51h39.234c-.799-.618-1.44-1.473-1.93-2.568a8.083 8.083 0 01-.733-3.337c0-1.544.365-2.939 1.099-4.187.736-1.25 1.785-2.233 3.147-2.954 1.363-.719 2.919-1.078 4.67-1.078 5.736 0 8.605 3.023 8.605 9.068 0 1.621.038 9.763.038 9.763m-88.118-7.486c0-2.343-.392-4.074-1.176-5.193-.784-1.119-2.028-1.678-3.726-1.678-2.521 0-4.495.715-5.923 2.144-1.428 1.425-2.141 3.403-2.141 5.923v1.583h12.966v-2.779zm82.872-2.701c0-1.491-.276-2.574-.831-3.242-.552-.668-1.434-1.004-2.643-1.004-1.158 0-2.055.386-2.684 1.158-.629.772-.944 1.88-.944 3.32 0 1.648.436 2.933 1.312 3.86.873.926 2.096 1.39 3.664 1.39h2.126v-5.482zm-4.516-15.785h-4.593v4.284h4.593v-4.284zm14.792 25.972h5.208V234.64h-5.208v27.554zM39.471 277.357h4.89v-4.501h-4.89v4.501zm7.393 0h4.852v-4.501h-4.852v4.501zM31.001 280.899h10.374c4.249 0 7.556 1.149 9.926 3.456 2.372 2.307 3.557 5.724 3.557 10.258 0 2.304-.33 4.326-.992 6.06-.659 1.737-1.612 3.201-2.856 4.391-1.241 1.194-2.758 2.087-4.546 2.681-1.787.597-3.806.894-6.06.894h-9.403v-27.74zm9.519 22.806c1.502 0 2.785-.214 3.848-.641 1.06-.428 1.921-1.042 2.583-1.844.659-.805 1.146-1.755 1.455-2.856.312-1.102.469-2.337.469-3.711 0-1.345-.137-2.571-.41-3.673-.27-1.102-.707-2.025-1.301-2.776-.597-.751-1.366-1.336-2.313-1.749-.944-.416-2.105-.623-3.477-.623H36.79v17.874h3.73zM59.094 280.897h5.79v16.514c0 2.355.413 4.103 1.244 5.243.828 1.14 2.215 1.71 4.157 1.71 1.942 0 3.322-.57 4.139-1.71.813-1.14 1.223-2.889 1.223-5.243v-16.514h5.79v16.514c0 2.099-.261 3.898-.778 5.398-.517 1.505-1.256 2.741-2.215 3.715-.959.968-2.132 1.684-3.516 2.135-1.387.454-2.948.68-4.682.68-1.764 0-3.334-.232-4.721-.698-1.387-.466-2.559-1.185-3.515-2.156-.959-.974-1.687-2.224-2.176-3.75-.493-1.529-.739-3.343-.739-5.44v-16.398zM86.567 280.9h9.985c2.046 0 3.735.193 5.068.582 1.336.386 2.39.918 3.168 1.591.778.674 1.315 1.464 1.612 2.369.297.909.445 1.891.445 2.954a6.934 6.934 0 01-.698 3.07c-.466.959-1.348 1.773-2.642 2.447.831.442 1.508.9 2.04 1.381.532.478.947.989 1.244 1.532.297.546.505 1.105.621 1.672.119.57.175 1.14.175 1.71 0 1.167-.175 2.268-.523 3.302a6.368 6.368 0 01-1.749 2.684c-.816.751-1.885 1.345-3.207 1.784-1.321.442-2.951.662-4.896.662H86.567V280.9zm10.644 10.991c1.529 0 2.577-.282 3.147-.855.57-.567.855-1.384.855-2.447 0-1.137-.368-1.948-1.108-2.426-.736-.481-1.989-.722-3.75-.722H92.16v6.449h5.051zm-.193 12.203c.956 0 1.755-.089 2.39-.273.632-.181 1.143-.445 1.535-.796.389-.35.659-.757.814-1.223a5 5 0 00.235-1.594c0-1.191-.324-2.096-.971-2.72-.647-.621-1.787-.932-3.42-.932h-5.439v7.538h4.856zM119.28 280.897h5.52l10.413 27.744h-6.217l-2.215-6.413h-9.715l-2.212 6.413h-5.986l10.412-27.744zm5.986 16.553l-3.382-9.947-3.34 9.947h6.722zM139.371 280.899h5.79v27.744h-5.79zM159.497 280.897h18.922v4.932h-13.132v6.063h12.357v4.974h-12.357v6.84h13.949l-.582 4.935h-19.157zM206.668 299.042c-.131 1.476-.475 2.844-1.03 4.101a10.047 10.047 0 01-2.292 3.263c-.971.92-2.165 1.639-3.575 2.156-1.413.52-3.049.778-4.914.778-2.099 0-3.946-.35-5.537-1.048-1.594-.701-2.928-1.684-4.005-2.954-1.072-1.268-1.882-2.803-2.426-4.605-.543-1.799-.817-3.786-.817-5.965 0-2.254.297-4.273.894-6.06.594-1.787 1.452-3.314 2.565-4.584a11.08 11.08 0 014.041-2.916c1.58-.674 3.367-1.01 5.362-1.01 1.761 0 3.296.22 4.602.662 1.309.439 2.411 1.075 3.305 1.903a9.496 9.496 0 012.156 2.993c.543 1.164.947 2.473 1.205 3.922l-5.751.739c-.285-1.633-.834-2.913-1.651-3.848-.816-.932-2.105-1.398-3.866-1.398-2.23 0-3.919.837-5.071 2.506-1.155 1.672-1.728 4.035-1.728 7.09 0 3.085.615 5.454 1.844 7.114 1.232 1.657 2.883 2.485 4.955 2.485 1.787 0 3.103-.46 3.943-1.381.843-.917 1.366-2.233 1.574-3.943h6.217zM223.026 309.339c-2.072 0-3.922-.336-5.555-1.01-1.633-.674-3.02-1.645-4.157-2.916-1.143-1.268-2.016-2.797-2.625-4.584-.609-1.787-.911-3.809-.911-6.063 0-2.254.303-4.273.911-6.06.609-1.787 1.491-3.313 2.643-4.584a11.449 11.449 0 014.178-2.913c1.633-.677 3.471-1.012 5.517-1.012 2.073 0 3.925.335 5.555 1.012 1.633.671 3.014 1.645 4.139 2.913 1.128 1.271 1.986 2.797 2.586 4.584.594 1.787.891 3.807.891 6.06 0 2.253-.288 4.276-.873 6.063-.582 1.787-1.437 3.317-2.565 4.584-1.125 1.271-2.506 2.242-4.136 2.916-1.635.674-3.499 1.01-5.598 1.01m-.039-4.973c2.435 0 4.249-.828 5.439-2.485 1.191-1.66 1.787-4.029 1.787-7.114 0-3.055-.597-5.419-1.787-7.087-1.191-1.672-3.005-2.509-5.439-2.509-2.435 0-4.249.837-5.439 2.509-1.191 1.669-1.787 4.032-1.787 7.087 0 3.085.597 5.454 1.787 7.114 1.19 1.656 3.004 2.485 5.439 2.485M240.783 280.897h5.205l11.425 18.183v-18.183h5.636v27.744h-5.17l-11.464-18.028v18.028h-5.632zM280.921 309.339c-2.072 0-3.922-.336-5.555-1.01-1.633-.674-3.02-1.645-4.157-2.916-1.14-1.268-2.016-2.797-2.625-4.584-.609-1.787-.914-3.809-.914-6.063 0-2.254.306-4.273.914-6.06.609-1.787 1.491-3.313 2.643-4.584a11.449 11.449 0 014.178-2.913c1.633-.677 3.471-1.012 5.517-1.012 2.073 0 3.925.335 5.558 1.012 1.63.671 3.011 1.645 4.136 2.913 1.128 1.271 1.989 2.797 2.586 4.584.594 1.787.894 3.807.894 6.06 0 2.253-.294 4.276-.876 6.063-.582 1.787-1.437 3.317-2.565 4.584-1.125 1.271-2.506 2.242-4.136 2.916-1.634.674-3.499 1.01-5.598 1.01m-.039-4.973c2.435 0 4.249-.828 5.439-2.485 1.191-1.66 1.787-4.029 1.787-7.114 0-3.055-.597-5.419-1.787-7.087-1.191-1.672-3.005-2.509-5.439-2.509-2.435 0-4.249.837-5.439 2.509-1.191 1.669-1.787 4.032-1.787 7.087 0 3.085.597 5.454 1.787 7.114 1.19 1.656 3.005 2.485 5.439 2.485M298.756 280.897h6.954l6.918 20.71 7.111-20.71h6.761v27.744h-5.324v-18.498l-6.333 18.498h-4.507l-6.375-18.459v18.459h-5.205zM339.321 297.333l-9.597-16.434h6.449l5.983 11.229 6.179-11.229h6.14l-9.364 16.434v11.306h-5.79z" clip-path="url(#b)"/><path d="M481 202.661v105.978h-60.235c.968-6.241 4.552-22.31 19.397-37.494 13.922-14.24 26.897-20.205 26.942-33.147.057-17.256-21.422-17.256-22.265-23.836-.87-6.835 16.372-6.428 16.577-11.5H481z" clip-path="url(#b)" fill="#008465"/><path d="M447.4 202.661h-72.379v82.07c3.251-4.198 11.79-15.425 30.923-27.18 18.774-11.532 34.513-16.591 34.074-27.037-.35-8.364-12.936-8.599-12.969-15.276-.041-8.856 19.555-8.61 20.351-12.577" clip-path="url(#b)" fill="#b7242a"/></svg>