<svg xmlns="http://www.w3.org/2000/svg" viewBox="0 0 184.74 85.7"><path d="M53.6 78.33a3.69 3.69 0 00-1.2-.85 4.09 4.09 0 00-1.59-.3 4.3 4.3 0 00-1.63.31 3.83 3.83 0 00-1.28.89 3.93 3.93 0 00-.83 1.37 5.21 5.21 0 00-.3 1.76 5.7 5.7 0 00.24 1.64 3.89 3.89 0 00.76 1.33 3.49 3.49 0 001.21.89 4 4 0 001.67.32 4.27 4.27 0 001.56-.28 3.53 3.53 0 001.26-.84 3.81 3.81 0 00.86-1.36 5.22 5.22 0 00.29-1.88 5.35 5.35 0 00-.26-1.69 3.91 3.91 0 00-.76-1.31zm-.24 4.59a2.94 2.94 0 01-.63 1 2.82 2.82 0 01-.92.64 3 3 0 01-1.13.21 2.89 2.89 0 01-1.22-.24 2.46 2.46 0 01-.89-.67 3 3 0 01-.56-1.07 4.67 4.67 0 01-.19-1.41 3.92 3.92 0 01.23-1.42 3.13 3.13 0 01.63-1.07 2.67 2.67 0 01.91-.65 2.85 2.85 0 011.18-.19 3 3 0 011.18.22 2.34 2.34 0 01.89.63 2.8 2.8 0 01.59 1.06 5 5 0 01.2 1.48 4.37 4.37 0 01-.27 1.47zm95.46 1.07c-.3-.47-.62-1-1-1.47l-.15.1.15-.1a3.75 3.75 0 00-.53-.63l-.11-.09a2.75 2.75 0 00.49-.14 2.86 2.86 0 00.84-.47 2.22 2.22 0 00.59-.74 2.12 2.12 0 00.22-1 2.14 2.14 0 00-.54-1.48 2.21 2.21 0 00-1.54-.65H144.5v8.28h1v-3.67h.3a4 4 0 011.6 1.57c.21.32.4.66.59 1s.38.68.58 1l.06.09h1.2l-.18-.27c-.26-.43-.54-.87-.83-1.34zm-2.43-2.92H145.47v-2.9h1a2.34 2.34 0 011.39.35 1.24 1.24 0 01.47 1.07 1.3 1.3 0 01-.51 1.1 2.2 2.2 0 01-1.43.37zM45.77 84.38a4.19 4.19 0 01-.89.31 5 5 0 01-1 .12 3.47 3.47 0 01-1.24-.21 2.49 2.49 0 01-.93-.6 2.67 2.67 0 01-.6-1 4.27 4.27 0 01-.22-1.46 4.58 4.58 0 01.2-1.43 3.07 3.07 0 01.58-1.09 2.9 2.9 0 01.93-.69 3.33 3.33 0 011.31-.25 5.19 5.19 0 011 .1 4.86 4.86 0 01.87.25l.22.09.14-1-.16-.05a8.59 8.59 0 00-.89-.19 5.17 5.17 0 00-1.06-.09 4.9 4.9 0 00-1.77.31 3.47 3.47 0 00-1.3.91 3.57 3.57 0 00-.81 1.39 5.67 5.67 0 00-.27 1.8 5.35 5.35 0 00.2 1.73 3.6 3.6 0 00.76 1.3 3.41 3.41 0 001.23.82 4.39 4.39 0 001.63.29 5.75 5.75 0 001.31-.13 9.45 9.45 0 001-.3l.14-.06-.15-.94zm27-7.05l-.05.12-2.49 6.18a4.24 4.24 0 00-.18.5v-.05c-.07-.19-.13-.36-.19-.49l-2.57-6.26h-1l-.68 8.29h1l.37-5.73c0-.2 0-.4.06-.59 0 .08.07.16.11.25l2.47 6.07h.81l2.53-6.29v-.11c0 .21 0 .43.07.69l.46 5.67h1l-.64-8.25zm-10.1 0v.12l-2.49 6.18c-.07.16-.13.33-.19.5s0 0 0-.05c-.06-.19-.13-.36-.18-.49l-2.61-6.26h-1.05l-.67 8.29h1l.36-5.73c0-.2.06-.4.07-.59 0 .08.07.16.11.25l2.47 6.07h.8l2.56-6.29a.54.54 0 000-.11c0 .21 0 .43.08.69l.46 5.67h1l-.62-8.25zm51.2-5.59h3.45l.84 2.31h1.12l-3.2-8.28h-.9l-3.23 8.28h1.07zm1.61-4.26l.12-.29.13.3 1.27 3.39h-2.8zm37.77-1.71h-6v.87h2.52v7.41h1V66.6h2.48zM125.61 81.8h3.09v-.87h-3.09v-2.78h3.28v-.82h-4.26v8.29h4.34v-.88h-3.36zm21.73-8.65h-3.22v-7.42h-1v8.28h4.21zm7.71-7.42h-1v8.28h1zm-3.29 19v-2.9h3.09v-.9h-3.08v-2.78h3.28v-.82h-4.28v8.29h4.34v-.88zm-30.88-19h-1v8.28h1zm15 7.5a2.24 2.24 0 00.95.67 3.91 3.91 0 001.45.23 3.19 3.19 0 002.41-.86 3.56 3.56 0 00.8-2.53v-5h-1v5.11a2.63 2.63 0 01-.54 1.86 2.14 2.14 0 01-1.62.56 2.61 2.61 0 01-1.08-.19 1.5 1.5 0 01-.65-.49 1.85 1.85 0 01-.33-.74 4.67 4.67 0 01-.1-.94v-5.18h-1v5.25a5 5 0 00.14 1.25 2.38 2.38 0 00.58 1zm1.89 4.94h2.48v7.41h1v-7.41h2.52v-.84h-6zm-33.3 3.63h3.09v-.87h-3.09v-2.78h3.3v-.82h-4.26v8.29h4.34v-.88h-3.38zm-3.63 3.78h1v-8.25h-1zm35.13-3.74V83.87l-.1-.15-.52-.74c-.22-.3-.5-.71-.85-1.2l-1.27-1.82c-.52-.71-1.12-1.58-1.83-2.59v-.08h-1v8.29h1v-2.65V81v-1.5-.55c.68 1 1.38 2 2.09 3 .85 1.17 1.68 2.34 2.51 3.53v.08h1v-8.23h-1zm-34.12-7.71a3.19 3.19 0 002.41-.86 3.56 3.56 0 00.81-2.53v-5h-1v5.11a2.63 2.63 0 01-.54 1.86 2.11 2.11 0 01-1.62.56 2.68 2.68 0 01-1.08-.19 1.46 1.46 0 01-.64-.49 1.85 1.85 0 01-.33-.74 4 4 0 01-.1-.94v-5.18h-1v5.25a5.5 5.5 0 00.14 1.25 2.38 2.38 0 001.46 1.67 4 4 0 001.46.23zm30.49-6.48c0 .21 0 .45.07.7l.47 5.66h1l-.71-8.28h-1.06l-2.54 6.3a4.09 4.09 0 00-.18.49c-.07-.18-.13-.35-.19-.49l-2.53-6.28h-1l-.67 8.28h1l.39-5.72v-.59l.11.24 2.47 6.07h.8l2.53-6.25a1.17 1.17 0 00.04-.13zm-21.16 5.55a2 2 0 00.49-.8 3.06 3.06 0 00.13-.84 2 2 0 00-.51-1.4 2 2 0 00-.91-.56 2.29 2.29 0 00.64-.52 2 2 0 00.45-1.34 1.81 1.81 0 00-.63-1.47 2.78 2.78 0 00-1.87-.55h-2.29V74h2.15a4 4 0 001.44-.23 2.49 2.49 0 00.91-.57zm-3.5-6.61h1.09a1.87 1.87 0 011.3.35 1.21 1.21 0 01.36.91 1.28 1.28 0 01-.5 1.07 2.58 2.58 0 01-1.51.38h-.78zm1.15 6.56h-1.15v-3h.8a5.53 5.53 0 01.94.07 2.6 2.6 0 01.73.25 1.24 1.24 0 01.47.44 1.21 1.21 0 01.17.67 1.87 1.87 0 01-.11.64 1.25 1.25 0 01-.34.47 1.45 1.45 0 01-.59.33 3.07 3.07 0 01-.92.13zm14.24 11.23a4.09 4.09 0 01-.88.31 5.12 5.12 0 01-1 .12 3.49 3.49 0 01-1.25-.21 2.66 2.66 0 01-.93-.6 3 3 0 01-.61-1 4.55 4.55 0 01-.21-1.46 4.89 4.89 0 01.2-1.43 3.09 3.09 0 01.59-1.09 2.79 2.79 0 01.93-.69 3.24 3.24 0 011.3-.25 5.11 5.11 0 011 .1 4.63 4.63 0 01.87.25l.23.09.13-1-.15-.05c-.27-.07-.57-.14-.89-.19a5.27 5.27 0 00-1.07-.09 4.94 4.94 0 00-1.77.31 3.55 3.55 0 00-1.3.91 3.7 3.7 0 00-.81 1.39 5.67 5.67 0 00-.27 1.8 5.35 5.35 0 00.26 1.69 3.75 3.75 0 00.76 1.3 3.49 3.49 0 001.23.82 4.44 4.44 0 001.64.29 5.66 5.66 0 001.3-.13 9.45 9.45 0 001-.3l.15-.06-.15-.94zm-29-6.21h2.49v7.41h1v-7.41h2.48v-.84h-6zm-7.3-.84h-2.34v8.29h2.07a5.6 5.6 0 001.94-.31 4.33 4.33 0 001.47-.88 3.73 3.73 0 00.92-1.35 4.44 4.44 0 00.32-1.7 3.85 3.85 0 00-1.22-3.05 4.71 4.71 0 00-3.16-1zM90.05 83l-.17-.06a2.82 2.82 0 01-.73 1 3 3 0 01-1.14.59 4.9 4.9 0 01-1.48.21h-1.16v-6.59h1.26a3.67 3.67 0 012.61.81 3.23 3.23 0 01.84 2.41 4.24 4.24 0 01-.25 1.52zm-7.81-4.67a3.62 3.62 0 00-1.21-.85 4 4 0 00-1.58-.3 4.3 4.3 0 00-1.63.31 3.83 3.83 0 00-1.28.89 3.79 3.79 0 00-.83 1.37 5 5 0 00-.29 1.77 5.37 5.37 0 00.24 1.64 3.58 3.58 0 00.73 1.33 3.4 3.4 0 001.21.89 4 4 0 001.67.32 4.22 4.22 0 001.55-.28 3.7 3.7 0 001.28-.84 4.06 4.06 0 00.84-1.36 5.22 5.22 0 00.31-1.88 5.35 5.35 0 00-.25-1.69 3.91 3.91 0 00-.76-1.32zM82 82.92a3.09 3.09 0 01-.63 1 2.82 2.82 0 01-.92.64 3 3 0 01-1.13.21 2.85 2.85 0 01-1.22-.24 2.46 2.46 0 01-.89-.67 3 3 0 01-.56-1.07 4.67 4.67 0 01-.19-1.41 4.15 4.15 0 01.23-1.42 3.11 3.11 0 01.62-1.07 2.67 2.67 0 01.91-.65 2.89 2.89 0 011.13-.23 3 3 0 011.18.22 2.41 2.41 0 01.91.63 3.25 3.25 0 01.57 1.06 5.17 5.17 0 010 3zm31-1a4 4 0 00-.74-.49l-.83-.43-.65-.36a2.64 2.64 0 01-.49-.34 1.24 1.24 0 01-.3-.39 1.06 1.06 0 01-.11-.5 1.16 1.16 0 01.41-.93 1.86 1.86 0 011.29-.38 3.5 3.5 0 01.74.08 3 3 0 01.64.19l.22.09v-.23-.32V77.48h-.16c-.18 0-.42-.09-.69-.13a4.62 4.62 0 00-.82-.07 3.51 3.51 0 00-1.17.18 2.75 2.75 0 00-.86.48 2.17 2.17 0 00-.53.72 2.11 2.11 0 00-.18.86 1.74 1.74 0 00.19.84 2 2 0 00.52.63 4.09 4.09 0 00.72.48l.84.45.7.37a2.29 2.29 0 01.48.35 1 1 0 01.28.39 1.31 1.31 0 01.09.52 1.16 1.16 0 01-.48 1 2.33 2.33 0 01-1.4.37 3.26 3.26 0 01-.79-.11 4.77 4.77 0 01-.82-.31l-.26-.13V84.95a1.66 1.66 0 000 .32v.06l.12.05a3.22 3.22 0 00.84.25 4.63 4.63 0 001 .1 3.83 3.83 0 001.22-.17 2.67 2.67 0 00.93-.5 2 2 0 00.57-.75 2.16 2.16 0 00.25-.98 1.67 1.67 0 00-.21-.85 2 2 0 00-.55-.61zm-20-7.84a5.85 5.85 0 001.94-.31 4.44 4.44 0 001.48-.88 4.1 4.1 0 00.92-1.35 4.51 4.51 0 00.31-1.7 3.81 3.81 0 00-1.16-3.07 4.73 4.73 0 00-3.21-1h-2.35v8.28H93zm-.61-.7v-.18h-.47v-6.61h1.27a3.63 3.63 0 012.6.82 3.18 3.18 0 01.85 2.41 4 4 0 01-.26 1.51 2.74 2.74 0 01-.74 1 3 3 0 01-1.12.59 5 5 0 01-1.49.2h-.64zm-.12 12.25h1v-8.3h-1zM171.85 3.82l.16.15.18-.11a9.14 9.14 0 014.58-1.36 7.56 7.56 0 012.12.26 3.9 3.9 0 012.47 1.68v.07a3.86 3.86 0 01.2 3 7.61 7.61 0 01-.86 2c-2.43 4.05-8.29 5.41-13.32 5.09h-.21l-.06.19c-.1.28-.18.56-.25.83s-.08.27-.11.39l-.07.31h.31c5.52.49 11.86-.89 15.54-5.42a10.43 10.43 0 002-3.63 5.37 5.37 0 00-.5-4.24 5.48 5.48 0 00-3.46-2.7 10.15 10.15 0 00-4.12-.13 13.74 13.74 0 00-5.55 2.21l-.29.19.26.24c.33.32.67.64.98.98zm3.81 13.7l-.3.06c-.44.1-.88.19-1.33.26h-.23v.24a10 10 0 01-.32 3.2 8.85 8.85 0 01-.76 1.87l.23.13-.24-.13c-1 1.79-2.51 3-4 3h-.07a2.65 2.65 0 01-.74-.11 5.76 5.76 0 01-3.13-2.89 10.79 10.79 0 01-.53-8.07 21.5 21.5 0 013.81-7.42l.15-.19-.17-.17a11.48 11.48 0 00-.9-.83l-.26-.14-.18.21a23.23 23.23 0 00-4.34 8.29 14.86 14.86 0 00.24 9.23c.71 1.87 2.09 4.33 4.67 5a5.64 5.64 0 001.4.19c3.57 0 5.35-3 6.2-5.17a11.73 11.73 0 00.41-1.27 14.19 14.19 0 00.42-5zM155 10.76a14.23 14.23 0 006.27 4.39l.28.11.08-.3a2.28 2.28 0 01.11-.41c.08-.29.16-.57.25-.87l.07-.23-.23-.09a10 10 0 01-5-4 5.81 5.81 0 01-.88-4.25 2.41 2.41 0 01.29-.7v-.07c.73-1.27 2.54-1.95 4.59-1.9a7.94 7.94 0 012 .3c4.27 1.15 7.83 5.64 9.61 9.88l.09.2h.2c.42-.06.83-.13 1.23-.22l.31-.07-.12-.3c-2-5.08-6.12-10.22-11.7-11.75-.43-.12-.87-.21-1.3-.29v.18-.18c-2.29-.37-5.79-.37-7.57 2.68a4.53 4.53 0 00-.57 1.33c-.66 2.56.76 5.01 1.99 6.56z" fill="#908151"/><path d="M15.77 18.27H0v41.81h15.77a20.22 20.22 0 0014.67-6 19.89 19.89 0 006.13-14.63 20.91 20.91 0 00-6.16-15.12 20 20 0 00-14.64-6.06zm10.39 31.5a14.23 14.23 0 01-10.39 4.33h-9.7V24.25h9.7a14.2 14.2 0 0110.39 4.33 15.22 15.22 0 014.31 10.83 14.14 14.14 0 01-4.34 10.36zm90.23.09a14.51 14.51 0 01-11 4.74 15.31 15.31 0 01-15.23-15.19 15.3 15.3 0 0115.23-15.18 14.31 14.31 0 017.41 2 17.15 17.15 0 013.37 2.59 20.36 20.36 0 011.26-6.85c-.53-.37-1.06-.71-1.62-1a21.37 21.37 0 00-10.42-2.73 21.46 21.46 0 00-21.3 21.2 20.43 20.43 0 006.28 15 20.71 20.71 0 0015 6.18 21.09 21.09 0 0010.4-2.73 23.27 23.27 0 004.39-3.26l-.25-.23a22.25 22.25 0 01-3.55-4.54zm38.5 4.54a22.25 22.25 0 01-3.53-4.54 15.22 15.22 0 01-26.2-10.45 15.31 15.31 0 0115.2-15.18 14.37 14.37 0 017.42 2 17.45 17.45 0 013.37 2.59 20.35 20.35 0 011.25-6.85c-.53-.37-1.07-.71-1.62-1a21.34 21.34 0 00-10.42-2.73 21.46 21.46 0 00-21.29 21.2 20.42 20.42 0 006.27 15 20.71 20.71 0 0015 6.18 21 21 0 0010.43-2.73 23 23 0 004.4-3.26zm-80-36.13L60.3 52.08 45.77 18.27h-6.25v41.81h6.07V33.79l11.6 26.29h6.28l11.57-26.29v26.29h6.07V18.27z" fill="#002b5c"/></svg>