<svg xmlns="http://www.w3.org/2000/svg" width="198.147" height="49.533" viewBox="0 0 148.61 37.15"><defs><clipPath id="a"><path d="M86 1h29v36.148H86zm0 0"/></clipPath><clipPath id="b"><path d="M114 0h34.61v37.148H114zm0 0"/></clipPath><clipPath id="c"><path d="M114 9h5v28.148h-5zm0 0"/></clipPath><clipPath id="d"><path d="M114 9h6v28.148h-6zm0 0"/></clipPath><clipPath id="e"><path d="M111 9h4v28.148h-4zm0 0"/></clipPath><clipPath id="f"><path d="M110 9h6v28.148h-6zm0 0"/></clipPath><clipPath id="g"><path d="M81 0h34v37.148H81zm0 0"/></clipPath></defs><path d="M2.219 29.32c.844.172 1.222-.078 1.328-.847a1.26 1.26 0 00.008-.121c0-1.079.02-2.153-.004-3.227-.02-.809-.278-1.02-1.078-1.027-.2 0-.258.054-.258.254.008 1.59.004 3.18.004 4.77zM0 22.508c1.086 0 2.176-.008 3.262.004 1.453.015 2.285.668 2.511 2.11.227 1.444.23 2.913-.027 4.362-.156.883-.621 1.578-1.539 1.84-.332.094-.695.117-1.043.125-1.055.016-2.11.004-3.164.004M40.324 13.508c-.113-.48-.207-.88-.3-1.293-.368.12-.739.187-1.055.512l1.355.78M50.508 9.52c.476.398.945.757 1.387 1.152.57.508 1.132 1.031 1.683 1.562.387.375.512.817.32 1.352-.171.496-.293 1.012-.437 1.527h-.3c-1.59 0-3.184-.023-4.774.008-1.637.031-3.274.121-4.91.176a22.09 22.09 0 01-1.247.008c-.156-.004-.25.043-.335.168-.13.195-.27.379-.418.558-.043.051-.16.098-.207.074-1.012-.503-2.028-1.003-3.028-1.535-.262-.14-.465-.386-.699-.578-.117-.097-.125-.199-.055-.336.172-.336.328-.687.512-1.074-.492.047-.883.195-1.191.516-.055.054-.059.18-.047.27.082.784.172 1.57.261 2.355.04.359.09.714.118 1.074.011.164.007.344-.051.492-.246.645-.512 1.285-.774 1.926l-.078-.012c-.043-.289-.09-.578-.129-.871-.183-1.352-.375-2.703-.539-4.059a1.267 1.267 0 01.09-.671c.313-.653.633-1.309 1.024-1.918.16-.243.488-.407.77-.543.921-.454 1.925-.66 2.925-.868.137-.027.277-.05.379-.07l.558 2.125c.016.059.04.121.063.18.289.758.398.851 1.2.832 1.773-.05 3.542-.137 5.316-.176 1.367-.027 2.738-.008 4.105-.012h.328c-.656-.515-1.254-.988-1.848-1.457-.308.227-.39.239-.664-.027-.324-.316-.625-.66-.933-.992a.637.637 0 01-.153-.602c.137-.633.278-1.261.426-1.89.016-.067.102-.145.172-.164 1.723-.528 3.45-1.047 5.172-1.567.043-.012.09-.012.18-.027-.168.64-.325 1.246-.496 1.847-.02.075-.137.145-.22.172-1.073.336-2.148.664-3.222.996-.066.02-.133.043-.234.079M6.734 15.66c-.398-.508-.918-.687-1.5-.738l-1.37-.121c.05-.114.077-.203.124-.278.27-.433.54-.87.82-1.296.044-.063.145-.094.227-.122.059-.02.13-.003.192-.003h18.078c-.14-.825-.575-1.45-1.086-2.07l1.02-1.84c.523.445.816 1.003 1.05 1.601.36.918.309 1.867.25 2.816a6.3 6.3 0 01-.172 1.11c-.074.32-.164.363-.492.363-5.14 0-10.285 0-15.426-.008-.215 0-.336.063-.426.254-.093.203-.23.383-.328.582-.437.918-1.183 1.438-2.14 1.7-.032.007-.063.015-.09.03-.422.16-.832.282-1.125-.347-.203.238-.36.43-.527.605-.2.211-.606.204-.81.004a57.766 57.766 0 00-.491-.488c-.012-.012-.028-.016-.07-.043-.126.133-.25.281-.387.414-.047.043-.13.086-.18.07-.723-.207-1.563-.707-1.73-1.664A3.004 3.004 0 01.27 14.68c.425-1.25 1.113-2.328 2.14-3.176.102-.082.332-.172.383-.125.14.137-.023.27-.106.387-.328.453-.675.89-.984 1.355-.226.34-.34.734-.367 1.152-.047.75.324 1.243.969 1.559.613.3 1.265.383 1.937.336.84-.05 1.653-.238 2.492-.508M73.027 12.465c-.27-.992-.351-1-1.109-.563-.008.004-.012.024-.027.059.367.164.734.328 1.136.504m-16.23 2.648c-.055-.636-.106-1.246-.16-1.855-.106-1.211-.215-2.418-.32-3.63-.036-.437-.083-.874-.106-1.312-.008-.113.008-.25.074-.34.324-.453.668-.894 1.004-1.34.016-.023.047-.034.098-.07.035.575.07 1.122.11 1.668.097 1.473.155 2.95.425 4.407.082.437.172.511.625.511 1.078 0 2.16.008 3.238 0 .742-.011 1.41-.308 2.082-.57l.012-.078c-.715-.234-1.422-.496-2.149-.684-.39-.105-.765.067-1.097.301-.125.086-.258.152-.434.254-.011-.133-.047-.219-.023-.285.3-.805.754-1.5 1.515-1.945.536-.317 1.11-.247 1.672-.079.297.086.59.204.856.356a9.826 9.826 0 004.492 1.289c.027.004.059.012.09.016l-.469 1.425c.469 0 .898-.027 1.32.008.383.035.61-.07.735-.445.082-.254.242-.485.355-.73.5-1.087 1.426-1.669 2.496-2.063.176-.067.39-.047.59-.04.063 0 .156.087.176.153.277.945.547 1.895.805 2.852a.64.64 0 01-.063.414c-.277.511-.578 1.008-.875 1.508-.07.12-.168.132-.305.078-.824-.325-1.652-.633-2.476-.961-.184-.074-.278-.035-.36.129-.136.27-.28.535-.421.804-.098.188-.239.266-.461.262-.93-.012-1.856-.008-2.809-.008-.059-.379-.125-.746-.164-1.117-.016-.152-.078-.219-.219-.219-.62-.007-1.246-.043-1.863.008-.293.027-.586.207-.856.356-.46.25-.898.554-1.363.793a1.69 1.69 0 01-.73.175c-1.586.016-3.168.004-4.75.004M16.613 25.777c.524.098.86.02 1.04-.246.222-.332.218-.847-.02-1.176-.27-.37-.656-.222-1.02-.253zm.004 3.57c.445.008.918.114 1.192-.347a1.24 1.24 0 00.007-1.32c-.277-.473-.753-.375-1.214-.364v1.856c0 .05.007.105.015.176m2.149-2.836c.906.168 1.406.718 1.504 1.715.074.78-.067 1.535-.672 2.117-.422.41-.961.582-1.528.593-1.222.028-2.441.008-3.687.008v-8.418c.058-.007.12-.02.18-.02 1.136 0 2.269-.01 3.406.005.773.015 1.457.261 1.828 1.004.367.738.351 1.492-.02 2.234-.199.39-.539.617-1.011.762M58.797 24.082v1.926c.445.008.906.094 1.168-.367.234-.407.254-.86 0-1.25-.27-.43-.742-.293-1.168-.309m-.016 3.43v3.437h-2.218v-8.426c.019-.007.042-.023.062-.023 1.266.004 2.527-.023 3.79.016 1.151.039 1.901.824 1.917 1.972.004.403-.043.817-.145 1.203-.152.567-.578.883-1.187 1.008.078.028.113.051.156.059.688.12.98.59 1.086 1.226.028.164.047.332.047.5.004.817 0 1.63 0 2.465h-2.215c0-.097.004-.191 0-.281-.008-.785-.008-1.566-.031-2.352-.016-.632-.211-.804-.836-.804M7.156 22.508h2.239v.289c0 1.894-.004 3.793 0 5.687 0 .192.015.383.054.57.07.301.313.473.614.462a.596.596 0 00.59-.5c.03-.172.046-.352.046-.524.008-1.902.004-3.808.004-5.71v-.27h2.242v.27c0 1.683.016 3.363-.008 5.038a6.773 6.773 0 01-.187 1.54c-.21.828-.746 1.35-1.613 1.507-.766.133-1.532.14-2.285-.023-.954-.2-1.415-.871-1.594-1.77a5.495 5.495 0 01-.098-1.047c-.008-1.734-.004-3.468-.004-5.207M49.398 22.512h2.243v6.023c0 .145.02.29.043.43.062.344.273.527.601.535.32.008.55-.172.613-.516.043-.234.051-.476.051-.714.004-1.817 0-3.63 0-5.446v-.308h2.239v.257c0 1.75.003 3.504 0 5.254-.004.535-.06 1.067-.266 1.575-.285.707-.805 1.128-1.563 1.257a5.852 5.852 0 01-2.07.004c-1.043-.187-1.656-.828-1.8-1.894a9.78 9.78 0 01-.087-1.219c-.007-1.645-.004-3.293-.004-4.941M46.023 26.742h-.046c0-.387.02-.77-.004-1.152a8.29 8.29 0 00-.153-1.207c-.058-.309-.273-.438-.574-.438-.293.004-.484.121-.559.426-.082.324-.136.66-.148.992a38.295 38.295 0 00-.008 2.32c.012.477.07.958.157 1.426.058.32.257.422.578.418.351-.004.566-.191.609-.636.074-.711.102-1.43.148-2.149m2.34.024c-.105.777-.156 1.574-.336 2.336-.277 1.187-1.039 1.777-2.257 1.84a7.56 7.56 0 01-1.458-.063c-1.066-.156-1.632-.863-1.878-1.86-.239-.988-.286-1.992-.2-3 .055-.617.133-1.238.297-1.831.285-1.032 1.04-1.57 2.082-1.665a6.399 6.399 0 011.57.055c1.008.16 1.587.82 1.856 1.777.219.786.246 1.594.254 2.399l.07.012M24.371 24.383c-.016 0-.031 0-.05-.004-.192 1.133-.384 2.266-.579 3.406h1.207l-.578-3.402m1.375-1.875l2.074 8.437h-2.375c-.066-.422-.14-.843-.195-1.27-.02-.16-.07-.218-.234-.214-.512.012-1.024.004-1.54.004-.078.5-.152.98-.23 1.473h-2.332c.09-.383.176-.758.266-1.133.57-2.364 1.144-4.727 1.71-7.09.028-.11.028-.211.196-.211.879.008 1.758.004 2.66.004M69.258 28.387h2.137c.015.175.015.351.046.52.086.46.395.679.836.609.348-.059.586-.43.551-.84-.023-.27-.121-.516-.363-.64-.469-.247-.957-.462-1.442-.68-.433-.196-.843-.415-1.16-.782-.449-.523-.547-1.144-.5-1.797.047-.629.219-1.21.703-1.656.391-.36.875-.523 1.387-.594a4.779 4.779 0 011.926.094c.86.227 1.371.824 1.484 1.707.028.215.04.43.063.664h-2.09c-.027-.203-.031-.402-.082-.59-.09-.328-.29-.465-.59-.457-.316.004-.535.18-.613.5-.078.34-.02.664.277.856.34.222.711.387 1.078.566.383.188.797.328 1.16.551.848.52 1.137 1.32 1.067 2.277-.043.633-.215 1.211-.727 1.633-.398.324-.867.48-1.36.555-.757.113-1.515.113-2.26-.067-.958-.234-1.497-.906-1.528-1.886-.004-.176 0-.352 0-.543M41.172 25.574h-2.125c-.024-.37-.031-.73-.074-1.082-.043-.363-.211-.527-.493-.547-.324-.023-.53.117-.628.465-.063.238-.122.488-.122.73 0 1.184.02 2.364.043 3.544.004.156.051.316.106.464.094.266.281.375.574.372.262-.008.445-.118.492-.403.075-.445.106-.898.13-1.351.007-.196.05-.262.253-.258.578.012 1.152 0 1.727.012.07 0 .195.078.195.12.012.665.02 1.329-.258 1.954-.312.699-.84 1.12-1.597 1.265a5.791 5.791 0 01-1.977.012c-.965-.152-1.578-.71-1.781-1.64-.364-1.657-.39-3.333.035-4.981.277-1.098 1.062-1.688 2.191-1.734.477-.02.961-.02 1.43.05 1.121.164 1.812.957 1.879 2.09.016.305 0 .606 0 .918M64.71 24.367h-1.628v-1.851h5.535v.515c0 .36-.012.719.004 1.078.008.196-.047.266-.25.262-.465-.016-.926-.008-1.414-.008v6.57h-2.246M28.543 30.941h2.2V22.52h-2.2zm0 0M26.113 13.102h3.352c.09-.602-.867-1.625-1.996-2.145.195-.672.39-1.344.597-2.047.118.055.223.102.32.156 1.4.75 2.2 1.907 2.274 3.5.031.637-.05 1.286-.098 1.926a.68.68 0 01-.14.375c-.082.098-.227.203-.344.203-1.332.016-2.668.008-4.004.008-.031 0-.062-.008-.125-.02.055-.644.106-1.285.164-1.956"/><path d="M1.574 18.5c.29-.285.598-.594.957-.957.262.3.54.625.836.969l.899-.953.964.964c-.28.282-.593.594-.914.915-.277-.29-.57-.598-.87-.915-.329.348-.622.657-.9.946-.358-.36-.671-.668-.972-.969M24.09 18.555l-.899.902c-.293-.297-.597-.605-.886-.895.293-.289.601-.605.894-.898.281.285.594.598.89.89"/><g clip-path="url(#a)"><path d="M86.152 19.016c0 9.53 12.715 17.34 28.82 18.007V1.008c-16.105.664-28.82 8.469-28.82 18.008" fill="#fff"/></g><g clip-path="url(#b)"><path d="M117.23.957c-.757 0-1.511.02-2.257.047v36.02c.746.027 1.5.046 2.257.046 17.332 0 31.38-8.086 31.38-18.054 0-9.973-14.048-18.059-31.38-18.059" fill="#ed3944"/></g><path d="M114.852 25.89h10.41V12.384h-10.41zm0 0" fill="#fff"/><g clip-path="url(#c)"><path d="M118.793 32.8l-3.805 4.321v-26.98l.012-.012c.191-.035.797-.149 1.594-.309" fill="#a7aaab"/></g><g clip-path="url(#d)"><path d="M118.793 32.8l-3.805 4.321v-26.98l.012-.012c.191-.035.797-.149 1.594-.309zm0 0" fill="none" stroke-width=".020000000000000004" stroke="#221f1f" stroke-miterlimit="10"/></g><path d="M127.992 8.223s-.074 1.14-1.668.925c-1.613-.214-1.047-1.265-1.047-1.265-.457-.113-1.457-.031-3.511.68-1.278.437-3.594.937-5.172 1.257-.793.16-1.403.27-1.594.309-.008 0-.016 0-.02.004-.03.004-.046.008-.046.008s-.637-.118-1.551-.301c-1.578-.313-3.977-.828-5.281-1.277-2.055-.711-3.055-.793-3.512-.68 0 0 .566 1.05-1.047 1.265-1.594.215-1.668-.925-1.668-.925.078-1.098 1.54-1.426 3.313-1.172 1.582.23 4.128.847 8.226.976a47.253 47.253 0 003.16-.004c4.024-.136 6.535-.742 8.106-.972 1.77-.254 3.234.074 3.312 1.172" fill="#a7aaab"/><path d="M127.992 8.223s-.074 1.14-1.668.925c-1.613-.214-1.047-1.265-1.047-1.265-.457-.113-1.457-.031-3.511.68-1.278.437-3.594.937-5.172 1.257-.793.16-1.403.27-1.594.309-.008 0-.016 0-.02.004-.03.004-.046.008-.046.008s-.637-.118-1.551-.301c-1.578-.313-3.977-.828-5.281-1.278-2.055-.71-3.055-.792-3.512-.68 0 0 .566 1.052-1.047 1.266-1.594.215-1.668-.925-1.668-.925.078-1.098 1.54-1.426 3.313-1.172 1.582.23 4.128.847 8.226.976a47.253 47.253 0 003.16-.004c4.024-.136 6.535-.742 8.106-.972 1.77-.254 3.234.074 3.312 1.172zm0 0" fill="none" stroke-width=".020000000000000004" stroke="#221f1f" stroke-miterlimit="10"/><g clip-path="url(#e)"><path d="M114.988 10.14v26.985l-3.808-4.324 2.203-22.961c.914.183 1.55.3 1.55.3l.047-.007" fill="#fff"/></g><g clip-path="url(#f)"><path d="M114.988 10.14v26.985l-3.808-4.324 2.203-22.961c.914.183 1.55.3 1.55.3l.047-.007zm0 0" fill="none" stroke-width=".020000000000000004" stroke="#221f1f" stroke-miterlimit="10"/></g><path d="M117.473 4.055c-.649.414-1.043.375-1.043.375s-.008.03-.02.093c-.008.051-.02.118-.027.204-.02.164-.035.382-.02.617.004.062.008.129.02.199.012.078.027.16.047.238a4.394 4.394 0 01.086.567c.07.699.058 1.609.058 1.675a47.253 47.253 0 01-3.16.004h-.004s.016-.355.031-.863a40.233 40.233 0 00.036-.832c.003-.07.003-.148.011-.219V6.11c.008-.203.016-.406.028-.605l.011-.223a28.66 28.66 0 01.094-1.394c.102-.957 1.145-2.04 2.895-1.664 1.746.375 1.601 1.414.957 1.832" fill="#060707"/><path d="M116.41 4.523c-.008.047-.02.118-.027.204-1.207.105-2.27.503-2.867.777l.011-.223c.637-.281 1.692-.664 2.883-.758M116.383 5.543c-1.235.105-2.313.52-2.903.789 0-.07 0-.144.008-.219V6.11c.625-.273 1.68-.664 2.875-.765 0 .062.008.129.02.199M116.516 6.344c-1.313.09-2.47.543-3.075.82l.012-.223c.64-.289 1.77-.707 3.043-.793.008.063.016.13.02.196" fill="#078443"/><path d="M126.816 8.215c0 .137-.113.25-.25.25a.252.252 0 01-.25-.25c0-.137.114-.25.25-.25.137 0 .25.113.25.25M103.465 8.215c0 .137-.113.25-.25.25a.25.25 0 01-.25-.25c0-.137.11-.25.25-.25.137 0 .25.113.25.25"/><g clip-path="url(#g)"><path d="M114.262 36.316c-.38-.03-.766-.03-1.145-.082-1.57-.214-3.144-.402-4.707-.668a42.575 42.575 0 01-8.508-2.367c-2.77-1.086-5.382-2.449-7.734-4.285-.063-.05-.121-.11-.207-.187a3.26 3.26 0 001.352-.637c.246-.192.48-.395.726-.586.39-.297.79-.586 1.328-.465-1.633-.586-3.11-.293-4.46.856l-1.942-2.07c.015-.024.023-.048.039-.071.172-.02.344-.031.512-.055.68-.105 1.23-.465 1.765-.863.457-.34.903-.73 1.547-.668-.758-.324-1.539-.434-2.34-.29-.808.142-1.52.481-2.156 1.071L87.23 22.98c.711.004 1.325-.078 1.868-.421.367-.223.715-.485 1.07-.727.394-.27.793-.523 1.312-.395-1.386-.671-3.257-.472-4.57.727-.144-.543-.285-1.066-.433-1.621.132 0 .214-.004.289.004.46.031.925 0 1.332-.207.472-.242.918-.543 1.363-.836.41-.277.805-.574 1.344-.52-1.598-.629-3.063-.382-4.43.7-.066-.762-.074-1.485.047-2.204.262.028.488.067.719.079.804.05 1.492-.254 2.156-.66.5-.301.984-.657 1.625-.555-1.473-.742-2.91-.66-4.317.187-.02-.008-.035-.023-.05-.035.21-.64.422-1.281.64-1.933.098.035.14.046.184.066.504.207 1.02.293 1.566.25.578-.04 1.09-.274 1.618-.477.492-.191.98-.398 1.515-.117-1.367-1.031-2.84-1.195-4.422-.539-.011-.023-.027-.043-.043-.062.418-.637.836-1.278 1.25-1.914.02.007.035.02.055.03-.027.087-.055.173-.086.266.926.48 1.836.528 2.754.024.45-.246.91-.395 1.406-.106-.476-.492-1.031-.843-1.699-1.007-.691-.168-1.332-.024-1.969.277.422-.48.856-.938 1.297-1.387.078-.078.156-.172.309-.078.863.527 1.757.586 2.687.164.45-.203.914-.285 1.356.043-.809-.937-1.77-1.473-3.07-1.238.042-.067.1-.102.156-.145.39-.289.785-.574 1.171-.875.239-.191.426-.254.739-.07.703.406 1.484.43 2.258.266.523-.11 1.027-.301 1.539-.454l-.024-.085h-.148c-.563-.016-1.078-.133-1.563-.45-.23-.148-.531-.187-.804-.27-.059-.019-.13-.019-.196-.03a.229.229 0 01-.008-.051c.38-.215.754-.426 1.125-.633 1.286 1.094 2.704.965 4.165.547-.645-.102-1.223-.301-1.723-.754-.215-.195-.555-.258-.84-.371-.078-.035-.172-.035-.262-.051.492-.273.985-.492 1.48-.7.052-.023.145.02.2.063.219.157.414.352.648.489.895.53 1.88.55 2.875.453.11-.008.215-.04.32-.055-.64-.203-1.187-.496-1.6-1.023-.102-.133-.274-.22-.427-.297-.164-.086-.343-.137-.558-.219.394-.14.746-.258 1.094-.398.265-.114.503-.157.714.105.047.059.13.09.2.133.754.453 1.586.508 2.43.406.44-.055.87-.187 1.304-.281-.523-.106-1.02-.215-1.457-.508-.29-.191-.57-.39-.856-.582.434-.117.903-.23 1.368-.371.285-.086.547-.113.789.113.062.059.148.086.23.121.903.387 1.82.352 2.746.114.258-.067.512-.16.77-.239-.66-.078-1.27-.203-1.793-.715.465-.082.883-.132 1.289-.226.3-.067.578-.04.867.058a3.82 3.82 0 001.91.141c.606-.105 1.133-.355 1.574-.836-.132-.047-.238-.105-.347-.121-.473-.074-.945-.133-1.414-.2-.848-.116-1.59.134-2.281.602-.122.082-.266.141-.407.172-.297.063-.601.102-.898.149l-.727.11c.133-.224.235-.407.348-.583.152-.234.285-.484.473-.684.183-.203.425-.351.64-.523h-.238c-.035.02-.067.04-.102.05-.433.114-.875.188-1.289.345-.8.3-1.468.78-1.812 1.601-.078.188-.176.281-.36.309a1.23 1.23 0 00-.164.035c-.558.14-1.12.285-1.73.441.234-.375.207-.742.168-1.12-.043-.407.094-.766.324-1.099.047-.066.094-.136.148-.218-1.617.39-2.406 1.457-2.148 2.894-.602.211-1.203.422-1.844.649.25-.48.223-.918-.02-1.356a.502.502 0 01-.058-.25c.008-.293.028-.582.04-.879-.876.762-1.403 1.641-.884 2.848-.359.152-.695.297-1.027.445-.332.145-.656.293-1.031.465.2-.437.226-.824.086-1.234a3.332 3.332 0 01-.156-.832c-.016-.188.05-.383.082-.598-.461.41-.829.863-1.024 1.438a2.167 2.167 0 00.098 1.68c-.567.32-1.117.632-1.688.952.106-.507-.011-.914-.383-1.257a1.445 1.445 0 01-.332-.516c-.082-.227-.101-.473-.148-.707-.848.879-.879 1.926-.086 3.07-.64.473-1.285.946-1.96 1.442.023-.094.034-.149.05-.2.176-.644-.055-1.207-.64-1.52-.563-.3-1.18-.323-1.864-.296.973.273 1.156.715 1.145 1.461-.008.488-.075 1.004.414 1.363-.54.508-1.051.989-1.555 1.457-.059-.62-.3-1.218-.809-1.695-.468-.441-1.36-.867-1.773-.832.32.172.539.414.605.77.028.171.067.343.086.515.067.7.325 1.297.871 1.754.141.113.282.227.41.332l-1.152 1.715c-.445-.637-.988-1.14-1.683-1.473a4.112 4.112 0 00-2.172-.39c.531.074.832.445 1.11.84.089.12.175.25.253.374.48.75 1.086 1.336 1.96 1.602.02.008.036.027.036.031-.219.614-.437 1.215-.664 1.84-1.148-1.148-2.512-1.527-4.074-1.195.375 0 .695.148.969.402.183.176.367.356.539.543.52.578 1.097 1.07 1.886 1.246.153.04.305.067.45.098-.047.605-.098 1.187-.145 1.805a4.354 4.354 0 00-1.89-.801 3.89 3.89 0 00-2.024.215c.465-.059.824.144 1.16.425.207.172.414.352.617.532.543.48 1.157.84 1.89.894.313.024.403.137.442.426.055.426.172.848.27 1.293-1.559-.875-3.117-.98-4.7-.121.548-.16 1.012.043 1.473.3.22.13.442.258.664.383.473.27.965.516 1.516.555.469.031.95-.008 1.45-.016.237.493.503 1.028.78 1.594-1.582-.48-3.03-.316-4.406.707.707-.261.832-.203 1.348-.05.234.074.46.18.687.273.758.316 1.524.582 2.364.445.273-.047.543-.113.797-.168.472.567.945 1.13 1.421 1.696-.851-.176-1.707-.204-2.558.011-.883.227-2.004.844-2.227 1.239.301-.239.645-.34 1-.274.442.082.887.188 1.309.348 1.262.484 2.515.62 3.781.023.047-.023.137.004.184.035.203.157.394.325.593.485 2.13 1.691 4.48 2.996 6.977 4.047a40.192 40.192 0 008.074 2.445c1.406.266 2.828.469 4.246.676.75.11 1.504.164 2.258.226.594.051 1.18.106 1.77.11v-.051c-.211-.242-.387-.45-.567-.649a.248.248 0 00-.144-.082" fill="#078443"/></g><path d="M126.879 28.262v-3.285c.574-.09 1.129-.184 1.75-.286-.223-.246-.383-.43-.555-.62.176-.063.332-.122.504-.18-.176-.2-.336-.383-.504-.57.18-.067.332-.118.516-.18-.192-.207-.352-.38-.524-.563.184-.066.34-.125.52-.187-.547-.59-1.074-1.157-1.594-1.73a.54.54 0 01-.125-.313c-.008-3.262-.004-6.524-.004-9.79 0-.042.012-.09.02-.136.012-.004.023-.004.039-.004 2.336 5.941 4.672 11.879 7.02 17.844zm-4.79-3.903c-1.066-.093-2.128-.242-3.194-.316-1.286-.094-2.532.102-3.711.645a.324.324 0 01-.211.019.31.31 0 01-.207-.02c-1.18-.542-2.426-.738-3.715-.644-1.067.074-2.125.223-3.192.316-1.863.164-3.73.246-5.601.114-.07-.004-.14-.028-.219-.04.106-.238.266-.296.512-.292 1.16.02 2.316.05 3.472.011 1.086-.043 2.168-.164 3.25-.254.77-.062 1.54-.164 2.313-.183 1.168-.035 2.281.21 3.32.793.02-.016.047-.028.067-.04a.371.371 0 01.066.04c1.04-.582 2.156-.828 3.32-.793.774.02 1.547.12 2.317.183 1.082.09 2.164.211 3.246.254 1.156.04 2.316.008 3.473-.011.25-.004.406.054.515.293-.082.011-.152.035-.219.039-1.87.132-3.738.05-5.601-.114m4.316 3.903h-7.05c.03-.094.05-.168.082-.239.374-.957.75-1.914 1.128-2.867.192-.492.192-.492.711-.441 1.637.144 3.282.265 4.926.242.07 0 .137.012.203.016zm-15.894-.239c.027.07.05.145.082.239h-7.055v-3.29c.066-.003.137-.015.203-.015 1.649.023 3.29-.098 4.93-.242.52-.05.52-.05.71.441.376.953.755 1.91 1.13 2.867m-7.446.239h-7.062c2.348-5.965 4.683-11.903 7.02-17.844a.16.16 0 01.042.004c.004.047.02.094.02.137 0 3.265 0 6.527-.008 9.789a.515.515 0 01-.125.312c-.516.574-1.047 1.14-1.594 1.73.18.063.34.122.52.188l-.524.563c.184.062.336.113.516.18-.168.187-.328.37-.504.57.172.058.332.117.504.18-.168.19-.332.374-.555.62.621.102 1.176.196 1.75.286zm.473-17.86c.016-.004.027-.004.04-.004 1.03 2.622 2.062 5.243 3.128 7.95-.477-.063-.883-.125-1.289-.168a.285.285 0 00-.211.078c-.512.539-1.02 1.086-1.523 1.625-.036.039-.079.07-.145.129zm24.36 13.254c-.07.016-.137.043-.208.047-.761.031-1.53.078-2.293.074-2.05-.004-4.082-.25-6.113-.46-1.41-.149-2.789.015-4.094.624a.375.375 0 01-.218.016.377.377 0 01-.22-.016c-1.3-.609-2.683-.773-4.089-.625-2.035.211-4.062.457-6.113.461-.766.004-1.531-.043-2.297-.074-.067-.004-.137-.031-.207-.047.117-.234.281-.265.531-.254.945.035 1.899.063 2.848.024 1.187-.047 2.375-.153 3.558-.25.598-.047 1.192-.145 1.79-.192 1.41-.12 2.769.047 4.038.723.043.02.11.027.16.012.051.015.118.008.16-.012 1.27-.676 2.634-.844 4.044-.723.594.047 1.187.145 1.785.192 1.187.097 2.371.203 3.559.25.949.039 1.902.012 2.851-.024.25-.011.414.02.527.254m-1.02-.625c-2.44.063-4.866-.136-7.288-.437-1.516-.184-2.996-.043-4.403.597a.365.365 0 01-.214.02.368.368 0 01-.215-.02c-1.406-.64-2.887-.78-4.399-.597-2.421.3-4.847.5-7.293.437-.355-.011-.71-.047-1.09-.074.126-.254.262-.332.512-.312 1.856.14 3.703.046 5.551-.125 1.066-.102 2.125-.247 3.195-.305 1.227-.067 2.414.133 3.52.715.058.027.148.039.219.023.07.016.16.004.218-.023 1.106-.582 2.293-.782 3.524-.715 1.066.058 2.129.203 3.191.305 1.848.171 3.7.265 5.551.125.25-.02.39.058.516.312-.383.027-.739.063-1.094.074m-18.496-4.433c1.258-.114 2.512-.274 3.77-.34.988-.059 1.921.172 2.718.808.031-.027.07-.054.102-.078.035.024.07.051.105.078.793-.636 1.73-.867 2.715-.808 1.262.066 2.516.226 3.77.34.937.082 1.874.195 2.82.074a.344.344 0 01.246.09c.773.824 1.547 1.656 2.32 2.488.278.297.547.598.84.918-.113.023-.187.05-.266.05-.832.02-1.664.055-2.492.055-1.902-.007-3.789-.253-5.68-.445-1.437-.148-2.84 0-4.163.621a.336.336 0 01-.215.02.324.324 0 01-.211-.02c-1.325-.62-2.73-.77-4.164-.62-1.891.19-3.778.437-5.684.444-.828 0-1.66-.035-2.488-.054-.078 0-.156-.028-.27-.051.297-.32.567-.621.84-.918.774-.832 1.547-1.664 2.324-2.488a.33.33 0 01.243-.09c.945.121 1.882.008 2.82-.074m17.984-8.2c.012 0 .028 0 .04.004v9.61c-.063-.059-.106-.09-.141-.13-.508-.538-1.012-1.085-1.528-1.624a.28.28 0 00-.21-.078c-.407.043-.813.105-1.286.168 1.067-2.707 2.094-5.328 3.125-7.95m8.012 17.692c-1.121-2.82-2.23-5.649-3.34-8.473-1.351-3.433-2.7-6.867-4.05-10.3a3.832 3.832 0 01-.094-.278l-.5.035c-1.207 3.067-2.415 6.13-3.625 9.207-.727-.066-1.45-.136-2.172-.207-.95-.086-1.891-.215-2.84-.25-.899-.031-1.774.153-2.559.633-.09.055-.16.086-.226.004-.067.082-.133.05-.223-.004-.785-.48-1.66-.664-2.563-.633-.949.035-1.89.164-2.835.25-.723.07-1.446.14-2.176.207l-3.621-9.207c-.172-.011-.344-.023-.5-.035-.035.102-.063.188-.098.277-1.348 3.434-2.7 6.868-4.047 10.301-1.11 2.824-2.219 5.653-3.34 8.473-.093.234-.129.445-.074.687.133.614.469 1.098.914 1.512.735.684 1.61 1.125 2.547 1.438 2.45.808 4.934.878 7.445.347 1.227-.258 2.391-.687 3.407-1.453.636-.48 1.148-1.062 1.312-1.879.031-.144.063-.316.012-.445-.285-.746-.594-1.477-.89-2.219-.196-.48-.384-.973-.579-1.476 1.86-.293 3.648-.239 5.309.68 1.664-.919 3.449-.973 5.308-.68-.195.503-.383.996-.578 1.476-.293.742-.601 1.473-.887 2.219-.05.129-.02.3.008.445.168.817.676 1.399 1.317 1.88 1.015.765 2.175 1.194 3.406 1.452 2.512.531 4.992.461 7.441-.347.942-.313 1.817-.754 2.547-1.438.445-.414.781-.898.918-1.512.055-.242.02-.453-.074-.687"/><path d="M108.383 18.59c1.258-.113 2.512-.274 3.77-.344.984-.055 1.921.176 2.718.813.031-.028.07-.055.102-.079.035.024.07.051.105.079.793-.637 1.73-.868 2.715-.813 1.262.07 2.516.23 3.77.344.937.082 1.874.195 2.82.074a.358.358 0 01.246.086c.773.828 1.547 1.66 2.32 2.492.274.297.547.598.84.918-.113.024-.187.047-.266.05-.832.02-1.66.056-2.492.056-1.902-.008-3.793-.254-5.683-.45-1.434-.148-2.836 0-4.16.625a.336.336 0 01-.215.02.324.324 0 01-.211-.02c-1.325-.625-2.73-.773-4.164-.625-1.891.196-3.778.442-5.684.45-.828 0-1.66-.036-2.488-.055-.078-.004-.156-.027-.27-.05.297-.321.567-.622.84-.919.774-.832 1.547-1.664 2.324-2.492a.349.349 0 01.243-.086c.945.121 1.882.008 2.82-.074" fill="#fff"/><path d="M126.879 23.023c-2.442.063-4.867-.14-7.29-.437-1.515-.184-2.995-.043-4.401.594a.337.337 0 01-.215.023.34.34 0 01-.215-.023c-1.406-.637-2.887-.778-4.403-.594-2.418.297-4.843.5-7.289.437-.355-.011-.71-.046-1.09-.074.126-.254.262-.332.512-.312 1.856.14 3.703.047 5.551-.13 1.066-.097 2.125-.241 3.195-.3 1.227-.066 2.414.129 3.52.711a.347.347 0 00.219.027c.07.016.16.004.218-.027 1.106-.582 2.293-.777 3.524-.711 1.066.059 2.129.203 3.191.3 1.848.177 3.7.27 5.551.13.25-.02.39.058.516.312-.383.028-.739.063-1.094.074" fill="#fff"/><path d="M127.898 23.648c-.07.016-.136.043-.203.047-.765.028-1.535.078-2.297.075-2.05-.008-4.078-.25-6.113-.465-1.41-.145-2.789.02-4.094.625a.346.346 0 01-.218.02.348.348 0 01-.22-.02c-1.3-.606-2.683-.77-4.089-.625-2.035.215-4.066.457-6.113.465-.766.003-1.531-.047-2.297-.075-.07-.004-.137-.03-.207-.047.117-.234.281-.265.531-.257.945.035 1.899.066 2.848.027 1.187-.047 2.375-.156 3.562-.25.594-.047 1.188-.145 1.785-.195 1.41-.118 2.77.05 4.04.726.042.02.109.024.16.008.05.016.117.012.16-.008 1.27-.676 2.633-.844 4.043-.726.594.05 1.187.148 1.785.195 1.187.094 2.371.203 3.559.25.949.039 1.902.008 2.851-.027.25-.008.414.023.527.257" fill="#fff"/><path d="M122.09 24.348c-1.067-.094-2.13-.239-3.195-.313-1.286-.094-2.532.102-3.711.645a.352.352 0 01-.211.02.336.336 0 01-.207-.02c-1.18-.543-2.426-.739-3.715-.645-1.067.074-2.125.219-3.192.313-1.863.168-3.73.246-5.601.117-.07-.008-.14-.027-.219-.043.106-.235.266-.297.512-.293 1.16.023 2.316.055 3.472.012 1.086-.04 2.168-.164 3.25-.25.77-.063 1.54-.168 2.313-.188 1.168-.031 2.281.211 3.32.793.02-.012.047-.023.067-.035.023.012.047.023.066.035 1.04-.582 2.156-.824 3.32-.793.774.02 1.547.125 2.317.188 1.082.086 2.164.21 3.246.25 1.156.043 2.316.011 3.473-.012.25-.004.406.058.515.293-.082.015-.152.035-.219.043-1.87.129-3.738.05-5.601-.117" fill="#fff"/></svg>