<svg xmlns="http://www.w3.org/2000/svg" viewBox="0 0 73.35 37.23"><defs><style>.cls-4{fill:none}.cls-2{fill:#003b56}.cls-3{fill:#e04403}.cls-4{stroke:#e04403;stroke-width:.15px}</style></defs><g id="Layer_2" data-name="Layer 2"><g id="Layer_1-2" data-name="Layer 1"><path fill="none" d="M0 0h73.35v37.23H0z"/><path class="cls-2" d="M25.9 21.97v6.36h1.08v-7.19l-1.08.83zM54.91 21.52l-1.75 5.66-1.74-5.66h-1.59v6.81h1.08v-5.52l1.66 5.52h1.19l1.66-5.47v5.47h1.07v-6.81h-1.58zM40.9 21.97v2.35h-2.8v-2.8h-1.07v6.81h1.07v-3.04h2.8v3.04h1.08v-7.19l-1.08.83zM64.46 25.29h2.7v-.97h-2.7V22.5h2.46l.73-.98h-4.26v6.81h4.07v-.97h-3v-2.07zM3.85 21.72l-.85.84a2.43 2.43 0 01-.64 4.8H.15v1h2.43A3.19 3.19 0 006 24.93a3.14 3.14 0 00-2.13-3.21"/><path class="cls-3" d="M1.23 23.37v-.87h.87l.97-.98H.15v2.92l1.08-1.07z"/><path class="cls-4" d="M1.23 23.37v-.87h.87l.97-.98H.15v2.92l1.08-1.07z"/><path class="cls-2" d="M20.9 25.66l1-3.17 1 3.17zm3 2.67H25l-2.46-6.81h-1.2l-2.45 6.81H20l.56-1.7h2.71zM44.87 25.66l1-3.17 1 3.17zm3 2.67H49l-2.45-6.81h-1.2l-2.45 6.81H44l.55-1.7h2.71zM11.42 22v3.5c0 1.16-.52 1.93-1.73 1.94S8 26.66 8 25.5v-4H6.89v4a2.52 2.52 0 002.79 2.87c2.12 0 2.8-1.29 2.8-2.87v-4.35zM32 24.93a2.25 2.25 0 012.42-2.43h1l.73-1h-1.97a3.11 3.11 0 00-3.29 3.41 3.1 3.1 0 003.29 3.4h1.68v-1h-1.48A2.25 2.25 0 0132 24.93M16.39 27.36h-1.84v-2.07h1.84a1 1 0 010 2.07m-.17-4.87a.83.83 0 01.8.91.83.83 0 01-.8.92h-1.67v-1.83zm2.18 3.83a2 2 0 00-.83-1.62 1.9 1.9 0 00.52-1.3 1.84 1.84 0 00-1.87-1.88h-2.74v6.81h2.93a2 2 0 002-2M60.49 27.36h-1.84v-2.07h1.84a1 1 0 010 2.07m-.17-4.87a.83.83 0 01.8.91.83.83 0 01-.8.92h-1.67v-1.83zm2.18 3.83a2 2 0 00-.82-1.62 1.9 1.9 0 00.52-1.3 1.85 1.85 0 00-1.88-1.88h-2.74v6.81h2.94a2 2 0 002-2M69.5 22.49h1.67a.83.83 0 01.8.91.83.83 0 01-.8.92H69.5zm3.85 5.84l-1.58-3.14a1.81 1.81 0 001.28-1.79 1.88 1.88 0 00-1.88-1.88h-2.75v6.81h1.08v-3h1.23l1.44 3zM29 11.1l-.84.84a2.44 2.44 0 01-.64 4.81h-2.26v1h2.43a3.19 3.19 0 003.4-3.4A3.15 3.15 0 0029 11.1"/><path class="cls-3" d="M26.34 12.75v-.87h.86l.98-.97h-2.92v2.91l1.08-1.07z"/><path class="cls-4" d="M26.34 12.75v-.87h.86l.98-.97h-2.92v2.91l1.08-1.07z"/><path class="cls-2" d="M69 14.31a2.25 2.25 0 012.42-2.43h1l.73-1h-1.93a3.19 3.19 0 00-3.4 3.4 3.5 3.5 0 00.88 2.44h-7.58v-5.83l-1.12.79v5.07a1.84 1.84 0 01-2 1.94v1a3 3 0 003-1.98h12.35v-1H71.2a2.25 2.25 0 01-2.2-2.4M56.24 14.57h-1.52a1.27 1.27 0 01-1.24-1.35 1.26 1.26 0 011.24-1.34h1.52zm-19.81-.94a1.67 1.67 0 011.65-1.76h1V15a1.71 1.71 0 01-1 .35 1.67 1.67 0 01-1.65-1.76m18.29-2.72a2.32 2.32 0 000 4.63h1.52a1.3 1.3 0 01-1.35 1.21H41.54a1.32 1.32 0 01-1.35-1.28v-4.52h-2.11a2.72 2.72 0 100 5.44 2.56 2.56 0 001.13-.25 2.24 2.24 0 002.17 1.61H55a2.15 2.15 0 002.3-2.37v-4.43h-2.6M22.24 11.74v3.38a1.62 1.62 0 01-1.78 1.63h-6.88v-5.84h-1.53a2.31 2.31 0 00-2.32 2.31V16.75H3.48c-1 0-2.25-.21-2.25-2v-2.87l-1.08.83v2.22c0 2.5 1.84 2.78 3.18 2.78h7.47v-4.47a1.26 1.26 0 011.24-1.34h.45v5.83h7.91A2.59 2.59 0 0023.31 15v-4.1zM21.88 18.49h1.17v1.16h-1.17zM6.02 18.49h1.17v1.16H6.02zM4.26 18.49h1.16v1.16H4.26zM55.97 8.96h1.17v1.16h-1.17zM71.22 8.96h1.16v1.16h-1.16zM39.02 8.96h1.17v1.16h-1.17zM37.27 8.96h1.16v1.16h-1.16zM25.9 21.97v6.36h1.08v-7.19l-1.08.83zM54.91 21.52l-1.75 5.66-1.74-5.66h-1.59v6.81h1.08v-5.52l1.66 5.52h1.19l1.66-5.47v5.47h1.07v-6.81h-1.58zM40.9 21.97v2.35h-2.8v-2.8h-1.07v6.81h1.07v-3.04h2.8v3.04h1.08v-7.19l-1.08.83zM64.46 25.29h2.7v-.97h-2.7V22.5h2.46l.73-.98h-4.26v6.81h4.07v-.97h-3v-2.07zM3.85 21.72l-.85.84a2.43 2.43 0 01-.64 4.8H.15v1h2.43A3.19 3.19 0 006 24.93a3.14 3.14 0 00-2.13-3.21"/><path class="cls-3" d="M1.23 23.37v-.87h.87l.97-.98H.15v2.92l1.08-1.07z"/><path class="cls-4" d="M1.23 23.37v-.87h.87l.97-.98H.15v2.92l1.08-1.07z"/><path class="cls-2" d="M20.9 25.66l1-3.17 1 3.17zm3 2.67H25l-2.46-6.81h-1.2l-2.45 6.81H20l.56-1.7h2.71zM44.87 25.66l1-3.17 1 3.17zm3 2.67H49l-2.45-6.81h-1.2l-2.45 6.81H44l.55-1.7h2.71zM11.42 22v3.5c0 1.16-.52 1.93-1.73 1.94S8 26.66 8 25.5v-4H6.89v4a2.52 2.52 0 002.79 2.87c2.12 0 2.8-1.29 2.8-2.87v-4.35zM32 24.93a2.25 2.25 0 012.42-2.43h1l.73-1h-1.97a3.11 3.11 0 00-3.29 3.41 3.1 3.1 0 003.29 3.4h1.68v-1h-1.48A2.25 2.25 0 0132 24.93M16.39 27.36h-1.84v-2.07h1.84a1 1 0 010 2.07m-.17-4.87a.83.83 0 01.8.91.83.83 0 01-.8.92h-1.67v-1.83zm2.18 3.83a2 2 0 00-.83-1.62 1.9 1.9 0 00.52-1.3 1.84 1.84 0 00-1.87-1.88h-2.74v6.81h2.93a2 2 0 002-2M60.49 27.36h-1.84v-2.07h1.84a1 1 0 010 2.07m-.17-4.87a.83.83 0 01.8.91.83.83 0 01-.8.92h-1.67v-1.83zm2.18 3.83a2 2 0 00-.82-1.62 1.9 1.9 0 00.52-1.3 1.85 1.85 0 00-1.88-1.88h-2.74v6.81h2.94a2 2 0 002-2M69.5 22.49h1.67a.83.83 0 01.8.91.83.83 0 01-.8.92H69.5zm3.85 5.84l-1.58-3.14a1.81 1.81 0 001.28-1.79 1.88 1.88 0 00-1.88-1.88h-2.75v6.81h1.08v-3h1.23l1.44 3zM29 11.1l-.84.84a2.44 2.44 0 01-.64 4.81h-2.26v1h2.43a3.19 3.19 0 003.4-3.4A3.15 3.15 0 0029 11.1"/><path class="cls-3" d="M26.34 12.75v-.87h.86l.98-.97h-2.92v2.91l1.08-1.07z"/><path class="cls-4" d="M26.34 12.75v-.87h.86l.98-.97h-2.92v2.91l1.08-1.07z"/><path class="cls-2" d="M69 14.31a2.25 2.25 0 012.42-2.43h1l.73-1h-1.93a3.19 3.19 0 00-3.4 3.4 3.5 3.5 0 00.88 2.44h-7.58v-5.83l-1.12.79v5.07a1.84 1.84 0 01-2 1.94v1a3 3 0 003-1.98h12.35v-1H71.2a2.25 2.25 0 01-2.2-2.4M56.24 14.57h-1.52a1.27 1.27 0 01-1.24-1.35 1.26 1.26 0 011.24-1.34h1.52zm-19.81-.94a1.67 1.67 0 011.65-1.76h1V15a1.71 1.71 0 01-1 .35 1.67 1.67 0 01-1.65-1.76m18.29-2.72a2.32 2.32 0 000 4.63h1.52a1.3 1.3 0 01-1.35 1.21H41.54a1.32 1.32 0 01-1.35-1.28v-4.52h-2.11a2.72 2.72 0 100 5.44 2.56 2.56 0 001.13-.25 2.24 2.24 0 002.17 1.61H55a2.15 2.15 0 002.3-2.37v-4.43h-2.6M22.24 11.74v3.38a1.62 1.62 0 01-1.78 1.63h-6.88v-5.84h-1.53a2.31 2.31 0 00-2.32 2.31V16.75H3.48c-1 0-2.25-.21-2.25-2v-2.87l-1.08.83v2.22c0 2.5 1.84 2.78 3.18 2.78h7.47v-4.47a1.26 1.26 0 011.24-1.34h.45v5.83h7.91A2.59 2.59 0 0023.31 15v-4.1zM21.88 18.49h1.17v1.16h-1.17zM6.02 18.49h1.17v1.16H6.02zM4.26 18.49h1.16v1.16H4.26zM55.97 8.96h1.17v1.16h-1.17zM71.22 8.96h1.16v1.16h-1.16zM39.02 8.96h1.17v1.16h-1.17zM37.27 8.96h1.16v1.16h-1.16z"/></g></g></svg>