<svg xmlns="http://www.w3.org/2000/svg" viewBox="0 0 169.73 60.2"><defs><clipPath id="a"><path d="M107 0h62.73v60.2H107zm0 0"/></clipPath></defs><path d="M2.137 40.5c6.207-1.664 9.82-4.633 9.82-4.633s-.344 2.145-6.531 4.668c-.02 0-.028.012-.035.012-2.375.957-3.606.883-3.606 1.672 0 .265.352.234.793.234h16.473c.586 0 .804 0 .586-.312-.254-.356-1.489-1.778-1.805-2.313-.016-.035-.039-.078-.043-.117-.21-.527.11-1.258.844-1.879.797-.668 2.035-.355 2.535.129.223.219.914.977 1.598 1.75.863.945 2.363 2.742 2.363 2.742l6.496-.008v-1.222c0-.766-.578-.668-.578-.668 0-.008.02-.008.02-.008 1.14-1.004 2.203-1.969 2.203-1.969v6.09h-8.63c-1.144-1.34-3.484-4.16-4.163-4.957-.153-.164-.247-.281-.293-.328-.512-.555-1.282-.2-.88.316l.036.043c.664.715 4.027 4.926 4.027 4.926H2.187c-.722 0-.984-.227-1.378-.934-.407-.71-.536-1.25-.715-1.515-.18-.266-.23-1.172 1.02-1.461.171-.047.347-.09.523-.133l.5-.125m45.496.047c.148.258.23.547.23.812v3.309h-11.55v.668c0 .39.378.488.378.488l-1.812 1.074v-4.3h11.336v-.59c0-.266-.164-.785-.649-.785H34.88v-1.868c0-.718-.664-.62-.664-.62l2.2-1.672v2.578h9.48c.859 0 1.44.402 1.738.906m6.656 1.898H52.16s.246-.64.727-.84c.043-.359.297-.742.578-1.058.383-.438.824-.758.824-.758zm1.64 0h9.669v-1.64c0-.094-.012-.184-.016-.258-.062-.348-.23-.426-.23-.426l1.492-1.285v5.832H55.887l-1.598 1.906v-1.906H49.25c.285-1.43 1.055-3.152 2.203-3.824.05-.098.098-.2.145-.297 1.129-1.977 4.332-3.567 4.332-3.567zm25.024-1.898c.149.258.238.547.238.812v1.086l1.664-.851v2.879c0 .449.196 1.109 1.024 1.109.723 0 1.078-.492 1.078-1.11v-7.89c0-.574-.809-.86-.809-.86l2.352-1.964v8.687h14.277l.012-1.898v-.09c0-.516-.676-.473-.676-.473l2.242-1.82v6.504H86.5c0 1.156-.629 2.543-2.547 2.543-2.008 0-2.762-1.582-2.762-2.543H70.426v.668c0 .39.386.488.386.488L69 46.898v-4.3h10.527v-.59c0-.266-.164-.785-.64-.785H69v-1.868c0-.718-.676-.62-.676-.62l2.211-1.672v2.578h8.684c.855 0 1.437.402 1.734.906m11.774 6.027a.714.714 0 011.426 0c0 .39-.325.715-.723.715a.718.718 0 01-.703-.715m-32.13-.023a.69.69 0 01.696-.688c.375 0 .676.313.676.688 0 .383-.301.683-.676.683-.39 0-.695-.3-.695-.683m2.37 0c0-.375.317-.688.696-.688.379 0 .684.313.684.688a.68.68 0 01-.684.683.69.69 0 01-.695-.683m-51.102 0c0-.375.301-.688.684-.688a.69.69 0 01.683.688.682.682 0 01-.683.683.677.677 0 01-.684-.683m2.367 0a.69.69 0 011.379 0 .682.682 0 01-.695.683.684.684 0 01-.684-.683m12.961 0c0-.375.32-.688.7-.688.378 0 .683.313.683.688a.68.68 0 01-.683.683c-.38 0-.7-.3-.7-.683m24.82-11.457c0-.38.313-.692.692-.692a.7.7 0 01.703.692.694.694 0 01-.703.687.69.69 0 01-.691-.687m2.379 0a.69.69 0 111.38-.003.69.69 0 01-1.38.003" fill-rule="evenodd" fill="#231f20"/><path d="M168.75 59.219V4.809h-26.21V.984c-20.661 0-22.817 20.293-22.817 21.024h-5.524c-2.144 0-3.117 1.457-3.117 3.797-.555 0-1.004.62-1.004 1.187 0 .547.606 1.028.992 1.028 0 .257.012 13.261.024 22.394l-2.664.957v7.848" fill="#fff"/><path d="M127.898 36.23l2.856-3.82c.2-.203.476.055.309.254l-2.336 3.566-1.606 2.48a10.03 10.03 0 01-.492-.784l1.27-1.696h.828m22.933 12.532c.528 3.5.824 5.652.813 6.562-.336.32-.664.621-.973.895l-.625-7.457-.492-5.754c-.028-.39.39-.39.414 0 .336 2.215.633 4.129.863 5.754h-.785m2.05 0c.552 2.703.798 4.531.688 5.504-.246.23-.484.449-.715.66.012-.91-.23-2.965-.753-6.164a352.608 352.608 0 00-1.196-6.985c-.027-.359.305-.359.367-.054.672 2.789 1.215 5.12 1.61 7.039h-.781m2.156 0c.406 1.906.664 3.543.574 4.261a12.48 12.48 0 01-.602.602c-.074-1.383-.304-3.012-.687-4.863-.469-2.274-1.145-4.887-2.027-7.848-.168-.422.199-.676.28-.445.75 1.687 1.802 5.312 2.462 8.293h-.715m2.14 0c.192 1.07.313 2.097.337 3.05-.204.235-.442.461-.66.692-.02-1.055-.157-2.309-.438-3.742-.477-2.434-1.34-5.414-2.653-8.86 0-.03-.019-.062-.019-.086h.523c1.325 2.965 2.38 6.118 2.91 8.946h-.761m2.164 0c.094.582.148 1.148.187 1.687-.218.25-.468.52-.714.79 0-.774-.067-1.61-.196-2.477-.367-2.575-1.273-5.559-2.71-8.946h.538c1.586 3.317 2.496 6.364 2.895 8.946h-.723m2.082 0c.008.066.024.133.032.191a7.945 7.945 0 01-.477.621l-.18.219a11.355 11.355 0 00-.09-1.031c-.304-2.668-1.148-5.32-2.796-8.946h.683c1.184 2.47 2.434 6.211 2.828 8.946h-.715m-28.21-12.532l1.957-2.925c.218-.317.554.023.382.336l-1.328 2.59-1.847 3.585h-.645c-.184-.183-.371-.367-.523-.562l2.004-3.024h1.011m.762 0l.988-1.835c.168-.282.535-.055.387.199l-.617 1.636-1.348 3.586h-1.348l1.938-3.586h.758m.96 0l.282-.863c.133-.324.437-.137.351.153l-.132.71-.676 3.586h-.992l1.168-3.586h.5m.824 0l.094-.468c.082-.274.484-.164.484.082l-.035.386-.324 3.586h-.942l.723-3.586h.543m.898 0v-.05c0-.387.625-.301.582-.028v.078l-.129 3.586h-.96l.507-3.586h.582m3.399 0c.11-.144.367-.156.469 0 .007.04.027.086.027.153l.277 3.433h-.773l-.031-3.433c0-.067.003-.113.03-.153h.47m.703 0v-.023c-.043-.379.437-.473.496-.11l.02.133.585 3.586h-.922l-.18-3.586h.516m.418 0l-.074-.402c-.098-.2.223-.406.3-.2l.184.602.782 2.645c-.176.336-.344.648-.536.941h-.09l-.566-3.586h.41m1.625 0l-.457-2.25s.746 0 .746 1.364c0 .418-.039.699-.085.886-.067.286-.133.372-.133.372l-.07-.372h.203m.472 0l.117-.437c.086-.195.391 0 .332.219l-.03.218-.665 3.586h-.687c-.02-.039-.04-.07-.051-.109l.984-3.477h.418m3.504 0v-1.917c0-1.34 1.035-1.918 2.563-2.524 1.75-.668 2.523-1.953 2.523-1.953s-1.563-1.73-1.563-4.36c0-2.46 2.348-1.343 2.348-1.343 0-1.738-1.68-1.57-1.68-1.57s-.109-1.223-1.957-1.395c-1.84-.172-2.625.23-3.3 1.676-.676 1.457-1.844 5.207-3.52 5.207-1.957 0-2.402-1.34-2.402-1.34h-16.946c0 .336-.218.555-.218.555.668 0 .668.73.668.73s.277-.121.566.164c.277.281.149.719.149.719s.347-.11.636.176c.278.28.086.664.086.664.695-.274.852.508.852.508.785-.278.73.449.73.449.567-.227.613.394.613.394.606-.34.782.27.782.27.719-.27.957.45.957.45.894-.278 1.113.62 1.113.62.73.223.73 1.117.73 1.117.676.059.786.895.786.895.718-.277 1.007.789 1.007.789.668-.344 1.122.387 1.122.387 1.113-.274 1.55.28 1.55.28.844-.28 1.067.22 1.067.22.785-.61 1.344 0 1.344 0 .562-.774 1.39-.22 1.39-.22.297-.331.645-.401 1.07-.226.051-.293.25-.441.56-.441.03-.598.3-.879.784-.84-.027-.656.676-.785.953-1.234.27.781.88.672.832 2.015.47.055.645.368.727.946.16.007.309.054.418.132.18.141.309.399.367.762.402.078.625.363.676.848.348.168.566.285.676.887.285.101.617.293.941.554v-3.05h-2.66m3.168 0v-1.528c0-1.062.562-1.793 1.793-2.129 1.61-.449 3.172-2.347 3.172-2.347 2.238 1.898 3.875 5.37 3.875 5.37-.352.15-.508.356-.457.633v.032c-.301-.043-.543.07-.727.34-.387-.164-.605-.082-.832.28-.34-.28-.664-.296-1.008.227-.523-.172-.886.07-1.066.73-.719.005-1.067.329-1.067.95-.507-.105-.824.125-.953.66a.824.824 0 00-.523.367h-2.207V36.23h8.383m.406 0c.086-.156.316-.277.484-.023 0 .012.02.016.024.023.453.625 1.64 2.247 1.535 2.508-.098.106-.207.11-.324-.043l-1.735-2.207c-.066-.05-.047-.164.016-.258h.508m-31.086 0l-.832 1.278a4.54 4.54 0 01-.32-.844l.332-.434 3.289-4.406c.195-.23.46 0 .285.219zm1.469 3.586l-.2.407a3.776 3.776 0 01-.445-.407zm21.68 8.946l.468 8.023c-.477.43-.844.754-1.055.93V43.93c0-.254.344-.164.317.058zm-19.66-8.946l-.602 1.586a10.614 10.614 0 01-1.176-.812l.43-.774zm2.132 0l-.516 2.668a15.841 15.841 0 01-1.18-.515l.704-2.153zm1.719 0l-.297 3.254c-.196-.047-.39-.09-.57-.148a12.15 12.15 0 01-.672-.195l.597-2.91zm1.675 0l-.152 3.551c-.418-.031-.848-.09-1.285-.18l.476-3.37zm1.461 0l.09 3.508a5.538 5.538 0 01-1.11.07l.227-3.578.223-3.214c.063-.395.527-.309.5.054l.07 3.16h-.793m2.239 0l.222 3.047a8.895 8.895 0 01-.972.352l.011-3.399v-3.214c.036-.34.504-.34.504-.055l.235 3.27h-.739m2.133 0l.18 2.171a6.016 6.016 0 01-.91.645l-.043-2.817zm1.5 0l.09.593a9.796 9.796 0 01-.914 1.117l-.098-1.71zm.488 0c-.019.03-.03.062-.054.101l-.035-.102zm1.81 0l-.161.855c-.238-.313-.39-.61-.527-.856zm1.007 0l-.328 1.835a8.208 8.208 0 01-.602-.668l.305-1.168.828-3.078c.078-.191.36-.054.297.145l-.5 2.933h-.625m1.676 0l-.243 2.84a10.117 10.117 0 01-.785-.668l.461-2.172.473-2.12c.02-.192.309-.083.281.105l-.187 2.015h-.567m1.606 0l-.2 3.61c-.28-.184-.535-.36-.765-.535l.539-3.075.129-.73c.058-.195.367-.11.34.055l-.043.675h-.426m1.496 0v4.371c-.336-.187-.66-.378-.965-.566l.574-3.805c.067-.218.391-.254.391-.023v.023h-.39m3.105 0c-.11.176-.172.407-.195.707-.563.309-.852.887-.852 1.73-.484.095-.71.38-.656.837-.227-.067-.395.02-.504.277v-3.55zm5.805 0c1.195 2.426 2.156 5.215 2.644 7.239-.172.332-.367.668-.578 1.02-.824-3.458-1.746-6.184-2.68-8.259-.382-.855-.754-1.601-1.144-2.238-.156-.183.23-.387.37-.219.477.743.954 1.57 1.388 2.457h-.614m2.024 0c.875 1.594 1.703 3.368 2.152 4.641-.105.488-.242 1-.445 1.516a40.104 40.104 0 00-2.363-6.157 37.898 37.898 0 00-1.415-2.597c-.109-.164.165-.39.305-.2.555.692 1.16 1.704 1.766 2.797h-.656m2.109 0c.289.407.508.774.703 1.114.129.636.21 1.3.18 2.015a34.297 34.297 0 00-1.645-3.129 41.36 41.36 0 00-1.89-2.933c-.196-.254.136-.336.218-.227a52.688 52.688 0 012.434 3.16h-.762m-16.238-3.586l-.262-1.117c-.097-.3.238-.39.375-.105l.43 1.222.437 1.239c.07.199-.418.84-.523.672zm-19.102-9.52c.328 0 .196.556-.062.556l-12.121.68c-.309-.368-.516-.692-.621-.966v-.27zm.567 1c.191 0 .23.29.11.45l-11.18 1.559c-.391-.383-.766-.75-1.083-1.098zm.773.731c.281-.039.461.325.172.438l-10.016 2.73a19.295 19.295 0 01-.828-.77l-.328-.304zm.57.778c.31-.086.434.023.329.336l-8.848 3.64c-.352-.258-.7-.53-1.023-.812zm.543.87c.325-.183.786.235.559.38l-7.586 4.05c-.39-.206-.793-.449-1.195-.71zm.973.653c.27.07.328.028.328.028s-.058.043-.011.253l-6.157 4.344a8.734 8.734 0 01-1.351-.457zm.59.414c.215-.133.504.098.316.227l-4.418 4.12a6.2 6.2 0 01-1.261.04zm1.289.371l-3.16 4.543a7.243 7.243 0 01-.082-1.242l2.926-3.445c.18-.172.464.02.316.144m21.758-8.847s.308.703.804 0h.196v-.246s-.196-.348-1.461 0v.218zm1.41 17.136c-.02-.28.289-.425.437-.164.04.055.043.11.086.164zm1.402 0c-.132-.336-.285-.668-.43-1.004-.148-.335.2-.558.333-.277.234.426.445.856.636 1.281zm1.282 0c-.258-.578-.547-1.183-.836-1.824-.09-.152.218-.351.437-.105.332.46.7 1.133 1.082 1.93" fill-rule="evenodd" fill="#331110"/><g clip-path="url(#a)"><path d="M126.582 58.418v.8h4.563v-9.347h-4.563zm-8.203-1.8a2.18 2.18 0 01-.453.054.94.94 0 01-.301-.055c-.469-.12-.664-.55-1.46-.55-.442 0-.755.171-.755.171v-2.41l-1.441.004v.867l.004.215v3.504l.02.8h-.805v-5.39h-.954v5.39h-.785v-5.39h-2.379v5.39h-.64V52.95h7.32c.227-.332.484-.644.762-.953h-8.082v-.625h8.715c.37-.336.742-.672 1.148-.957h-7.2c-.011-9.133-.023-22.137-.023-22.394-.386 0-.992-.48-.992-1.028 0-.566.45-1.187 1.004-1.187 0-2.34.973-3.797 3.117-3.797h5.524c0-.73 2.156-21.024 22.816-21.024V4.81h26.211v51.773c0 .008-.04.023-.094.035-.082.031-.183.074-.297.074-.144 0-.285-.02-.425-.074-.465-.133-.871-.43-1.414-.43-.653 0-.958.368-1.497.43a.515.515 0 01-.16.02.391.391 0 01-.133-.02c-.597-.062-1.234-.57-2.097-.57-1.242 0-1.563.414-2.098.57a1.09 1.09 0 01-.441.074c-.223 0-.383-.02-.516-.074-.418-.117-.566-.379-1.258-.379-.574 0-1.027.235-1.437.38-.223.089-.43.16-.633.16-.215 0-.41-.071-.648-.16-.418-.145-.875-.34-1.461-.34-.73 0-1.012.195-1.32.34-.2.109-.415.179-.758.179-.208 0-.442-.043-.672-.121l-.567.57c.36.172.836.348 1.238.348.899 0 .899-.532 2.079-.532.918 0 1.527.508 2.109.508.594 0 1.18-.53 2.07-.53.895 0 .875.444 1.774.444.879 0 1.008-.648 2.539-.648.922 0 1.594.594 2.23.594.653 0 .957-.45 1.657-.45.707 0 1.167.504 1.84.504a.922.922 0 00.39-.109v.633c-.023.008-.215.101-.39.101-.673 0-1.133-.492-1.84-.492-.7 0-1.004.438-1.657.438-.636 0-1.308-.582-2.23-.582-1.531 0-1.66.636-2.54.636-.898 0-.878-.445-1.773-.445-.89 0-1.476.535-2.07.535-.582 0-1.191-.5-2.11-.5-1.18 0-1.18.531-2.077.531-.633 0-1.438-.421-1.68-.566l-.653.621s.11.055.286.133c.492.203 1.492.594 2.047.594.898 0 .898-.524 2.078-.524.918 0 1.527.512 2.109.512.594 0 1.18-.54 2.07-.54.895 0 .875.45 1.774.45.61 0 .855-.312 1.445-.492.274-.09.61-.148 1.094-.148.304 0 .574.058.832.148.527.176.969.437 1.398.437.586 0 .895-.37 1.492-.437a.731.731 0 01.31 0c.612.055 1.07.492 1.694.492.176 0 .368-.097.391-.11v.419h-19.516v-.73h-1.488v.73h-1.02v-.73h-.538v.73h-.676v-.73h-.543v.73h-.719v-.73h-1.281v.73h-.625V46.777h6.89v-.789h-6.93c-.07-.25-.21-.476-.398-.636h7.328v-.797h-9.246v.5c.875.09 1.563.836 1.563 1.734v1.176H123.68v.472h.36c1.058 0 1.917.848 1.917 1.903l-.008 5.805s-.422.21-.746.21c-.348 0-.46-.308-1.363-.308-.895 0-1.024.414-1.887.414-.875 0-.781-.36-1.707-.36-.781 0-1.11.399-1.867.516M107.594 11.31s-.04-3.817 1.636-6.13c.66-.91 1.215-2.21 3.997-3.843 2.308-1.352 5.878-1.34 5.878-1.34h24.403v3.719h26.222v56.484h-62.136zm24.183 47.109v.8h4.575v-9.347h-4.575zm5.203 0v.8h4.57v-9.347h-4.57zm-9.535-3.586V52.48c0-.347.282-.632.625-.632h.23c-.03-.094-.07-.192-.07-.301 0-.356.278-.637.633-.637.348 0 .645.281.645.637a.67.67 0 01-.086.3h.238c.352 0 .633.286.633.633v2.696h-2.848zm5.196-2.352c0-.347.289-.632.632-.632h.23a.635.635 0 01.566-.938c.337 0 .626.281.626.637 0 .11-.03.207-.074.3h.234a.63.63 0 01.633.633v2.696h-2.847zm5.199 0c0-.347.281-.632.637-.632h.23a.607.607 0 01-.066-.301.628.628 0 111.257 0c0 .11-.015.207-.078.3h.239c.347 0 .644.286.644.633v2.696h-2.863zm5.129 2.352V52.25h2.543v5.387h-2.543zm3.219 0V52.25h3.039v5.387h-3.04zm-15.743-3.922v1.098c0-.27-.21-.477-.457-.477h-.09a1.092 1.092 0 00-.226-.62zm-2.695.621a.473.473 0 00-.473.477V50.91h.774a1.03 1.03 0 00-.215.621zm7.898-.62v1.097a.464.464 0 00-.464-.477h-.102a.993.993 0 00-.2-.62zm-2.703.62a.473.473 0 00-.472.477V50.91h.773c-.129.172-.21.383-.21.621zm7.914-.62v1.097a.478.478 0 00-.484-.477h-.078c0-.238-.09-.449-.223-.62zm-2.699.62a.476.476 0 00-.476.477V50.91h.765a1.02 1.02 0 00-.203.621zm11.067-2.379v2.559h-3.04v-2.559c0-1.082 1.528-1.28 1.528-1.691 0 .41 1.512.61 1.512 1.691m-.946-1.726h.946v.648c-.27-.289-.688-.476-.946-.648m-2.094 0h.95c-.254.172-.664.36-.95.648zm-1.3 0h.625v.426c-.2-.172-.434-.309-.625-.426m-1.918 0h.636c-.199.117-.437.254-.636.426zm2.543 1.43c0-.91-1.262-1.079-1.262-1.43 0 .351-1.281.52-1.281 1.43v2.855h2.543zm-3.961-.086h-15.48c.144.125.273.289.367.464h15.113zm-14.106 7.042h2.848v2.856h-2.848zm5.196 0h2.847v2.856h-2.847zm5.199 0h2.863v2.856h-2.863zm-22.29 2.606c-.085.031-.148.066-.148.066l.008.735h10.54l.007-.801v-.063s-.062.024-.144.063c-.149.066-.415.156-.61.156-.187 0-.3-.086-.488-.156-.18-.078-.426-.148-.875-.148-.352 0-.582.07-.805.148-.305.117-.562.266-1.082.266-.59 0-.738-.168-1.05-.266a1.933 1.933 0 00-.657-.094c-.234 0-.437.04-.605.094-.536.156-.914.46-1.715.46-.524 0-.711-.296-1.125-.46-.16-.078-.36-.125-.637-.125-.266 0-.48.07-.613.125m10.406-1.488s-.43.218-.754.218c-.348 0-.46-.312-1.363-.312-.895 0-1.024.422-1.887.422-.875 0-.781-.363-1.707-.363-.914 0-1.234.566-2.32.566-.739 0-.809-.586-1.762-.586-.441 0-.762.164-.762.164l.008.625s.313-.164.754-.164c.953 0 1.023.586 1.762.586 1.086 0 1.406-.563 2.32-.563.926 0 .832.368 1.707.368.863 0 .992-.418 1.887-.418.902 0 1.015.308 1.363.308.324 0 .746-.226.746-.226" fill-rule="evenodd" fill="#5c0101"/></g><path d="M128.715 15.637a1.34 1.34 0 011.168 1.324c0 .746-.61 1.348-1.352 1.348a1.345 1.345 0 01-1.344-1.348c0-.848.708-1.414 1.528-1.324m3.105-1.805c.325.168.672.262 1.043.262.383 0 .73-.094 1.04-.262a2.213 2.213 0 001.171-1.785c.008-.055.008-.121.008-.164 0-1.23-.98-2.227-2.219-2.227-.093 0-.191.004-.281.024.512-.375 1.043-.7 1.586-1.016.191 1.043 1.09 1.852 2.195 1.852a2.227 2.227 0 002.219-2.22c0-.48-.152-.929-.41-1.288.52-.137 1.05-.258 1.598-.352-.278.36-.426.817-.426 1.305 0 1.219.992 2.219 2.215 2.219 1.23 0 2.218-1 2.218-2.22a2.2 2.2 0 00-.648-1.577c.922.008 1.84.094 2.73.25-.28.367-.449.828-.449 1.328a2.22 2.22 0 002.211 2.219c1.227 0 2.242-1 2.242-2.22 0-.054-.023-.108-.023-.167.625.266 1.23.562 1.808.902-.945.254-1.66 1.117-1.66 2.14 0 .454.133.864.367 1.212a2.209 2.209 0 001.86 1.012c.781 0 1.469-.403 1.867-1.012.227-.348.348-.758.348-1.211 0-.059 0-.129-.004-.195.512.441 1 .91 1.453 1.406.219.207.41.437.594.664a1.176 1.176 0 00-.176-.016c-.832 0-1.563.465-1.938 1.137a2.415 2.415 0 00-.277 1.094c0 .242.04.476.11.707a2.24 2.24 0 002.105 1.52c.98 0 1.82-.653 2.101-1.52.012-.031.024-.055.024-.09.031.043.039.074.062.117.43.8.813 1.645 1.133 2.504a2.682 2.682 0 00-.672-.094c-1.21 0-2.215 1-2.215 2.22a2.224 2.224 0 002.215 2.218c.61 0 1.153-.235 1.551-.625.04.297.078.594.098.902.027.371.031.738.054 1.11h-.164c-1.21 0-2.214.988-2.214 2.218 0 .075 0 .164.023.246.105 1 .871 1.786 1.855 1.938-.05.16-.082.32-.117.469a2.2 2.2 0 00-.738-.121c-.844 0-1.582.46-1.953 1.164l-1.242-1.325s.414-.718.496-2.125v-.324c0-1.555-.453-2.574-1.031-3.25-.946-1.12-2.208-1.285-2.208-1.285s.11-1.563-3.367-1.563c-2.258 0-3.226 1.348-3.937 2.848-.024.059-.055.117-.082.176-.547 1.164-1.235 2.93-1.98 3.398a.662.662 0 01-.368.121c-.215 0-.394-.054-.555-.12-.484-.231-.675-.72-.675-.72h-17.207c-.04-.495-.063-.984-.063-1.495v-.067c.238.09.504.133.785.133.953 0 1.758-.594 2.067-1.426a2.14 2.14 0 00.152-.781 2.228 2.228 0 00-2.219-2.223c-.09 0-.16 0-.242.016a19.44 19.44 0 01.723-2.254 2.221 2.221 0 004.367-.582c0-.5-.168-.973-.457-1.328m12.008-1.801a2.235 2.235 0 01-1.57 1.8 2.323 2.323 0 01-.626.083c-.222 0-.425-.027-.629-.082a2.239 2.239 0 01-1.574-1.801c-.004-.11-.023-.215-.023-.336 0-.555.215-1.059.547-1.45a2.2 2.2 0 011.68-.769 2.22 2.22 0 012.222 2.22c0 .12-.016.226-.027.335m4.605-1.785a2.246 2.246 0 00-1.527-.606c-.567 0-1.113.239-1.52.61-.43.394-.68.976-.68 1.61v.171c.055.777.52 1.445 1.176 1.8.305.165.657.247 1.024.247a2.18 2.18 0 001.047-.246c.648-.356 1.12-1.024 1.175-1.801v-.172c0-.633-.265-1.215-.695-1.613m-11.45 3.586c-.378-.73-1.124-1.227-1.976-1.227-.879 0-1.625.496-1.976 1.227a1.99 1.99 0 00-.246.992 2.221 2.221 0 104.441 0c0-.36-.105-.695-.242-.992m-3.64-1.801a2.235 2.235 0 01-1.157-1.715c-.008-.082-.02-.152-.02-.234 0-.254.04-.496.13-.727a17.515 17.515 0 00-2.348 2.676c-.258.352-.492.703-.715 1.07a2.195 2.195 0 012.586.73m1.23-3.585c0-.055-.007-.121-.007-.164 0-.75.597-1.36 1.343-1.36.742 0 1.352.61 1.352 1.36 0 .043-.004.11-.004.164a1.361 1.361 0 01-1.348 1.176c-.68 0-1.246-.512-1.336-1.176m20.094 0a1.329 1.329 0 01-.758-1.211 1.35 1.35 0 111.953 1.21 1.433 1.433 0 01-.601.138c-.219 0-.418-.055-.594-.137m7.809 0c-.028-.055-.047-.094-.075-.137-.43-.777.137-1.12.137-1.12l-.187-.267s.793-.62.965-.75c.156-.136.078-.261.02-.347-.052-.082-.212-.11-.321-.024-.11.078-2.11 1.547-2.223 1.63-.23.19-.098.503-.098.503l-1.105-.312 2.227-1.61-1.41-1.554s-.364.273-.458.351c-.109.082-.02.352-.02.352l-1.136-.16 1.66-1.368 1.84 1.957s.207-.105.516-.296c.226-.172.586-.34.953.105.433.512.187.965-.02 1.125-.222.152-.379.344-.379.344l1.02 1.578.402.61s.27-.106.426-.157c.156-.055.129-.344.129-.344l.902.38-1.64.976-.95-1.465-.476-.754s-.348.14-.184.406c.04.063.114.184.223.348a90.05 90.05 0 001.023 1.683l-.18.102a15.6 15.6 0 00-.722.434c-.113.078-.078.379-.078.379l-.938-.41.645-.403.43-.258s-.637-1.05-.918-1.527h.738M140.207 7.96a1.352 1.352 0 012.703 0c0 .746-.605 1.344-1.351 1.344a1.345 1.345 0 01-1.352-1.344m6.676-1.121c.672.148 1.34.351 1.972.57a1.348 1.348 0 11-2.578.55c0-.472.239-.89.606-1.12m-11.867 1.379a16.073 16.073 0 012.254-.93c.265.242.437.61.437 1.008a1.345 1.345 0 11-2.691 0zm23.968-1.149c.211 0 .371.172.371.407 0 .261-.257.378-.41.378-.168 0-.367-.097-.367-.39 0-.156.2-.395.406-.395m-20.175 6.762a1.06 1.06 0 01-.051-.336 1.352 1.352 0 012.703 0c0 .121-.031.227-.05.336a1.331 1.331 0 01-1.302 1.004 1.331 1.331 0 01-1.3-1.004m5.254 0c-.012-.05-.012-.11-.012-.172 0-.734.597-1.34 1.332-1.34.754 0 1.351.606 1.351 1.34 0 .063 0 .121-.007.172a1.346 1.346 0 01-1.344 1.18 1.337 1.337 0 01-1.32-1.18m11.437 0c.227-.156.508-.258.797-.258.297 0 .586.102.8.258.333.246.551.637.551 1.094 0 .25-.07.492-.207.707a1.34 1.34 0 01-1.144.64c-.488 0-.914-.265-1.152-.64a1.353 1.353 0 01.355-1.8m-22.918 1.8c.238-.219.555-.348.902-.348.336 0 .657.13.895.348a1.3 1.3 0 01.457.992c0 .75-.606 1.348-1.352 1.348-.754 0-1.34-.598-1.34-1.348 0-.398.16-.75.438-.992m29.977 0c-.176-.363-.325-.653-.325-.653s-.445.168-.605.22c-.16.054-.14.402-.14.402l-.954-.454 2.047-.988s.309.621.676 1.473c.164.355.336.785.496 1.203.543 1.5.914 3.094.914 3.094s-.418.101-.762 0c-.312-.102-.558-.399-.558-.399s-.36.078-.75-.16c-.395-.234-.664-.766-.93-.805a.86.86 0 01-.332-.16l2.05-.64s-.179-.63-.495-1.407c-.09-.238-.22-.5-.332-.726h.699m1.289 0a.33.33 0 01.21-.09c.087 0 .169.035.216.09.101.066.148.176.148.312 0 .274-.258.39-.39.39-.184 0-.383-.116-.383-.401 0-.098.082-.223.199-.301h.426m-.735-1.164c.227 0 .383.176.383.406 0 .273-.262.39-.41.39-.168 0-.367-.117-.367-.394 0-.156.199-.402.394-.402m-37.234 8.316c-.254.34-.66.559-1.098.559-.281 0-.547-.078-.746-.23 0-.098.012-.22.012-.329.058-.7.16-1.379.277-2.055a1.347 1.347 0 011.797 1.273c0 .286-.09.56-.242.782m2.27 0a2.232 2.232 0 01-.465-1.379c0-1.215.992-2.222 2.203-2.222a2.229 2.229 0 012.222 2.222c0 .524-.175.992-.48 1.38a2.216 2.216 0 01-3.48 0m34.183 0c-.031-.575-.07-1.188-.07-1.31 0-.234.187-.69.601-.714.39-.032.848-.086.848-.086s.16.73.262 1.5c.023.207.047.414.066.61.047.546.07.987.07.987s.5.032.633.032c.25 0 .348-.27.348-.27l.676.86h-2.344s-.027-.84-.082-1.61c0-.023 0-.05-.016-.074l-.101-1.234s-.36.082-.336.406c.004.12.02.488.031.902l.078 1.61h-.844c-.238 0-.37.234-.37.234l-.743-.797h1.367l-.074-1.047h.586m-4.023-3.32c.097.363.187.715.257 1.078a1.34 1.34 0 01-1.332 1.098 1.356 1.356 0 01-1.347-1.352c0-.746.613-1.34 1.347-1.34.442 0 .828.203 1.075.516m-30.36 1.941c0-.746.617-1.347 1.352-1.347.746 0 1.347.601 1.347 1.347a1.35 1.35 0 01-1.347 1.356 1.36 1.36 0 01-1.352-1.356m33.965-3.054l.246.832s-.074-.016-.148-.059c-.098-.05-.192-.125-.192-.125s-.219.07-.449-.012c-.191-.078-.441-.34-.441-.34zm-2.156.722c.199 0 .37.168.37.399 0 .27-.25.382-.394.382-.187 0-.382-.105-.382-.394 0-.16.195-.387.406-.387m.27 1.035c.206 0 .366.176.366.407 0 .27-.246.386-.406.386-.172 0-.363-.113-.363-.39 0-.168.191-.403.402-.403m-2.574 6.25c-.02-.078-.02-.16-.02-.246 0-.746.61-1.351 1.34-1.351h.141a14.29 14.29 0 01-.129 1.597 16.02 16.02 0 01-.16 1.082 1.348 1.348 0 01-1.172-1.082h1.332m3.969 0c.023-.367 0-.687 0-.687s-.621-.024-.774-.024c-.16 0-.324.243-.324.243l-.726-.832h2.593s-.011.636-.09 1.3c-.003.09-.023.168-.03.246-.09.668-.169 1.23-.169 1.23s-1.28.7-1.523.864c-.258.149-.434.27-.324.422.097.16.214.106.457-.02.226-.132 1.308-.644 1.308-.644s-.281 1.559-.8 3.273c-.051.22-.13.438-.2.641-.617 1.887-1.484 3.7-1.543 3.836-.054.125-1.148.613-1.418.773-.199.122-.726-.16-.804-.855-.04-.375-.188-1.672-.426-2.61-.195-.796-.488-1.269-.535-1.316-.082-.105.027-.277.136-.133.063.059.438.664.793 1.516.34.813.63 1.871.704 2.04.171.312.746.64 1.02.073.155-.336.96-2.355 1.507-3.965.016-.03.02-.07.039-.105.34-1.047.508-1.855.508-1.855s-.617.152-.906.312c-.297.164-.774 0-.618-.824.168-.832.395-1.016.758-1.168.344-.164 1.16-.594 1.16-.594s.153-.516.211-.992c0-.047 0-.09.016-.145h.68m.628 0c.04-.144.215-.336.391-.336.203 0 .352.137.367.336 0 .028.024.043.024.067 0 .27-.258.379-.41.379-.188 0-.387-.106-.387-.39 0-.017.015-.04.015-.056h.758m-6.75 3.25a18.913 18.913 0 01-.77 1.973l-1.019-1.086c.16-.574.676-.98 1.301-.98.168 0 .328.035.488.093m5.274 2.512c.199 0 .367.164.367.395 0 .27-.25.382-.399.382-.18 0-.375-.101-.375-.382 0-.164.196-.395.407-.395m-.457 1.113c.203 0 .367.172.367.407 0 .27-.262.375-.406.375-.168 0-.368-.098-.368-.391 0-.152.2-.39.407-.39" fill-rule="evenodd" fill="#71bf44"/><path d="M.031 57.695c.242-.011.41-.043.52-.097.187-.102.277-.278.277-.535v-4.77c0-.25-.09-.426-.27-.523-.097-.06-.277-.098-.527-.125v-.239h2.906c1.176 0 2.063.32 2.676.953.57.582.844 1.36.844 2.332 0 .883-.281 1.621-.844 2.227-.636.687-1.488 1.031-2.57 1.031H.031zm2.332-.633c.008.192.043.333.11.426.07.086.195.13.41.13.554 0 1.02-.2 1.383-.602.363-.41.55-1.18.55-2.336 0-.68-.109-1.266-.296-1.766-.32-.789-.852-1.184-1.602-1.184-.25 0-.406.051-.48.165-.047.07-.075.199-.075.398zm7.762-5.746v.239c-.367.02-.617.074-.738.18-.125.097-.18.34-.18.71v3.239c0 .492.05.87.172 1.14.195.5.594.746 1.18.746.738 0 1.234-.27 1.484-.828.14-.3.219-.722.219-1.27v-2.96c0-.344-.075-.59-.188-.711-.136-.13-.383-.215-.738-.246v-.239h2.086v.239c-.305.066-.5.133-.602.226-.093.086-.14.285-.14.594v3.098c0 .824-.2 1.457-.59 1.906-.387.445-1 .664-1.844.664-1.078 0-1.82-.328-2.234-.996-.211-.348-.317-.809-.317-1.367v-3.235c0-.367-.054-.59-.144-.683-.094-.098-.309-.164-.637-.207v-.239zm3.66 6.38c.246-.008.438-.044.547-.098.191-.102.285-.297.285-.575v-4.687c0-.29-.086-.477-.265-.57-.114-.063-.297-.098-.567-.121v-.239h2.934c.57 0 1.035.067 1.41.196.71.253 1.055.703 1.055 1.367 0 .398-.141.71-.426.953a2.346 2.346 0 01-.922.445v.082c.34.074.652.188.918.352.5.324.75.773.75 1.34 0 .539-.238.972-.73 1.308-.481.328-1.13.5-1.934.5h-3.055zm2.348-3.352c.586 0 .984-.102 1.183-.301.2-.188.297-.54.297-1.035 0-.371-.058-.68-.199-.938-.125-.246-.383-.37-.754-.37-.195 0-.332.03-.406.1-.082.067-.121.196-.121.364zm0 2.703c.012.176.031.297.074.375.086.137.223.207.453.207.438 0 .754-.121.938-.375.175-.246.277-.598.277-1.055 0-.691-.207-1.148-.613-1.375-.239-.133-.614-.199-1.13-.191zm3.719.715a.675.675 0 00.546-.309c.09-.133.223-.394.383-.816l2.117-5.297h.266l2.117 5.082c.246.574.422.941.543 1.11a.53.53 0 00.496.23v.258h-3.07v-.258c.305-.008.496-.032.602-.078.105-.04.152-.141.152-.309a1.28 1.28 0 00-.082-.348l-.117-.332-.239-.586h-2.148c-.137.391-.223.637-.266.75-.074.246-.117.438-.117.555 0 .133.086.23.274.293.105.035.261.055.48.055v.258h-1.937zm3.574-2.028l-.918-2.238h-.082l-.863 2.238zm3.277 1.961c.262 0 .461-.03.567-.097.203-.098.293-.293.293-.575v-4.687c0-.29-.09-.48-.266-.57-.121-.067-.32-.098-.594-.121v-.239h3.313v.239c-.297.023-.489.054-.61.113-.18.097-.27.285-.27.578v4.687c0 .27.067.446.212.536.156.093.37.136.668.136v.254h-3.313zm6.031 0c.371 0 .614-.066.723-.187.098-.133.152-.324.152-.582v-4.59c0-.27-.054-.434-.187-.523-.121-.083-.336-.133-.652-.168v-.239h2.39l1.867 4.477h.075l1.867-4.477h2.398v.239c-.324.035-.543.093-.664.18-.117.1-.183.331-.183.71v4.278c0 .363.066.59.183.703.121.109.34.172.664.18v.253h-3.152v-.254c.273-.008.48-.054.633-.144.136-.082.21-.278.21-.567v-4.722h-.074l-2.324 5.687h-.262l-2.347-5.582-.04.004v4.371c0 .328.06.559.18.707.118.156.375.235.778.246v.254h-2.235zm12.207-6.379v.239c-.367.02-.613.074-.734.18-.125.097-.184.34-.184.71v3.239c0 .492.059.87.176 1.14.2.5.606.746 1.184.746.738 0 1.222-.27 1.48-.828.137-.3.211-.722.211-1.27v-2.96c0-.344-.062-.59-.176-.711-.136-.13-.37-.215-.742-.246v-.239h2.082v.239c-.3.066-.496.133-.601.226-.09.086-.133.285-.133.594v3.098c0 .824-.2 1.457-.59 1.906-.387.445-1.004.664-1.844.664-1.093 0-1.824-.328-2.238-.996-.21-.348-.32-.809-.32-1.367v-3.235c0-.367-.032-.59-.14-.683-.095-.098-.306-.164-.638-.207v-.239zm3.657 6.29c.359-.008.586-.07.68-.2.109-.133.163-.312.163-.57v-4.578c-.296-.332-.48-.528-.546-.582a.6.6 0 00-.282-.121v-.235h2.02l3.258 4.032h.043v-2.836c0-.325-.059-.563-.16-.703-.122-.137-.364-.223-.712-.258v-.235h2.04v.235c-.297.054-.5.125-.594.207-.102.086-.153.273-.153.566v5.711h-.261l-4.18-5.18h-.055v3.793c0 .297.04.512.121.63.122.202.387.312.774.323v.254h-2.156zm6.867.09c.262 0 .465-.032.578-.098.191-.098.285-.293.285-.575v-4.687c0-.29-.094-.48-.27-.57-.105-.067-.312-.098-.593-.121v-.239h3.312v.239c-.297.023-.492.054-.609.113-.184.097-.27.285-.27.578v4.687c0 .27.067.446.22.536.148.093.362.136.66.136v.254h-3.313zm7.207-6.442c.402 0 .808.082 1.203.215.414.16.645.23.688.23a.36.36 0 00.292-.14.72.72 0 00.137-.29h.258v2.254h-.238c-.242-.492-.469-.878-.703-1.152-.442-.527-.95-.789-1.516-.789-.633 0-1.082.281-1.355.836-.27.566-.395 1.316-.395 2.246 0 .695.078 1.27.238 1.715.29.84.84 1.254 1.633 1.254.484 0 .941-.137 1.36-.41.246-.16.53-.418.859-.77l.273.234c-.36.422-.695.731-.972.91a2.832 2.832 0 01-1.668.508c-.938 0-1.723-.28-2.36-.851-.71-.617-1.05-1.465-1.05-2.524 0-1.054.331-1.902 1.007-2.558.63-.606 1.407-.918 2.309-.918m3.344 6.441c.27 0 .457-.03.586-.097.195-.098.289-.293.289-.575v-4.687c0-.29-.094-.48-.278-.57-.105-.067-.308-.098-.597-.121v-.239h3.324v.239c-.305.023-.5.054-.606.113-.191.097-.28.285-.28.578v4.687c0 .27.07.446.222.536.148.093.36.136.664.136v.254h-3.324zm3.691 0c.316-.02.527-.086.633-.195.117-.105.156-.344.156-.688v-4.277c0-.367-.039-.59-.156-.687-.106-.098-.317-.157-.633-.203v-.239h3.063c.82 0 1.433.137 1.851.407.434.257.637.726.637 1.374 0 .317-.09.622-.25.903-.164.277-.438.496-.824.672a2.78 2.78 0 01-.852.21c-.293.02-.723.044-1.289.044v1.797c0 .363.059.59.18.703.109.109.336.172.66.18v.253h-3.176zm2.336-3.015c.566-.012.95-.078 1.137-.196.297-.195.453-.62.453-1.27 0-.44-.074-.796-.227-1.07-.144-.269-.414-.406-.832-.406-.191 0-.328.028-.41.075-.078.042-.121.132-.121.257zm2.8 3.082a.713.713 0 00.555-.309c.086-.133.22-.394.383-.816l2.102-5.297h.273l2.121 5.082c.235.574.414.941.532 1.11a.533.533 0 00.5.23v.258h-3.075v-.258c.309-.008.524-.032.614-.078.09-.04.14-.141.14-.309 0-.078-.015-.195-.07-.348-.031-.09-.074-.199-.129-.332l-.242-.586h-2.133c-.14.391-.23.637-.266.75-.082.246-.136.438-.136.555 0 .133.105.23.281.293.105.035.266.055.492.055v.258h-1.941zm3.567-2.028l-.918-2.238h-.07l-.867 2.238zm3.309 1.961c.25-.008.437-.043.547-.097.191-.102.28-.297.28-.575v-4.687c0-.29-.085-.477-.265-.57-.101-.063-.297-.098-.562-.121v-.239h3.308v.239c-.386.023-.636.074-.77.167-.124.098-.195.34-.195.723v4.57c0 .215.055.356.172.426.11.074.32.106.637.106.574 0 1.059-.13 1.445-.383.375-.258.707-.754.989-1.5h.28l-.386 2.195h-5.48zm6.308 0c.262 0 .453-.03.57-.097.208-.098.294-.293.294-.575v-4.687c0-.29-.086-.48-.266-.57-.117-.067-.32-.098-.598-.121v-.239h3.32v.239c-.3.023-.5.054-.62.113-.176.097-.266.285-.266.578v4.687c0 .27.074.446.219.536.152.093.367.136.668.136v.254h-3.32zm3.793-6.289h5.723l.016 1.95h-.278c-.086-.696-.34-1.165-.773-1.41-.235-.133-.598-.216-1.063-.227v5.093c0 .364.059.594.18.715.117.114.375.168.766.168v.254h-3.395v-.254c.379 0 .621-.054.742-.175.125-.118.188-.356.188-.708V51.72c-.469.011-.82.093-1.067.226-.46.246-.718.723-.777 1.41h-.27zm9.407 0v.239c-.329.027-.54.046-.633.078-.094.043-.137.101-.137.203 0 .043.008.09.027.14.016.059.055.149.114.286l1.265 2.316 1.024-1.695c.062-.102.136-.235.195-.38.117-.226.176-.402.176-.511 0-.172-.07-.285-.2-.34-.09-.039-.292-.07-.593-.097v-.239h2.086v.239a1.636 1.636 0 00-.364.109.69.69 0 00-.28.27l-1.813 3.015v1.773c0 .372.054.61.176.715.128.102.359.16.699.168v.254h-3.29v-.254c.344-.008.579-.07.688-.187.125-.113.188-.344.188-.696v-1.425l-1.746-3.207c-.121-.211-.258-.36-.418-.442a.96.96 0 00-.34-.093v-.239" fill="#231f20"/></svg>