<svg xmlns="http://www.w3.org/2000/svg" width="1889.76" height="1889.76" viewBox="0 0 1417.32 1417.32"><path d="M647.27 732.727c-1.497.902-2.278 2.261-3.024 3.89v.13c2.59.577 5.176 1.155 7.766 1.722.926-1.035 2.07-2.324 2.156-4.153-1.242-.144-2.492-.289-3.734-.445-1.059-.375-2.106-.758-3.164-1.144m113.152-7.332c-4.2 1.515-9.004 2.203-14.66 2.156-.832-.121-2.074-3.024-2.735-3.313h-.289c-2.601 1.965-1.976 5.215-1.867 9.067-2.527 2.648-11.762 5.441-15.816 2.3-1.317-5.335 3.476-11.027 2.875-13.085-.278-.434-.024-.243-.578-.434-4.043 4.441-12.149 16.96-.29 19.273 2.266.434 5.731.516 8.055 0 3.758-.855 5.985-3.261 7.477-6.332.289-.71.578-1.433.867-2.156 2.3-.098 4.598-.191 6.898-.289 4.54-.914 8.739-2.191 12.508-3.887-.387 1.297-.77 2.598-1.156 3.887h.144c2.434-1.371 5.082-4.996 5.032-8.766-.14-.093-.29-.191-.43-.289-2.012-.718-4.492 1.301-6.035 1.868m8.765 6.476c-.082.23-.19.473-.277.711 10.043 2.383 18.469-4.383 18.399-12.797-.243-.097-.485-.191-.711-.289-2.375 6.754-10.356 10.207-17.41 12.375m-56.067-12.508c-1.047.867-2.793 2.301-3.308 3.586-.196 5.324-.387 10.645-.579 15.965.098.05.192.098.29.145 1.25-1.684 2.492-3.36 3.742-5.032.941-2.394.855-11.593.289-14.53-.145-.036-.29-.099-.434-.134m-21.574 3.875c.676-.863 1.348-1.718 2.012-2.586.046-.144.109-.289.144-.433-.914-.809-2.012-1.782-3.3-2.157-.794.891-1.985 1.856-2.298 3.168.672.903 2.082 1.829 3.442 2.008m-59.664-2.875c-1.567.383-3.719-.254-5.32-.433-.051-.047-.098-.098-.145-.145v-.144c1.77-.145 3.55-.278 5.32-.434.047.336.098.676.145 1.012zm68.875 5.032v-.723c.433-.29.855-.578 1.289-.856.531-.347.613-4.921.578-7.472-.71-1.051-1.902 1.02-1.953.879-3.418 2.297-2.586 3.984-3.082 8.027-1.008.098-2.008.191-3.02.29-1.207.589-1.664 2.155-2.445 3.155v.72c2.445.241 4.887.483 7.332.726-2.89 1.336-8.668.504-12.219.43-10.906-.239-21.238-.626-29.617-4.598-.723-1.938-.555-5.285-.723-7.621-5.308-3.793-14.41 2.093-15.675 6.187-2.504.11-5.235-.562-6.465-2.164-.446-2.531.531-4.781.578-7.332-5.367-1.844-14.926 3.008-14.098 7.187 1.133 2.286 6.13 2.997 9.633 2.875-1.433 5.454 19.817 9.692 19.418-.144-.398-.711-1.273-.961-2.152-1.145-.184-.394-.11-.238-.149-.578 1.11-.3 3.688-.863 5.035-.289h.29c.156 2.145-.711 4.36.277 6.465 2.297 4.879 19.828 6.586 28.328 7.48 10.039 1.06 24.043-1.796 24.148-10.355a3.485 3.485 0 00-.132-.277c-1.383-.516-3.215-.89-5.176-.867m71.453 4.168c.094.046.191.093.289.156 1.3-1.446 2.586-2.89 3.875-4.324 0-4.743.11-9.606-.71-13.52-.384-.145-.77-.277-1.157-.422-5.285 4.961-1.371 6.899-2.297 18.11m-144.352-16.098c1.301.746 3.914.89 5.891.855a51.04 51.04 0 002.875-2.867v-.578c-2.395-.238-4.79-.48-7.188-.723-.855.664-1.89 1.664-1.578 3.024zm115.602-37.672c-.496-.516-1.688-.492-2.734-.434-.868.543-1.383.606-1.446 2.012.34.242.676.48 1.012.723.902.36 2.71-.063 3.602-.29.433-.843.226-1.503-.434-2.011m-59.39-3.887c-1.864.192-3.731.383-5.598.578-.66.301-.868.625-1.012 1.43-.047.149-.094.29-.145.434.989.71 5.649 3 6.899 2.734 1.058-.215 1.687-.902 3.168-1 .383-1.105.77-2.203 1.156-3.309-.867-.878-2.66-.941-4.469-.867m39.407-.144c-.34.383-.676.77-1.012 1.156-.047.144-.098.289-.145.434.371.722.746 1.058 1.29 1.574 1.648.304 3.32-.168 4.753-.434-.543-3.234-1.093-2.297-4.886-2.73m-70.887-.278c.047.371.094.758.144 1.145 2.395 2.215 7.645 1.816 8.621-1.578v-.434c-.722-1.047-3.566-1.082-5.324-1.012-1.742.665-2.636.29-3.441 1.88m16.96-3.169c-.792.618-1.214 1.422-1.718 2.301v.567c2.574.734 8.512 3.742 9.484-.278.7-2.89-5.379-2.718-7.765-2.59m65.133-.718c-.805.14-1.625.289-2.446.43-3.176 4.671 2.977 3.855 6.047 2.878.192-.242.383-.48.563-.722-.059-2.286-1.649-2.735-4.164-2.586m-13.375-1.016c-1.047-.035-2.106-.094-3.157-.14-1.37.55-2.539.3-3.164 1.585.047.434.098.856.145 1.29 2.273 1.097 6.02-.06 7.187-1.145-.336-.527-.675-1.059-1.011-1.59m-20.262 4.324h-.29c1.794-.71 2.169-.734 3.157-2.156-.086-.383-.184-.77-.277-1.152-.785-1.051-6.215-1.098-7.778-1.157-.855.383-1.722.77-2.578 1.157-.191.77-.386 1.539-.578 2.297.05.097.098.195.145.289 1.734 1.035 4.78.636 7.332.578a827.025 827.025 0 00-2.012 3.586c.05.097.098.195.144.289 3.157.867 8.395 1.699 7.477-2.73-1.66-.036-3.61-.325-4.742-1m-29.918-6.333c-.047-.097-.082-.191-.133-.289l-4.176-.433c-1.699.867-3.902 1.804-3.457 4.32.063.098.11.195.157.289 1.855-.469 3.238-.527 5.601-.574.73-1.145 1.274-1.977 2.008-3.313m72.476-.433c-.097.578-.19 1.156-.289 1.734 2.157.047 4.309.094 6.465.145.098-.196.192-.387.29-.579.046-.289.097-.578.144-.867-1.313-.976-4.852-1.625-6.61-.433m-42.703-.711c.371-.434.758-.867 1.145-1.301l.144-1.156c-1.52-1.082-3.55-1.371-6.332-1.285-1.832.914-3.254 1.804-3.3 4.453l.144.144c2.961-.41 4.781-1.203 8.2-.855m-22.864-2.457c1.566.941 3.879 1.023 5.598.3.89-1.793-1.938-3.25-3.875-3.164-.856.805-1.301 1.602-1.723 2.864m-8.777-2.864c-.719.192-1.43.383-2.153.567-.34.672-.675 1.347-1.011 2.02 1.132.616 3.972 1.062 5.609.577.676-.25.688-.601 1.156-1.007l-.433-1.59c-.805-.473-1.723-.625-3.168-.567M717 659.977v-.723c-1.035-.64-3.625-1.352-4.746-1.578-1.156.855-2.227 1.226-3.164 2.3.047.337.094.672.144.997 2.793.507 4.657.89 7.188 0 .191-.325.383-.66.578-.996m37.379-.723c-1.996-.242-4.516-1.3-7.043-.856-.914.336-1.816.672-2.73 1-1.626-.144-3.266-.277-4.891-.421-.192-.579-.383-1.157-.578-1.735-.614-.433-.938-.613-2.153-.566-.675.324-1.336.664-2.011 1-.29.664-.578 1.336-.868 2.011-.878.54-1.203-.05-1.722.868v.718c.242.434.133.34.578.567 1.422 1.11 5.562-.094 7.91 0 3.434.156 14.942 1.71 17.11-1.145.046-.43.097-.867.144-1.297-1.219-.617-2.36.024-3.746-.144m-50.035-5.453c-1.117.648-2.032 1.36-2.153 3.008 2.336.601 5.067.3 7.043-.29.29-.566.348-1.457 0-2.156-.629-.851-3.394-.648-4.89-.562m-8.907-.305c-.71-1.55-2.542-2.105-4.89-2.008-1.371.711-2.176.782-2.875 2.164.094.664.191 1.34.289 2.012 1.191.711 4.476.902 5.887.145.937-.434 1.25-1.278 1.59-2.313m59.808.305c-.336-.774-.676-1.543-1.012-2.313-.601-.375-.925-.578-2.007-.566-.485.469-.954.95-1.434 1.433-.023 2.106.07 3.95.71 5.32 2.216-.241 3.731-1.046 6.767-1v-2.6a17.3 17.3 0 01-.723-.423c-.711-.312-1.649-.035-2.3.149m-90.727-2.313c2.109.903 8.054 1.469 6.753-2.445-1.468-.387-3.406-.602-5.308-.566-.676.421-1.215.543-1.59 1.289-.266.613-.023 1.18.145 1.722m77.062-2.445c-.371.242-.191.05-.434.434-.035.144-.086.289-.132.433.242.242.468.48.71.723.926.156 3.493.746 3.887.71 1-.386 2.012-.761 3.024-1.144.867.11 1.265 1.18 2.722.867 1.203-.433 2.407-.867 3.598-1.3.48.48.965.964 1.445 1.433h.567c.48-.566.96-1.144 1.445-1.722-.098-.614-.195-1.239-.289-1.868-1.203.196-1.914-.238-3.313-.289-2.394 1.832-9.69.04-13.23 1.723m-37.668-1.434c-.426.82-.855 1.625-1.289 2.446v.722c2.336.47 5.852.266 8.055-.289.289-.77.566-1.543.851-2.3v-.145c-.758-.29-1.527-.578-2.297-.867-1.457.734-3.336.496-5.32.433m-29.473-2.586c-1.218.782-1.855 1.301-1.867 3.309 2.446.762 5.489 1.781 6.61-.578-.11-2.117-2.528-2.805-4.743-2.73m60.098-.145c-.203.95-.191 1.879-.578 2.73v.145c.914-.383 1.832-.77 2.734-1.156.047-.239.094-.47.145-.707-.336-.88-.469-1.301-1.578-1.446-.242.145-.48.29-.723.434m-40.402-1.434c-1.133.48-1.723 1.856-1.723 3.442 1.602.133 3.54.988 4.887.289.363-.36.433-1.324.433-2.008-.695-1.047-1.77-2.277-3.597-1.723m37.816 1.29c-1.433-1.602-2.781-1.977-6.035-1.868l-1.297.29c-.242.519-.484 1.046-.723 1.577v.723c1.54.047 3.07.094 4.61.145.144.722.277 1.43.422 2.152.914-.383 1.828-.77 2.734-1.156.094-.625.191-1.239.29-1.864m-74.188-3.312c-.336.05-.672.098-1.012.144-.867.856-1.973 2.758-2.152 4.18 1.464.395 7.425.117 8.918-.289 2.855-4.324-1.602-4.25-5.754-4.035m41.836-1.863c-.434.046-.868.093-1.29.14-.562.762-1.105 1.278-1.3 2.446.097.195.195.386.289.578 1.77.312 5.25.457 7.043.144l.433-.578c-.191-.625-.382-1.238-.574-1.867-.715-1.082-2.758-.95-4.601-.863m-28.895.863c.098-.145.18-.29.29-.434.35-.816-.071-1.636-.29-2.297-.879-.652-1.457-.925-3.164-.867-1.242.516-3.66.903-2.879 2.875.723 1.156 4.191.797 6.043.723m67-4.887c-1.023-.71-2.59-.781-4.457-.722-.613.324-.926.3-1.297.867-.05.613-.098 1.238-.148 1.867 1.941.543 4.804.926 6.48-.145-.195-.625-.387-1.242-.578-1.867m8.484-2.73c-.214.972-.07 1.73.29 2.441 1.867.711 7.007.676 8.91.145l.289-.578c.3-.711 0-1.47-.145-2.157-.937-.156-2.394.7-3.308.578-1.41-.191-3.832-.683-5.614-.718-.133.093-.277.191-.422.289m-49.32-3.746a1.958 1.958 0 00-.566 2.023c1.168.406 2.453.984 3.297-.156.046-.567.097-1.145.144-1.723-.469-.23-1.035-.312-1.867-.289-.336.047-.672.11-1.008.145m-11.644 2.3c.097-.183.195-.375.289-.566.047-.723.097-1.445.144-2.168-.433-.047-.867-.086-1.3-.145-1 .098-2.008.204-3.008.301-.11.758-.207 1.532-.301 2.301.047.094.094.18.144.277 1.348.278 2.782.301 4.032 0m-13.809-2.156c.144-.086.289-.18.434-.289-.243-.809-.48-1.625-.723-2.445-.977-.567-1.95-.903-3.586-.856-.711.907-1.59 1.364-1.867 2.735.324.375.664.77 1 1.144 1.613.301 3.261-.11 4.742-.289m74.055-3.441c-.82-.387-2.243-.305-3.457-.29-.29.141-.578.29-.868.43-.035.809-.086 1.63-.132 2.446 2.527 1.047 5.32-.098 4.457-2.586m-83.684 2.152c.191-.516.012-.781-.148-1.3-1.325-.852-2.465-1.227-4.887-1.141-.55.48-1.094.695-1.434 1.43.051.433.098.867.149 1.3 1.008.613 1.672.215 2.863 0h.145c.046.336.097.676.144 1 1.371-.047 2.613-.398 3.168-1.289m62.543.711c.863.469 3.43.758 4.453.156.613-.289.856-.59 1.156-1.156-.156-2.613-2.648-2.758-4.886-2.875-.617.96-.785 2.18-.723 3.875m-5.324-9.488c-.89.433-1.446.422-2.008 1.156-.156.867-.016 1.48.145 2.3 2.77-.323 6.414.278 8.05-.866-.238-.989-.78-1.457-1.297-2.157-1.421-.324-3.011-.468-4.89-.433m-47.59-.578c-.66.64-1.215 1.843-1.29 3.023 1.145.36 4.036.844 5.325.29.55-.255.758-.446 1-1v-1.864c-.195-.16-.387-.305-.566-.45-.578-.046-1.157-.093-1.735-.144-.902.05-1.82.098-2.734.145m71.61-.707c-.833.816-.77 1.949-.579 3.453 2.285.613 5.285.133 7.766 0 .336-.867.242-1.707 0-2.602-1.324-.863-5.309-.89-7.188-.851m-61.675-.434c-.157.047-.301.094-.434.144.238 2.649 6.223 2.454 7.898 1.286.434-.614.868-1.239 1.297-1.864-1.457.227-2.238 0-3.73-.144-1.516.695-3.852 0-5.031.578m52.332-1.012c-2.48.828-3.621.711-2.586 3.742l.566.29c2.106 1.011 6.934-.278 5.754-3.165-.363-.906-2.36-.964-3.734-.867m-33.793 2.008c.746-.406.722-.914.578-1.863-1.59.035-3.313.07-4.309-.422-3.902 2.035 1.54 2.926 3.73 2.285m20.13-7.75c.808.3 4.695.156 5.609 0 3-5.203-1.527-3.77-6.043-4.035-.191.289-.383.578-.578.867-.395.902.062 2.012.289 2.734.242.145.48.29.723.434m23.875-.578c.78-.363 1.203-.965 1.578-1.723-.051-.289-.098-.578-.145-.867-.652-1.047-3.156-1.094-4.89-1.012a359.12 359.12 0 01-1.012 1.59c.05.336.097.66.144 1 .93.637 2.856 1.88 4.325 1.012m-29.051-.867c.347-.735.191-1.48 0-2.301-1.242-.844-4.176-.914-6.176-.856-.098.098-.191.196-.29.29-1.034.64-1.046 2.046-.722 3.3 1.903.973 6.14 1.602 7.188-.433m15.965-3.586c-.856.719-1.422 1.754-1.446 3.297 1.227 1.336 5.367 2.347 6.766.289.242-.59.527-1.735.277-2.59v-.277c-1.191-.868-3.527-.493-5.597-.72m-54.07.72c-.216.89-.06 2.086-.145 2.867 2.48-.278 5.746.66 7.62-.578.4-1.399.052-2.688-.995-3.446l-3.457-.14c-1.133.527-2.121.695-3.024 1.297m-4.308 3.734c.77-.785 2.383-1.856 1.433-3.457-.676-1.48-2.468-1.684-4.742-1.574-.808.191-1.625.383-2.445.578-.375.73-.301 1.754.144 2.441.696 1.504 3.348 2.094 5.61 2.012m21.129-1.29c2.117-1.312-.59-4.03-2.301-4.179-1.227.508-3.153.567-4.164.867-.242.618-.48 1.243-.711 1.868.086.242.18.48.277.722 1.348.364 5.309 1.7 6.899.723m4.175.277c1.325.203 2.989.938 4.746.434 1.418-.64 2.06-2.516 2.008-4.602-.047-.093-.093-.191-.144-.289-1.574-.14-3.153-.289-4.742-.43-.77.192-1.528.383-2.301.579-.301 1.492-.059 3.222.433 4.308m15.676-9.054c.145.097.278.195.422.289 1.254.046 2.492.097 3.746.144.145-.238.285-.48.43-.723.05-.238.097-.48.144-.722-.902-.938-1.757-1.227-3.742-1.145-.289.34-.578.676-.855 1-.047.387-.094.774-.145 1.157m-11.797-8.778l7.766-.433c1.023.242 1.96.578 3.308.433.29-.613.579-1.238.868-1.863.086-.375.058-.375-.145-.723-1.156-1.492-9.656-.664-12.363-.855-.098.191-.192.375-.29.578v2.012c.169.261.59.746.856.851m-2.156-7.187a9.028 9.028 0 00-.144-.278c-.29-.058-.579-.093-.856-.14-.867.226-1.734.468-2.598.707-.132.386-.277.773-.422 1.156.891.688 1.551 1.422 3.02 1.578.664-.637 1.023-1.695 1-3.023m5.32-1.72v.145c1.625 2.215 5.66 1.985 9.055 1.297.098-.14.191-.285.29-.445.132-1.852-1.169-2.441-3.442-2.297-1.832.336-3.649.672-5.47 1.012-.144.094-.288.191-.433.289m4.168-2.879c.504-.277.567-.36.723-1.012v-.71c-1.23-.747-2.977-1.06-5.035-1.008-.238.191-.48.382-.719.578-.172.61-.41 1.37-.148 2.008.738.757 4.37.89 5.18.144m-37.817 19.984c2.105-1.011 1.433-4.632 1.879-7.332.926-5.668 3.515-19.586-3.746-19.695-2.95 2.816-2.153 14.184-2.153 20.129 0 3.55.07 7.957 4.02 6.898m9.789-.289c2.625-3.851 2.898-22.898 1-27.605-.484-.098-.965-.192-1.434-.29-.914.579-1.832 1.157-2.734 1.735-.816 1.203.254 5.332-.145 7.477-.816 4.418-2.007 14.676 0 19.261 1.41.266 2.215-.214 3.313-.578m8.766-1.289c1.695.797 3.96-2.176 4.308-3.164 1.106-3.129 1.324-20.828 0-23.297-.41-.53-1.18-.613-2.156-.578-.926.485-1.55.758-2.297 1.301-1.144 5.754-1.086 12.559-1 18.684.012 1.82-.074 6.476 1.145 7.054m57.074-27.89c-1.672 2.527-.926 15.504-.278 19.84.375 2.574-.418 5.765.567 7.761.289.606.566.727 1.156 1.012 1.649-.024 3.047-.637 3.59-1.73 1.793-3.567-.352-14.86.434-19.41.347-2.048.214-4.755-.579-6.188-.664-1.192-2.097-1.746-4.023-1.723-.29.149-.578.29-.867.438m-22.57 18.972c.851-5.105-1.7-12.582 2.585-15.242h1.301c.242.192.48.399.711.578.602 2.313-.11 5.176.29 7.766.48 3.117 1.827 9.547-1 10.93-2.25.902-4.286-1.649-3.888-4.032m-1.722 8.918c.734 2.074 14.387 1.29 17.105.723.942-1.106 1.387-2.18.867-4.031-.625-.192-1.25-.387-1.867-.578-1.093-5.887-.37-14.122 1-18.829 1.399-.34 2.782-.675 4.18-1.011.277-1.059.504-3.215.145-4.453-1.204-2.434-9.356-1.52-12.942-1.434-2.023.781-5.285-.363-7.055.566-2.097.985-1.578 4.309-1.578 7.332-.05 5.176-.097 10.364-.144 15.528.094 2.058.191 4.117.289 6.187m20.996-41.414c-.098.145-.191.29-.29.434.18 1.012.65 1.23 1.145 1.867 2.961.52 5.489-.3 7.621.723h.575c.05-.868.097-1.723.144-2.59-1.441.156-2.02-.77-3.453-1.012-1.781.895-3.648.156-5.742.578m-12.363 0c-.301.469-.422.578-.434 1.446.29.289.574.578.852.855 1.097.688 2.664-.648 3.89-.855 1.336-.227 1.399.543 2.012.71.867-.19 1.719-.37 2.586-.566.531.555.785 1.11 1.723 1.29.191-.145.386-.29.578-.434.097-.66.191-1.336.289-2.012-2.047-1.094-5.153-1.817-7.766-2.008-.879.734-2.48 1.273-3.73 1.574m3.441-9.773c-.434-.242-.855-.485-1.289-.711-.047-.098-.094-.192-.145-.3.387-.81.7-1.29 1.29-1.868h.144c.52.676.18 2 0 2.879m6.754-2.735c.144.047.289.098.434.145.445.664.78 1.422.867 2.445-.336.094-.676.192-1.012.29-.219-.891-.543-1.954-.289-2.88m9.21 8.633c1.071-2.949-.796-3.406-.433-5.61.18-1.12 1.18-2.491.723-3.734-.566-1.035-2.277-1.214-3.746-.867-1.012 1.637-.504 3.711-.434 6.047-1.43-.11-2.863-.207-4.308-.289-.047-.098-.098-.195-.145-.289l1.445-.434c1.36-.808.95-3.37.711-5.035-1.156-.672-3.093-.648-4.601-.289-.77 1.23-.88 3.781-.867 5.758-1.215.313-2.164-.254-3.153-.578.254-.59.36-.555 1-.723.215-1.468.012-2.914-.289-4.168-1.36-.816-3.18-.879-5.031-.578-.617 1.434.719 2.375.29 4.024-.29.578-.567 1.156-.856 1.734-1.457 0-4.18-.676-5.47-1.156-.769.578-1.202 1.48-1.296 2.73 2.73 5.262 18.66 3.543 26.46 3.457m-12.651-12.652c.144.48.289.95.433 1.433.914.684 1.973-.351 2.442-.437 3.117-.55 6.707 1.316 8.054-1.719.035-.242.086-.48.145-.722-.88-.868-1.914-1.192-3.024-1.868a832.698 832.698 0 01-2.007-5.175h-4.325l-1.285.289c-.566.879-.976 2.562-1.012 3.886.336.149.672.278 1.012.422v.578c-.472.387-3.265.52-4.035.723-.145.191-.29.387-.422.578.266 1.649 2.047 2.094 4.024 2.012M670.418 530c-2.082 2.348-1.914 13.918-2.586 17.977-.242 1.406-.422 3.933.145 5.03.226.481.226.481.707.712.964.406 2-.11 2.879-.29.289.337.578.673.867 1.012.386-.195.77-.386 1.144-.578.192-2.972.383-5.937.578-8.91.746-4.55 1.914-10.078 1.012-14.242-1.133-.66-2.844-.77-4.746-.711m19.41-.723c-.578.34-1.156.676-1.723 1.012-.19 7.477-.386 14.953-.578 22.43 1.735.445 3.36.086 4.743-.434 1.12-1.66 2.855-18.867 1.578-21.14-.578-1.301-2.168-1.868-4.02-1.868m20.418-.144c-.723.34-1.445.676-2.156 1.012-1.082 4.757-1.242 10.605-1.59 15.82-.11 1.805-.758 5.043.145 6.176.78 1.3 3.734 1.035 4.324-.29.37-5.937.758-11.882 1.14-17.828.313-1.914.184-3.925-.863-4.746-.328-.047-.664-.093-1-.144m-9.344-.145c-.625.387-1.254.774-1.879 1.157-.382 4.695-.757 9.39-1.144 14.085-.371 2.41-.926 5.082-.578 7.622 1.71.468 3.531.648 5.324.144.695-1.168 2.43-19.058 1.863-20.707-.48-1.41-1.683-2.262-3.586-2.3m-17.683 1.577c-.364-1.046-2.157-1.527-3.313-1.867-.242.098-.48.196-.722.29-1.625 4.456-2.157 11.57-2.157 17.253 0 1.88-.879 4.95-.722 5.465.578 1.023 2.254 1.492 3.89 1.434 3.336-3.106 2.106-11.125 2.301-17.254.238-1.77.48-3.54.723-5.32m146.5 105.546c-2.153 7.188-4.887 13.149-9.485 17.828-1.664 1.688-6.441 4.989-6.609-.445 5.973-3.719 7.57-6.824 9.918-14.226v-.149c-1.43-.262-2.805-.418-4.32-.129 1.78-5.527 7.246-7.66 11.797-10.512.734 1.95-.793 5.961-1.301 7.633m-6.754 24.73c.976 1.192-1.563 8.641-2.008 9.919-2.36 6.73-5.441 12.496-9.2 17.832-1.687 2.152-3.359 4.308-5.03 6.465-1.215.55-3.227-.086-4.47-.438a4.715 4.715 0 00-.288-.273c.484-1.59.965-3.168 1.445-4.758 6.395-1.914 8.73-6.113 10.645-12.363.636-2.106.78-4.309 1.718-6.043a6.08 6.08 0 01-.14-.278c-2-.347-4.239.832-5.758 1.578h-.145c1.844-6.886 7.188-8.812 13.23-11.64m-8.484 75.195h-.277c-5.226-12.512-23.226-3.133-31.351 0-34.309 13.207-105.957 13.578-142.914 2.297-7.118-2.168-12.993-4.84-19.551-7.188-2.688-.96-7.203-2.418-10.934-1.296-3.926 1.191-5.562 3.511-8.055 6.043v.273h-.144c-1.168-12.398 2.84-22.438 10.21-26.883 2.731-1.637 5.067-2.297 8.923-2.297 55.906 6.535 91.218 11.074 150.824 3.164-.133 2.29-1.566 2.371-2.024 4.168.047.094.098.192.145.29.29.046.578.093.867.144.914-1 1.817-2.012 2.735-3.024-.051-.613-.098-1.238-.145-1.867 3.875-.613 7.766-1.25 11.64-1.863 22.298-4.285 30.485 6.79 30.051 28.04m-11.933 12.784c-4.852 0-6.848-5.058-4.453-8.332.855-1.168 1.902-2.023 3.597-2.023 7.153-.07 7.72 10.355.856 10.355m-188.926 0c-4.844.29-7.043-4.937-4.734-8.297.855-1.25 2.277-2.058 4.02-2.058 7.07-.012 7.214 9.98.714 10.355m-18.976-84.828c6.37 1.434 10.69 5.516 12.94 11.074v.145c-1.585-.383-3.948-2.153-5.464-1.43h-.289c3.3 6.043 4.117 16.29 11.93 17.684.531 1.578 1.062 3.152 1.59 4.746-1.082.527-2.586.828-4.176.851-5.793-5.152-16.364-22.574-16.531-33.07m-8.055-31.191c4.902 2.203 9.176 5.297 11.512 10.062v.145c-1.23-.242-2.805-.446-3.891.144h-.29c1.626 4.215 1.782 6.188 4.31 9.344.964 1.191 5.058 3.633 5.468 4.598.457 1.07-.867 2.66-1.433 2.879-2.758 1.07-5.383-3.204-6.477-4.602-4.203-5.406-9.281-13.266-9.2-22.57m-2.44-32.496c4.828 1.664 7.968 4.707 10.062 9.054v.145c-.973-.254-2.66-.508-3.598 0h-.277c1.828 2.308 1.648 5.441 2.875 8.633 1.566 4.101 3.133 5.68 5.598 8.617-.418 1.445-.598 2.71-1.864 3.312-.34.047-.675.094-1.011.145-6.813-6.406-8.754-19.914-11.786-29.906m6.61-33.793h.289c1.746 1.71 4.008 5.765 4.453 8.488-1.145-.52-2.129-1.11-3.73-1.156v.156c.527 1.578 1.058 3.152 1.574 4.73 1.023 5.36-1.614 13.883 4.613 13.953-.062 2.227-.219 5.649-1.734 6.465-.192.051-.387.098-.578.145-8.137-5.152-9.754-22.836-4.887-32.781m8.629-31.336c2.312.78 4.433 8.304 4.312 12.074h-.144c-1.121-1.156-1.711-2.469-3.735-2.734 1.735 3.937-1.36 7.863-.574 12.507.457 2.723 3.777 6.36 3.453 8.055-.23 1.121-1.097 2.25-1.445 3.602-.41.203-.758.359-1.29.132-2.503-.953-2.839-5.023-3.452-7.898-1.973-9.246.636-18.227 2.875-25.738m7.476 50.32c2.07-3.418 2.543-7.402 5.614-9.773v-.434c-.989-.484-3.395.094-4.168-.723 1.578-3.683 5.597-4.96 7.898-7.91h.434c-.504 9.5-7.055 25.004-14.23 27.461-.098-.047-.192-.098-.29-.144l-.433-3.446c1.808-1.781 3.804-2.765 5.175-5.031m-.433-23.727c.797-1.601 3.398-2.097 4.746-3.168 3.105-2.445 3.984-8.87 7.91-10.195v-.144c-.988-.797-2.613-1.063-4.168-.868v-.144c1.11-1.34 7.2-5.961 9.055-6.188-.364 7.57-11.282 21.766-16.82 24.582-.903-.543-1.505-2.625-.723-3.875m.289-33.652c1.543-7.68 5.586-13.121 7.765-19.973 1.047.82 2.23 8.067 2.157 10.344-.047.098-.098.192-.145.29-.144.093-.289.19-.433.288-.422-.722-.782-1.363-1.579-1.722-.191-.098-.382-.192-.578-.29-.37 4.493-2.972 7.344-3.875 11.352-.722 3.192 1.696 5.903 1.29 7.91-.4 1.121-1.602 1.926-2.735 2.313-1.805-1.567-2.55-7.067-1.867-10.512M623.395 531c3.44-2.3 4.093-8.102 9.355-8.477-.29-.336-.578-.671-.867-1.011-1.192-.227-2.133.062-3.301.144 2.36-2.324 7.031-2.36 8.91-5.176.723 2.133-2.48 5.31-3.453 6.622-2.953 4-6.66 7.55-11.5 9.62-1.637.59-3.262 1.153-4.887 1.731-.965.727-1.925 1.434-2.879 2.156-.093.098-.191.196-.289.29l-.289-.29c1.809-3.683 5.961-3.418 9.2-5.609m5.753-45.148c1.301-1.914 2.59-3.829 3.891-5.743.95 1.664 1.961 11.403.852 13.508v.29c-1.598-.036-2.371-.505-3.297-1.157-.492 6.129-8.223 13.402-5.176 18.41-.578.672-1.242.938-1.59 1.88a3.88 3.88 0 00-.566.144c-3.805-12.028.636-19.434 5.886-27.332m-25.015 120.921h-.145c1.469-5.02 6.778-6.234 8.633-10.066.89.988.59 7.852.285 9.645-1.008 5.78-4.43 21.203-9.773 21.418-1.035-1-1.336-2.696-1.446-4.598 7.946-2.457 3.157-12.664 7.333-17.11-1.625-.707-3.985.145-4.887.711m2.586 33.215h-.14c1.394-4.996 5.066-7.98 6.894-12.218.148-.094.289-.192.433-.29 3.555 6.297.774 20.852-1.43 26.461-.917 1.965-1.82 3.926-2.734 5.887-.144.05-.289.098-.433.149-.77-.497-1.782-2.086-2.012-3.024.578-1.816 1.144-3.637 1.723-5.465 1.277-4.117 2.023-8.355 2.011-13.652-2.144.156-3.035 1.18-4.312 2.152m9.777 30.051c-1.266.531-2.047 1.516-2.445 2.879-.094.047-.192.094-.29.144-1.19-6.359 4.048-10.304 5.759-14.519 4.945 4.828 11.277 35.73-.723 37.094-.629-1.532-1.242-3.07-1.867-4.602 2.746-4.43 4.36-17.273-.434-20.996m59.68 22.574c7.945.192 15.902.383 23.86.578h15.53c3.922-.097 7.86-.195 11.786-.289l22.43-.867c6.476-.336 12.94-.664 19.405-1 1.903-.3 5.372-.683 6.622.145 1.953 1.3 2.421 6.175 1.578 8.91-1.89 1.3-4.637 1.672-7.332 2.012-37.899 4.886-86.25 4.886-122.97-.098-7.019-1.18-2.237.07-8.437-1.48-2.023-3.25-.324-8.356 2.286-9.778 11.75.625 23.492 1.242 35.242 1.867m76.336-198.273c.144-.047.293-.094.433-.145 2.746.688 1.313 7.13 2.301 21.707-1.36.035-4.082.59-4.66-.359-.406-.797-2.059-20.129 1.926-21.203m-8.196 13.52h.29c.972 1.964.347 6.046.144 7.331-.29-.093-.578-.191-.855-.289-1.434-1.359-.11-6.043.421-7.043m-8.62-1.586c.3-.628.648-.75 1.144-1.144h.722c1.563 2.262 1.997 6.5-.253 9.402-.098.094-.602.758-1.106-.12-.219-2.723-1.289-6.657-.508-8.138m-10.066-4.023h.578c1.496 2.445.809 8.453 1.145 11.93-.735.328-1.227.566-2.297.578-.434-5.153-1.399-11.496.574-12.508m-10.93 2.3c.145-.097.29-.19.434-.288.191.144.383.289.578.433.457 3.696.277 7.594-.145 10.352l-.144.144h-.145c-1.058-2.129-.625-7.148-.578-10.64m-10.355 12.508c-.29.144-.578.289-.856.433-2.515-1.277-.636-11.16-.43-14.531.145-.18.29-.371.43-.566.098 0 .676.41.774.41.41 4.035-.348 10.449.082 14.254m-11.364-12.172c-.855 3.312.649 15-1.433 15.195-2.262-1.965-.36-14.195-.29-17.977.145-.19.29-.382.434-.578 1.88-.492 1.145 2.133 1.29 3.36m-11.352 6.707c-.531.191-1.047.383-1.578.578-3.156-.52-1.266-17.457-.844-23.945.531-.774.988-.88 1.277-1.075h1.29v10.645c.648 4.285.96 10.004-.145 13.797m-15.098-15.098l1.157-.723h.996c1.277 1.579 4.324 16.086 2.168 18.407-.434.75-1.215.797-2.446.722-1.84-1.886-2.707-15.191-1.875-18.406m-10.355 57.656c-.735.602-4.899.625-5.742-.144-.938-.856.347-4.446.71-5.32 1.77-4.168 4.973-8.118 8.2-10.922h.144c.278 1.023-2.816 15.988-3.312 16.386m1.3 108.121c-1.59-.41-4.874-.804-5.464.723l-.578.434v-1.735c.23-.77 1.734-2.804 2.445-3.152 2.273-.676 6.691 2.215 8.629-1.445-.238-3.625-4.801-3.082-7.906-2.446-.399.82-.352 1.508-1.434 1.723-.59-.805-1.613-2.527-.867-4.164.105-.145 5.719-1.29 6.176-1.434.433-.71.625-1.324.578-2.59-1.457-1.515-3.817-1.046-6.32-1.3.492-.84 1.37-1.239 1.722-2.297.563-1.711-.52-2.735-.723-3.88l.434-2.874c.902.695 4.984.96 6.043 0 .445-.266.48-.41.723-.867-.051-.387-.098-.77-.145-1.145-1.531-1.254-3.504-1.383-6.476-1.3-.184-.372-.254-.493-.29-1.145.914-.55 1.528-.863 2.008-1.863-.011-1.891-.683-2.133-1.43-3.168.083-1.996 1.118-2.313 1.43-3.743a496.81 496.81 0 00-.71-4.746h4.6c.481-.238.481-.226.724-.722.359-.828-.098-1.614-.434-2.153.672-.242 1.336-.484 2.008-.722.097-.422.195-.856.289-1.29-.528-.687-1.25-1.132-2.297-1.3l-.867.433c-.7.915-.832 1.372-.145 2.446v.144h-3.59c-.093-.086-.191-.195-.289-.289.254-2.3 2.352-3.41 2.012-6.031 2.047-.445 5.898-.313 7.043-1.734.508-1.266-.54-2.711-1.012-3.586-2.129-.496-4.343-.242-6.61-.438-.202-1.105.99-3.031 1.446-4.597 2-.422 3.203-.614 4.309-1.88-.563-4.226-.961-2.949-4.309-4.163a8.945 8.945 0 00-.433-.278c.168-1.422.976-1.648 1.289-2.601.097-2.008.191-4.02.289-6.032 1.105-.433 2.25-1.37 2.445-2.73-.098-.578-.195-1.156-.289-1.723-.664-.48-1.156-.82-2.3-.867.19-1.48.386-2.973.577-4.453v-.29c.805-.171 1.13.169 1.723.579 1.625-.664 2.887-1.902 3.164-3.89-1.105-1.747-3.781-1.938-4.453-3.165-.676-1.925.434-6.25.855-8.187l8.918-.434.723.434c-.289 1.094-.578 2.203-.867 3.297.508 2.277 4.203 3.504 6.465 1.879 1.758-1.266-.637-4.32 1.445-5.465 1.59-.664 4.348.203 5.469.722.18 1.961.37 3.926.562 5.887 1.723 1.266 3.578.434 5.469-.289.746-1.254.578-3.781.723-5.453 1.394-.219 3.03.398 4.453.566 1.133.145 1.613-.496 2.586-.289 1.617.926 1.062 6.91 5.18 5.32.972-.35 1.203-.94 1.722-1.722-.242-1.723-.93-5.961 1.441-6.61 1.641-.277 5.176 1.544 8.055 1.145.098.145.18.29.278.434.421 2.441-1.07 3.758-.567 5.754.629 1.625 4.07 2.699 6.32 1.578.387-.23.325-.266.579-.578-2.036-5.407 0-3.586.722-7.477 1.95-.336 3.625 1.938 6.176 1.156 1.77-.543 1.566-4.093.434-5.175-.868-1.352-3.563-.81-5.176-.434-2.035.469-8.586.96-12.074.434-1.688-.254-5.25-1.036-6.614 0-.238.382-.48.757-.718 1.14-2.977-.047-5.95-.082-8.922-.144-4.973 0-9.102-.266-13.797-.707-1.07-.11-1.047.539-1.723.707-1.348-.145-2.683-.29-4.031-.434-2.902-.539-8.344.305-10.067-1.719-1.035.192-1.636 1-2.73.578a18.79 18.79 0 00-.434-.144c-.507-2.387.418-5.012.868-7.332.96-6.047 1.914-12.074 2.875-18.121.613-3.117.879-7.102 3.168-8.473 1.203-.734 5.921-.156 7.62-.144.505 3.043 1.817 5.98 5.454 4.886 1.277-1.277 1.191-2.289 1.156-4.18 1.106-1.648 2.719-1.226 5.61-1.14.18 4.535 1.734 5.402 5.609 6.32 1.41-.988 1.168-4.418 2.156-6.32.457-.953 3.047-.64 4.887-.578.71 2.031-.133 5.02.433 6.898 4.25 2.106 6.512-1.23 6.176-6.61.95-.323 1.649-.577 2.59 0 .445.505.25 1.024.434 1.864.636 2.95 2.164 3.88 5.753 3.89.278-.241.567-.48.856-.722.312-1.18.3-2.937.144-4.308 1.72-.895 5.465-1.098 7.622-.868.082 2.707.902 8.93 5.03 7.188.973-1.399 1.638-3.168 1.731-5.469-.117-1.035 6.551-1.308 8.477-.433 1.398 1 .242 5.562.144 7.343 1.422 1.074 3.098 1.555 5.47 1 .093-.047.19-.093.284-.144.34-2.297.664-4.598 1-6.899.207-.277.016-.082.29-.289 1.64-.648 6.14.301 7.331 1.012 3.012 1.879-.492 6.02-.132 8.477.23 1.59 1.18 2.457 1.433 3.746-.191 1.336-.387 2.683-.578 4.02.879 4.597 1.723 11.808.723 16.816-.672.41-1.371.687-2.446.722.051.387.098.774.149 1.156.55 1.543 1.875 1.48 3.586 1.868.097 1.347.191 2.683.289 4.02-1.36 1.374-4.168 1-6.465 1.444-.098.145-.195.29-.29.434.024.625-.023.711.29 1 1.96 1.3 4.922-.207 7.043.29.805 4.058-1.11 6.667-.578 9.917.625 3.41 1.25 6.817 1.867 10.211-1.613.89-4.504 1.313-6.035 1.867-.145.192-.285.383-.434.578.532 2.286 2.508 1.059 4.457 1.575.965.484 1.926.964 2.875 1.445.52 1.988 1.399 10.297.434 12.652-.914 1.867-8.68 2.012-11.074 2.735-.29.77-.446.964-.145 1.722 1.602.371 3.54-.144 5.176 0 2.156.383 4.324.77 6.476 1.157 1.915 2.585 1.098 5.234-.718 7.332.105 1.406.937 1.636 2.008 2.007.94 4.18-.446 8.696-1 11.79.628 1.359 1.71 1.66 2.445 2.73 1.36 2 1.578 6.777 1.722 9.644-1.636.516-4.25.555-6.046 1.29h-.274v.144c1.301 1.758 3.696 1.191 6.031.867.985 2.864 1.07 6.883-1.011 8.328-1.121.785-1.89.606-2.301 2.157.652.902 2.566 1.156 3.89 1.3.094.145.192.29.29.434-1.758.723-3.446.973-4.325 2.59.063.14.098.285.145.418l1.012.578c1.215.52 2.879-.3 3.734-.711.14.855.29 1.723.43 2.578v1.156c-2.696-.445-7.739-.855-8.473 1.578a69.949 69.949 0 00-1.734-.421c-.47.289-.7.55-1 1-1.614-.243-3.793-.618-5.61.14h-.289v.578c3.14.88 7.524.387 9.211-1.297 3.84.563 5.297 3.262 8.906 4.454.254 1.144.329 2.625.145 3.886-4.395-.07-19.5-.289-19.117 2.88 3.469 2.226 14.074.78 19.117.722.144.324.289.66.434 1v.867c-10.594.047-21.188.094-31.782.145l.434-1.88c-3.012-1.902-8.742-1.23-12.074-.132-.41.71-.485 1.312-.149 2.156-9.195.047-18.406.094-27.605.145l.433-2.024c-1.273-1.804-7.187-2.926-9.195-.855-.484.902-.965 1.816-1.445 2.734-3.36-.05-6.707-.098-10.067-.144a39.388 39.388 0 00-.144-.723c-1.285-2.89-8.524-3.238-9.196.434-2.925.046-5.851.093-8.777.144 1.106-3.793-6.996-5.215-8.476-.144h-.723c.434-4.84.867-9.68 1.289-14.52.098-.145.191-.29.29-.434 1.265.684 3.335.77 5.32.711 1.144-1.168 2-2.289.867-3.879m142.628 26.461c-.578 1.63-1.144 3.254-1.722 4.891-5.32-.254-5.719-4.938-6.61-9.633-2.105-10.969.977-22.656 5.032-29.05 2.422 1.374 7.117 10.956 6.465 15.242-.989-1.012-1.227-2.336-2.442-3.164h-.867c-3.758 5.558-3.238 16.394.144 21.714M644.246 506.125c5.262-4.078 7.98-9.508 11.93-14.95 1.832-2.503 4.781-3.792 6.62-6.32v-.144c-1.456-1.3-4.823-1.086-7.62-1.012v-.144c6.117-1.688 11.015-5.262 15.386-8.766 2.868-2.312 4.047-6.812 8.333-7.621.046-.094.097-.191.144-.29-.531-.671-1.047-1.347-1.578-2.01-.145-.141-.29-.29-.434-.43 7.684-2.434 13.27-4.684 18.977-8.778 3.887-3.156 7.762-6.32 11.652-9.488.66-.516 5.672 3.683 6.899 4.601 5.597 4.188 14.195 11.317 23.297 11.508-.434.625-.868 1.239-1.301 1.867-.375.313-.41.278-.567.852 4.48 1.352 6.368 5.73 9.63 8.344 3.698 2.976 8.093 5.55 13.511 6.765v.145c-1.82.734-5.285.324-6.898.71-.098.243-.196.481-.29.724 1.407 2.394 4.516 3.312 6.188 5.464 1.77 2.637 3.54 5.274 5.32 7.899 4.551 5.816 10.75 8.875 17.11 12.953 1.105.808 2.203 1.629 3.308 2.445.098.18.18.375.278.567-2.47-.504-10.957-4.383-11.207-6.61-.676-.11-.942-.023-1.579.145-.144.191-.289.383-.433.578 1.047 2.3 2.105 4.598 3.156 6.898 4.488 9.04 6.68 12.399 15.238 17.395 4.891 2.855 14.7 4.863 15.676 11.21h-.144c-4.07-2.612-8.114-5.116-12.364-7.753-1.855-1.156-3.55-2.856-5.886-3.457h-.145c-.613 2.71 1.695 6.465 2.574 8.633 2.95 7.261 6.188 13.23 10.223 19.117v.144c-1.832-.601-3.746-2.023-6.043-1.59-.965 2.301 2.395 7.731 3.164 9.922 2.121 6.141 3.047 11.368 6.031 16.254 2.614 4.274 6.887 6.934 8.489 12.075v.578h-.145c-3.332-2.504-5.406-6.227-8.488-8.91-.238-.047-.48-.11-.707-.145-1.89 1.11-2.145 6.465-1.59 9.777.383 3.493.77 6.993 1.156 10.496 1.192 5.325 3.043 9.801 4.887 14.23v.145c-2.024-1.046-2.504-3.632-4.887-4.453-2.508 2.012-2.543 7.344-3.168 11.207-2.011 12.438 4.25 21.72 5.899 31.918h-.145c-2.648-1.937-5.308-5.25-6.187-8.91-.375-.18-.504-.254-1.145-.289-4.238 4.082-10.293 20.129-8.777 29.906.773 4.934 2.058 7.957 2.734 12.942-2.781-1.614-7.402-7.742-8.765-10.778-1.458-1.046-4.489-.78-6.766-1.007-.012-5.77-.672-11.414-1.574-16.688-.676-5.984-1.352-11.98-2.012-17.973-1.348-12.015-2.684-24.054-4.035-36.082-1.961-22.476-3.922-44.957-5.887-67.43-1.324-8.093-.96-16.34-2.164-23.874-.133-3.348-.277-6.707-.422-10.067-.555-7.933.672-13.722-2.734-18.117-.758-.965-2.059-1.988-3.742-2.012-4.625-.046-4.829 6.707-5.036 11.079-2.32-.688-4.742-2.735-5.609 1.007-.324-.058-.66-.105-1-.14-.758-1.133-1.047-3.121-1.445-4.614-1.516-1.683-8.79-1.398-7.899 4.465-.191.051-.383.098-.574.149-1.867-.989-2.469-3.59-3.89-5.035-3.731-.77-5.38.988-6.754 3.011h-.723c-1.035-1.011-1.875-2.566-2.73-3.734-4.458-1.145-4.47 2.422-6.61 4.312l-1.723.141c-.445-1.66-.289-4.441-1.734-5.176-1.25-.539-3.504-.011-4.453.29-1.133 1.577-1.254 3.84-1.867 6.042-.688.207-1.551.59-2.301.29-1.563-1.02-1.07-4.239-2.586-5.321-.723-.516-1.902-.59-2.879-.434-5.488.856-3.73 4.07-5.031 7.188-.207.312-.278.363-.578.578-.567-.098-1.313-.191-1.89-.289-1.528-6.766 4.382-23.656-5.587-22.43-7.656.942-1.515 16.64-4.02 23.442v.277h-.144c-.723-4.648-1.445-9.293-2.156-13.941-1.625-3.168-8.188-1.891-9.79.433-4.081 5.934 2.024 22.02-.71 29.04-2.406 6.175-6.57 11.87-9.918 17.25-1.914 3.6-3.84 7.187-5.754 10.788-1.977 3.371-5.297 7.465-5.18 12.508 3.098 2.094 9.39 1.817 14.52 1.723-4.887 39.726-9.774 79.469-14.664 119.2l-6.61.433c-2.03 2.359-3.586 5.066-5.465 7.62-.722.759-1.433 1.528-2.156 2.298l-.43.289h-.144c.684-3.13 1.805-6.153 2.441-9.918 1.504-8.91-5.656-23.649-9.34-27.61-.277-.3-.05-.168-.578-.289-1.18 2.989-2.77 4.528-3.878 6.903-.723.672-1.446 1.336-2.157 2.007h-.14c2.273-13.328 9.484-27.484 2.441-41.691-2.516.277-3.32 3-4.887 4.313h-.144c2.347-6.91 5.43-13.704 5.453-23.297.023-3.961.602-8.825-1.434-10.79h-.433c-2.817 1.712-4.153 5.66-7.043 7.493-.48.469-.961.949-1.446 1.43h-.128c.636-5.239 5.394-8.055 7.761-11.93 1.93-3.168 3.59-7.008 4.746-10.785.516-2.301 1.047-4.602 1.579-6.903.902-2.504 3.343-5.754 2.875-8.773-2.192-1-4.622 1-6.332 1.59 1.253-1.785 2.492-3.555 3.746-5.325 2.972-5.007 4.847-10.605 7.043-16.398.746-1.973 1.84-4.02 1.863-6.605-2.13.226-3.418 1.765-4.887 2.73-2.539 1.531-5.082 3.07-7.621 4.602-1.723 1.238-3.441 2.492-5.176 3.73-.144.145-.289.3-.422.434-1.132-4.313 9.524-8.61 12.653-10.211 9.355-4.754 13.242-9.64 17.543-19.551.996-2.25 2.008-4.504 3.008-6.754-.243-.238-.481-.48-.711-.723a18.79 18.79 0 01-.434-.144c-.29.05-.578.098-.867.144-.446 2.567-8.09 5.817-10.93 6.899h-.133c1.227-2.418 10.774-7.5 13.508-9.633m-8.2-2.297c.532-.648 4.684-1.238 5.755-2.156 4.289-3.684 3.988-10.27 10.21-12.219.048-.191.094-.387.145-.578-1.527-.336-3.07-.676-4.597-1v-.145c1.562-1.77 5.199-1.214 7.617-2.152.965.047 1.918.082 2.879.129h.277v.145c-3.394 1.675-5.598 6.742-7.754 9.777-3.492 4.91-7.61 8.055-14.242 9.922-.191-.133-.383-.29-.566-.422.085-.434.183-.867.277-1.3m4.61-26.161c3.757-6.371 9.73-10.895 15.374-15.387h.434c.422.88.195 2.047.144 3.313-.238-.207-.468-.387-.722-.594-.516 1.832-1.047 3.648-1.574 5.469a4.82 4.82 0 00-.434.156l-.434-1.734a4.59 4.59 0 01-.133-.434h-.289c-1.734 1.406-2.695 3.77-4.468 5.176-3.285 2.637-11.242 6.793-5.309 12.363-.492.375-1.637.711-2.312.434-2.633-1.696-1.625-6.489-.278-8.762m27.32-6.625l2.297-2.441c-.671-.387-1.347-.77-2.007-1.157a3.05 3.05 0 01-.145-.277c1.625-.238 3.25-.48 4.887-.723 1.613.797-2.59 4.746-3.313 5.465-4.082 4.082-9.57 7.996-16.816 8.766.105-.926-.52-1.528-.29-2.586.712-1 1.434-2.012 2.157-3.012 6.426 1.012 9.05-2.082 13.23-4.035m15.383-22.137c2.399-.77 4.793-1.531 7.188-2.3h.566c.89 2.12-2.383 4.695-3.441 6.03-3.938 5.009-8.465 9.524-16.399 10.5v-.144c3.528-3.758 9.09-5.308 11.368-10.355v-.567c-4.094-.492-11.38 6.118-14.664 7.91h-.145c2.02-4.648 10.52-9.125 15.527-11.074m6.899-12.941l.855-.29c1.508.192 2.059.735 2.59 1.864.047 2.059-.71 2.348-2.012 3.024-1.625-.063-2.203-.711-2.73-1.868-.027-1.562.422-2.117 1.297-2.73m6.324 5.754c2.453.226 3.418 1.648 5.176 2.441.336.387.672.774 1.012 1.145-.012.023-6.696 3.793-7.188 4.035.59-2.238 1.336-4.504 1-7.621m16.25 3.164c1.11-1.516 3.516-3.309 5.887-3.453-.047 2.816.062 4.933 1.011 6.898v.145c-2.394-.891-4.152-2.95-6.898-3.446zm8.91-7.617c.324-.88.793-1.075 1.446-1.59 2.73-.156 3.44 1.492 2.585 3.597-1.128.797-1.984.926-3.453.434-.398-.59-1.023-1.457-.578-2.441m25.16 20.546v.145c-4.886-1.805-8.379-6.465-14.23-7.332h-.145c-.047.098-.093.195-.144.29.312 2.913 8.453 8.753 11.078 9.776.047.098.098.196.144.29-10.257-.348-15.16-8.153-19.84-14.231.094-.29.18-.578.278-.867 8.484.601 18.937 6.586 22.86 11.93m13.085 14.964c1.82 1.625 3.649 3.254 5.469 4.891.383.48.77.95 1.14 1.434-11.507-1.711-19.042-7.262-25.449-14.102.047-.227.11-.469.145-.71 1.832.147 3.648.288 5.465.437-.551 3.812 8.262 9.714 13.23 8.05m-3.73-11.941c.699-.422 1.12-.469 1.578-1.145 4.742 1.325 16.566 13.086 17.539 18.399.398 2.14-.926 2.898-1.297 4.32-.883.492-1.484.277-2.723.133 2.926-6.223-3.984-8.113-6.62-11.64-3.383-4.516-.903-8.407-8.477-9.923zm22.285 38.105c.094.579.191 1.157.277 1.72-1.035 1.312-6.695-1.579-7.61-2.153-6.21-3.88-9.679-11.09-14.808-16.098v-.144c.18-.047.371-.098.567-.145 3.707 0 12.144 1.059 14.097 2.734-1.953.528-6.03-.484-8.488-.144-.098.094-.191.191-.289.289.047.145.098.29.145.434 1.191 1.683 4.18 1.996 5.464 3.73 3.024 4.094 3.239 10.496 10.645 9.777m2.73-22.718c5.817 7.297 15.75 19.214 10.356 32.058h-.434c-1.156-1.984-2.78-4.949-2.168-8.472.23-1.313.735-3.094.434-4.891-.793-4.84-1.707-8.305-4.453-11.074-1-1-1.805-2.07-3.446-2.446-.238.485-.48.965-.722 1.446-.528.48-1.059.949-1.574 1.433-1.157-3.132.937-6.117 2.007-8.054m19.7 54.777v.578h-.145c-9.031-5.094-15.254-6.586-21.285-15.098-.953-1.347-2.203-2.539-2.445-4.597 2.527 1.36 7.824 3.539 9.777 5.465l.14.578c-.913-.18-1.792-.434-2.585 0-.52.238-.625.324-.856.855-.047.192-.097.383-.144.578 4.129 1.735 5.02 4.453 8.199 6.465 3.598 2.313 6.512 1.805 9.344 5.176m-.868-27.594c.735.399 2.672 5.117 3.165 6.176 3.648 7.91 6.949 12.703 4.023 23.297-.29.094-.566.191-.856.277-1.011-.746-1.664-1.11-2.59-2.156.325-2.25 2.06-4.117 1.434-7.332-.82-4.262-3.863-7.055-4.164-11.64-.965.226-1.578.827-1.867 1.718-.145.098-.29.195-.434.29-1.265-2.153.23-8.391 1.29-10.63m9.195 56.067c-.145.191-.278.386-.418.578-5.324-.387-12.32-12.82-14.953-17.399-.93-1.586-3.121-4.656-2.59-6.894 3.14.863 7.008 4.129 9.344 6.176-1.266.273-3.121.394-4.313.718-.047.098-.094.196-.144.29 2.976 1.495 3.613 4.59 5.464 7.187 1.891 2.676 4.516 3.96 7.465 5.598.352.89.762 2.734.145 3.746m5.324 25.449c-.145 1.191-.29 2.398-.422 3.59v.3c-2.555-.347-4.59-2.914-5.898-4.613-3.399-4.344-9.742-15.844-9.344-23.004 2.73.88 6.84 5.453 8.621 7.621-.05.141-.098.29-.144.43-.641.606-2.938.242-3.88.29-.093.097-.19.194-.288.288a949.383 949.383 0 003.168 4.024c2.613 4.187 3.082 9.425 8.187 11.074m-6.754 31.34c-2.676-6.106-6.527-15.375-4.601-24.73 3.289 2.613 7.945 5.972 9.343 10.355-1.468-.93-3.105-1.23-5.465-1 2.551 5.261 1.551 16.097 7.91 17.527.047 2.012-.16 4.012-1.433 4.758-3.574-.11-4.625-4.336-5.754-6.91m2.008 36.523c-.25 1.305-1.082 3.336-2.442 3.59-4.44-8.57-8.44-21.14-5.035-33.637 3.422 2.696 6.239 8.61 7.91 12.942v.144c-1.445-.914-2.296-2.18-4.597-2.3.012 6.417 1.48 15.41 4.164 19.261m5.758-123.074h.574c1.93 9.246 5.695 17.434 2.734 28.328-.687 2.492-1.07 4.406-3.168 5.453-.191-.047-.382-.094-.574-.144-.953-.578-1.433-2.922-2.012-3.875.278-3.168 2.864-4.36 3.442-8.344.664-4.406-2.516-8.297-.711-12.219-2.07.383-2.777 1.567-3.887 2.875-1.469-3.695 2.469-9.992 3.602-12.074m7.328 44.57c.531-2.011 1.062-4.02 1.578-6.031-1.457.203-2.492.625-3.586 1.145h-.144c.648-3.348 2.89-6.008 4.453-8.622 1.53 1.336 1.867 4.344 2.445 6.61 2.805 10.894-.64 21.5-6.61 26.738-.195-.047-.386-.098-.578-.144-1.914-.95-1.48-4.239-2.011-6.61 6.238.024 3.578-7.644 4.453-13.086m9.777 20.852c.024.023-1.746 6.187-2.012 7.62-1.168 6.247-4.957 20.767-9.484 22.86-.34.051-.676.086-1.012.149-1.047-.93-1.867-1.914-2.011-3.746 3.191-1.793 5.25-6.395 6.175-10.356.602-2.539.168-6.078 2.446-6.894-1-.895-3.106-.543-4.313-.149 2.614-5.355 5.215-6.57 10.211-9.484m-5.754 30.48v-.14c2.637-4.735 4.961-9.598 6.477-15.676 1.601-6.418 1.637-13.34 5.32-17.543-.047-.094-.094-.192-.144-.29-4.817-1.202-8.97.63-11.797 2.59.77-3.538 3.648-5.921 4.754-9.488 2.492-8.066-.672-16.89-2.297-23.293-.11-2.445-.196-4.89-.29-7.332-.097-.144-.195-.289-.288-.433-2.086.168-2.578 1.457-4.035 2.152-.723.723-1.434 1.445-2.157 2.168h-.144c.601-3.285 2.48-6.933 1.722-11.363-1.336-7.875-3.996-13.559-3.441-22.43-4.492-1.191-7.117 4.672-9.344 6.61.035-3.145 1.012-7.153.145-10.34-2.336-8.5-7.801-13.871-9.5-23.586-.047-.098-.094-.192-.14-.29h-.427c-2.441 1.41-3.234 4.817-4.886 7.044a9.965 9.965 0 01-.145.289c-.094-1.82-.191-3.649-.289-5.453-.746-3.903-1.707-7.668-3.453-10.657-2.203-3.754-10.39-13.449-10.79-17.25-.237-.05-.468-.097-.706-.144-1.41.601-3.215 1.719-3.602 3.308-.144.098-.289.196-.433.29-4.02-5.239-8.153-9.946-13.364-13.954-2.394-1.828-6.539-4.238-7.054-7.765a7.418 7.418 0 01-.567-.133c-2.093 1.11-2.093 3.996-2.011 7.187h-.29c-2.671-6.523-13.757-12.328-20.707-14.953-2.105-.48-4.222-.96-6.332-1.445l-.433-.285c.902-1.266 2.37-2.047 3.023-3.59 1.684-3.984-2-7.223-6.031-6.188-6.262 1.625-10.824 5.934-15.531 9.2-4.551-3.395-9.38-7.54-15.531-9.2-4.13-1.109-8.114 2.036-6.754 6.188.613 1.879 2.168 2.816 3.3 4.164-.93 1.012-3.132.832-4.601 1.3-2.73 1.145-5.465 2.302-8.188 3.446-3.84 2.238-7.836 4.766-10.785 7.91-1.492 1.828-2.972 3.649-4.453 5.465-.05.098-.098.192-.144.29-1.364-3.419.613-4.962-2.024-7.477h-.566c-3.625 7.21-10.703 10.691-15.532 16.675-1.66 2.059-4.082 3.586-4.886 6.477-.145.094-.29.18-.434.277-.601-1.687-2.312-3.48-4.308-3.734h-.145c-3.89 11.906-15.46 18.012-14.098 34.937h-.289c-.902-2.77-2.832-5.609-4.742-7.476-.242.05-.484.098-.715.144a1506.2 1506.2 0 01-.43 4.168c-2.011 7.282-7.152 13.23-8.777 20.852-.687 3.25.301 6.68.434 9.629-2.84-2.203-4.106-6.598-9.055-6.61-.422 1.747.578 4.563.145 6.899-.914 4.89-4.176 13.316-3.309 18.683.504 3.11 1.297 5.829 1.863 8.489h-.144c-1.793-1.395-3.215-4.043-6.031-4.309-.094.145-.192.29-.29.434-.046 2.394-.093 4.793-.144 7.187-1.395 6.367-4.367 14.867-2.012 22.574 1.145 3.743 4.082 6.293 4.89 9.918-2.6-2.023-6.898-3.695-11.507-2.445.59 1.098 1.625 1.856 2.152 3.168 2.266 5.55 2.614 12.559 4.465 18.395 1.313 4.168 3.434 7.62 5.324 11.078v.144c-3.07-.699-6.128-3-9.644-2.59-.047.098-.098.196-.145.29 1.88 4.261 2.66 9.343 4.18 14.23 2.43 7.863 6.043 13.184 10.774 18.555v.14c-1.868-.504-5.743-1.695-7.477-.14-.48.273-.531.418-.711.996 3.348 3.695 3.793 11.426 5.887 16.254 3.445 7.898 8.62 13.843 13.234 20.418-4.844 3.55-8.55 9.726-10.5 16.097-4.023 13.18-.625 32.035 7.621 37.68 10.512 7.176 21.645.746 20.852-12.375 19.695 7.852 39.078 14.676 83.215 14.555 43.16-.11 66.261-6.91 82.707-14.555h.722c-2.082 13.508 11.39 19.059 20.985 12.23 8.27-5.886 11.34-25.113 7.187-38.246-1.324-4.238-3.613-7.789-6.031-10.93-1.191-1.542-2.578-3.66-4.453-4.456v-.145c6.547-7.176 12.457-13.734 16.383-23.73 1.59-4.032 2.203-13.832 5.464-15.805a66.87 66.87 0 00-.144-.867c-2.14-1.469-5.742-1.254-8.34-.29h-.148c.918-.913 1.832-1.816 2.734-2.734 1.203-1.718 2.395-3.453 3.602-5.175 3.343-5.645 4.175-12.125 6.32-19.262.77-2.3 1.539-4.602 2.297-6.899-.047-.097-.094-.195-.13-.289-3.6-.543-6.741 2.008-9.933 2.586" fill-rule="evenodd" fill="#be8b40"/><path d="M359.332 981.723c-5.105 1.437-10.148 2.59-15.144 2.59-11.954 0-22.602-6.122-22.602-19.68 0-14.387 10.312-21.711 23.39-21.711 4.864 0 9.407 1.039 13.66 3.531-.784 1.824-1.355 3.867-1.585 5.824h-.801c-2.602-3.863-6.66-5.89-11.164-5.89-9.457 0-14.086 8.715-14.086 18.43 0 10.038 4.96 16.038 13.59 16.038 2.832 0 4.863-.796 6.234-1.62V965.73c1.406.125 2.824.29 4.235.29 1.437 0 2.84-.165 4.273-.29v15.993M373.535 970.008c0 3.687.453 11.488 5.383 11.488 4.375-.129 5.605-7.16 5.605-13.496 0-5.621-1.41-10.355-5.234-10.355-4.566 0-5.754 5.539-5.754 12.363m-8.379.164c0-9.063 5.172-15.129 13.82-15.129 8.567 0 13.926 5.32 13.926 13.879 0 8.758-5.097 15.172-13.984 15.172-8.379 0-13.762-5.364-13.762-13.922M410.746 975.602c2.442-6.567 4.836-13.227 6.922-20.02.738.09 1.473.148 2.273.148.723 0 1.461-.058 2.188-.148.078.57-.219.973-.379 1.375a83.831 83.831 0 00-2.895 6.766c-2.535 6.453-5.261 12.867-7.418 19.847-.976-.12-1.925-.297-2.89-.297-.965 0-1.93.176-2.89.297-3.173-9.406-6.29-18.53-9.985-27.988 1.48.09 2.914.277 4.379.277 1.476 0 2.89-.187 4.347-.277l6.348 20.02M441.852 966.828c0-3.074-.348-9.183-3.747-9.183-4.097 0-4.527 6.109-4.632 9.183zm-8.38 2.774c-.167 5.949 1.852 10.734 7.876 10.734 2.324 0 4.859-1.098 6.625-2.586l.695.523-1.273 3.223c-2.254 1.613-5.32 2.598-8.082 2.598-9.407 0-14.22-5.778-14.22-15.168 0-8.106 4.743-13.883 12.958-13.883 8.906 0 12.242 6.297 11.625 14.559h-16.203M455.215 955.582c1.316.094 2.613.281 3.926.281 1.293 0 2.601-.187 3.902-.281v7.16c1.187-4.219 3.691-7.703 9.238-7.703-.289 2.715-.453 5.39-.289 7.867l-.492.457c-.734-.511-1.992-.761-2.898-.761-2.493 0-4.54 1.336-5.215 3.824-.516 1.676-.344 4.836-.344 6.703v10.445c-1.3-.12-2.61-.297-3.902-.297-1.313 0-2.61.176-3.926.297v-27.992M476.574 955.582c1.254.094 2.5.281 3.801.281 1.262 0 2.496-.187 3.754-.281v4.27c2.266-2.727 5.195-4.813 8.707-4.813 7.148 0 8.945 4.684 8.945 11.606v16.93c-1.304-.122-2.597-.298-3.914-.298-1.277 0-2.61.176-3.887.297v-14.386c0-5.372-.68-9.29-4.656-9.29-4.926 0-4.926 6.747-4.926 10.41v13.266c-1.296-.12-2.593-.297-3.902-.297-1.293 0-2.61.176-3.922.297v-27.992M507.965 955.582c1.316.094 2.594.281 3.91.281 1.305 0 2.613-.187 3.926-.281v4.316c1.629-2.773 5.02-4.859 8.3-4.859 3.579 0 6.352 1.805 7.536 5.266 1.996-3.059 4.89-5.266 8.62-5.266 6.595 0 8.833 3.93 8.833 10.137v18.398c-1.293-.12-2.606-.297-3.89-.297-1.313 0-2.61.176-3.927.297v-15.656c0-3.852-.336-8.02-4.125-8.02-4.003 0-4.707 2.606-4.707 6.176v17.5c-1.308-.12-2.601-.297-3.906-.297-1.293 0-2.605.176-3.898.297v-15.656c0-3.852-.348-8.02-4.145-8.02-3.91 0-4.691 3.637-4.691 6.82v16.856c-1.313-.12-2.621-.297-3.926-.297-1.316 0-2.594.176-3.91.297v-27.992M570.918 966.828c0-3.074-.348-9.183-3.742-9.183-4.125 0-4.531 6.109-4.637 9.183zm-8.379 2.774c-.176 5.949 1.848 10.734 7.863 10.734 2.32 0 4.88-1.098 6.641-2.586l.656.523-1.234 3.223c-2.262 1.613-5.324 2.598-8.11 2.598-9.402 0-14.21-5.778-14.21-15.168 0-8.106 4.75-13.883 12.976-13.883 8.887 0 12.238 6.297 11.602 14.559h-16.184M583.59 955.582c1.254.094 2.508.281 3.805.281 1.246 0 2.496-.187 3.73-.281v4.27c2.281-2.727 5.215-4.813 8.73-4.813 7.137 0 8.95 4.684 8.95 11.606v16.93c-1.293-.122-2.61-.298-3.903-.298-1.316 0-2.609.176-3.918.297v-14.386c0-5.372-.672-9.29-4.644-9.29-4.926 0-4.926 6.747-4.926 10.41v13.266c-1.297-.12-2.605-.297-3.91-.297-1.29 0-2.582.176-3.914.297v-27.992M624.57 975.727c0 3.976.242 6.12 5.278 4.793v2.25c-2.11.804-4.153 1.324-5.895 1.324-5.91 0-7.203-3.977-7.203-9.344v-15.484h-3.852c.157-1.344.157-2.36 0-3.684h3.852v-6.535c2.563-1.04 5.105-2.258 7.82-3.563v10.098h4.813a14.532 14.532 0 000 3.684h-4.813v16.46M656.852 970.008c0 3.687.464 11.488 5.375 11.488 4.37-.129 5.605-7.16 5.605-13.496 0-5.621-1.414-10.355-5.195-10.355-4.594 0-5.785 5.539-5.785 12.363m-8.38.164c0-9.063 5.153-15.129 13.825-15.129 8.55 0 13.93 5.32 13.93 13.879 0 8.758-5.102 15.172-14 15.172-8.368 0-13.754-5.364-13.754-13.922M678.61 959.266c.16-1.22.16-2.309 0-3.684h4.175c.465-3.129 1.192-6.535 2.988-9.59 2.743-5.094 5.918-7.004 11.707-6.02-.39 2.426-.39 5.208-.246 7.348l-.722.285c-1.426-.753-3.34-1.613-4.985-1.613-.968 0-2.379 0-3.12.73-.329.38-.688.653-.688 1.239 0 1.543 1.761 5.922 2.5 7.621h5.726c-.18 1.375-.18 2.29 0 3.684h-5.328v24.308c-1.304-.12-2.617-.297-3.91-.297-1.312 0-2.61.176-3.922.297v-24.308h-4.176M724.441 962.55c5.938.59 8.895-2.3 8.895-8.253 0-.809-.074-1.676-.281-2.883-.914-4.8-5.168-4.316-8.614-4.316zm-8.5-18.59H728c2.672 0 6.809-.1 9.18 1.161 3.222 1.727 4.918 4.328 4.918 8.258 0 5.656-3.547 9.226-8.836 10.375 3.117 5.547 6.64 10.871 10.043 16.238l2.215 3.582c-1.711-.125-3.422-.297-5.165-.297-1.703 0-3.406.172-5.101.297l-6.742-12.125c-.848-1.554-2.422-4.215-3.68-6.41h-.39v18.535c-1.422-.125-2.844-.297-4.27-.297-1.395 0-2.817.172-4.23.297v-39.613M763.023 968.445c-1.43.64-3.98 1.16-5.605 2.496-1.473 1.2-1.828 2.93-1.828 4.786 0 2.14.691 4.605 3.11 4.605 3.46 0 4.206-3.402 4.323-6.281zm7.813 10.043c0 2.137.613 2.832 2.887 2.727v1.324c-1.36.621-3.512 1.555-5.086 1.555-2.676 0-4.727-1.664-5.614-4.207-1.472 2.652-4.324 4.207-7.253 4.207-4.657 0-8.102-2.598-8.102-7.61 0-5.492 3.305-7.129 10.367-8.847 1.422-.344 2.89-.703 4.125-1.492.68-.653.863-1.395.863-2.247 0-2.789-2.777-5.093-5.375-5.093-3.644 0-6.586 2.535-6.921 3.566h-.387l-.746-3.457c2.656-2.535 6.933-3.871 10.48-3.871 4.774 0 10.762 1.98 10.762 7.75v15.695M778.645 976.254c1.035 2.879 3.418 4.894 6.468 4.894 1.992 0 4.36-1.503 4.36-3.527 0-5.418-13.098-3.336-13.098-13.402 0-5.871 4.598-9.176 9.758-9.176 2.844 0 5.96.934 8.21 2.715-.495 1.734-.956 3.394-1.355 5.097h-1.59c-.445-2.492-2.832-4.847-5.359-4.847-2.062 0-4.207.96-4.207 3.328 0 5.598 13.305 2.77 13.305 13.52 0 5.374-4.078 9.242-10.93 9.242-2.789 0-5.508-.754-7.832-2.375.348-1.832.633-3.633.867-5.47h1.403M834.41 968l-5.043-13.465-5.32 13.465zm-11.918 3.512c-1.46 4.379-2.89 7.96-3.965 11.941-.906-.043-1.765-.176-2.636-.176-.926 0-1.836.133-2.743.176l16.22-40.012c.73.13 1.413.164 2.14.164.73 0 1.418-.035 2.168-.164l15.781 40.133c-1.617-.12-3.203-.297-4.86-.297-1.636 0-3.222.176-4.863.297-1.328-4.273-2.504-8.187-4.02-12.062h-13.222M861.992 983.574c-1.289-.12-2.594-.297-3.89-.297-1.32 0-2.602.176-3.914.297v-43.883c1.312.13 2.593.282 3.914.282 1.296 0 2.601-.153 3.89-.282v43.883M885.848 943.96c1.398.114 2.832.302 4.246.302 1.406 0 2.84-.188 4.246-.301v18.082c5.043-5.953 9.972-11.973 14.734-18.082 1.008.113 2.035.3 3.043.3.98 0 1.988-.187 3.012-.3v.457l-9.27 9.941c-1.773 1.895-3.414 3.926-5.406 6.067l15.25 22.344v.804c-1.437-.12-2.832-.297-4.25-.297-1.43 0-2.828.176-4.258.297l-12.855-18.347v18.347c-1.406-.12-2.84-.297-4.246-.297-1.414 0-2.848.176-4.246.297v-39.613M927.25 959.547c2.008-2.258 5.313-4.508 8.39-4.508 2.622 0 4.743.824 6.63 2.672 2.117 2.074 2.386 4.488 2.386 7.324v18.54c-1.293-.122-2.613-.298-3.918-.298-1.293 0-2.593.176-3.906.297v-14.386c0-5.372-.68-9.29-4.637-9.29-5.218 0-4.945 6.704-4.945 10.41v13.266c-1.297-.12-2.594-.297-3.91-.297-1.293 0-2.598.176-3.883.297v-43.879c1.285.121 2.59.282 3.883.282 1.316 0 2.613-.16 3.91-.282v19.852M964.535 968.445c-1.437.64-3.95 1.16-5.613 2.496-1.477 1.2-1.79 2.93-1.79 4.786 0 2.14.665 4.605 3.071 4.605 3.473 0 4.215-3.402 4.332-6.281zm7.824 10.043c0 2.137.63 2.832 2.88 2.727v1.324c-1.36.621-3.5 1.555-5.087 1.555-2.683 0-4.715-1.664-5.617-4.207-1.48 2.652-4.332 4.207-7.242 4.207-4.652 0-8.106-2.598-8.106-7.61 0-5.492 3.274-7.129 10.356-8.847 1.414-.344 2.894-.703 4.133-1.492.695-.653.86-1.395.86-2.247 0-2.789-2.766-5.093-5.384-5.093-3.636 0-6.574 2.535-6.902 3.566h-.414l-.73-3.457c2.671-2.535 6.914-3.871 10.472-3.871 4.777 0 10.781 1.98 10.781 7.75v15.695M980.117 955.582c1.309.094 2.586.281 3.918.281 1.293 0 2.602-.187 3.906-.281v27.992c-1.304-.12-2.613-.297-3.906-.297-1.332 0-2.61.176-3.918.297zm3.856-15.133c2.433 0 4.523 2.051 4.523 4.547 0 2.488-2.09 4.555-4.523 4.555-2.434 0-4.426-2.121-4.426-4.555 0-2.422 1.992-4.547 4.426-4.547M994.902 955.582c1.297.094 2.602.281 3.907.281 1.308 0 2.609-.187 3.91-.281v4.316c1.652-2.773 5.023-4.859 8.332-4.859 3.554 0 6.336 1.805 7.531 5.266 1.988-3.059 4.875-5.266 8.61-5.266 6.585 0 8.831 3.93 8.831 10.137v18.398c-1.296-.12-2.597-.297-3.898-.297-1.316 0-2.625.176-3.914.297v-15.656c0-3.852-.332-8.02-4.137-8.02-4.02 0-4.68 2.606-4.68 6.176v17.5c-1.312-.12-2.624-.297-3.925-.297-1.29 0-2.606.176-3.918.297v-15.656c0-3.852-.34-8.02-4.149-8.02-3.89 0-4.683 3.637-4.683 6.82v16.856c-1.301-.12-2.602-.297-3.91-.297-1.305 0-2.61.176-3.907.297v-27.992M1055.8 968.445c-1.417.64-3.96 1.16-5.6 2.496-1.466 1.2-1.829 2.93-1.829 4.786 0 2.14.691 4.605 3.121 4.605 3.45 0 4.192-3.402 4.309-6.281zm7.821 10.043c0 2.137.625 2.832 2.883 2.727v1.324c-1.34.621-3.516 1.555-5.106 1.555-2.644 0-4.691-1.664-5.597-4.207-1.465 2.652-4.309 4.207-7.25 4.207-4.64 0-8.11-2.598-8.11-7.61 0-5.492 3.293-7.129 10.368-8.847 1.433-.344 2.894-.703 4.132-1.492.672-.653.86-1.395.86-2.247 0-2.789-2.785-5.093-5.383-5.093-3.629 0-6.566 2.535-6.918 3.566h-.387l-.742-3.457c2.676-2.535 6.922-3.871 10.488-3.871 4.746 0 10.762 1.98 10.762 7.75v15.695M1078.348 959.547c1.984-2.258 5.324-4.508 8.394-4.508 2.61 0 4.742.824 6.613 2.672 2.102 2.074 2.383 4.488 2.383 7.324v18.54c-1.297-.122-2.605-.298-3.902-.298-1.316 0-2.606.176-3.906.297v-14.386c0-5.372-.684-9.29-4.649-9.29-5.207 0-4.933 6.704-4.933 10.41v13.266c-1.297-.12-2.61-.297-3.903-.297-1.308 0-2.613.176-3.918.297v-43.879c1.305.121 2.61.282 3.918.282 1.293 0 2.606-.16 3.903-.282v19.852M370.445 847.805c-3.234-1-6.082-4.153-9.047-5.782-3.109 1.957-5.52 4.454-8.511 6.434-3.504-1.316-6.598-3.836-9.446-6 1.63-2.629 5.68-6.117 8.922-7.746 3.239 1.398 5.399 4.133 8.367 5.887 3.235-1.868 5.387-4.692 8.223-6.891 3.512 1.863 6.48 4.164 9.453 6.461-2.16 2.82-5.261 5.117-7.96 7.637m16.32 43.832c.148 3.383-1.606 6.554-3.473 9.496h-3.41c-13.356 0-15.117-8.524-15.25-17.133-.54-.652-1.48-.969-2.547-.969-14.047 0-14.711 25.516-24.176 25.516-11.887 0-14.289-20.633-14.289-27.27 0-9.715 4.57-18.996 15.512-23.879 7.008-3.16 15.387-1.757 23.07-1.757 4.192 0 8.649-.446 12.172-2.297-1.363 5.793-17.688 4.933-22.824 4.933-16.207 0-23.492 10.137-23.492 22.336 0 4.922 2.843 17.68 11.074 17.68 7.422 0 11.738-25.418 26.043-25.418 5.82 0 4.465 4.813 4.465 7.867 0 7.301 6.07 10.242 13.652 10.344 1.066 0 2.27-.102 3.473-.207v.758" fill="#eb1c24"/><path d="M402.707 898.523c-1.074 1.41-1.621 3.043-1.758 4.684.953 1.098 1.203 3.164 3.242 3.164 2.293 0 3.63-1.633 3.63-3.394 0-1.625-2.407-4.575-4.712-4.454zm22.266 2.61h-2.844c-3.113 0-6.063-.446-9.168-.98.137 5.324-4.059 15.929-12.281 15.929-5.008 0-9.051-1.98-9.051-6.344 0-3.164 1.758-6.117 2.824-9.152-3.371.434-7.805.547-11.195.547-1.61 0-3.375.219-3.649-.34-.117-3.918 2.172-6.203 3.782-9.703 2.964 0 6.75-.11 9.996-.11 9.992 0 9.582-4.14 15.515-9.496h1.207c.563 8.516 6.348 9.606 14.864 9.606 1.34 0 4.172-.207 4.172.762-.11 3.398-3.086 6.113-4.172 9.28" fill="#eb1c24"/><path d="M454.938 926.973c-2.973-1.649-4.86-4.258-7.575-6.215-3.37.758-6.605 6.105-9.847 6.105-.954 0-6.88-6-6.88-6.55 0-1.512 7.56-6.43 9.59-6.868 1.473 2.196 4.442 3.492 5.919 5.668h.832c2.296-2.406 5.382-4.015 7.96-6.203 3.899.645 5.508 4.797 8.618 6.653-2.293 2.843-5.125 5.554-8.618 7.41m13.352-25.84h-3.379c-5.8 0-13.754-1.758-16.32-6.442-.527-.87-1.492-3.707-2.965-3.707-.684 0-1.633 1.75-1.746 2.078-3.399 5.782-11.879 8.07-19.317 8.07h-3.507c.132-3.823 2.562-7.194 3.922-10.046 1.601 0 2.836-.332 3.902-.332 9.855 0 17.426-5.332 21.601-12.094 3.122.317 2.692 12.219 15.512 12.219.664 0 1.363.207 2.297.207 2.3 0 3.645-.332 3.527.766-.828 2.632-1.09 6.992-3.527 9.28" fill="#eb1c24"/><path d="M486.926 862.285c-2.715-2.5-5.68-4.566-8.242-7.086 2.043-2.828 5.808-5.011 8.777-7.195 3.234 1.871 5.793 4.14 8.238 6.656-2.168 2.82-5.137 5.883-8.773 7.625m38.058 25.309c-24.023 2.976-21.855 14.398-56.699 13.539-2.965-.113-4.566-.219-4.566-.219 1.734-3.828-.27-.535 4.566-9.824 13.375 0 27.809.433 39.008-5.668-4.86-1.625-12.973-2.723-18.211-2.504 3.77-10.91 10.793-18.656 24.156-22.492 2.02-.535 7.29-1.293 7.29-3.567 0-6.89-2.688-12.007-4.708-18.437-4.89 5.789-1.234 13.844-6.105 19.719l-.645-.532c.266-12.007 4.035-23.777 11.457-34.144l1.203.883c2.305 7.53 5.407 15.148 5.407 22.906 0 21.93-17.422 17.441-27.535 26.07 7.843 2.063 15.933 4.14 24.3 4.14 3.508 0 6.903-.456 10.262-1.206.27 1.75-7.422 9.61-9.18 11.336M560.203 861.973c0 5.882-.117 15.39-3.113 20.617h-.918l.105-3.496c.278-9.063-1.734-18.024-1.734-27.055 0-7.289 1.348-14.82 6.066-21.273 8.77 5.695 15.657 31.312 15.657 40.27 0 17.429-8.774 33.359-33.067 33.359-2.566 0-5.117-.227-7.55-.434 2.55-2.281 7.433-2.39 10.648-4.031 11.344-5.79 24.984-13.528 24.984-25.754 0-9.801-7.57-18.735-11.61-27.7-.96 5.13.532 10.38.532 15.497M673.195 900.793c-1.636 12.996-14.187 26.285-31.613 26.285-17.012 0-26.727-10.793-26.727-23.77 0-31.3 29.97-25.53 45.903-43.085v2.187c0 11.453-40.348 12.106-40.348 37.738 0 10.247 12 16.477 23.613 16.477 7.282 0 21.852-4.492 21.852-11.465 0-5.226-2.43-10.031-6.32-14.074 2-3.168 4.168-6.203 7.402-8.492 2.313 5.222 8.926 8.492 15.398 8.492h3.375l-3.375 10.047c-2.703 0-5.535 0-9.16-.34" fill="#eb1c24"/><path d="M699.371 900.586c-1.75 0-3.52.434-5.406.434-1.082 0-2.149-.329-2.965-.977-2.852.648-5.68.977-8.516.977-1.761 0-3.379.117-5.132.117.937-4.051 2.832-7.313 5.003-10.051 2.028 0 4.047.125 5.946.125 10.914 0 7.96-7.957 11.73-9.727.25.344.414.77.414 1.215 0 1.52-1.074 6.215-1.484 7.63.672.323 1.484.425 2.422.425 6.613 0 7.16-7.188 10.523-10.45.68-.226 1.23.438 1.489.872-.403 6.328-6.192 19.41-14.024 19.41M728.918 824.902h-1.348l-.133-.441c0-1.75 11.86-4.59 15.391-7.207-.816-.531-1.765-.77-2.695-.77-2.168 0-4.055.77-6.219.77-2.164 0-3.781-1.29-3.781-3.063 0-3.914 4.328-8.496 7.98-10.89 2.02-1.422 6.332-2.188 8.871-2.934l.559.64c-2.402 8.196-10.004 5.024-11.465 8.837.805.543 1.75.664 2.832.664 1.766 0 3.496-.438 5.258-.438 1.066 0 3.648.653 3.648 1.73 0 7.645-10.277 13.31-18.898 13.102M737.145 861.973c0 5.882-.122 15.39-3.094 20.617h-.95l.13-3.496c.265-9.063-1.735-18.024-1.735-27.055 0-7.289 1.344-14.82 6.047-21.273 8.781 5.695 15.668 31.312 15.668 40.27 0 17.429-8.77 33.359-33.063 33.359-2.578 0-5.12-.227-7.566-.434 2.566-2.281 7.43-2.39 10.668-4.031 11.332-5.79 24.95-13.528 24.95-25.754 0-9.801-7.544-18.735-11.606-27.7-.922 5.13.55 10.38.55 15.497M800.719 883.254c-.946-.664-2.309-1.11-3.657-1.11-.265 0-2.285.66-2.824.77-10.66 12.977-13.761 32.73-37.926 32.73-6.878 0-14.042-.445-20.37-2.628 19.163-3.493 36.288-7.856 47.09-22.137 4.046-5.457 8.515-19.317 18.093-19.317.816 0 3.238.766 3.238 1.637 0 3.617-2.308 6.672-3.644 10.055M894.121 847.805c-3.242-1-6.078-4.153-9.058-5.782-3.098 1.957-5.532 4.454-8.497 6.434-3.5-1.316-6.586-3.836-9.433-6 1.613-2.629 5.648-6.117 8.894-7.746 3.235 1.398 5.391 4.133 8.364 5.887 3.234-1.868 5.406-4.692 8.238-6.891 3.516 1.863 6.492 4.164 9.445 6.461-2.148 2.82-5.238 5.117-7.953 7.637m16.344 43.832c.133 3.383-1.653 6.554-3.528 9.496h-3.363c-13.367 0-15.12-8.524-15.265-17.133-.532-.652-1.47-.969-2.563-.969-14.02 0-14.695 25.516-24.16 25.516-11.879 0-14.316-20.633-14.316-27.27 0-9.715 4.597-18.996 15.535-23.879 7.008-3.16 15.402-1.757 23.074-1.757 4.191 0 8.648-.446 12.144-2.297-1.343 5.793-17.675 4.933-22.812 4.933-16.191 0-23.465 10.137-23.465 22.336 0 4.922 2.832 17.68 11.059 17.68 7.425 0 11.722-25.418 26.043-25.418 5.82 0 4.476 4.813 4.476 7.867 0 7.301 6.055 10.242 13.614 10.344 1.074 0 2.285-.102 3.527-.207v.758" fill="#eb1c24"/><path d="M942.7 890.984c-5.813.977-13.208 1.11-18.212 3.813-5.937 3.394-11.078 6.66-18.625 6.336l-2.172-.113c.407-3.286 1.899-6.223 3.246-9.93 3.235 0 6.883-.211 9.72-.52 10.652-1.215 4.327-7.652 9.566-12.015 3.27 1.52 7.035 2.183 10.664 2.183 3.129 0 6.23-.558 9.066-1.543-.27 4.059-1.765 7.965-3.254 11.79M993.594 901.133h-3.11c-3.785 0-7.562-.88-9.98-3.274-4.457 9.7-13.098 17.883-26.883 17.883-5.8 0-11.71-1.414-16.59-4.137v-.55l3.114.117c12.53.207 26.32-3.277 33.87-11.883.532-.57 2.942-3.613 2.942-4.035 0-.563.309-2.645-.777-2.645-1.758 0-4.184 1.536-7.172 1.536-2.543 0-3.774-1.844-3.774-3.817 0-3.168 7.45-12.863 11.895-12.863 4.84 0 6.875 5.789 6.875 8.824 0 4.145 4.988 4.797 9.59 4.797 1.484 0 3.781-.207 3.906.875-.402 3.39-2.559 7.09-3.906 9.172" fill="#eb1c24"/><path d="M1032.738 859.227l-.55-.52c1.898-8.062 5.68-15.937 8.515-23.789-8.117 3.273-14.437 10.152-23.226 13.207 1.203 8.172-4.45 38.39 8.363 42.629 1.234.332 3.512.332 5.676.332.671 0 1.62-.106 2.425-.106l-2.425 10.153h-5.133c-6.746 0-11.043-5.664-13.61-9.922-4.05 4.68-8.125 9.922-16.078 9.922-1.75 0-4.597.32-5.824-.653.426-3.394 1.637-6.34 2.723-9.394h4.304c5.278.125 10.282-1.531 13.778-4.68-.137-5.664.27-11.355.27-17.02 0-4.245-.134-8.5-1.208-12.769 1.207-2.496 2.957-4.887 4.45-7.312-6.747 1.34-13.508 3.402-20.512 3.402-2.168 0-4.328-.23-6.496-.562.14-1.297 1.511-1.5 2.691-1.743 13.113-1.945 49.832-17.875 55.899-27.37l.812 1.847c-5.812 11.129-7.965 23.46-14.844 34.348" fill="#eb1c24"/><path d="M1060.66 878.223c-6.324 0-11.457 6.554-12.95 10.91 7.161-1.86 15.368-4.25 21.313-8.063-2.144-1.976-5.25-2.847-8.363-2.847m-18.34 21.605c-.55 4.57-3.39 8.723-4.332 13.3l-1.883-.991c.676-3.805 1.082-7.625 2.153-11.344-3.645.434-7.285.34-10.926.434l-.547-.641c1.09-3.274 2.988-6.332 4.727-9.496 0 0 1.761.12 1.894.12 3.086.313 6.074-.456 8.914-1.108 2.278-6.75 10.532-22.668 20.926-22.668 10.774 0 14.555 10.03 26.988 7.953.274.433.41 1.426.41 1.738 0 1.738-3.664 6.879-5.41 7.965-16.21.664-27.261 12.336-42.914 14.738" fill="#eb1c24"/></svg>